G04 #@! TF.GenerationSoftware,KiCad,Pcbnew,(5.1.2)-1*
G04 #@! TF.CreationDate,2019-12-31T23:39:51-05:00*
G04 #@! TF.ProjectId,modulator,6d6f6475-6c61-4746-9f72-2e6b69636164,rev?*
G04 #@! TF.SameCoordinates,Original*
G04 #@! TF.FileFunction,Copper,L1,Top*
G04 #@! TF.FilePolarity,Positive*
%FSLAX46Y46*%
G04 Gerber Fmt 4.6, Leading zero omitted, Abs format (unit mm)*
G04 Created by KiCad (PCBNEW (5.1.2)-1) date 2019-12-31 23:39:51*
%MOMM*%
%LPD*%
G04 APERTURE LIST*
%ADD10R,1.905000X2.000000*%
%ADD11O,1.905000X2.000000*%
%ADD12O,1.600000X1.600000*%
%ADD13C,1.600000*%
%ADD14C,2.400000*%
%ADD15O,2.400000X2.400000*%
%ADD16C,3.000000*%
%ADD17C,1.000000*%
%ADD18C,0.500000*%
G04 APERTURE END LIST*
D10*
X191000000Y-53400000D03*
D11*
X193540000Y-53400000D03*
X196080000Y-53400000D03*
D12*
X185860000Y-53600000D03*
D13*
X175700000Y-53600000D03*
D12*
X207140000Y-74700000D03*
D13*
X217300000Y-74700000D03*
D14*
X224100000Y-68000000D03*
D15*
X201700000Y-68000000D03*
X201700000Y-60400000D03*
D14*
X224100000Y-60400000D03*
D16*
X179700000Y-63900000D03*
X175700000Y-63900000D03*
X180800000Y-42600000D03*
X184800000Y-42600000D03*
X201100000Y-75600000D03*
X197100000Y-75600000D03*
X190500000Y-42700000D03*
X194500000Y-42700000D03*
X206300000Y-50500000D03*
X202300000Y-50500000D03*
X212600000Y-50500000D03*
X216600000Y-50500000D03*
D17*
X196080000Y-53400000D02*
X196080000Y-43780000D01*
X196080000Y-43780000D02*
X194900000Y-42600000D01*
X190500000Y-42700000D02*
X192621320Y-42700000D01*
X192621320Y-42700000D02*
X194600000Y-42700000D01*
X186921320Y-42600000D02*
X187021320Y-42500000D01*
X184800000Y-42600000D02*
X186921320Y-42600000D01*
X187021320Y-42500000D02*
X190300000Y-42500000D01*
X180800000Y-42600000D02*
X184400000Y-42600000D01*
X184400000Y-42600000D02*
X184500000Y-42500000D01*
D18*
X175700000Y-63900000D02*
X175700000Y-53600000D01*
X175700000Y-53600000D02*
X175800000Y-53500000D01*
X179700000Y-63900000D02*
X175700000Y-63900000D01*
X185860000Y-53600000D02*
X190500000Y-53600000D01*
X190500000Y-53600000D02*
X191000000Y-53100000D01*
D17*
X201100000Y-68300000D02*
X201400000Y-68000000D01*
X201400000Y-68000000D02*
X201900000Y-67500000D01*
X201900000Y-67500000D02*
X201900000Y-60300000D01*
X201700000Y-68000000D02*
X207200000Y-73500000D01*
X207200000Y-73500000D02*
X207200000Y-74400000D01*
X202599999Y-74100001D02*
X206700001Y-74100001D01*
X201100000Y-75600000D02*
X202599999Y-74100001D01*
X206700001Y-74100001D02*
X207100000Y-74500000D01*
D18*
X193540000Y-54900000D02*
X195740000Y-57100000D01*
X193540000Y-53400000D02*
X193540000Y-54900000D01*
X195740000Y-57100000D02*
X198200000Y-57100000D01*
X198200000Y-57100000D02*
X202300000Y-53000000D01*
X202300000Y-53000000D02*
X202300000Y-50400000D01*
X202300000Y-50500000D02*
X204421320Y-50500000D01*
X204421320Y-50500000D02*
X206000000Y-50500000D01*
D17*
X216600000Y-50500000D02*
X220200000Y-50500000D01*
X224400000Y-54700000D02*
X224400000Y-60100000D01*
X220200000Y-50500000D02*
X224400000Y-54700000D01*
X224100000Y-67900000D02*
X217400000Y-74600000D01*
X217400000Y-74600000D02*
X217400000Y-74700000D01*
D18*
X224400000Y-67900000D02*
X224100000Y-67900000D01*
X224400000Y-60100000D02*
X224500000Y-60200000D01*
X224500000Y-60200000D02*
X224400000Y-60300000D01*
D17*
X224400000Y-60300000D02*
X224400000Y-67800000D01*
X212600000Y-50500000D02*
X216500000Y-50500000D01*
M02*
