G04 #@! TF.GenerationSoftware,KiCad,Pcbnew,5.1.4-e60b266~84~ubuntu18.04.1*
G04 #@! TF.CreationDate,2019-10-24T11:21:14-04:00*
G04 #@! TF.ProjectId,finalForLayout,66696e61-6c46-46f7-924c-61796f75742e,rev?*
G04 #@! TF.SameCoordinates,Original*
G04 #@! TF.FileFunction,Copper,L1,Top*
G04 #@! TF.FilePolarity,Positive*
%FSLAX46Y46*%
G04 Gerber Fmt 4.6, Leading zero omitted, Abs format (unit mm)*
G04 Created by KiCad (PCBNEW 5.1.4-e60b266~84~ubuntu18.04.1) date 2019-10-24 11:21:14*
%MOMM*%
%LPD*%
G04 APERTURE LIST*
%ADD10R,1.600000X1.600000*%
%ADD11O,1.600000X1.600000*%
%ADD12C,1.600000*%
%ADD13C,3.400000*%
%ADD14O,1.200000X1.600000*%
%ADD15O,1.200000X1.200000*%
%ADD16R,2.000000X1.905000*%
%ADD17O,2.000000X1.905000*%
%ADD18R,2.100000X2.100000*%
%ADD19C,2.100000*%
%ADD20C,0.800000*%
%ADD21C,0.600000*%
%ADD22C,1.100000*%
%ADD23C,0.700000*%
%ADD24C,0.800000*%
%ADD25C,0.500000*%
G04 APERTURE END LIST*
D10*
X128000000Y-74000000D03*
D11*
X135620000Y-81620000D03*
X128000000Y-76540000D03*
X135620000Y-79080000D03*
X128000000Y-79080000D03*
X135620000Y-76540000D03*
X128000000Y-81620000D03*
X135620000Y-74000000D03*
D12*
X123190000Y-76000000D03*
D11*
X123190000Y-86160000D03*
D12*
X137000000Y-68500000D03*
D11*
X126840000Y-68500000D03*
D12*
X163500000Y-93500000D03*
D11*
X153340000Y-93500000D03*
X163660000Y-89000000D03*
D12*
X153500000Y-89000000D03*
D11*
X148000000Y-71660000D03*
D12*
X148000000Y-61500000D03*
X169500000Y-77500000D03*
D11*
X169500000Y-67340000D03*
X185000000Y-85160000D03*
D12*
X185000000Y-75000000D03*
X174500000Y-89500000D03*
D11*
X184660000Y-89500000D03*
D13*
X195000000Y-92000000D03*
X140000000Y-84000000D03*
X169500000Y-95000000D03*
D10*
X152000000Y-60000000D03*
D11*
X159620000Y-82860000D03*
X152000000Y-62540000D03*
X159620000Y-80320000D03*
X152000000Y-65080000D03*
X159620000Y-77780000D03*
X152000000Y-67620000D03*
X159620000Y-75240000D03*
X152000000Y-70160000D03*
X159620000Y-72700000D03*
X152000000Y-72700000D03*
X159620000Y-70160000D03*
X152000000Y-75240000D03*
X159620000Y-67620000D03*
X152000000Y-77780000D03*
X159620000Y-65080000D03*
X152000000Y-80320000D03*
X159620000Y-62540000D03*
X152000000Y-82860000D03*
X159620000Y-60000000D03*
X180620000Y-68000000D03*
X173000000Y-75620000D03*
X180620000Y-70540000D03*
X173000000Y-73080000D03*
X180620000Y-73080000D03*
X173000000Y-70540000D03*
X180620000Y-75620000D03*
D10*
X173000000Y-68000000D03*
D11*
X196620000Y-79000000D03*
X189000000Y-86620000D03*
X196620000Y-81540000D03*
X189000000Y-84080000D03*
X196620000Y-84080000D03*
X189000000Y-81540000D03*
X196620000Y-86620000D03*
D10*
X189000000Y-79000000D03*
D13*
X180000000Y-58000000D03*
D12*
X114500000Y-83000000D03*
X109500000Y-83000000D03*
X175500000Y-63000000D03*
X170500000Y-63000000D03*
X179000000Y-93000000D03*
X184000000Y-93000000D03*
X189000000Y-68500000D03*
X189000000Y-73500000D03*
X133000000Y-86000000D03*
X128000000Y-86000000D03*
X140500000Y-76000000D03*
X140500000Y-71000000D03*
X147000000Y-78000000D03*
X147000000Y-83000000D03*
X165500000Y-84000000D03*
X165500000Y-79000000D03*
X185000000Y-70500000D03*
X185000000Y-65500000D03*
X178500000Y-80500000D03*
X173500000Y-80500000D03*
X195000000Y-74000000D03*
X195000000Y-69000000D03*
X190000000Y-92000000D03*
X190000000Y-97000000D03*
X111500000Y-60000000D03*
X116500000Y-60000000D03*
X123500000Y-72000000D03*
X123500000Y-67000000D03*
X100000000Y-78500000D03*
X105000000Y-78500000D03*
D14*
X102500000Y-67500000D03*
D15*
X102500000Y-72580000D03*
D12*
X119000000Y-65000000D03*
D11*
X108840000Y-65000000D03*
D10*
X109500000Y-70500000D03*
D11*
X117120000Y-78120000D03*
X109500000Y-73040000D03*
X117120000Y-75580000D03*
X109500000Y-75580000D03*
X117120000Y-73040000D03*
X109500000Y-78120000D03*
X117120000Y-70500000D03*
D13*
X119380000Y-82550000D03*
D16*
X104140000Y-102870000D03*
D17*
X104140000Y-100330000D03*
X104140000Y-97790000D03*
D12*
X118745000Y-102870000D03*
D11*
X108585000Y-102870000D03*
X99060000Y-91440000D03*
D12*
X109220000Y-91440000D03*
D18*
X132080000Y-59690000D03*
D19*
X134620000Y-59690000D03*
X138430000Y-93345000D03*
D18*
X135890000Y-93345000D03*
D19*
X116840000Y-96520000D03*
D18*
X114300000Y-96520000D03*
X123190000Y-97790000D03*
D19*
X125730000Y-97790000D03*
D20*
X100000000Y-81500000D03*
X129540000Y-97790000D03*
X138430000Y-59690000D03*
X102500000Y-62500000D03*
X123500000Y-63500000D03*
X195000000Y-65500000D03*
X162000000Y-67500000D03*
X133000000Y-89000000D03*
X125730000Y-79000000D03*
X107315000Y-75565000D03*
X163000000Y-84000000D03*
X166500000Y-89000000D03*
X162000000Y-75000000D03*
X178500000Y-83500000D03*
X175000000Y-93000000D03*
X193000000Y-97000000D03*
X183500000Y-58000000D03*
X179000000Y-63000000D03*
X188000000Y-64500000D03*
X146685000Y-86995000D03*
X140335000Y-67310000D03*
D21*
X109500000Y-83000000D02*
X112660000Y-86160000D01*
X123190000Y-86160000D02*
X122120000Y-86160000D01*
X112660000Y-86160000D02*
X122120000Y-86160000D01*
X122120000Y-86160000D02*
X122500000Y-86160000D01*
D22*
X128000000Y-82000000D02*
X128000000Y-81500000D01*
D23*
X128000000Y-81620000D02*
X128000000Y-86000000D01*
X109000000Y-78500000D02*
X109500000Y-78000000D01*
D24*
X147000000Y-78000000D02*
X152500000Y-78000000D01*
X145000000Y-80000000D02*
X147000000Y-78000000D01*
X173000000Y-75620000D02*
X173000000Y-79500000D01*
X173000000Y-79500000D02*
X173500000Y-80000000D01*
X173000000Y-97000000D02*
X173000000Y-93500000D01*
X173000000Y-93500000D02*
X171500000Y-92000000D01*
X171500000Y-92000000D02*
X171500000Y-82500000D01*
X171500000Y-82500000D02*
X173500000Y-80500000D01*
X172250000Y-97750000D02*
X184250000Y-97750000D01*
X172250000Y-97750000D02*
X173000000Y-97000000D01*
X184250000Y-97750000D02*
X190000000Y-92000000D01*
X189000000Y-86620000D02*
X189000000Y-91000000D01*
X189000000Y-91000000D02*
X190000000Y-92000000D01*
X107500000Y-78500000D02*
X109000000Y-78500000D01*
X105000000Y-78500000D02*
X107500000Y-78500000D01*
D23*
X128000000Y-86000000D02*
X128000000Y-88000000D01*
D24*
X135890000Y-91195000D02*
X140090000Y-86995000D01*
X135890000Y-93345000D02*
X135890000Y-91195000D01*
X145000000Y-84194000D02*
X145000000Y-80000000D01*
X142199000Y-86995000D02*
X145000000Y-84194000D01*
X140090000Y-86995000D02*
X142199000Y-86995000D01*
D23*
X133345000Y-93345000D02*
X135890000Y-93345000D01*
X128585000Y-88585000D02*
X133345000Y-93345000D01*
X128000000Y-88000000D02*
X128585000Y-88585000D01*
D24*
X105000000Y-78500000D02*
X105000000Y-82140000D01*
X105000000Y-82140000D02*
X112395000Y-89535000D01*
X132080000Y-95885000D02*
X135500000Y-95885000D01*
X112395000Y-89535000D02*
X125730000Y-89535000D01*
X125730000Y-89535000D02*
X132080000Y-95885000D01*
D23*
X135500000Y-95885000D02*
X135500000Y-95640000D01*
D24*
X135890000Y-95495000D02*
X135890000Y-93345000D01*
X135745000Y-95640000D02*
X135890000Y-95495000D01*
D23*
X135500000Y-95640000D02*
X135745000Y-95640000D01*
D24*
X155575000Y-90805000D02*
X155575000Y-79375000D01*
X163195000Y-98425000D02*
X155575000Y-90805000D01*
X155575000Y-79375000D02*
X153980000Y-77780000D01*
X172250000Y-97750000D02*
X171575000Y-98425000D01*
X153980000Y-77780000D02*
X152000000Y-77780000D01*
X171575000Y-98425000D02*
X163195000Y-98425000D01*
D22*
X184500000Y-65483562D02*
X184508219Y-65491781D01*
D24*
X178500000Y-80500000D02*
X178500000Y-83500000D01*
D23*
X102500000Y-67500000D02*
X102500000Y-62500000D01*
D24*
X183500000Y-58000000D02*
X180000000Y-58000000D01*
D23*
X123500000Y-67000000D02*
X123500000Y-63500000D01*
X133000000Y-86000000D02*
X133000000Y-89000000D01*
D24*
X162000000Y-67500000D02*
X159500000Y-67500000D01*
X175500000Y-63000000D02*
X179000000Y-63000000D01*
X162000000Y-75000000D02*
X159500000Y-75000000D01*
D22*
X185000000Y-65500000D02*
X186000000Y-64500000D01*
D24*
X186000000Y-64500000D02*
X188500000Y-64500000D01*
X190000000Y-97000000D02*
X193000000Y-97000000D01*
X195000000Y-69000000D02*
X195000000Y-65500000D01*
X163660000Y-89000000D02*
X166500000Y-89000000D01*
X134620000Y-59690000D02*
X138430000Y-59690000D01*
D23*
X100000000Y-78500000D02*
X100000000Y-81500000D01*
D22*
X109485000Y-75565000D02*
X109500000Y-75580000D01*
D24*
X107315000Y-75565000D02*
X109485000Y-75565000D01*
X175000000Y-93000000D02*
X179000000Y-93000000D01*
X165500000Y-84000000D02*
X163000000Y-84000000D01*
D23*
X125810000Y-79080000D02*
X125730000Y-79000000D01*
X128000000Y-79080000D02*
X125810000Y-79080000D01*
D24*
X125730000Y-96305076D02*
X125730000Y-97790000D01*
X104140000Y-97790000D02*
X104140000Y-92075000D01*
X120864924Y-91440000D02*
X125730000Y-96305076D01*
X104140000Y-92075000D02*
X106680000Y-89535000D01*
X109855000Y-89535000D02*
X111760000Y-91440000D01*
X106680000Y-89535000D02*
X109855000Y-89535000D01*
X111760000Y-91440000D02*
X120864924Y-91440000D01*
X125730000Y-97790000D02*
X129540000Y-97790000D01*
X147000000Y-86680000D02*
X146685000Y-86995000D01*
X147000000Y-83000000D02*
X147000000Y-86680000D01*
X140500000Y-67475000D02*
X140335000Y-67310000D01*
X140500000Y-71000000D02*
X140500000Y-67475000D01*
D21*
X169500000Y-67340000D02*
X169500000Y-70000000D01*
X169500000Y-70000000D02*
X172500000Y-73000000D01*
X169500000Y-67340000D02*
X169500000Y-64000000D01*
X169500000Y-64000000D02*
X170500000Y-63000000D01*
D24*
X135620000Y-76540000D02*
X139960000Y-76540000D01*
D22*
X139960000Y-76540000D02*
X140500000Y-76000000D01*
D24*
X163500000Y-78980000D02*
X163500000Y-74500000D01*
X163500000Y-74500000D02*
X165500000Y-72500000D01*
X165500000Y-72500000D02*
X165500000Y-61000000D01*
D22*
X163520000Y-79000000D02*
X163500000Y-78980000D01*
D24*
X165500000Y-79000000D02*
X163520000Y-79000000D01*
X159500000Y-89500000D02*
X159500000Y-87000000D01*
X163500000Y-93500000D02*
X159500000Y-89500000D01*
X159500000Y-87000000D02*
X160990000Y-85510000D01*
X184500000Y-70500000D02*
X182500000Y-70500000D01*
X182500000Y-70500000D02*
X180500000Y-70500000D01*
X182500000Y-67000000D02*
X182500000Y-70500000D01*
X181000000Y-65500000D02*
X182500000Y-67000000D01*
X175294002Y-65500000D02*
X181000000Y-65500000D01*
X181000000Y-65500000D02*
X181000000Y-64000000D01*
X181000000Y-64000000D02*
X183500000Y-61500000D01*
X183500000Y-61500000D02*
X189500000Y-61500000D01*
D23*
X189500000Y-61500000D02*
X190000000Y-61500000D01*
D24*
X192500000Y-64000000D02*
X192500000Y-71500000D01*
X192500000Y-71500000D02*
X195000000Y-74000000D01*
X191500000Y-63000000D02*
X192500000Y-64000000D01*
X190000000Y-61500000D02*
X191500000Y-63000000D01*
D23*
X122500000Y-73000000D02*
X123500000Y-72000000D01*
D22*
X132080000Y-59690000D02*
X132080000Y-59565998D01*
D24*
X99060000Y-91440000D02*
X95885000Y-88265000D01*
X95885000Y-88265000D02*
X95885000Y-62230000D01*
X95885000Y-62230000D02*
X102235000Y-55880000D01*
X120650000Y-55880000D02*
X124460000Y-59690000D01*
X102235000Y-55880000D02*
X120650000Y-55880000D01*
X124460000Y-59690000D02*
X132080000Y-59690000D01*
X140500000Y-76000000D02*
X143510000Y-72990000D01*
X164327500Y-59827500D02*
X171587500Y-59827500D01*
X164327500Y-59827500D02*
X165500000Y-61000000D01*
X171587500Y-59827500D02*
X173355000Y-61595000D01*
X173355000Y-63560998D02*
X175294002Y-65500000D01*
X173355000Y-61595000D02*
X173355000Y-63560998D01*
X194200001Y-74799999D02*
X195000000Y-74000000D01*
X194200001Y-81170001D02*
X194200001Y-74799999D01*
X194570000Y-81540000D02*
X194200001Y-81170001D01*
X196620000Y-81540000D02*
X194570000Y-81540000D01*
X161500000Y-57000000D02*
X164327500Y-59827500D01*
X133500000Y-57000000D02*
X161500000Y-57000000D01*
X132080000Y-59690000D02*
X132080000Y-58420000D01*
X132080000Y-58420000D02*
X133500000Y-57000000D01*
X132080000Y-61840000D02*
X134375000Y-64135000D01*
X132080000Y-59690000D02*
X132080000Y-61840000D01*
X134375000Y-64135000D02*
X141605000Y-64135000D01*
X141605000Y-64135000D02*
X142875000Y-65405000D01*
X142875000Y-65405000D02*
X143510000Y-65405000D01*
X143510000Y-72990000D02*
X143510000Y-65405000D01*
X144240000Y-61500000D02*
X148000000Y-61500000D01*
X143510000Y-65405000D02*
X143510000Y-62230000D01*
X143510000Y-62230000D02*
X144240000Y-61500000D01*
X163520000Y-79000000D02*
X163520000Y-80955000D01*
X161615000Y-82860000D02*
X159620000Y-82860000D01*
X163520000Y-80955000D02*
X161615000Y-82860000D01*
X160990000Y-84230000D02*
X159620000Y-82860000D01*
X160990000Y-85510000D02*
X160990000Y-84230000D01*
X121285000Y-70485000D02*
X118730000Y-73040000D01*
X121285000Y-61595000D02*
X121285000Y-70485000D01*
X118730000Y-73040000D02*
X117120000Y-73040000D01*
X124460000Y-59690000D02*
X123190000Y-59690000D01*
X123190000Y-59690000D02*
X121285000Y-61595000D01*
X122500000Y-73000000D02*
X119405000Y-73000000D01*
X119365000Y-73040000D02*
X118730000Y-73040000D01*
X119405000Y-73000000D02*
X119365000Y-73040000D01*
D25*
X184660000Y-92340000D02*
X184000000Y-93000000D01*
X184660000Y-89500000D02*
X184660000Y-92340000D01*
X185459999Y-88700001D02*
X185459999Y-87540001D01*
X184660000Y-89500000D02*
X185459999Y-88700001D01*
X185459999Y-87540001D02*
X189000000Y-84000000D01*
X189000000Y-81540000D02*
X191040000Y-81540000D01*
X191040000Y-81540000D02*
X193500000Y-84000000D01*
X193500000Y-84000000D02*
X196500000Y-84000000D01*
X189000000Y-68500000D02*
X191000000Y-70500000D01*
D21*
X191000000Y-81500000D02*
X191040000Y-81540000D01*
D25*
X191000000Y-70500000D02*
X191000000Y-81500000D01*
X194500000Y-86200000D02*
X196620000Y-84080000D01*
X194500000Y-91000000D02*
X194500000Y-86200000D01*
D21*
X174500000Y-89500000D02*
X174500000Y-88000000D01*
X174500000Y-88000000D02*
X176000000Y-86500000D01*
X176000000Y-86500000D02*
X183500000Y-86500000D01*
X183500000Y-86500000D02*
X185000000Y-85000000D01*
D25*
X185000000Y-85160000D02*
X185000000Y-79000000D01*
X185000000Y-79000000D02*
X185000000Y-78000000D01*
X185000000Y-78000000D02*
X189000000Y-74000000D01*
X153500000Y-89000000D02*
X153500000Y-93500000D01*
X152000000Y-80320000D02*
X153500000Y-81820000D01*
X153500000Y-81820000D02*
X153500000Y-89000000D01*
X148000000Y-71660000D02*
X151340000Y-75000000D01*
D21*
X151340000Y-75000000D02*
X152000000Y-75000000D01*
D25*
X159620000Y-79880000D02*
X159620000Y-77780000D01*
D21*
X159000000Y-80500000D02*
X159620000Y-79880000D01*
D25*
X159620000Y-80320000D02*
X157500000Y-82440000D01*
X157500000Y-82440000D02*
X157500000Y-90500000D01*
X157500000Y-90500000D02*
X162500000Y-95500000D01*
X162500000Y-95500000D02*
X163000000Y-96000000D01*
X164500000Y-96000000D02*
X169500000Y-91000000D01*
X164500000Y-96000000D02*
X168500000Y-96000000D01*
X163000000Y-96000000D02*
X164500000Y-96000000D01*
X169500000Y-91000000D02*
X169500000Y-78000000D01*
D21*
X169500000Y-78000000D02*
X169500000Y-77500000D01*
X173799999Y-71339999D02*
X175839999Y-71339999D01*
X173000000Y-70540000D02*
X173799999Y-71339999D01*
X175839999Y-71339999D02*
X177500000Y-73000000D01*
X177500000Y-73000000D02*
X181000000Y-73000000D01*
X180620000Y-73080000D02*
X183080000Y-73080000D01*
X183080000Y-73080000D02*
X185000000Y-75000000D01*
X109500000Y-73040000D02*
X110631370Y-73040000D01*
D25*
X110631370Y-73040000D02*
X111050001Y-72621369D01*
D21*
X108550001Y-65050001D02*
X108500000Y-65000000D01*
D25*
X108840000Y-62660000D02*
X110700001Y-60799999D01*
X108840000Y-65000000D02*
X108840000Y-62660000D01*
D21*
X110700001Y-60799999D02*
X110875999Y-60624001D01*
D25*
X110875999Y-60624001D02*
X111500000Y-60000000D01*
X111050001Y-72621369D02*
X111050001Y-67050001D01*
X111050001Y-67050001D02*
X109000000Y-65000000D01*
X102500000Y-72580000D02*
X109080000Y-72580000D01*
D21*
X109080000Y-72580000D02*
X109500000Y-73000000D01*
D25*
X116500000Y-60000000D02*
X119000000Y-62500000D01*
X119000000Y-62500000D02*
X119000000Y-65000000D01*
X115500000Y-68500000D02*
X118500000Y-65500000D01*
X114500000Y-75500000D02*
X115750000Y-74250000D01*
X114500000Y-83000000D02*
X114500000Y-75500000D01*
D21*
X115500000Y-74000000D02*
X115750000Y-74250000D01*
D25*
X115750000Y-74250000D02*
X117000000Y-75500000D01*
D21*
X119380000Y-77840000D02*
X119380000Y-82550000D01*
X117120000Y-75580000D02*
X119380000Y-77840000D01*
D25*
X114300000Y-69700000D02*
X115500000Y-68500000D01*
X114300000Y-72800000D02*
X114300000Y-69700000D01*
X115500000Y-74000000D02*
X114300000Y-72800000D01*
D21*
X129550001Y-76121369D02*
X129550001Y-71050001D01*
X128000000Y-76540000D02*
X129131370Y-76540000D01*
X129131370Y-76540000D02*
X129550001Y-76121369D01*
X129550001Y-71050001D02*
X127000000Y-68500000D01*
X127460000Y-76000000D02*
X128000000Y-76540000D01*
X123190000Y-76000000D02*
X127460000Y-76000000D01*
D25*
X114300000Y-98170000D02*
X114300000Y-96520000D01*
X112140000Y-100330000D02*
X114300000Y-98170000D01*
X104140000Y-100330000D02*
X112140000Y-100330000D01*
X109220000Y-92571370D02*
X109220000Y-91440000D01*
X110628630Y-93980000D02*
X109220000Y-92571370D01*
X116205000Y-93980000D02*
X110628630Y-93980000D01*
X116840000Y-96520000D02*
X116840000Y-94615000D01*
X116840000Y-94615000D02*
X116205000Y-93980000D01*
X108585000Y-102870000D02*
X104140000Y-102870000D01*
X123190000Y-97790000D02*
X123190000Y-99440000D01*
X123190000Y-99440000D02*
X123190000Y-100965000D01*
X123190000Y-100965000D02*
X124460000Y-102235000D01*
X124460000Y-102235000D02*
X125730000Y-102235000D01*
X152000000Y-86760000D02*
X152000000Y-82860000D01*
X136525000Y-102235000D02*
X138112500Y-100647500D01*
X138112500Y-100647500D02*
X152000000Y-86760000D01*
X118745000Y-102870000D02*
X121285000Y-102870000D01*
X121285000Y-102870000D02*
X122555000Y-104140000D01*
X122555000Y-104140000D02*
X137160000Y-104140000D01*
X137160000Y-103505000D02*
X135890000Y-102235000D01*
X137160000Y-104140000D02*
X137160000Y-103505000D01*
X135890000Y-102235000D02*
X136525000Y-102235000D01*
X124460000Y-102235000D02*
X127635000Y-102235000D01*
X125985000Y-102235000D02*
X127635000Y-102235000D01*
X127635000Y-102235000D02*
X135890000Y-102235000D01*
X153900000Y-60000000D02*
X156500000Y-62600000D01*
X152000000Y-60000000D02*
X153900000Y-60000000D01*
X156500000Y-62600000D02*
X156500000Y-69000000D01*
X156500000Y-69000000D02*
X158000000Y-70500000D01*
X158000000Y-70500000D02*
X159000000Y-70500000D01*
D21*
X159000000Y-70500000D02*
X159500000Y-70000000D01*
X133500000Y-72000000D02*
X136200001Y-69299999D01*
X135620000Y-79080000D02*
X133500000Y-76960000D01*
X133500000Y-76960000D02*
X133500000Y-72000000D01*
X136200001Y-69299999D02*
X137000000Y-68500000D01*
D25*
X135620000Y-79080000D02*
X137580000Y-79080000D01*
X137580000Y-79080000D02*
X138080000Y-79080000D01*
X140500000Y-81500000D02*
X140500000Y-83000000D01*
D21*
X140500000Y-83000000D02*
X140500000Y-83500000D01*
D25*
X138080000Y-79080000D02*
X138500000Y-79500000D01*
X146699999Y-65300001D02*
X151500000Y-60500000D01*
X138500000Y-79500000D02*
X138720000Y-79720000D01*
X139037500Y-80037500D02*
X140942500Y-80037500D01*
X139037500Y-80037500D02*
X140500000Y-81500000D01*
D21*
X138720000Y-79720000D02*
X139037500Y-80037500D01*
D25*
X140942500Y-80037500D02*
X145415000Y-75565000D01*
X145415000Y-66585000D02*
X146699999Y-65300001D01*
X145415000Y-75565000D02*
X145415000Y-66585000D01*
X159620000Y-62540000D02*
X159620000Y-60880000D01*
X159620000Y-60880000D02*
X160000000Y-60500000D01*
X159620000Y-62540000D02*
X162040000Y-62540000D01*
X162040000Y-62540000D02*
X163500000Y-64000000D01*
X163500000Y-64000000D02*
X163500000Y-71500000D01*
X163500000Y-71500000D02*
X162500000Y-72500000D01*
X162500000Y-72500000D02*
X160000000Y-72500000D01*
M02*
