G04 #@! TF.GenerationSoftware,KiCad,Pcbnew,5.1.4-e60b266~84~ubuntu18.04.1*
G04 #@! TF.CreationDate,2019-10-24T11:21:14-04:00*
G04 #@! TF.ProjectId,finalForLayout,66696e61-6c46-46f7-924c-61796f75742e,rev?*
G04 #@! TF.SameCoordinates,Original*
G04 #@! TF.FileFunction,Soldermask,Bot*
G04 #@! TF.FilePolarity,Negative*
%FSLAX46Y46*%
G04 Gerber Fmt 4.6, Leading zero omitted, Abs format (unit mm)*
G04 Created by KiCad (PCBNEW 5.1.4-e60b266~84~ubuntu18.04.1) date 2019-10-24 11:21:14*
%MOMM*%
%LPD*%
G04 APERTURE LIST*
%ADD10C,0.100000*%
G04 APERTURE END LIST*
D10*
G36*
X105191000Y-103873500D02*
G01*
X103089000Y-103873500D01*
X103089000Y-101866500D01*
X105191000Y-101866500D01*
X105191000Y-103873500D01*
X105191000Y-103873500D01*
G37*
G36*
X118993228Y-102051703D02*
G01*
X119148100Y-102115853D01*
X119287481Y-102208985D01*
X119406015Y-102327519D01*
X119499147Y-102466900D01*
X119563297Y-102621772D01*
X119596000Y-102786184D01*
X119596000Y-102953816D01*
X119563297Y-103118228D01*
X119499147Y-103273100D01*
X119406015Y-103412481D01*
X119287481Y-103531015D01*
X119148100Y-103624147D01*
X118993228Y-103688297D01*
X118828816Y-103721000D01*
X118661184Y-103721000D01*
X118496772Y-103688297D01*
X118341900Y-103624147D01*
X118202519Y-103531015D01*
X118083985Y-103412481D01*
X117990853Y-103273100D01*
X117926703Y-103118228D01*
X117894000Y-102953816D01*
X117894000Y-102786184D01*
X117926703Y-102621772D01*
X117990853Y-102466900D01*
X118083985Y-102327519D01*
X118202519Y-102208985D01*
X118341900Y-102115853D01*
X118496772Y-102051703D01*
X118661184Y-102019000D01*
X118828816Y-102019000D01*
X118993228Y-102051703D01*
X118993228Y-102051703D01*
G37*
G36*
X108751823Y-102031313D02*
G01*
X108912242Y-102079976D01*
X108979361Y-102115852D01*
X109060078Y-102158996D01*
X109189659Y-102265341D01*
X109296004Y-102394922D01*
X109296005Y-102394924D01*
X109375024Y-102542758D01*
X109423687Y-102703177D01*
X109440117Y-102870000D01*
X109423687Y-103036823D01*
X109375024Y-103197242D01*
X109334477Y-103273100D01*
X109296004Y-103345078D01*
X109189659Y-103474659D01*
X109060078Y-103581004D01*
X109060076Y-103581005D01*
X108912242Y-103660024D01*
X108751823Y-103708687D01*
X108626804Y-103721000D01*
X108543196Y-103721000D01*
X108418177Y-103708687D01*
X108257758Y-103660024D01*
X108109924Y-103581005D01*
X108109922Y-103581004D01*
X107980341Y-103474659D01*
X107873996Y-103345078D01*
X107835523Y-103273100D01*
X107794976Y-103197242D01*
X107746313Y-103036823D01*
X107729883Y-102870000D01*
X107746313Y-102703177D01*
X107794976Y-102542758D01*
X107873995Y-102394924D01*
X107873996Y-102394922D01*
X107980341Y-102265341D01*
X108109922Y-102158996D01*
X108190639Y-102115852D01*
X108257758Y-102079976D01*
X108418177Y-102031313D01*
X108543196Y-102019000D01*
X108626804Y-102019000D01*
X108751823Y-102031313D01*
X108751823Y-102031313D01*
G37*
G36*
X104285936Y-99331340D02*
G01*
X104384220Y-99341020D01*
X104573381Y-99398401D01*
X104747712Y-99491583D01*
X104900515Y-99616985D01*
X105025917Y-99769788D01*
X105119099Y-99944119D01*
X105176480Y-100133280D01*
X105195855Y-100330000D01*
X105176480Y-100526720D01*
X105119099Y-100715881D01*
X105025917Y-100890212D01*
X104900515Y-101043015D01*
X104747712Y-101168417D01*
X104573381Y-101261599D01*
X104384220Y-101318980D01*
X104285936Y-101328660D01*
X104236795Y-101333500D01*
X104043205Y-101333500D01*
X103994064Y-101328660D01*
X103895780Y-101318980D01*
X103706619Y-101261599D01*
X103532288Y-101168417D01*
X103379485Y-101043015D01*
X103254083Y-100890212D01*
X103160901Y-100715881D01*
X103103520Y-100526720D01*
X103084145Y-100330000D01*
X103103520Y-100133280D01*
X103160901Y-99944119D01*
X103254083Y-99769788D01*
X103379485Y-99616985D01*
X103532288Y-99491583D01*
X103706619Y-99398401D01*
X103895780Y-99341020D01*
X103994064Y-99331340D01*
X104043205Y-99326500D01*
X104236795Y-99326500D01*
X104285936Y-99331340D01*
X104285936Y-99331340D01*
G37*
G36*
X124291000Y-98891000D02*
G01*
X122089000Y-98891000D01*
X122089000Y-96689000D01*
X124291000Y-96689000D01*
X124291000Y-98891000D01*
X124291000Y-98891000D01*
G37*
G36*
X125944794Y-96710155D02*
G01*
X126051150Y-96731311D01*
X126251520Y-96814307D01*
X126431844Y-96934795D01*
X126585205Y-97088156D01*
X126705693Y-97268480D01*
X126705693Y-97268481D01*
X126788689Y-97468850D01*
X126831000Y-97681561D01*
X126831000Y-97898439D01*
X126788689Y-98111150D01*
X126705693Y-98311520D01*
X126585205Y-98491844D01*
X126431844Y-98645205D01*
X126251520Y-98765693D01*
X126151334Y-98807191D01*
X126051150Y-98848689D01*
X125944794Y-98869845D01*
X125838440Y-98891000D01*
X125621560Y-98891000D01*
X125515205Y-98869844D01*
X125408850Y-98848689D01*
X125208480Y-98765693D01*
X125028156Y-98645205D01*
X124874795Y-98491844D01*
X124754307Y-98311520D01*
X124712809Y-98211334D01*
X124671311Y-98111150D01*
X124629000Y-97898439D01*
X124629000Y-97681561D01*
X124671311Y-97468850D01*
X124754307Y-97268481D01*
X124754307Y-97268480D01*
X124874795Y-97088156D01*
X125028156Y-96934795D01*
X125208480Y-96814307D01*
X125408850Y-96731311D01*
X125515205Y-96710156D01*
X125621560Y-96689000D01*
X125838440Y-96689000D01*
X125944794Y-96710155D01*
X125944794Y-96710155D01*
G37*
G36*
X104285936Y-96791340D02*
G01*
X104384220Y-96801020D01*
X104573381Y-96858401D01*
X104747712Y-96951583D01*
X104900515Y-97076985D01*
X105025917Y-97229788D01*
X105119099Y-97404119D01*
X105176480Y-97593280D01*
X105195855Y-97790000D01*
X105176480Y-97986720D01*
X105119099Y-98175881D01*
X105025917Y-98350212D01*
X104900515Y-98503015D01*
X104747712Y-98628417D01*
X104573381Y-98721599D01*
X104384220Y-98778980D01*
X104285936Y-98788660D01*
X104236795Y-98793500D01*
X104043205Y-98793500D01*
X103994064Y-98788660D01*
X103895780Y-98778980D01*
X103706619Y-98721599D01*
X103532288Y-98628417D01*
X103379485Y-98503015D01*
X103254083Y-98350212D01*
X103160901Y-98175881D01*
X103103520Y-97986720D01*
X103084145Y-97790000D01*
X103103520Y-97593280D01*
X103160901Y-97404119D01*
X103254083Y-97229788D01*
X103379485Y-97076985D01*
X103532288Y-96951583D01*
X103706619Y-96858401D01*
X103895780Y-96801020D01*
X103994064Y-96791340D01*
X104043205Y-96786500D01*
X104236795Y-96786500D01*
X104285936Y-96791340D01*
X104285936Y-96791340D01*
G37*
G36*
X190248228Y-96181703D02*
G01*
X190403100Y-96245853D01*
X190542481Y-96338985D01*
X190661015Y-96457519D01*
X190754147Y-96596900D01*
X190818297Y-96751772D01*
X190851000Y-96916184D01*
X190851000Y-97083816D01*
X190818297Y-97248228D01*
X190754147Y-97403100D01*
X190661015Y-97542481D01*
X190542481Y-97661015D01*
X190403100Y-97754147D01*
X190248228Y-97818297D01*
X190083816Y-97851000D01*
X189916184Y-97851000D01*
X189751772Y-97818297D01*
X189596900Y-97754147D01*
X189457519Y-97661015D01*
X189338985Y-97542481D01*
X189245853Y-97403100D01*
X189181703Y-97248228D01*
X189149000Y-97083816D01*
X189149000Y-96916184D01*
X189181703Y-96751772D01*
X189245853Y-96596900D01*
X189338985Y-96457519D01*
X189457519Y-96338985D01*
X189596900Y-96245853D01*
X189751772Y-96181703D01*
X189916184Y-96149000D01*
X190083816Y-96149000D01*
X190248228Y-96181703D01*
X190248228Y-96181703D01*
G37*
G36*
X115401000Y-97621000D02*
G01*
X113199000Y-97621000D01*
X113199000Y-95419000D01*
X115401000Y-95419000D01*
X115401000Y-97621000D01*
X115401000Y-97621000D01*
G37*
G36*
X117054794Y-95440155D02*
G01*
X117161150Y-95461311D01*
X117361520Y-95544307D01*
X117541844Y-95664795D01*
X117695205Y-95818156D01*
X117815693Y-95998480D01*
X117815693Y-95998481D01*
X117898689Y-96198850D01*
X117941000Y-96411561D01*
X117941000Y-96628439D01*
X117898689Y-96841150D01*
X117857191Y-96941334D01*
X117815693Y-97041520D01*
X117695205Y-97221844D01*
X117541844Y-97375205D01*
X117361520Y-97495693D01*
X117261334Y-97537191D01*
X117161150Y-97578689D01*
X117087796Y-97593280D01*
X116948440Y-97621000D01*
X116731560Y-97621000D01*
X116592204Y-97593280D01*
X116518850Y-97578689D01*
X116418666Y-97537191D01*
X116318480Y-97495693D01*
X116138156Y-97375205D01*
X115984795Y-97221844D01*
X115864307Y-97041520D01*
X115822809Y-96941334D01*
X115781311Y-96841150D01*
X115739000Y-96628439D01*
X115739000Y-96411561D01*
X115781311Y-96198850D01*
X115864307Y-95998481D01*
X115864307Y-95998480D01*
X115984795Y-95818156D01*
X116138156Y-95664795D01*
X116318480Y-95544307D01*
X116518850Y-95461311D01*
X116625206Y-95440155D01*
X116731560Y-95419000D01*
X116948440Y-95419000D01*
X117054794Y-95440155D01*
X117054794Y-95440155D01*
G37*
G36*
X169897985Y-93293860D02*
G01*
X170010748Y-93316290D01*
X170116490Y-93360090D01*
X170329408Y-93448283D01*
X170616196Y-93639909D01*
X170860091Y-93883804D01*
X171051717Y-94170592D01*
X171121343Y-94338686D01*
X171148269Y-94403689D01*
X171183710Y-94489253D01*
X171251000Y-94827540D01*
X171251000Y-95172460D01*
X171183710Y-95510747D01*
X171051717Y-95829408D01*
X170860091Y-96116196D01*
X170616196Y-96360091D01*
X170329408Y-96551717D01*
X170144184Y-96628439D01*
X170010748Y-96683710D01*
X169984153Y-96689000D01*
X169672460Y-96751000D01*
X169327540Y-96751000D01*
X169015847Y-96689000D01*
X168989252Y-96683710D01*
X168855816Y-96628439D01*
X168670592Y-96551717D01*
X168383804Y-96360091D01*
X168139909Y-96116196D01*
X167948283Y-95829408D01*
X167816290Y-95510747D01*
X167749000Y-95172460D01*
X167749000Y-94827540D01*
X167816290Y-94489253D01*
X167851732Y-94403689D01*
X167878657Y-94338686D01*
X167948283Y-94170592D01*
X168139909Y-93883804D01*
X168383804Y-93639909D01*
X168670592Y-93448283D01*
X168883510Y-93360090D01*
X168989252Y-93316290D01*
X169102015Y-93293860D01*
X169327540Y-93249000D01*
X169672460Y-93249000D01*
X169897985Y-93293860D01*
X169897985Y-93293860D01*
G37*
G36*
X138559695Y-92248228D02*
G01*
X138751150Y-92286311D01*
X138851334Y-92327809D01*
X138951520Y-92369307D01*
X139131844Y-92489795D01*
X139285205Y-92643156D01*
X139405693Y-92823480D01*
X139412115Y-92838985D01*
X139488689Y-93023850D01*
X139500617Y-93083815D01*
X139531000Y-93236560D01*
X139531000Y-93453440D01*
X139513289Y-93542480D01*
X139505067Y-93583815D01*
X139488689Y-93666149D01*
X139405693Y-93866520D01*
X139285205Y-94046844D01*
X139131844Y-94200205D01*
X138951520Y-94320693D01*
X138908078Y-94338687D01*
X138751150Y-94403689D01*
X138644794Y-94424845D01*
X138538440Y-94446000D01*
X138321560Y-94446000D01*
X138215206Y-94424845D01*
X138108850Y-94403689D01*
X137951922Y-94338687D01*
X137908480Y-94320693D01*
X137728156Y-94200205D01*
X137574795Y-94046844D01*
X137454307Y-93866520D01*
X137371311Y-93666149D01*
X137354934Y-93583815D01*
X137346711Y-93542480D01*
X137329000Y-93453440D01*
X137329000Y-93236560D01*
X137359383Y-93083815D01*
X137371311Y-93023850D01*
X137447885Y-92838985D01*
X137454307Y-92823480D01*
X137574795Y-92643156D01*
X137728156Y-92489795D01*
X137908480Y-92369307D01*
X138008666Y-92327809D01*
X138108850Y-92286311D01*
X138300305Y-92248228D01*
X138321560Y-92244000D01*
X138538440Y-92244000D01*
X138559695Y-92248228D01*
X138559695Y-92248228D01*
G37*
G36*
X136991000Y-94446000D02*
G01*
X134789000Y-94446000D01*
X134789000Y-92244000D01*
X136991000Y-92244000D01*
X136991000Y-94446000D01*
X136991000Y-94446000D01*
G37*
G36*
X163748228Y-92681703D02*
G01*
X163903100Y-92745853D01*
X164042481Y-92838985D01*
X164161015Y-92957519D01*
X164254147Y-93096900D01*
X164318297Y-93251772D01*
X164351000Y-93416184D01*
X164351000Y-93583816D01*
X164318297Y-93748228D01*
X164254147Y-93903100D01*
X164161015Y-94042481D01*
X164042481Y-94161015D01*
X163903100Y-94254147D01*
X163748228Y-94318297D01*
X163583816Y-94351000D01*
X163416184Y-94351000D01*
X163251772Y-94318297D01*
X163096900Y-94254147D01*
X162957519Y-94161015D01*
X162838985Y-94042481D01*
X162745853Y-93903100D01*
X162681703Y-93748228D01*
X162649000Y-93583816D01*
X162649000Y-93416184D01*
X162681703Y-93251772D01*
X162745853Y-93096900D01*
X162838985Y-92957519D01*
X162957519Y-92838985D01*
X163096900Y-92745853D01*
X163251772Y-92681703D01*
X163416184Y-92649000D01*
X163583816Y-92649000D01*
X163748228Y-92681703D01*
X163748228Y-92681703D01*
G37*
G36*
X153506823Y-92661313D02*
G01*
X153667242Y-92709976D01*
X153799906Y-92780886D01*
X153815078Y-92788996D01*
X153944659Y-92895341D01*
X154051004Y-93024922D01*
X154051005Y-93024924D01*
X154130024Y-93172758D01*
X154178687Y-93333177D01*
X154195117Y-93500000D01*
X154178687Y-93666823D01*
X154153152Y-93751000D01*
X154132738Y-93818297D01*
X154130024Y-93827242D01*
X154089477Y-93903100D01*
X154051004Y-93975078D01*
X153944659Y-94104659D01*
X153815078Y-94211004D01*
X153815076Y-94211005D01*
X153667242Y-94290024D01*
X153506823Y-94338687D01*
X153381804Y-94351000D01*
X153298196Y-94351000D01*
X153173177Y-94338687D01*
X153012758Y-94290024D01*
X152864924Y-94211005D01*
X152864922Y-94211004D01*
X152735341Y-94104659D01*
X152628996Y-93975078D01*
X152590523Y-93903100D01*
X152549976Y-93827242D01*
X152547263Y-93818297D01*
X152526848Y-93751000D01*
X152501313Y-93666823D01*
X152484883Y-93500000D01*
X152501313Y-93333177D01*
X152549976Y-93172758D01*
X152628995Y-93024924D01*
X152628996Y-93024922D01*
X152735341Y-92895341D01*
X152864922Y-92788996D01*
X152880094Y-92780886D01*
X153012758Y-92709976D01*
X153173177Y-92661313D01*
X153298196Y-92649000D01*
X153381804Y-92649000D01*
X153506823Y-92661313D01*
X153506823Y-92661313D01*
G37*
G36*
X184248228Y-92181703D02*
G01*
X184403100Y-92245853D01*
X184542481Y-92338985D01*
X184661015Y-92457519D01*
X184754147Y-92596900D01*
X184818297Y-92751772D01*
X184851000Y-92916184D01*
X184851000Y-93083816D01*
X184818297Y-93248228D01*
X184754147Y-93403100D01*
X184661015Y-93542481D01*
X184542481Y-93661015D01*
X184403100Y-93754147D01*
X184248228Y-93818297D01*
X184083816Y-93851000D01*
X183916184Y-93851000D01*
X183751772Y-93818297D01*
X183596900Y-93754147D01*
X183457519Y-93661015D01*
X183338985Y-93542481D01*
X183245853Y-93403100D01*
X183181703Y-93248228D01*
X183149000Y-93083816D01*
X183149000Y-92916184D01*
X183181703Y-92751772D01*
X183245853Y-92596900D01*
X183338985Y-92457519D01*
X183457519Y-92338985D01*
X183596900Y-92245853D01*
X183751772Y-92181703D01*
X183916184Y-92149000D01*
X184083816Y-92149000D01*
X184248228Y-92181703D01*
X184248228Y-92181703D01*
G37*
G36*
X179248228Y-92181703D02*
G01*
X179403100Y-92245853D01*
X179542481Y-92338985D01*
X179661015Y-92457519D01*
X179754147Y-92596900D01*
X179818297Y-92751772D01*
X179851000Y-92916184D01*
X179851000Y-93083816D01*
X179818297Y-93248228D01*
X179754147Y-93403100D01*
X179661015Y-93542481D01*
X179542481Y-93661015D01*
X179403100Y-93754147D01*
X179248228Y-93818297D01*
X179083816Y-93851000D01*
X178916184Y-93851000D01*
X178751772Y-93818297D01*
X178596900Y-93754147D01*
X178457519Y-93661015D01*
X178338985Y-93542481D01*
X178245853Y-93403100D01*
X178181703Y-93248228D01*
X178149000Y-93083816D01*
X178149000Y-92916184D01*
X178181703Y-92751772D01*
X178245853Y-92596900D01*
X178338985Y-92457519D01*
X178457519Y-92338985D01*
X178596900Y-92245853D01*
X178751772Y-92181703D01*
X178916184Y-92149000D01*
X179083816Y-92149000D01*
X179248228Y-92181703D01*
X179248228Y-92181703D01*
G37*
G36*
X195378700Y-90290024D02*
G01*
X195510748Y-90316290D01*
X195594545Y-90351000D01*
X195829408Y-90448283D01*
X196116196Y-90639909D01*
X196360091Y-90883804D01*
X196551717Y-91170592D01*
X196582891Y-91245853D01*
X196670566Y-91457519D01*
X196683710Y-91489253D01*
X196751000Y-91827540D01*
X196751000Y-92172460D01*
X196735928Y-92248229D01*
X196683710Y-92510748D01*
X196648023Y-92596903D01*
X196551717Y-92829408D01*
X196360091Y-93116196D01*
X196116196Y-93360091D01*
X195829408Y-93551717D01*
X195642741Y-93629037D01*
X195510748Y-93683710D01*
X195397985Y-93706140D01*
X195172460Y-93751000D01*
X194827540Y-93751000D01*
X194602015Y-93706140D01*
X194489252Y-93683710D01*
X194357259Y-93629037D01*
X194170592Y-93551717D01*
X193883804Y-93360091D01*
X193639909Y-93116196D01*
X193448283Y-92829408D01*
X193351977Y-92596903D01*
X193316290Y-92510748D01*
X193264072Y-92248229D01*
X193249000Y-92172460D01*
X193249000Y-91827540D01*
X193316290Y-91489253D01*
X193329435Y-91457519D01*
X193417109Y-91245853D01*
X193448283Y-91170592D01*
X193639909Y-90883804D01*
X193883804Y-90639909D01*
X194170592Y-90448283D01*
X194405455Y-90351000D01*
X194489252Y-90316290D01*
X194621300Y-90290024D01*
X194827540Y-90249000D01*
X195172460Y-90249000D01*
X195378700Y-90290024D01*
X195378700Y-90290024D01*
G37*
G36*
X190248228Y-91181703D02*
G01*
X190403100Y-91245853D01*
X190542481Y-91338985D01*
X190661015Y-91457519D01*
X190754147Y-91596900D01*
X190818297Y-91751772D01*
X190851000Y-91916184D01*
X190851000Y-92083816D01*
X190818297Y-92248228D01*
X190754147Y-92403100D01*
X190661015Y-92542481D01*
X190542481Y-92661015D01*
X190403100Y-92754147D01*
X190248228Y-92818297D01*
X190083816Y-92851000D01*
X189916184Y-92851000D01*
X189751772Y-92818297D01*
X189596900Y-92754147D01*
X189457519Y-92661015D01*
X189338985Y-92542481D01*
X189245853Y-92403100D01*
X189181703Y-92248228D01*
X189149000Y-92083816D01*
X189149000Y-91916184D01*
X189181703Y-91751772D01*
X189245853Y-91596900D01*
X189338985Y-91457519D01*
X189457519Y-91338985D01*
X189596900Y-91245853D01*
X189751772Y-91181703D01*
X189916184Y-91149000D01*
X190083816Y-91149000D01*
X190248228Y-91181703D01*
X190248228Y-91181703D01*
G37*
G36*
X99226823Y-90601313D02*
G01*
X99387242Y-90649976D01*
X99454361Y-90685852D01*
X99535078Y-90728996D01*
X99664659Y-90835341D01*
X99771004Y-90964922D01*
X99771005Y-90964924D01*
X99850024Y-91112758D01*
X99898687Y-91273177D01*
X99915117Y-91440000D01*
X99898687Y-91606823D01*
X99850024Y-91767242D01*
X99809477Y-91843100D01*
X99771004Y-91915078D01*
X99664659Y-92044659D01*
X99535078Y-92151004D01*
X99535076Y-92151005D01*
X99387242Y-92230024D01*
X99226823Y-92278687D01*
X99101804Y-92291000D01*
X99018196Y-92291000D01*
X98893177Y-92278687D01*
X98732758Y-92230024D01*
X98584924Y-92151005D01*
X98584922Y-92151004D01*
X98455341Y-92044659D01*
X98348996Y-91915078D01*
X98310523Y-91843100D01*
X98269976Y-91767242D01*
X98221313Y-91606823D01*
X98204883Y-91440000D01*
X98221313Y-91273177D01*
X98269976Y-91112758D01*
X98348995Y-90964924D01*
X98348996Y-90964922D01*
X98455341Y-90835341D01*
X98584922Y-90728996D01*
X98665639Y-90685852D01*
X98732758Y-90649976D01*
X98893177Y-90601313D01*
X99018196Y-90589000D01*
X99101804Y-90589000D01*
X99226823Y-90601313D01*
X99226823Y-90601313D01*
G37*
G36*
X109468228Y-90621703D02*
G01*
X109623100Y-90685853D01*
X109762481Y-90778985D01*
X109881015Y-90897519D01*
X109974147Y-91036900D01*
X110038297Y-91191772D01*
X110071000Y-91356184D01*
X110071000Y-91523816D01*
X110038297Y-91688228D01*
X109974147Y-91843100D01*
X109881015Y-91982481D01*
X109762481Y-92101015D01*
X109623100Y-92194147D01*
X109468228Y-92258297D01*
X109303816Y-92291000D01*
X109136184Y-92291000D01*
X108971772Y-92258297D01*
X108816900Y-92194147D01*
X108677519Y-92101015D01*
X108558985Y-91982481D01*
X108465853Y-91843100D01*
X108401703Y-91688228D01*
X108369000Y-91523816D01*
X108369000Y-91356184D01*
X108401703Y-91191772D01*
X108465853Y-91036900D01*
X108558985Y-90897519D01*
X108677519Y-90778985D01*
X108816900Y-90685853D01*
X108971772Y-90621703D01*
X109136184Y-90589000D01*
X109303816Y-90589000D01*
X109468228Y-90621703D01*
X109468228Y-90621703D01*
G37*
G36*
X184826823Y-88661313D02*
G01*
X184987242Y-88709976D01*
X185119906Y-88780886D01*
X185135078Y-88788996D01*
X185264659Y-88895341D01*
X185371004Y-89024922D01*
X185371005Y-89024924D01*
X185450024Y-89172758D01*
X185498687Y-89333177D01*
X185515117Y-89500000D01*
X185498687Y-89666823D01*
X185472197Y-89754147D01*
X185452738Y-89818297D01*
X185450024Y-89827242D01*
X185409477Y-89903100D01*
X185371004Y-89975078D01*
X185264659Y-90104659D01*
X185135078Y-90211004D01*
X185135076Y-90211005D01*
X184987242Y-90290024D01*
X184826823Y-90338687D01*
X184701804Y-90351000D01*
X184618196Y-90351000D01*
X184493177Y-90338687D01*
X184332758Y-90290024D01*
X184184924Y-90211005D01*
X184184922Y-90211004D01*
X184055341Y-90104659D01*
X183948996Y-89975078D01*
X183910523Y-89903100D01*
X183869976Y-89827242D01*
X183867263Y-89818297D01*
X183847803Y-89754147D01*
X183821313Y-89666823D01*
X183804883Y-89500000D01*
X183821313Y-89333177D01*
X183869976Y-89172758D01*
X183948995Y-89024924D01*
X183948996Y-89024922D01*
X184055341Y-88895341D01*
X184184922Y-88788996D01*
X184200094Y-88780886D01*
X184332758Y-88709976D01*
X184493177Y-88661313D01*
X184618196Y-88649000D01*
X184701804Y-88649000D01*
X184826823Y-88661313D01*
X184826823Y-88661313D01*
G37*
G36*
X174748228Y-88681703D02*
G01*
X174903100Y-88745853D01*
X175042481Y-88838985D01*
X175161015Y-88957519D01*
X175254147Y-89096900D01*
X175318297Y-89251772D01*
X175351000Y-89416184D01*
X175351000Y-89583816D01*
X175318297Y-89748228D01*
X175254147Y-89903100D01*
X175161015Y-90042481D01*
X175042481Y-90161015D01*
X174903100Y-90254147D01*
X174748228Y-90318297D01*
X174583816Y-90351000D01*
X174416184Y-90351000D01*
X174251772Y-90318297D01*
X174096900Y-90254147D01*
X173957519Y-90161015D01*
X173838985Y-90042481D01*
X173745853Y-89903100D01*
X173681703Y-89748228D01*
X173649000Y-89583816D01*
X173649000Y-89416184D01*
X173681703Y-89251772D01*
X173745853Y-89096900D01*
X173838985Y-88957519D01*
X173957519Y-88838985D01*
X174096900Y-88745853D01*
X174251772Y-88681703D01*
X174416184Y-88649000D01*
X174583816Y-88649000D01*
X174748228Y-88681703D01*
X174748228Y-88681703D01*
G37*
G36*
X163826823Y-88161313D02*
G01*
X163987242Y-88209976D01*
X164054361Y-88245852D01*
X164135078Y-88288996D01*
X164264659Y-88395341D01*
X164371004Y-88524922D01*
X164371005Y-88524924D01*
X164450024Y-88672758D01*
X164450025Y-88672761D01*
X164452738Y-88681705D01*
X164498687Y-88833177D01*
X164515117Y-89000000D01*
X164498687Y-89166823D01*
X164450024Y-89327242D01*
X164409477Y-89403100D01*
X164371004Y-89475078D01*
X164264659Y-89604659D01*
X164135078Y-89711004D01*
X164135076Y-89711005D01*
X163987242Y-89790024D01*
X163826823Y-89838687D01*
X163701804Y-89851000D01*
X163618196Y-89851000D01*
X163493177Y-89838687D01*
X163332758Y-89790024D01*
X163184924Y-89711005D01*
X163184922Y-89711004D01*
X163055341Y-89604659D01*
X162948996Y-89475078D01*
X162910523Y-89403100D01*
X162869976Y-89327242D01*
X162821313Y-89166823D01*
X162804883Y-89000000D01*
X162821313Y-88833177D01*
X162867262Y-88681705D01*
X162869975Y-88672761D01*
X162869976Y-88672758D01*
X162948995Y-88524924D01*
X162948996Y-88524922D01*
X163055341Y-88395341D01*
X163184922Y-88288996D01*
X163265639Y-88245852D01*
X163332758Y-88209976D01*
X163493177Y-88161313D01*
X163618196Y-88149000D01*
X163701804Y-88149000D01*
X163826823Y-88161313D01*
X163826823Y-88161313D01*
G37*
G36*
X153748228Y-88181703D02*
G01*
X153903100Y-88245853D01*
X154042481Y-88338985D01*
X154161015Y-88457519D01*
X154254147Y-88596900D01*
X154318297Y-88751772D01*
X154351000Y-88916184D01*
X154351000Y-89083816D01*
X154318297Y-89248228D01*
X154254147Y-89403100D01*
X154161015Y-89542481D01*
X154042481Y-89661015D01*
X153903100Y-89754147D01*
X153748228Y-89818297D01*
X153583816Y-89851000D01*
X153416184Y-89851000D01*
X153251772Y-89818297D01*
X153096900Y-89754147D01*
X152957519Y-89661015D01*
X152838985Y-89542481D01*
X152745853Y-89403100D01*
X152681703Y-89248228D01*
X152649000Y-89083816D01*
X152649000Y-88916184D01*
X152681703Y-88751772D01*
X152745853Y-88596900D01*
X152838985Y-88457519D01*
X152957519Y-88338985D01*
X153096900Y-88245853D01*
X153251772Y-88181703D01*
X153416184Y-88149000D01*
X153583816Y-88149000D01*
X153748228Y-88181703D01*
X153748228Y-88181703D01*
G37*
G36*
X196786823Y-85781313D02*
G01*
X196947242Y-85829976D01*
X197079906Y-85900886D01*
X197095078Y-85908996D01*
X197224659Y-86015341D01*
X197331004Y-86144922D01*
X197331005Y-86144924D01*
X197410024Y-86292758D01*
X197458687Y-86453177D01*
X197475117Y-86620000D01*
X197458687Y-86786823D01*
X197410024Y-86947242D01*
X197339114Y-87079906D01*
X197331004Y-87095078D01*
X197224659Y-87224659D01*
X197095078Y-87331004D01*
X197095076Y-87331005D01*
X196947242Y-87410024D01*
X196786823Y-87458687D01*
X196661804Y-87471000D01*
X196578196Y-87471000D01*
X196453177Y-87458687D01*
X196292758Y-87410024D01*
X196144924Y-87331005D01*
X196144922Y-87331004D01*
X196015341Y-87224659D01*
X195908996Y-87095078D01*
X195900886Y-87079906D01*
X195829976Y-86947242D01*
X195781313Y-86786823D01*
X195764883Y-86620000D01*
X195781313Y-86453177D01*
X195829976Y-86292758D01*
X195908995Y-86144924D01*
X195908996Y-86144922D01*
X196015341Y-86015341D01*
X196144922Y-85908996D01*
X196160094Y-85900886D01*
X196292758Y-85829976D01*
X196453177Y-85781313D01*
X196578196Y-85769000D01*
X196661804Y-85769000D01*
X196786823Y-85781313D01*
X196786823Y-85781313D01*
G37*
G36*
X189166823Y-85781313D02*
G01*
X189327242Y-85829976D01*
X189459906Y-85900886D01*
X189475078Y-85908996D01*
X189604659Y-86015341D01*
X189711004Y-86144922D01*
X189711005Y-86144924D01*
X189790024Y-86292758D01*
X189838687Y-86453177D01*
X189855117Y-86620000D01*
X189838687Y-86786823D01*
X189790024Y-86947242D01*
X189719114Y-87079906D01*
X189711004Y-87095078D01*
X189604659Y-87224659D01*
X189475078Y-87331004D01*
X189475076Y-87331005D01*
X189327242Y-87410024D01*
X189166823Y-87458687D01*
X189041804Y-87471000D01*
X188958196Y-87471000D01*
X188833177Y-87458687D01*
X188672758Y-87410024D01*
X188524924Y-87331005D01*
X188524922Y-87331004D01*
X188395341Y-87224659D01*
X188288996Y-87095078D01*
X188280886Y-87079906D01*
X188209976Y-86947242D01*
X188161313Y-86786823D01*
X188144883Y-86620000D01*
X188161313Y-86453177D01*
X188209976Y-86292758D01*
X188288995Y-86144924D01*
X188288996Y-86144922D01*
X188395341Y-86015341D01*
X188524922Y-85908996D01*
X188540094Y-85900886D01*
X188672758Y-85829976D01*
X188833177Y-85781313D01*
X188958196Y-85769000D01*
X189041804Y-85769000D01*
X189166823Y-85781313D01*
X189166823Y-85781313D01*
G37*
G36*
X123356823Y-85321313D02*
G01*
X123517242Y-85369976D01*
X123649906Y-85440886D01*
X123665078Y-85448996D01*
X123794659Y-85555341D01*
X123901004Y-85684922D01*
X123901005Y-85684924D01*
X123980024Y-85832758D01*
X124028687Y-85993177D01*
X124045117Y-86160000D01*
X124028687Y-86326823D01*
X123980024Y-86487242D01*
X123950498Y-86542481D01*
X123901004Y-86635078D01*
X123794659Y-86764659D01*
X123665078Y-86871004D01*
X123665076Y-86871005D01*
X123517242Y-86950024D01*
X123356823Y-86998687D01*
X123231804Y-87011000D01*
X123148196Y-87011000D01*
X123023177Y-86998687D01*
X122862758Y-86950024D01*
X122714924Y-86871005D01*
X122714922Y-86871004D01*
X122585341Y-86764659D01*
X122478996Y-86635078D01*
X122429502Y-86542481D01*
X122399976Y-86487242D01*
X122351313Y-86326823D01*
X122334883Y-86160000D01*
X122351313Y-85993177D01*
X122399976Y-85832758D01*
X122478995Y-85684924D01*
X122478996Y-85684922D01*
X122585341Y-85555341D01*
X122714922Y-85448996D01*
X122730094Y-85440886D01*
X122862758Y-85369976D01*
X123023177Y-85321313D01*
X123148196Y-85309000D01*
X123231804Y-85309000D01*
X123356823Y-85321313D01*
X123356823Y-85321313D01*
G37*
G36*
X128248228Y-85181703D02*
G01*
X128403100Y-85245853D01*
X128542481Y-85338985D01*
X128661015Y-85457519D01*
X128754147Y-85596900D01*
X128818297Y-85751772D01*
X128851000Y-85916184D01*
X128851000Y-86083816D01*
X128818297Y-86248228D01*
X128754147Y-86403100D01*
X128661015Y-86542481D01*
X128542481Y-86661015D01*
X128403100Y-86754147D01*
X128248228Y-86818297D01*
X128083816Y-86851000D01*
X127916184Y-86851000D01*
X127751772Y-86818297D01*
X127596900Y-86754147D01*
X127457519Y-86661015D01*
X127338985Y-86542481D01*
X127245853Y-86403100D01*
X127181703Y-86248228D01*
X127149000Y-86083816D01*
X127149000Y-85916184D01*
X127181703Y-85751772D01*
X127245853Y-85596900D01*
X127338985Y-85457519D01*
X127457519Y-85338985D01*
X127596900Y-85245853D01*
X127751772Y-85181703D01*
X127916184Y-85149000D01*
X128083816Y-85149000D01*
X128248228Y-85181703D01*
X128248228Y-85181703D01*
G37*
G36*
X133248228Y-85181703D02*
G01*
X133403100Y-85245853D01*
X133542481Y-85338985D01*
X133661015Y-85457519D01*
X133754147Y-85596900D01*
X133818297Y-85751772D01*
X133851000Y-85916184D01*
X133851000Y-86083816D01*
X133818297Y-86248228D01*
X133754147Y-86403100D01*
X133661015Y-86542481D01*
X133542481Y-86661015D01*
X133403100Y-86754147D01*
X133248228Y-86818297D01*
X133083816Y-86851000D01*
X132916184Y-86851000D01*
X132751772Y-86818297D01*
X132596900Y-86754147D01*
X132457519Y-86661015D01*
X132338985Y-86542481D01*
X132245853Y-86403100D01*
X132181703Y-86248228D01*
X132149000Y-86083816D01*
X132149000Y-85916184D01*
X132181703Y-85751772D01*
X132245853Y-85596900D01*
X132338985Y-85457519D01*
X132457519Y-85338985D01*
X132596900Y-85245853D01*
X132751772Y-85181703D01*
X132916184Y-85149000D01*
X133083816Y-85149000D01*
X133248228Y-85181703D01*
X133248228Y-85181703D01*
G37*
G36*
X185166823Y-84321313D02*
G01*
X185327242Y-84369976D01*
X185459906Y-84440886D01*
X185475078Y-84448996D01*
X185604659Y-84555341D01*
X185711004Y-84684922D01*
X185711005Y-84684924D01*
X185790024Y-84832758D01*
X185838687Y-84993177D01*
X185855117Y-85160000D01*
X185838687Y-85326823D01*
X185790024Y-85487242D01*
X185731409Y-85596903D01*
X185711004Y-85635078D01*
X185604659Y-85764659D01*
X185475078Y-85871004D01*
X185475076Y-85871005D01*
X185327242Y-85950024D01*
X185166823Y-85998687D01*
X185041804Y-86011000D01*
X184958196Y-86011000D01*
X184833177Y-85998687D01*
X184672758Y-85950024D01*
X184524924Y-85871005D01*
X184524922Y-85871004D01*
X184395341Y-85764659D01*
X184288996Y-85635078D01*
X184268591Y-85596903D01*
X184209976Y-85487242D01*
X184161313Y-85326823D01*
X184144883Y-85160000D01*
X184161313Y-84993177D01*
X184209976Y-84832758D01*
X184288995Y-84684924D01*
X184288996Y-84684922D01*
X184395341Y-84555341D01*
X184524922Y-84448996D01*
X184540094Y-84440886D01*
X184672758Y-84369976D01*
X184833177Y-84321313D01*
X184958196Y-84309000D01*
X185041804Y-84309000D01*
X185166823Y-84321313D01*
X185166823Y-84321313D01*
G37*
G36*
X140397985Y-82293860D02*
G01*
X140510748Y-82316290D01*
X140565538Y-82338985D01*
X140829408Y-82448283D01*
X141116196Y-82639909D01*
X141360091Y-82883804D01*
X141551717Y-83170592D01*
X141583875Y-83248229D01*
X141677948Y-83475341D01*
X141683710Y-83489253D01*
X141751000Y-83827540D01*
X141751000Y-84172460D01*
X141711711Y-84369976D01*
X141683710Y-84510748D01*
X141665348Y-84555078D01*
X141551717Y-84829408D01*
X141360091Y-85116196D01*
X141116196Y-85360091D01*
X140829408Y-85551717D01*
X140642741Y-85629037D01*
X140510748Y-85683710D01*
X140397985Y-85706140D01*
X140172460Y-85751000D01*
X139827540Y-85751000D01*
X139602015Y-85706140D01*
X139489252Y-85683710D01*
X139357259Y-85629037D01*
X139170592Y-85551717D01*
X138883804Y-85360091D01*
X138639909Y-85116196D01*
X138448283Y-84829408D01*
X138334652Y-84555078D01*
X138316290Y-84510748D01*
X138288289Y-84369976D01*
X138249000Y-84172460D01*
X138249000Y-83827540D01*
X138316290Y-83489253D01*
X138322053Y-83475341D01*
X138416125Y-83248229D01*
X138448283Y-83170592D01*
X138639909Y-82883804D01*
X138883804Y-82639909D01*
X139170592Y-82448283D01*
X139434462Y-82338985D01*
X139489252Y-82316290D01*
X139602015Y-82293860D01*
X139827540Y-82249000D01*
X140172460Y-82249000D01*
X140397985Y-82293860D01*
X140397985Y-82293860D01*
G37*
G36*
X189166823Y-83241313D02*
G01*
X189327242Y-83289976D01*
X189418931Y-83338985D01*
X189475078Y-83368996D01*
X189604659Y-83475341D01*
X189711004Y-83604922D01*
X189711005Y-83604924D01*
X189790024Y-83752758D01*
X189838687Y-83913177D01*
X189855117Y-84080000D01*
X189838687Y-84246823D01*
X189816090Y-84321314D01*
X189791281Y-84403100D01*
X189790024Y-84407242D01*
X189767706Y-84448996D01*
X189711004Y-84555078D01*
X189604659Y-84684659D01*
X189475078Y-84791004D01*
X189475076Y-84791005D01*
X189327242Y-84870024D01*
X189166823Y-84918687D01*
X189041804Y-84931000D01*
X188958196Y-84931000D01*
X188833177Y-84918687D01*
X188672758Y-84870024D01*
X188524924Y-84791005D01*
X188524922Y-84791004D01*
X188395341Y-84684659D01*
X188288996Y-84555078D01*
X188232294Y-84448996D01*
X188209976Y-84407242D01*
X188208720Y-84403100D01*
X188183910Y-84321314D01*
X188161313Y-84246823D01*
X188144883Y-84080000D01*
X188161313Y-83913177D01*
X188209976Y-83752758D01*
X188288995Y-83604924D01*
X188288996Y-83604922D01*
X188395341Y-83475341D01*
X188524922Y-83368996D01*
X188581069Y-83338985D01*
X188672758Y-83289976D01*
X188833177Y-83241313D01*
X188958196Y-83229000D01*
X189041804Y-83229000D01*
X189166823Y-83241313D01*
X189166823Y-83241313D01*
G37*
G36*
X196786823Y-83241313D02*
G01*
X196947242Y-83289976D01*
X197038931Y-83338985D01*
X197095078Y-83368996D01*
X197224659Y-83475341D01*
X197331004Y-83604922D01*
X197331005Y-83604924D01*
X197410024Y-83752758D01*
X197458687Y-83913177D01*
X197475117Y-84080000D01*
X197458687Y-84246823D01*
X197436090Y-84321314D01*
X197411281Y-84403100D01*
X197410024Y-84407242D01*
X197387706Y-84448996D01*
X197331004Y-84555078D01*
X197224659Y-84684659D01*
X197095078Y-84791004D01*
X197095076Y-84791005D01*
X196947242Y-84870024D01*
X196786823Y-84918687D01*
X196661804Y-84931000D01*
X196578196Y-84931000D01*
X196453177Y-84918687D01*
X196292758Y-84870024D01*
X196144924Y-84791005D01*
X196144922Y-84791004D01*
X196015341Y-84684659D01*
X195908996Y-84555078D01*
X195852294Y-84448996D01*
X195829976Y-84407242D01*
X195828720Y-84403100D01*
X195803910Y-84321314D01*
X195781313Y-84246823D01*
X195764883Y-84080000D01*
X195781313Y-83913177D01*
X195829976Y-83752758D01*
X195908995Y-83604924D01*
X195908996Y-83604922D01*
X196015341Y-83475341D01*
X196144922Y-83368996D01*
X196201069Y-83338985D01*
X196292758Y-83289976D01*
X196453177Y-83241313D01*
X196578196Y-83229000D01*
X196661804Y-83229000D01*
X196786823Y-83241313D01*
X196786823Y-83241313D01*
G37*
G36*
X165748228Y-83181703D02*
G01*
X165903100Y-83245853D01*
X166042481Y-83338985D01*
X166161015Y-83457519D01*
X166254147Y-83596900D01*
X166318297Y-83751772D01*
X166351000Y-83916184D01*
X166351000Y-84083816D01*
X166318297Y-84248228D01*
X166254147Y-84403100D01*
X166161015Y-84542481D01*
X166042481Y-84661015D01*
X165903100Y-84754147D01*
X165748228Y-84818297D01*
X165583816Y-84851000D01*
X165416184Y-84851000D01*
X165251772Y-84818297D01*
X165096900Y-84754147D01*
X164957519Y-84661015D01*
X164838985Y-84542481D01*
X164745853Y-84403100D01*
X164681703Y-84248228D01*
X164649000Y-84083816D01*
X164649000Y-83916184D01*
X164681703Y-83751772D01*
X164745853Y-83596900D01*
X164838985Y-83457519D01*
X164957519Y-83338985D01*
X165096900Y-83245853D01*
X165251772Y-83181703D01*
X165416184Y-83149000D01*
X165583816Y-83149000D01*
X165748228Y-83181703D01*
X165748228Y-83181703D01*
G37*
G36*
X119777985Y-80843860D02*
G01*
X119890748Y-80866290D01*
X119979615Y-80903100D01*
X120209408Y-80998283D01*
X120496196Y-81189909D01*
X120740091Y-81433804D01*
X120931717Y-81720592D01*
X120959151Y-81786825D01*
X121056280Y-82021314D01*
X121063710Y-82039253D01*
X121131000Y-82377540D01*
X121131000Y-82722460D01*
X121063710Y-83060747D01*
X120931717Y-83379408D01*
X120740091Y-83666196D01*
X120496196Y-83910091D01*
X120209408Y-84101717D01*
X120038623Y-84172458D01*
X119890748Y-84233710D01*
X119824824Y-84246823D01*
X119552460Y-84301000D01*
X119207540Y-84301000D01*
X118935176Y-84246823D01*
X118869252Y-84233710D01*
X118721377Y-84172458D01*
X118550592Y-84101717D01*
X118263804Y-83910091D01*
X118019909Y-83666196D01*
X117828283Y-83379408D01*
X117696290Y-83060747D01*
X117629000Y-82722460D01*
X117629000Y-82377540D01*
X117696290Y-82039253D01*
X117703721Y-82021314D01*
X117800849Y-81786825D01*
X117828283Y-81720592D01*
X118019909Y-81433804D01*
X118263804Y-81189909D01*
X118550592Y-80998283D01*
X118780385Y-80903100D01*
X118869252Y-80866290D01*
X118982015Y-80843860D01*
X119207540Y-80799000D01*
X119552460Y-80799000D01*
X119777985Y-80843860D01*
X119777985Y-80843860D01*
G37*
G36*
X114748228Y-82181703D02*
G01*
X114903100Y-82245853D01*
X115042481Y-82338985D01*
X115161015Y-82457519D01*
X115254147Y-82596900D01*
X115318297Y-82751772D01*
X115351000Y-82916184D01*
X115351000Y-83083816D01*
X115318297Y-83248228D01*
X115254147Y-83403100D01*
X115161015Y-83542481D01*
X115042481Y-83661015D01*
X114903100Y-83754147D01*
X114748228Y-83818297D01*
X114583816Y-83851000D01*
X114416184Y-83851000D01*
X114251772Y-83818297D01*
X114096900Y-83754147D01*
X113957519Y-83661015D01*
X113838985Y-83542481D01*
X113745853Y-83403100D01*
X113681703Y-83248228D01*
X113649000Y-83083816D01*
X113649000Y-82916184D01*
X113681703Y-82751772D01*
X113745853Y-82596900D01*
X113838985Y-82457519D01*
X113957519Y-82338985D01*
X114096900Y-82245853D01*
X114251772Y-82181703D01*
X114416184Y-82149000D01*
X114583816Y-82149000D01*
X114748228Y-82181703D01*
X114748228Y-82181703D01*
G37*
G36*
X109748228Y-82181703D02*
G01*
X109903100Y-82245853D01*
X110042481Y-82338985D01*
X110161015Y-82457519D01*
X110254147Y-82596900D01*
X110318297Y-82751772D01*
X110351000Y-82916184D01*
X110351000Y-83083816D01*
X110318297Y-83248228D01*
X110254147Y-83403100D01*
X110161015Y-83542481D01*
X110042481Y-83661015D01*
X109903100Y-83754147D01*
X109748228Y-83818297D01*
X109583816Y-83851000D01*
X109416184Y-83851000D01*
X109251772Y-83818297D01*
X109096900Y-83754147D01*
X108957519Y-83661015D01*
X108838985Y-83542481D01*
X108745853Y-83403100D01*
X108681703Y-83248228D01*
X108649000Y-83083816D01*
X108649000Y-82916184D01*
X108681703Y-82751772D01*
X108745853Y-82596900D01*
X108838985Y-82457519D01*
X108957519Y-82338985D01*
X109096900Y-82245853D01*
X109251772Y-82181703D01*
X109416184Y-82149000D01*
X109583816Y-82149000D01*
X109748228Y-82181703D01*
X109748228Y-82181703D01*
G37*
G36*
X147248228Y-82181703D02*
G01*
X147403100Y-82245853D01*
X147542481Y-82338985D01*
X147661015Y-82457519D01*
X147754147Y-82596900D01*
X147818297Y-82751772D01*
X147851000Y-82916184D01*
X147851000Y-83083816D01*
X147818297Y-83248228D01*
X147754147Y-83403100D01*
X147661015Y-83542481D01*
X147542481Y-83661015D01*
X147403100Y-83754147D01*
X147248228Y-83818297D01*
X147083816Y-83851000D01*
X146916184Y-83851000D01*
X146751772Y-83818297D01*
X146596900Y-83754147D01*
X146457519Y-83661015D01*
X146338985Y-83542481D01*
X146245853Y-83403100D01*
X146181703Y-83248228D01*
X146149000Y-83083816D01*
X146149000Y-82916184D01*
X146181703Y-82751772D01*
X146245853Y-82596900D01*
X146338985Y-82457519D01*
X146457519Y-82338985D01*
X146596900Y-82245853D01*
X146751772Y-82181703D01*
X146916184Y-82149000D01*
X147083816Y-82149000D01*
X147248228Y-82181703D01*
X147248228Y-82181703D01*
G37*
G36*
X159786823Y-82021313D02*
G01*
X159947242Y-82069976D01*
X159994204Y-82095078D01*
X160095078Y-82148996D01*
X160224659Y-82255341D01*
X160331004Y-82384922D01*
X160331005Y-82384924D01*
X160410024Y-82532758D01*
X160458687Y-82693177D01*
X160475117Y-82860000D01*
X160458687Y-83026823D01*
X160410024Y-83187242D01*
X160355112Y-83289975D01*
X160331004Y-83335078D01*
X160224659Y-83464659D01*
X160095078Y-83571004D01*
X160095076Y-83571005D01*
X159947242Y-83650024D01*
X159786823Y-83698687D01*
X159661804Y-83711000D01*
X159578196Y-83711000D01*
X159453177Y-83698687D01*
X159292758Y-83650024D01*
X159144924Y-83571005D01*
X159144922Y-83571004D01*
X159015341Y-83464659D01*
X158908996Y-83335078D01*
X158884888Y-83289975D01*
X158829976Y-83187242D01*
X158781313Y-83026823D01*
X158764883Y-82860000D01*
X158781313Y-82693177D01*
X158829976Y-82532758D01*
X158908995Y-82384924D01*
X158908996Y-82384922D01*
X159015341Y-82255341D01*
X159144922Y-82148996D01*
X159245796Y-82095078D01*
X159292758Y-82069976D01*
X159453177Y-82021313D01*
X159578196Y-82009000D01*
X159661804Y-82009000D01*
X159786823Y-82021313D01*
X159786823Y-82021313D01*
G37*
G36*
X152166823Y-82021313D02*
G01*
X152327242Y-82069976D01*
X152374204Y-82095078D01*
X152475078Y-82148996D01*
X152604659Y-82255341D01*
X152711004Y-82384922D01*
X152711005Y-82384924D01*
X152790024Y-82532758D01*
X152838687Y-82693177D01*
X152855117Y-82860000D01*
X152838687Y-83026823D01*
X152790024Y-83187242D01*
X152735112Y-83289975D01*
X152711004Y-83335078D01*
X152604659Y-83464659D01*
X152475078Y-83571004D01*
X152475076Y-83571005D01*
X152327242Y-83650024D01*
X152166823Y-83698687D01*
X152041804Y-83711000D01*
X151958196Y-83711000D01*
X151833177Y-83698687D01*
X151672758Y-83650024D01*
X151524924Y-83571005D01*
X151524922Y-83571004D01*
X151395341Y-83464659D01*
X151288996Y-83335078D01*
X151264888Y-83289975D01*
X151209976Y-83187242D01*
X151161313Y-83026823D01*
X151144883Y-82860000D01*
X151161313Y-82693177D01*
X151209976Y-82532758D01*
X151288995Y-82384924D01*
X151288996Y-82384922D01*
X151395341Y-82255341D01*
X151524922Y-82148996D01*
X151625796Y-82095078D01*
X151672758Y-82069976D01*
X151833177Y-82021313D01*
X151958196Y-82009000D01*
X152041804Y-82009000D01*
X152166823Y-82021313D01*
X152166823Y-82021313D01*
G37*
G36*
X135786823Y-80781313D02*
G01*
X135917380Y-80820917D01*
X135944012Y-80828996D01*
X135947242Y-80829976D01*
X136079906Y-80900886D01*
X136095078Y-80908996D01*
X136224659Y-81015341D01*
X136331004Y-81144922D01*
X136331005Y-81144924D01*
X136410024Y-81292758D01*
X136458687Y-81453177D01*
X136475117Y-81620000D01*
X136458687Y-81786823D01*
X136410024Y-81947242D01*
X136360843Y-82039253D01*
X136331004Y-82095078D01*
X136224659Y-82224659D01*
X136095078Y-82331004D01*
X136095076Y-82331005D01*
X135947242Y-82410024D01*
X135786823Y-82458687D01*
X135661804Y-82471000D01*
X135578196Y-82471000D01*
X135453177Y-82458687D01*
X135292758Y-82410024D01*
X135144924Y-82331005D01*
X135144922Y-82331004D01*
X135015341Y-82224659D01*
X134908996Y-82095078D01*
X134879157Y-82039253D01*
X134829976Y-81947242D01*
X134781313Y-81786823D01*
X134764883Y-81620000D01*
X134781313Y-81453177D01*
X134829976Y-81292758D01*
X134908995Y-81144924D01*
X134908996Y-81144922D01*
X135015341Y-81015341D01*
X135144922Y-80908996D01*
X135160094Y-80900886D01*
X135292758Y-80829976D01*
X135295989Y-80828996D01*
X135322620Y-80820917D01*
X135453177Y-80781313D01*
X135578196Y-80769000D01*
X135661804Y-80769000D01*
X135786823Y-80781313D01*
X135786823Y-80781313D01*
G37*
G36*
X128166823Y-80781313D02*
G01*
X128297380Y-80820917D01*
X128324012Y-80828996D01*
X128327242Y-80829976D01*
X128459906Y-80900886D01*
X128475078Y-80908996D01*
X128604659Y-81015341D01*
X128711004Y-81144922D01*
X128711005Y-81144924D01*
X128790024Y-81292758D01*
X128838687Y-81453177D01*
X128855117Y-81620000D01*
X128838687Y-81786823D01*
X128790024Y-81947242D01*
X128740843Y-82039253D01*
X128711004Y-82095078D01*
X128604659Y-82224659D01*
X128475078Y-82331004D01*
X128475076Y-82331005D01*
X128327242Y-82410024D01*
X128166823Y-82458687D01*
X128041804Y-82471000D01*
X127958196Y-82471000D01*
X127833177Y-82458687D01*
X127672758Y-82410024D01*
X127524924Y-82331005D01*
X127524922Y-82331004D01*
X127395341Y-82224659D01*
X127288996Y-82095078D01*
X127259157Y-82039253D01*
X127209976Y-81947242D01*
X127161313Y-81786823D01*
X127144883Y-81620000D01*
X127161313Y-81453177D01*
X127209976Y-81292758D01*
X127288995Y-81144924D01*
X127288996Y-81144922D01*
X127395341Y-81015341D01*
X127524922Y-80908996D01*
X127540094Y-80900886D01*
X127672758Y-80829976D01*
X127675989Y-80828996D01*
X127702620Y-80820917D01*
X127833177Y-80781313D01*
X127958196Y-80769000D01*
X128041804Y-80769000D01*
X128166823Y-80781313D01*
X128166823Y-80781313D01*
G37*
G36*
X196786823Y-80701313D02*
G01*
X196947242Y-80749976D01*
X197038959Y-80799000D01*
X197095078Y-80828996D01*
X197224659Y-80935341D01*
X197331004Y-81064922D01*
X197331005Y-81064924D01*
X197410024Y-81212758D01*
X197458687Y-81373177D01*
X197475117Y-81540000D01*
X197458687Y-81706823D01*
X197410024Y-81867242D01*
X197367263Y-81947242D01*
X197331004Y-82015078D01*
X197224659Y-82144659D01*
X197095078Y-82251004D01*
X197095076Y-82251005D01*
X196947242Y-82330024D01*
X196947239Y-82330025D01*
X196944008Y-82331005D01*
X196786823Y-82378687D01*
X196661804Y-82391000D01*
X196578196Y-82391000D01*
X196453177Y-82378687D01*
X196295992Y-82331005D01*
X196292761Y-82330025D01*
X196292758Y-82330024D01*
X196144924Y-82251005D01*
X196144922Y-82251004D01*
X196015341Y-82144659D01*
X195908996Y-82015078D01*
X195872737Y-81947242D01*
X195829976Y-81867242D01*
X195781313Y-81706823D01*
X195764883Y-81540000D01*
X195781313Y-81373177D01*
X195829976Y-81212758D01*
X195908995Y-81064924D01*
X195908996Y-81064922D01*
X196015341Y-80935341D01*
X196144922Y-80828996D01*
X196201041Y-80799000D01*
X196292758Y-80749976D01*
X196453177Y-80701313D01*
X196578196Y-80689000D01*
X196661804Y-80689000D01*
X196786823Y-80701313D01*
X196786823Y-80701313D01*
G37*
G36*
X189166823Y-80701313D02*
G01*
X189327242Y-80749976D01*
X189418959Y-80799000D01*
X189475078Y-80828996D01*
X189604659Y-80935341D01*
X189711004Y-81064922D01*
X189711005Y-81064924D01*
X189790024Y-81212758D01*
X189838687Y-81373177D01*
X189855117Y-81540000D01*
X189838687Y-81706823D01*
X189790024Y-81867242D01*
X189747263Y-81947242D01*
X189711004Y-82015078D01*
X189604659Y-82144659D01*
X189475078Y-82251004D01*
X189475076Y-82251005D01*
X189327242Y-82330024D01*
X189327239Y-82330025D01*
X189324008Y-82331005D01*
X189166823Y-82378687D01*
X189041804Y-82391000D01*
X188958196Y-82391000D01*
X188833177Y-82378687D01*
X188675992Y-82331005D01*
X188672761Y-82330025D01*
X188672758Y-82330024D01*
X188524924Y-82251005D01*
X188524922Y-82251004D01*
X188395341Y-82144659D01*
X188288996Y-82015078D01*
X188252737Y-81947242D01*
X188209976Y-81867242D01*
X188161313Y-81706823D01*
X188144883Y-81540000D01*
X188161313Y-81373177D01*
X188209976Y-81212758D01*
X188288995Y-81064924D01*
X188288996Y-81064922D01*
X188395341Y-80935341D01*
X188524922Y-80828996D01*
X188581041Y-80799000D01*
X188672758Y-80749976D01*
X188833177Y-80701313D01*
X188958196Y-80689000D01*
X189041804Y-80689000D01*
X189166823Y-80701313D01*
X189166823Y-80701313D01*
G37*
G36*
X178748228Y-79681703D02*
G01*
X178903100Y-79745853D01*
X179042481Y-79838985D01*
X179161015Y-79957519D01*
X179254147Y-80096900D01*
X179318297Y-80251772D01*
X179351000Y-80416184D01*
X179351000Y-80583816D01*
X179318297Y-80748228D01*
X179254147Y-80903100D01*
X179161015Y-81042481D01*
X179042481Y-81161015D01*
X178903100Y-81254147D01*
X178748228Y-81318297D01*
X178583816Y-81351000D01*
X178416184Y-81351000D01*
X178251772Y-81318297D01*
X178096900Y-81254147D01*
X177957519Y-81161015D01*
X177838985Y-81042481D01*
X177745853Y-80903100D01*
X177681703Y-80748228D01*
X177649000Y-80583816D01*
X177649000Y-80416184D01*
X177681703Y-80251772D01*
X177745853Y-80096900D01*
X177838985Y-79957519D01*
X177957519Y-79838985D01*
X178096900Y-79745853D01*
X178251772Y-79681703D01*
X178416184Y-79649000D01*
X178583816Y-79649000D01*
X178748228Y-79681703D01*
X178748228Y-79681703D01*
G37*
G36*
X173748228Y-79681703D02*
G01*
X173903100Y-79745853D01*
X174042481Y-79838985D01*
X174161015Y-79957519D01*
X174254147Y-80096900D01*
X174318297Y-80251772D01*
X174351000Y-80416184D01*
X174351000Y-80583816D01*
X174318297Y-80748228D01*
X174254147Y-80903100D01*
X174161015Y-81042481D01*
X174042481Y-81161015D01*
X173903100Y-81254147D01*
X173748228Y-81318297D01*
X173583816Y-81351000D01*
X173416184Y-81351000D01*
X173251772Y-81318297D01*
X173096900Y-81254147D01*
X172957519Y-81161015D01*
X172838985Y-81042481D01*
X172745853Y-80903100D01*
X172681703Y-80748228D01*
X172649000Y-80583816D01*
X172649000Y-80416184D01*
X172681703Y-80251772D01*
X172745853Y-80096900D01*
X172838985Y-79957519D01*
X172957519Y-79838985D01*
X173096900Y-79745853D01*
X173251772Y-79681703D01*
X173416184Y-79649000D01*
X173583816Y-79649000D01*
X173748228Y-79681703D01*
X173748228Y-79681703D01*
G37*
G36*
X152166823Y-79481313D02*
G01*
X152327242Y-79529976D01*
X152374204Y-79555078D01*
X152475078Y-79608996D01*
X152604659Y-79715341D01*
X152711004Y-79844922D01*
X152711005Y-79844924D01*
X152790024Y-79992758D01*
X152838687Y-80153177D01*
X152855117Y-80320000D01*
X152838687Y-80486823D01*
X152790024Y-80647242D01*
X152761122Y-80701313D01*
X152711004Y-80795078D01*
X152604659Y-80924659D01*
X152475078Y-81031004D01*
X152475076Y-81031005D01*
X152327242Y-81110024D01*
X152166823Y-81158687D01*
X152041804Y-81171000D01*
X151958196Y-81171000D01*
X151833177Y-81158687D01*
X151672758Y-81110024D01*
X151524924Y-81031005D01*
X151524922Y-81031004D01*
X151395341Y-80924659D01*
X151288996Y-80795078D01*
X151238878Y-80701313D01*
X151209976Y-80647242D01*
X151161313Y-80486823D01*
X151144883Y-80320000D01*
X151161313Y-80153177D01*
X151209976Y-79992758D01*
X151288995Y-79844924D01*
X151288996Y-79844922D01*
X151395341Y-79715341D01*
X151524922Y-79608996D01*
X151625796Y-79555078D01*
X151672758Y-79529976D01*
X151833177Y-79481313D01*
X151958196Y-79469000D01*
X152041804Y-79469000D01*
X152166823Y-79481313D01*
X152166823Y-79481313D01*
G37*
G36*
X159786823Y-79481313D02*
G01*
X159947242Y-79529976D01*
X159994204Y-79555078D01*
X160095078Y-79608996D01*
X160224659Y-79715341D01*
X160331004Y-79844922D01*
X160331005Y-79844924D01*
X160410024Y-79992758D01*
X160458687Y-80153177D01*
X160475117Y-80320000D01*
X160458687Y-80486823D01*
X160410024Y-80647242D01*
X160381122Y-80701313D01*
X160331004Y-80795078D01*
X160224659Y-80924659D01*
X160095078Y-81031004D01*
X160095076Y-81031005D01*
X159947242Y-81110024D01*
X159786823Y-81158687D01*
X159661804Y-81171000D01*
X159578196Y-81171000D01*
X159453177Y-81158687D01*
X159292758Y-81110024D01*
X159144924Y-81031005D01*
X159144922Y-81031004D01*
X159015341Y-80924659D01*
X158908996Y-80795078D01*
X158858878Y-80701313D01*
X158829976Y-80647242D01*
X158781313Y-80486823D01*
X158764883Y-80320000D01*
X158781313Y-80153177D01*
X158829976Y-79992758D01*
X158908995Y-79844924D01*
X158908996Y-79844922D01*
X159015341Y-79715341D01*
X159144922Y-79608996D01*
X159245796Y-79555078D01*
X159292758Y-79529976D01*
X159453177Y-79481313D01*
X159578196Y-79469000D01*
X159661804Y-79469000D01*
X159786823Y-79481313D01*
X159786823Y-79481313D01*
G37*
G36*
X135786823Y-78241313D02*
G01*
X135917380Y-78280917D01*
X135944012Y-78288996D01*
X135947242Y-78289976D01*
X136038931Y-78338985D01*
X136095078Y-78368996D01*
X136224659Y-78475341D01*
X136331004Y-78604922D01*
X136331005Y-78604924D01*
X136410024Y-78752758D01*
X136458687Y-78913177D01*
X136475117Y-79080000D01*
X136458687Y-79246823D01*
X136458260Y-79248229D01*
X136411281Y-79403100D01*
X136410024Y-79407242D01*
X136344422Y-79529975D01*
X136331004Y-79555078D01*
X136224659Y-79684659D01*
X136095078Y-79791004D01*
X136095076Y-79791005D01*
X135947242Y-79870024D01*
X135786823Y-79918687D01*
X135661804Y-79931000D01*
X135578196Y-79931000D01*
X135453177Y-79918687D01*
X135292758Y-79870024D01*
X135144924Y-79791005D01*
X135144922Y-79791004D01*
X135015341Y-79684659D01*
X134908996Y-79555078D01*
X134895578Y-79529975D01*
X134829976Y-79407242D01*
X134828720Y-79403100D01*
X134781740Y-79248229D01*
X134781313Y-79246823D01*
X134764883Y-79080000D01*
X134781313Y-78913177D01*
X134829976Y-78752758D01*
X134908995Y-78604924D01*
X134908996Y-78604922D01*
X135015341Y-78475341D01*
X135144922Y-78368996D01*
X135201069Y-78338985D01*
X135292758Y-78289976D01*
X135295989Y-78288996D01*
X135322620Y-78280917D01*
X135453177Y-78241313D01*
X135578196Y-78229000D01*
X135661804Y-78229000D01*
X135786823Y-78241313D01*
X135786823Y-78241313D01*
G37*
G36*
X128166823Y-78241313D02*
G01*
X128297380Y-78280917D01*
X128324012Y-78288996D01*
X128327242Y-78289976D01*
X128418931Y-78338985D01*
X128475078Y-78368996D01*
X128604659Y-78475341D01*
X128711004Y-78604922D01*
X128711005Y-78604924D01*
X128790024Y-78752758D01*
X128838687Y-78913177D01*
X128855117Y-79080000D01*
X128838687Y-79246823D01*
X128838260Y-79248229D01*
X128791281Y-79403100D01*
X128790024Y-79407242D01*
X128724422Y-79529975D01*
X128711004Y-79555078D01*
X128604659Y-79684659D01*
X128475078Y-79791004D01*
X128475076Y-79791005D01*
X128327242Y-79870024D01*
X128166823Y-79918687D01*
X128041804Y-79931000D01*
X127958196Y-79931000D01*
X127833177Y-79918687D01*
X127672758Y-79870024D01*
X127524924Y-79791005D01*
X127524922Y-79791004D01*
X127395341Y-79684659D01*
X127288996Y-79555078D01*
X127275578Y-79529975D01*
X127209976Y-79407242D01*
X127208720Y-79403100D01*
X127161740Y-79248229D01*
X127161313Y-79246823D01*
X127144883Y-79080000D01*
X127161313Y-78913177D01*
X127209976Y-78752758D01*
X127288995Y-78604924D01*
X127288996Y-78604922D01*
X127395341Y-78475341D01*
X127524922Y-78368996D01*
X127581069Y-78338985D01*
X127672758Y-78289976D01*
X127675989Y-78288996D01*
X127702620Y-78280917D01*
X127833177Y-78241313D01*
X127958196Y-78229000D01*
X128041804Y-78229000D01*
X128166823Y-78241313D01*
X128166823Y-78241313D01*
G37*
G36*
X165748228Y-78181703D02*
G01*
X165903100Y-78245853D01*
X166042481Y-78338985D01*
X166161015Y-78457519D01*
X166254147Y-78596900D01*
X166318297Y-78751772D01*
X166351000Y-78916184D01*
X166351000Y-79083816D01*
X166318297Y-79248228D01*
X166254147Y-79403100D01*
X166161015Y-79542481D01*
X166042481Y-79661015D01*
X165903100Y-79754147D01*
X165748228Y-79818297D01*
X165583816Y-79851000D01*
X165416184Y-79851000D01*
X165251772Y-79818297D01*
X165096900Y-79754147D01*
X164957519Y-79661015D01*
X164838985Y-79542481D01*
X164745853Y-79403100D01*
X164681703Y-79248228D01*
X164649000Y-79083816D01*
X164649000Y-78916184D01*
X164681703Y-78751772D01*
X164745853Y-78596900D01*
X164838985Y-78457519D01*
X164957519Y-78338985D01*
X165096900Y-78245853D01*
X165251772Y-78181703D01*
X165416184Y-78149000D01*
X165583816Y-78149000D01*
X165748228Y-78181703D01*
X165748228Y-78181703D01*
G37*
G36*
X196786823Y-78161313D02*
G01*
X196947242Y-78209976D01*
X197079906Y-78280886D01*
X197095078Y-78288996D01*
X197224659Y-78395341D01*
X197331004Y-78524922D01*
X197331005Y-78524924D01*
X197410024Y-78672758D01*
X197458687Y-78833177D01*
X197475117Y-79000000D01*
X197458687Y-79166823D01*
X197432197Y-79254147D01*
X197412738Y-79318297D01*
X197410024Y-79327242D01*
X197367263Y-79407242D01*
X197331004Y-79475078D01*
X197224659Y-79604659D01*
X197095078Y-79711004D01*
X197095076Y-79711005D01*
X196947242Y-79790024D01*
X196947239Y-79790025D01*
X196944008Y-79791005D01*
X196786823Y-79838687D01*
X196661804Y-79851000D01*
X196578196Y-79851000D01*
X196453177Y-79838687D01*
X196295992Y-79791005D01*
X196292761Y-79790025D01*
X196292758Y-79790024D01*
X196144924Y-79711005D01*
X196144922Y-79711004D01*
X196015341Y-79604659D01*
X195908996Y-79475078D01*
X195872737Y-79407242D01*
X195829976Y-79327242D01*
X195827263Y-79318297D01*
X195807803Y-79254147D01*
X195781313Y-79166823D01*
X195764883Y-79000000D01*
X195781313Y-78833177D01*
X195829976Y-78672758D01*
X195908995Y-78524924D01*
X195908996Y-78524922D01*
X196015341Y-78395341D01*
X196144922Y-78288996D01*
X196160094Y-78280886D01*
X196292758Y-78209976D01*
X196453177Y-78161313D01*
X196578196Y-78149000D01*
X196661804Y-78149000D01*
X196786823Y-78161313D01*
X196786823Y-78161313D01*
G37*
G36*
X189851000Y-79851000D02*
G01*
X188149000Y-79851000D01*
X188149000Y-78149000D01*
X189851000Y-78149000D01*
X189851000Y-79851000D01*
X189851000Y-79851000D01*
G37*
G36*
X100248228Y-77681703D02*
G01*
X100403100Y-77745853D01*
X100542481Y-77838985D01*
X100661015Y-77957519D01*
X100754147Y-78096900D01*
X100818297Y-78251772D01*
X100851000Y-78416184D01*
X100851000Y-78583816D01*
X100818297Y-78748228D01*
X100754147Y-78903100D01*
X100661015Y-79042481D01*
X100542481Y-79161015D01*
X100403100Y-79254147D01*
X100248228Y-79318297D01*
X100083816Y-79351000D01*
X99916184Y-79351000D01*
X99751772Y-79318297D01*
X99596900Y-79254147D01*
X99457519Y-79161015D01*
X99338985Y-79042481D01*
X99245853Y-78903100D01*
X99181703Y-78748228D01*
X99149000Y-78583816D01*
X99149000Y-78416184D01*
X99181703Y-78251772D01*
X99245853Y-78096900D01*
X99338985Y-77957519D01*
X99457519Y-77838985D01*
X99596900Y-77745853D01*
X99751772Y-77681703D01*
X99916184Y-77649000D01*
X100083816Y-77649000D01*
X100248228Y-77681703D01*
X100248228Y-77681703D01*
G37*
G36*
X105248228Y-77681703D02*
G01*
X105403100Y-77745853D01*
X105542481Y-77838985D01*
X105661015Y-77957519D01*
X105754147Y-78096900D01*
X105818297Y-78251772D01*
X105851000Y-78416184D01*
X105851000Y-78583816D01*
X105818297Y-78748228D01*
X105754147Y-78903100D01*
X105661015Y-79042481D01*
X105542481Y-79161015D01*
X105403100Y-79254147D01*
X105248228Y-79318297D01*
X105083816Y-79351000D01*
X104916184Y-79351000D01*
X104751772Y-79318297D01*
X104596900Y-79254147D01*
X104457519Y-79161015D01*
X104338985Y-79042481D01*
X104245853Y-78903100D01*
X104181703Y-78748228D01*
X104149000Y-78583816D01*
X104149000Y-78416184D01*
X104181703Y-78251772D01*
X104245853Y-78096900D01*
X104338985Y-77957519D01*
X104457519Y-77838985D01*
X104596900Y-77745853D01*
X104751772Y-77681703D01*
X104916184Y-77649000D01*
X105083816Y-77649000D01*
X105248228Y-77681703D01*
X105248228Y-77681703D01*
G37*
G36*
X117286823Y-77281313D02*
G01*
X117447242Y-77329976D01*
X117561410Y-77391000D01*
X117595078Y-77408996D01*
X117724659Y-77515341D01*
X117831004Y-77644922D01*
X117831005Y-77644924D01*
X117910024Y-77792758D01*
X117958687Y-77953177D01*
X117975117Y-78120000D01*
X117958687Y-78286823D01*
X117910024Y-78447242D01*
X117844396Y-78570024D01*
X117831004Y-78595078D01*
X117724659Y-78724659D01*
X117595078Y-78831004D01*
X117579906Y-78839114D01*
X117447242Y-78910024D01*
X117286823Y-78958687D01*
X117161804Y-78971000D01*
X117078196Y-78971000D01*
X116953177Y-78958687D01*
X116792758Y-78910024D01*
X116660094Y-78839114D01*
X116644922Y-78831004D01*
X116515341Y-78724659D01*
X116408996Y-78595078D01*
X116395604Y-78570024D01*
X116329976Y-78447242D01*
X116281313Y-78286823D01*
X116264883Y-78120000D01*
X116281313Y-77953177D01*
X116329976Y-77792758D01*
X116408995Y-77644924D01*
X116408996Y-77644922D01*
X116515341Y-77515341D01*
X116644922Y-77408996D01*
X116678590Y-77391000D01*
X116792758Y-77329976D01*
X116953177Y-77281313D01*
X117078196Y-77269000D01*
X117161804Y-77269000D01*
X117286823Y-77281313D01*
X117286823Y-77281313D01*
G37*
G36*
X109666823Y-77281313D02*
G01*
X109827242Y-77329976D01*
X109941410Y-77391000D01*
X109975078Y-77408996D01*
X110104659Y-77515341D01*
X110211004Y-77644922D01*
X110211005Y-77644924D01*
X110290024Y-77792758D01*
X110338687Y-77953177D01*
X110355117Y-78120000D01*
X110338687Y-78286823D01*
X110290024Y-78447242D01*
X110224396Y-78570024D01*
X110211004Y-78595078D01*
X110104659Y-78724659D01*
X109975078Y-78831004D01*
X109959906Y-78839114D01*
X109827242Y-78910024D01*
X109666823Y-78958687D01*
X109541804Y-78971000D01*
X109458196Y-78971000D01*
X109333177Y-78958687D01*
X109172758Y-78910024D01*
X109040094Y-78839114D01*
X109024922Y-78831004D01*
X108895341Y-78724659D01*
X108788996Y-78595078D01*
X108775604Y-78570024D01*
X108709976Y-78447242D01*
X108661313Y-78286823D01*
X108644883Y-78120000D01*
X108661313Y-77953177D01*
X108709976Y-77792758D01*
X108788995Y-77644924D01*
X108788996Y-77644922D01*
X108895341Y-77515341D01*
X109024922Y-77408996D01*
X109058590Y-77391000D01*
X109172758Y-77329976D01*
X109333177Y-77281313D01*
X109458196Y-77269000D01*
X109541804Y-77269000D01*
X109666823Y-77281313D01*
X109666823Y-77281313D01*
G37*
G36*
X147248228Y-77181703D02*
G01*
X147403100Y-77245853D01*
X147542481Y-77338985D01*
X147661015Y-77457519D01*
X147754147Y-77596900D01*
X147818297Y-77751772D01*
X147851000Y-77916184D01*
X147851000Y-78083816D01*
X147818297Y-78248228D01*
X147754147Y-78403100D01*
X147661015Y-78542481D01*
X147542481Y-78661015D01*
X147403100Y-78754147D01*
X147248228Y-78818297D01*
X147083816Y-78851000D01*
X146916184Y-78851000D01*
X146751772Y-78818297D01*
X146596900Y-78754147D01*
X146457519Y-78661015D01*
X146338985Y-78542481D01*
X146245853Y-78403100D01*
X146181703Y-78248228D01*
X146149000Y-78083816D01*
X146149000Y-77916184D01*
X146181703Y-77751772D01*
X146245853Y-77596900D01*
X146338985Y-77457519D01*
X146457519Y-77338985D01*
X146596900Y-77245853D01*
X146751772Y-77181703D01*
X146916184Y-77149000D01*
X147083816Y-77149000D01*
X147248228Y-77181703D01*
X147248228Y-77181703D01*
G37*
G36*
X159786823Y-76941313D02*
G01*
X159947242Y-76989976D01*
X159994204Y-77015078D01*
X160095078Y-77068996D01*
X160224659Y-77175341D01*
X160331004Y-77304922D01*
X160331005Y-77304924D01*
X160410024Y-77452758D01*
X160458687Y-77613177D01*
X160475117Y-77780000D01*
X160458687Y-77946823D01*
X160410024Y-78107242D01*
X160355112Y-78209975D01*
X160331004Y-78255078D01*
X160224659Y-78384659D01*
X160095078Y-78491004D01*
X160095076Y-78491005D01*
X159947242Y-78570024D01*
X159786823Y-78618687D01*
X159661804Y-78631000D01*
X159578196Y-78631000D01*
X159453177Y-78618687D01*
X159292758Y-78570024D01*
X159144924Y-78491005D01*
X159144922Y-78491004D01*
X159015341Y-78384659D01*
X158908996Y-78255078D01*
X158884888Y-78209975D01*
X158829976Y-78107242D01*
X158781313Y-77946823D01*
X158764883Y-77780000D01*
X158781313Y-77613177D01*
X158829976Y-77452758D01*
X158908995Y-77304924D01*
X158908996Y-77304922D01*
X159015341Y-77175341D01*
X159144922Y-77068996D01*
X159245796Y-77015078D01*
X159292758Y-76989976D01*
X159453177Y-76941313D01*
X159578196Y-76929000D01*
X159661804Y-76929000D01*
X159786823Y-76941313D01*
X159786823Y-76941313D01*
G37*
G36*
X152166823Y-76941313D02*
G01*
X152327242Y-76989976D01*
X152374204Y-77015078D01*
X152475078Y-77068996D01*
X152604659Y-77175341D01*
X152711004Y-77304922D01*
X152711005Y-77304924D01*
X152790024Y-77452758D01*
X152838687Y-77613177D01*
X152855117Y-77780000D01*
X152838687Y-77946823D01*
X152790024Y-78107242D01*
X152735112Y-78209975D01*
X152711004Y-78255078D01*
X152604659Y-78384659D01*
X152475078Y-78491004D01*
X152475076Y-78491005D01*
X152327242Y-78570024D01*
X152166823Y-78618687D01*
X152041804Y-78631000D01*
X151958196Y-78631000D01*
X151833177Y-78618687D01*
X151672758Y-78570024D01*
X151524924Y-78491005D01*
X151524922Y-78491004D01*
X151395341Y-78384659D01*
X151288996Y-78255078D01*
X151264888Y-78209975D01*
X151209976Y-78107242D01*
X151161313Y-77946823D01*
X151144883Y-77780000D01*
X151161313Y-77613177D01*
X151209976Y-77452758D01*
X151288995Y-77304924D01*
X151288996Y-77304922D01*
X151395341Y-77175341D01*
X151524922Y-77068996D01*
X151625796Y-77015078D01*
X151672758Y-76989976D01*
X151833177Y-76941313D01*
X151958196Y-76929000D01*
X152041804Y-76929000D01*
X152166823Y-76941313D01*
X152166823Y-76941313D01*
G37*
G36*
X169748228Y-76681703D02*
G01*
X169903100Y-76745853D01*
X170042481Y-76838985D01*
X170161015Y-76957519D01*
X170254147Y-77096900D01*
X170318297Y-77251772D01*
X170351000Y-77416184D01*
X170351000Y-77583816D01*
X170318297Y-77748228D01*
X170254147Y-77903100D01*
X170161015Y-78042481D01*
X170042481Y-78161015D01*
X169903100Y-78254147D01*
X169748228Y-78318297D01*
X169583816Y-78351000D01*
X169416184Y-78351000D01*
X169251772Y-78318297D01*
X169096900Y-78254147D01*
X168957519Y-78161015D01*
X168838985Y-78042481D01*
X168745853Y-77903100D01*
X168681703Y-77748228D01*
X168649000Y-77583816D01*
X168649000Y-77416184D01*
X168681703Y-77251772D01*
X168745853Y-77096900D01*
X168838985Y-76957519D01*
X168957519Y-76838985D01*
X169096900Y-76745853D01*
X169251772Y-76681703D01*
X169416184Y-76649000D01*
X169583816Y-76649000D01*
X169748228Y-76681703D01*
X169748228Y-76681703D01*
G37*
G36*
X128166823Y-75701313D02*
G01*
X128327242Y-75749976D01*
X128455058Y-75818295D01*
X128475078Y-75828996D01*
X128604659Y-75935341D01*
X128711004Y-76064922D01*
X128711005Y-76064924D01*
X128790024Y-76212758D01*
X128838687Y-76373177D01*
X128855117Y-76540000D01*
X128838687Y-76706823D01*
X128790024Y-76867242D01*
X128741770Y-76957519D01*
X128711004Y-77015078D01*
X128604659Y-77144659D01*
X128475078Y-77251004D01*
X128475076Y-77251005D01*
X128327242Y-77330024D01*
X128166823Y-77378687D01*
X128041804Y-77391000D01*
X127958196Y-77391000D01*
X127833177Y-77378687D01*
X127672758Y-77330024D01*
X127524924Y-77251005D01*
X127524922Y-77251004D01*
X127395341Y-77144659D01*
X127288996Y-77015078D01*
X127258230Y-76957519D01*
X127209976Y-76867242D01*
X127161313Y-76706823D01*
X127144883Y-76540000D01*
X127161313Y-76373177D01*
X127209976Y-76212758D01*
X127288995Y-76064924D01*
X127288996Y-76064922D01*
X127395341Y-75935341D01*
X127524922Y-75828996D01*
X127544942Y-75818295D01*
X127672758Y-75749976D01*
X127833177Y-75701313D01*
X127958196Y-75689000D01*
X128041804Y-75689000D01*
X128166823Y-75701313D01*
X128166823Y-75701313D01*
G37*
G36*
X135786823Y-75701313D02*
G01*
X135947242Y-75749976D01*
X136075058Y-75818295D01*
X136095078Y-75828996D01*
X136224659Y-75935341D01*
X136331004Y-76064922D01*
X136331005Y-76064924D01*
X136410024Y-76212758D01*
X136458687Y-76373177D01*
X136475117Y-76540000D01*
X136458687Y-76706823D01*
X136410024Y-76867242D01*
X136361770Y-76957519D01*
X136331004Y-77015078D01*
X136224659Y-77144659D01*
X136095078Y-77251004D01*
X136095076Y-77251005D01*
X135947242Y-77330024D01*
X135786823Y-77378687D01*
X135661804Y-77391000D01*
X135578196Y-77391000D01*
X135453177Y-77378687D01*
X135292758Y-77330024D01*
X135144924Y-77251005D01*
X135144922Y-77251004D01*
X135015341Y-77144659D01*
X134908996Y-77015078D01*
X134878230Y-76957519D01*
X134829976Y-76867242D01*
X134781313Y-76706823D01*
X134764883Y-76540000D01*
X134781313Y-76373177D01*
X134829976Y-76212758D01*
X134908995Y-76064924D01*
X134908996Y-76064922D01*
X135015341Y-75935341D01*
X135144922Y-75828996D01*
X135164942Y-75818295D01*
X135292758Y-75749976D01*
X135453177Y-75701313D01*
X135578196Y-75689000D01*
X135661804Y-75689000D01*
X135786823Y-75701313D01*
X135786823Y-75701313D01*
G37*
G36*
X140748228Y-75181703D02*
G01*
X140903100Y-75245853D01*
X141042481Y-75338985D01*
X141161015Y-75457519D01*
X141254147Y-75596900D01*
X141318297Y-75751772D01*
X141351000Y-75916184D01*
X141351000Y-76083816D01*
X141318297Y-76248228D01*
X141254147Y-76403100D01*
X141161015Y-76542481D01*
X141042481Y-76661015D01*
X140903100Y-76754147D01*
X140748228Y-76818297D01*
X140583816Y-76851000D01*
X140416184Y-76851000D01*
X140251772Y-76818297D01*
X140096900Y-76754147D01*
X139957519Y-76661015D01*
X139838985Y-76542481D01*
X139745853Y-76403100D01*
X139681703Y-76248228D01*
X139649000Y-76083816D01*
X139649000Y-75916184D01*
X139681703Y-75751772D01*
X139745853Y-75596900D01*
X139838985Y-75457519D01*
X139957519Y-75338985D01*
X140096900Y-75245853D01*
X140251772Y-75181703D01*
X140416184Y-75149000D01*
X140583816Y-75149000D01*
X140748228Y-75181703D01*
X140748228Y-75181703D01*
G37*
G36*
X123438228Y-75181703D02*
G01*
X123593100Y-75245853D01*
X123732481Y-75338985D01*
X123851015Y-75457519D01*
X123944147Y-75596900D01*
X124008297Y-75751772D01*
X124041000Y-75916184D01*
X124041000Y-76083816D01*
X124008297Y-76248228D01*
X123944147Y-76403100D01*
X123851015Y-76542481D01*
X123732481Y-76661015D01*
X123593100Y-76754147D01*
X123438228Y-76818297D01*
X123273816Y-76851000D01*
X123106184Y-76851000D01*
X122941772Y-76818297D01*
X122786900Y-76754147D01*
X122647519Y-76661015D01*
X122528985Y-76542481D01*
X122435853Y-76403100D01*
X122371703Y-76248228D01*
X122339000Y-76083816D01*
X122339000Y-75916184D01*
X122371703Y-75751772D01*
X122435853Y-75596900D01*
X122528985Y-75457519D01*
X122647519Y-75338985D01*
X122786900Y-75245853D01*
X122941772Y-75181703D01*
X123106184Y-75149000D01*
X123273816Y-75149000D01*
X123438228Y-75181703D01*
X123438228Y-75181703D01*
G37*
G36*
X173166823Y-74781313D02*
G01*
X173327242Y-74829976D01*
X173400241Y-74868995D01*
X173475078Y-74908996D01*
X173604659Y-75015341D01*
X173711004Y-75144922D01*
X173711005Y-75144924D01*
X173790024Y-75292758D01*
X173838687Y-75453177D01*
X173855117Y-75620000D01*
X173838687Y-75786823D01*
X173790024Y-75947242D01*
X173732385Y-76055076D01*
X173711004Y-76095078D01*
X173604659Y-76224659D01*
X173475078Y-76331004D01*
X173475076Y-76331005D01*
X173327242Y-76410024D01*
X173166823Y-76458687D01*
X173041804Y-76471000D01*
X172958196Y-76471000D01*
X172833177Y-76458687D01*
X172672758Y-76410024D01*
X172524924Y-76331005D01*
X172524922Y-76331004D01*
X172395341Y-76224659D01*
X172288996Y-76095078D01*
X172267615Y-76055076D01*
X172209976Y-75947242D01*
X172161313Y-75786823D01*
X172144883Y-75620000D01*
X172161313Y-75453177D01*
X172209976Y-75292758D01*
X172288995Y-75144924D01*
X172288996Y-75144922D01*
X172395341Y-75015341D01*
X172524922Y-74908996D01*
X172599759Y-74868995D01*
X172672758Y-74829976D01*
X172833177Y-74781313D01*
X172958196Y-74769000D01*
X173041804Y-74769000D01*
X173166823Y-74781313D01*
X173166823Y-74781313D01*
G37*
G36*
X180786823Y-74781313D02*
G01*
X180947242Y-74829976D01*
X181020241Y-74868995D01*
X181095078Y-74908996D01*
X181224659Y-75015341D01*
X181331004Y-75144922D01*
X181331005Y-75144924D01*
X181410024Y-75292758D01*
X181458687Y-75453177D01*
X181475117Y-75620000D01*
X181458687Y-75786823D01*
X181410024Y-75947242D01*
X181352385Y-76055076D01*
X181331004Y-76095078D01*
X181224659Y-76224659D01*
X181095078Y-76331004D01*
X181095076Y-76331005D01*
X180947242Y-76410024D01*
X180786823Y-76458687D01*
X180661804Y-76471000D01*
X180578196Y-76471000D01*
X180453177Y-76458687D01*
X180292758Y-76410024D01*
X180144924Y-76331005D01*
X180144922Y-76331004D01*
X180015341Y-76224659D01*
X179908996Y-76095078D01*
X179887615Y-76055076D01*
X179829976Y-75947242D01*
X179781313Y-75786823D01*
X179764883Y-75620000D01*
X179781313Y-75453177D01*
X179829976Y-75292758D01*
X179908995Y-75144924D01*
X179908996Y-75144922D01*
X180015341Y-75015341D01*
X180144922Y-74908996D01*
X180219759Y-74868995D01*
X180292758Y-74829976D01*
X180453177Y-74781313D01*
X180578196Y-74769000D01*
X180661804Y-74769000D01*
X180786823Y-74781313D01*
X180786823Y-74781313D01*
G37*
G36*
X109666823Y-74741313D02*
G01*
X109827242Y-74789976D01*
X109941410Y-74851000D01*
X109975078Y-74868996D01*
X110104659Y-74975341D01*
X110211004Y-75104922D01*
X110211005Y-75104924D01*
X110290024Y-75252758D01*
X110338687Y-75413177D01*
X110355117Y-75580000D01*
X110338687Y-75746823D01*
X110290024Y-75907242D01*
X110266632Y-75951005D01*
X110211004Y-76055078D01*
X110104659Y-76184659D01*
X109975078Y-76291004D01*
X109975076Y-76291005D01*
X109827242Y-76370024D01*
X109666823Y-76418687D01*
X109541804Y-76431000D01*
X109458196Y-76431000D01*
X109333177Y-76418687D01*
X109172758Y-76370024D01*
X109024924Y-76291005D01*
X109024922Y-76291004D01*
X108895341Y-76184659D01*
X108788996Y-76055078D01*
X108733368Y-75951005D01*
X108709976Y-75907242D01*
X108661313Y-75746823D01*
X108644883Y-75580000D01*
X108661313Y-75413177D01*
X108709976Y-75252758D01*
X108788995Y-75104924D01*
X108788996Y-75104922D01*
X108895341Y-74975341D01*
X109024922Y-74868996D01*
X109058590Y-74851000D01*
X109172758Y-74789976D01*
X109333177Y-74741313D01*
X109458196Y-74729000D01*
X109541804Y-74729000D01*
X109666823Y-74741313D01*
X109666823Y-74741313D01*
G37*
G36*
X117286823Y-74741313D02*
G01*
X117447242Y-74789976D01*
X117561410Y-74851000D01*
X117595078Y-74868996D01*
X117724659Y-74975341D01*
X117831004Y-75104922D01*
X117831005Y-75104924D01*
X117910024Y-75252758D01*
X117958687Y-75413177D01*
X117975117Y-75580000D01*
X117958687Y-75746823D01*
X117910024Y-75907242D01*
X117886632Y-75951005D01*
X117831004Y-76055078D01*
X117724659Y-76184659D01*
X117595078Y-76291004D01*
X117595076Y-76291005D01*
X117447242Y-76370024D01*
X117286823Y-76418687D01*
X117161804Y-76431000D01*
X117078196Y-76431000D01*
X116953177Y-76418687D01*
X116792758Y-76370024D01*
X116644924Y-76291005D01*
X116644922Y-76291004D01*
X116515341Y-76184659D01*
X116408996Y-76055078D01*
X116353368Y-75951005D01*
X116329976Y-75907242D01*
X116281313Y-75746823D01*
X116264883Y-75580000D01*
X116281313Y-75413177D01*
X116329976Y-75252758D01*
X116408995Y-75104924D01*
X116408996Y-75104922D01*
X116515341Y-74975341D01*
X116644922Y-74868996D01*
X116678590Y-74851000D01*
X116792758Y-74789976D01*
X116953177Y-74741313D01*
X117078196Y-74729000D01*
X117161804Y-74729000D01*
X117286823Y-74741313D01*
X117286823Y-74741313D01*
G37*
G36*
X152166823Y-74401313D02*
G01*
X152327242Y-74449976D01*
X152374204Y-74475078D01*
X152475078Y-74528996D01*
X152604659Y-74635341D01*
X152711004Y-74764922D01*
X152711005Y-74764924D01*
X152790024Y-74912758D01*
X152838687Y-75073177D01*
X152855117Y-75240000D01*
X152838687Y-75406823D01*
X152790024Y-75567242D01*
X152761824Y-75620000D01*
X152711004Y-75715078D01*
X152604659Y-75844659D01*
X152475078Y-75951004D01*
X152475076Y-75951005D01*
X152327242Y-76030024D01*
X152166823Y-76078687D01*
X152041804Y-76091000D01*
X151958196Y-76091000D01*
X151833177Y-76078687D01*
X151672758Y-76030024D01*
X151524924Y-75951005D01*
X151524922Y-75951004D01*
X151395341Y-75844659D01*
X151288996Y-75715078D01*
X151238176Y-75620000D01*
X151209976Y-75567242D01*
X151161313Y-75406823D01*
X151144883Y-75240000D01*
X151161313Y-75073177D01*
X151209976Y-74912758D01*
X151288995Y-74764924D01*
X151288996Y-74764922D01*
X151395341Y-74635341D01*
X151524922Y-74528996D01*
X151625796Y-74475078D01*
X151672758Y-74449976D01*
X151833177Y-74401313D01*
X151958196Y-74389000D01*
X152041804Y-74389000D01*
X152166823Y-74401313D01*
X152166823Y-74401313D01*
G37*
G36*
X159786823Y-74401313D02*
G01*
X159947242Y-74449976D01*
X159994204Y-74475078D01*
X160095078Y-74528996D01*
X160224659Y-74635341D01*
X160331004Y-74764922D01*
X160331005Y-74764924D01*
X160410024Y-74912758D01*
X160458687Y-75073177D01*
X160475117Y-75240000D01*
X160458687Y-75406823D01*
X160410024Y-75567242D01*
X160381824Y-75620000D01*
X160331004Y-75715078D01*
X160224659Y-75844659D01*
X160095078Y-75951004D01*
X160095076Y-75951005D01*
X159947242Y-76030024D01*
X159786823Y-76078687D01*
X159661804Y-76091000D01*
X159578196Y-76091000D01*
X159453177Y-76078687D01*
X159292758Y-76030024D01*
X159144924Y-75951005D01*
X159144922Y-75951004D01*
X159015341Y-75844659D01*
X158908996Y-75715078D01*
X158858176Y-75620000D01*
X158829976Y-75567242D01*
X158781313Y-75406823D01*
X158764883Y-75240000D01*
X158781313Y-75073177D01*
X158829976Y-74912758D01*
X158908995Y-74764924D01*
X158908996Y-74764922D01*
X159015341Y-74635341D01*
X159144922Y-74528996D01*
X159245796Y-74475078D01*
X159292758Y-74449976D01*
X159453177Y-74401313D01*
X159578196Y-74389000D01*
X159661804Y-74389000D01*
X159786823Y-74401313D01*
X159786823Y-74401313D01*
G37*
G36*
X185248228Y-74181703D02*
G01*
X185403100Y-74245853D01*
X185542481Y-74338985D01*
X185661015Y-74457519D01*
X185754147Y-74596900D01*
X185818297Y-74751772D01*
X185851000Y-74916184D01*
X185851000Y-75083816D01*
X185818297Y-75248228D01*
X185754147Y-75403100D01*
X185661015Y-75542481D01*
X185542481Y-75661015D01*
X185403100Y-75754147D01*
X185248228Y-75818297D01*
X185083816Y-75851000D01*
X184916184Y-75851000D01*
X184751772Y-75818297D01*
X184596900Y-75754147D01*
X184457519Y-75661015D01*
X184338985Y-75542481D01*
X184245853Y-75403100D01*
X184181703Y-75248228D01*
X184149000Y-75083816D01*
X184149000Y-74916184D01*
X184181703Y-74751772D01*
X184245853Y-74596900D01*
X184338985Y-74457519D01*
X184457519Y-74338985D01*
X184596900Y-74245853D01*
X184751772Y-74181703D01*
X184916184Y-74149000D01*
X185083816Y-74149000D01*
X185248228Y-74181703D01*
X185248228Y-74181703D01*
G37*
G36*
X128851000Y-74851000D02*
G01*
X127149000Y-74851000D01*
X127149000Y-73149000D01*
X128851000Y-73149000D01*
X128851000Y-74851000D01*
X128851000Y-74851000D01*
G37*
G36*
X195248228Y-73181703D02*
G01*
X195403100Y-73245853D01*
X195542481Y-73338985D01*
X195661015Y-73457519D01*
X195754147Y-73596900D01*
X195818297Y-73751772D01*
X195851000Y-73916184D01*
X195851000Y-74083816D01*
X195818297Y-74248228D01*
X195754147Y-74403100D01*
X195661015Y-74542481D01*
X195542481Y-74661015D01*
X195403100Y-74754147D01*
X195248228Y-74818297D01*
X195083816Y-74851000D01*
X194916184Y-74851000D01*
X194751772Y-74818297D01*
X194596900Y-74754147D01*
X194457519Y-74661015D01*
X194338985Y-74542481D01*
X194245853Y-74403100D01*
X194181703Y-74248228D01*
X194149000Y-74083816D01*
X194149000Y-73916184D01*
X194181703Y-73751772D01*
X194245853Y-73596900D01*
X194338985Y-73457519D01*
X194457519Y-73338985D01*
X194596900Y-73245853D01*
X194751772Y-73181703D01*
X194916184Y-73149000D01*
X195083816Y-73149000D01*
X195248228Y-73181703D01*
X195248228Y-73181703D01*
G37*
G36*
X135786823Y-73161313D02*
G01*
X135947242Y-73209976D01*
X136079906Y-73280886D01*
X136095078Y-73288996D01*
X136224659Y-73395341D01*
X136331004Y-73524922D01*
X136331005Y-73524924D01*
X136410024Y-73672758D01*
X136458687Y-73833177D01*
X136475117Y-74000000D01*
X136458687Y-74166823D01*
X136432197Y-74254147D01*
X136412738Y-74318297D01*
X136410024Y-74327242D01*
X136369477Y-74403100D01*
X136331004Y-74475078D01*
X136224659Y-74604659D01*
X136095078Y-74711004D01*
X136095076Y-74711005D01*
X135947242Y-74790024D01*
X135786823Y-74838687D01*
X135661804Y-74851000D01*
X135578196Y-74851000D01*
X135453177Y-74838687D01*
X135292758Y-74790024D01*
X135144924Y-74711005D01*
X135144922Y-74711004D01*
X135015341Y-74604659D01*
X134908996Y-74475078D01*
X134870523Y-74403100D01*
X134829976Y-74327242D01*
X134827263Y-74318297D01*
X134807803Y-74254147D01*
X134781313Y-74166823D01*
X134764883Y-74000000D01*
X134781313Y-73833177D01*
X134829976Y-73672758D01*
X134908995Y-73524924D01*
X134908996Y-73524922D01*
X135015341Y-73395341D01*
X135144922Y-73288996D01*
X135160094Y-73280886D01*
X135292758Y-73209976D01*
X135453177Y-73161313D01*
X135578196Y-73149000D01*
X135661804Y-73149000D01*
X135786823Y-73161313D01*
X135786823Y-73161313D01*
G37*
G36*
X189248228Y-72681703D02*
G01*
X189403100Y-72745853D01*
X189542481Y-72838985D01*
X189661015Y-72957519D01*
X189754147Y-73096900D01*
X189818297Y-73251772D01*
X189851000Y-73416184D01*
X189851000Y-73583816D01*
X189818297Y-73748228D01*
X189754147Y-73903100D01*
X189661015Y-74042481D01*
X189542481Y-74161015D01*
X189403100Y-74254147D01*
X189248228Y-74318297D01*
X189083816Y-74351000D01*
X188916184Y-74351000D01*
X188751772Y-74318297D01*
X188596900Y-74254147D01*
X188457519Y-74161015D01*
X188338985Y-74042481D01*
X188245853Y-73903100D01*
X188181703Y-73748228D01*
X188149000Y-73583816D01*
X188149000Y-73416184D01*
X188181703Y-73251772D01*
X188245853Y-73096900D01*
X188338985Y-72957519D01*
X188457519Y-72838985D01*
X188596900Y-72745853D01*
X188751772Y-72681703D01*
X188916184Y-72649000D01*
X189083816Y-72649000D01*
X189248228Y-72681703D01*
X189248228Y-72681703D01*
G37*
G36*
X180786823Y-72241313D02*
G01*
X180947242Y-72289976D01*
X181021500Y-72329668D01*
X181095078Y-72368996D01*
X181224659Y-72475341D01*
X181331004Y-72604922D01*
X181331005Y-72604924D01*
X181410024Y-72752758D01*
X181458687Y-72913177D01*
X181475117Y-73080000D01*
X181458687Y-73246823D01*
X181410024Y-73407242D01*
X181352385Y-73515076D01*
X181331004Y-73555078D01*
X181224659Y-73684659D01*
X181095078Y-73791004D01*
X181095076Y-73791005D01*
X180947242Y-73870024D01*
X180786823Y-73918687D01*
X180661804Y-73931000D01*
X180578196Y-73931000D01*
X180453177Y-73918687D01*
X180292758Y-73870024D01*
X180144924Y-73791005D01*
X180144922Y-73791004D01*
X180015341Y-73684659D01*
X179908996Y-73555078D01*
X179887615Y-73515076D01*
X179829976Y-73407242D01*
X179781313Y-73246823D01*
X179764883Y-73080000D01*
X179781313Y-72913177D01*
X179829976Y-72752758D01*
X179908995Y-72604924D01*
X179908996Y-72604922D01*
X180015341Y-72475341D01*
X180144922Y-72368996D01*
X180218500Y-72329668D01*
X180292758Y-72289976D01*
X180453177Y-72241313D01*
X180578196Y-72229000D01*
X180661804Y-72229000D01*
X180786823Y-72241313D01*
X180786823Y-72241313D01*
G37*
G36*
X173166823Y-72241313D02*
G01*
X173327242Y-72289976D01*
X173401500Y-72329668D01*
X173475078Y-72368996D01*
X173604659Y-72475341D01*
X173711004Y-72604922D01*
X173711005Y-72604924D01*
X173790024Y-72752758D01*
X173838687Y-72913177D01*
X173855117Y-73080000D01*
X173838687Y-73246823D01*
X173790024Y-73407242D01*
X173732385Y-73515076D01*
X173711004Y-73555078D01*
X173604659Y-73684659D01*
X173475078Y-73791004D01*
X173475076Y-73791005D01*
X173327242Y-73870024D01*
X173166823Y-73918687D01*
X173041804Y-73931000D01*
X172958196Y-73931000D01*
X172833177Y-73918687D01*
X172672758Y-73870024D01*
X172524924Y-73791005D01*
X172524922Y-73791004D01*
X172395341Y-73684659D01*
X172288996Y-73555078D01*
X172267615Y-73515076D01*
X172209976Y-73407242D01*
X172161313Y-73246823D01*
X172144883Y-73080000D01*
X172161313Y-72913177D01*
X172209976Y-72752758D01*
X172288995Y-72604924D01*
X172288996Y-72604922D01*
X172395341Y-72475341D01*
X172524922Y-72368996D01*
X172598500Y-72329668D01*
X172672758Y-72289976D01*
X172833177Y-72241313D01*
X172958196Y-72229000D01*
X173041804Y-72229000D01*
X173166823Y-72241313D01*
X173166823Y-72241313D01*
G37*
G36*
X109666823Y-72201313D02*
G01*
X109827242Y-72249976D01*
X109959906Y-72320886D01*
X109975078Y-72328996D01*
X110104659Y-72435341D01*
X110211004Y-72564922D01*
X110211005Y-72564924D01*
X110290024Y-72712758D01*
X110338687Y-72873177D01*
X110355117Y-73040000D01*
X110338687Y-73206823D01*
X110290024Y-73367242D01*
X110266632Y-73411005D01*
X110211004Y-73515078D01*
X110104659Y-73644659D01*
X109975078Y-73751004D01*
X109975076Y-73751005D01*
X109827242Y-73830024D01*
X109666823Y-73878687D01*
X109541804Y-73891000D01*
X109458196Y-73891000D01*
X109333177Y-73878687D01*
X109172758Y-73830024D01*
X109024924Y-73751005D01*
X109024922Y-73751004D01*
X108895341Y-73644659D01*
X108788996Y-73515078D01*
X108733368Y-73411005D01*
X108709976Y-73367242D01*
X108661313Y-73206823D01*
X108644883Y-73040000D01*
X108661313Y-72873177D01*
X108709976Y-72712758D01*
X108788995Y-72564924D01*
X108788996Y-72564922D01*
X108895341Y-72435341D01*
X109024922Y-72328996D01*
X109040094Y-72320886D01*
X109172758Y-72249976D01*
X109333177Y-72201313D01*
X109458196Y-72189000D01*
X109541804Y-72189000D01*
X109666823Y-72201313D01*
X109666823Y-72201313D01*
G37*
G36*
X117286823Y-72201313D02*
G01*
X117447242Y-72249976D01*
X117579906Y-72320886D01*
X117595078Y-72328996D01*
X117724659Y-72435341D01*
X117831004Y-72564922D01*
X117831005Y-72564924D01*
X117910024Y-72712758D01*
X117958687Y-72873177D01*
X117975117Y-73040000D01*
X117958687Y-73206823D01*
X117910024Y-73367242D01*
X117886632Y-73411005D01*
X117831004Y-73515078D01*
X117724659Y-73644659D01*
X117595078Y-73751004D01*
X117595076Y-73751005D01*
X117447242Y-73830024D01*
X117286823Y-73878687D01*
X117161804Y-73891000D01*
X117078196Y-73891000D01*
X116953177Y-73878687D01*
X116792758Y-73830024D01*
X116644924Y-73751005D01*
X116644922Y-73751004D01*
X116515341Y-73644659D01*
X116408996Y-73515078D01*
X116353368Y-73411005D01*
X116329976Y-73367242D01*
X116281313Y-73206823D01*
X116264883Y-73040000D01*
X116281313Y-72873177D01*
X116329976Y-72712758D01*
X116408995Y-72564924D01*
X116408996Y-72564922D01*
X116515341Y-72435341D01*
X116644922Y-72328996D01*
X116660094Y-72320886D01*
X116792758Y-72249976D01*
X116953177Y-72201313D01*
X117078196Y-72189000D01*
X117161804Y-72189000D01*
X117286823Y-72201313D01*
X117286823Y-72201313D01*
G37*
G36*
X159786823Y-71861313D02*
G01*
X159947242Y-71909976D01*
X160070100Y-71975645D01*
X160095078Y-71988996D01*
X160224659Y-72095341D01*
X160331004Y-72224922D01*
X160331005Y-72224924D01*
X160410024Y-72372758D01*
X160458687Y-72533177D01*
X160475117Y-72700000D01*
X160458687Y-72866823D01*
X160410024Y-73027242D01*
X160381824Y-73080000D01*
X160331004Y-73175078D01*
X160224659Y-73304659D01*
X160095078Y-73411004D01*
X160095076Y-73411005D01*
X159947242Y-73490024D01*
X159786823Y-73538687D01*
X159661804Y-73551000D01*
X159578196Y-73551000D01*
X159453177Y-73538687D01*
X159292758Y-73490024D01*
X159144924Y-73411005D01*
X159144922Y-73411004D01*
X159015341Y-73304659D01*
X158908996Y-73175078D01*
X158858176Y-73080000D01*
X158829976Y-73027242D01*
X158781313Y-72866823D01*
X158764883Y-72700000D01*
X158781313Y-72533177D01*
X158829976Y-72372758D01*
X158908995Y-72224924D01*
X158908996Y-72224922D01*
X159015341Y-72095341D01*
X159144922Y-71988996D01*
X159169900Y-71975645D01*
X159292758Y-71909976D01*
X159453177Y-71861313D01*
X159578196Y-71849000D01*
X159661804Y-71849000D01*
X159786823Y-71861313D01*
X159786823Y-71861313D01*
G37*
G36*
X152166823Y-71861313D02*
G01*
X152327242Y-71909976D01*
X152450100Y-71975645D01*
X152475078Y-71988996D01*
X152604659Y-72095341D01*
X152711004Y-72224922D01*
X152711005Y-72224924D01*
X152790024Y-72372758D01*
X152838687Y-72533177D01*
X152855117Y-72700000D01*
X152838687Y-72866823D01*
X152790024Y-73027242D01*
X152761824Y-73080000D01*
X152711004Y-73175078D01*
X152604659Y-73304659D01*
X152475078Y-73411004D01*
X152475076Y-73411005D01*
X152327242Y-73490024D01*
X152166823Y-73538687D01*
X152041804Y-73551000D01*
X151958196Y-73551000D01*
X151833177Y-73538687D01*
X151672758Y-73490024D01*
X151524924Y-73411005D01*
X151524922Y-73411004D01*
X151395341Y-73304659D01*
X151288996Y-73175078D01*
X151238176Y-73080000D01*
X151209976Y-73027242D01*
X151161313Y-72866823D01*
X151144883Y-72700000D01*
X151161313Y-72533177D01*
X151209976Y-72372758D01*
X151288995Y-72224924D01*
X151288996Y-72224922D01*
X151395341Y-72095341D01*
X151524922Y-71988996D01*
X151549900Y-71975645D01*
X151672758Y-71909976D01*
X151833177Y-71861313D01*
X151958196Y-71849000D01*
X152041804Y-71849000D01*
X152166823Y-71861313D01*
X152166823Y-71861313D01*
G37*
G36*
X102563855Y-71932140D02*
G01*
X102627618Y-71938420D01*
X102718404Y-71965960D01*
X102750336Y-71975646D01*
X102863425Y-72036094D01*
X102962554Y-72117446D01*
X103043906Y-72216575D01*
X103104354Y-72329664D01*
X103104355Y-72329668D01*
X103141580Y-72452382D01*
X103154149Y-72580000D01*
X103141580Y-72707618D01*
X103127465Y-72754148D01*
X103104354Y-72830336D01*
X103043906Y-72943425D01*
X102962554Y-73042554D01*
X102863425Y-73123906D01*
X102750336Y-73184354D01*
X102718404Y-73194040D01*
X102627618Y-73221580D01*
X102563855Y-73227860D01*
X102531974Y-73231000D01*
X102468026Y-73231000D01*
X102436145Y-73227860D01*
X102372382Y-73221580D01*
X102281596Y-73194040D01*
X102249664Y-73184354D01*
X102136575Y-73123906D01*
X102037446Y-73042554D01*
X101956094Y-72943425D01*
X101895646Y-72830336D01*
X101872535Y-72754148D01*
X101858420Y-72707618D01*
X101845851Y-72580000D01*
X101858420Y-72452382D01*
X101895645Y-72329668D01*
X101895646Y-72329664D01*
X101956094Y-72216575D01*
X102037446Y-72117446D01*
X102136575Y-72036094D01*
X102249664Y-71975646D01*
X102281596Y-71965960D01*
X102372382Y-71938420D01*
X102436145Y-71932140D01*
X102468026Y-71929000D01*
X102531974Y-71929000D01*
X102563855Y-71932140D01*
X102563855Y-71932140D01*
G37*
G36*
X123748228Y-71181703D02*
G01*
X123903100Y-71245853D01*
X124042481Y-71338985D01*
X124161015Y-71457519D01*
X124254147Y-71596900D01*
X124318297Y-71751772D01*
X124351000Y-71916184D01*
X124351000Y-72083816D01*
X124318297Y-72248228D01*
X124254147Y-72403100D01*
X124161015Y-72542481D01*
X124042481Y-72661015D01*
X123903100Y-72754147D01*
X123748228Y-72818297D01*
X123583816Y-72851000D01*
X123416184Y-72851000D01*
X123251772Y-72818297D01*
X123096900Y-72754147D01*
X122957519Y-72661015D01*
X122838985Y-72542481D01*
X122745853Y-72403100D01*
X122681703Y-72248228D01*
X122649000Y-72083816D01*
X122649000Y-71916184D01*
X122681703Y-71751772D01*
X122745853Y-71596900D01*
X122838985Y-71457519D01*
X122957519Y-71338985D01*
X123096900Y-71245853D01*
X123251772Y-71181703D01*
X123416184Y-71149000D01*
X123583816Y-71149000D01*
X123748228Y-71181703D01*
X123748228Y-71181703D01*
G37*
G36*
X148166823Y-70821313D02*
G01*
X148297380Y-70860917D01*
X148318220Y-70867239D01*
X148327242Y-70869976D01*
X148459906Y-70940886D01*
X148475078Y-70948996D01*
X148604659Y-71055341D01*
X148711004Y-71184922D01*
X148711005Y-71184924D01*
X148790024Y-71332758D01*
X148838687Y-71493177D01*
X148855117Y-71660000D01*
X148838687Y-71826823D01*
X148790024Y-71987242D01*
X148738404Y-72083816D01*
X148711004Y-72135078D01*
X148604659Y-72264659D01*
X148475078Y-72371004D01*
X148475076Y-72371005D01*
X148327242Y-72450024D01*
X148166823Y-72498687D01*
X148041804Y-72511000D01*
X147958196Y-72511000D01*
X147833177Y-72498687D01*
X147672758Y-72450024D01*
X147524924Y-72371005D01*
X147524922Y-72371004D01*
X147395341Y-72264659D01*
X147288996Y-72135078D01*
X147261596Y-72083816D01*
X147209976Y-71987242D01*
X147161313Y-71826823D01*
X147144883Y-71660000D01*
X147161313Y-71493177D01*
X147209976Y-71332758D01*
X147288995Y-71184924D01*
X147288996Y-71184922D01*
X147395341Y-71055341D01*
X147524922Y-70948996D01*
X147540094Y-70940886D01*
X147672758Y-70869976D01*
X147681781Y-70867239D01*
X147702620Y-70860917D01*
X147833177Y-70821313D01*
X147958196Y-70809000D01*
X148041804Y-70809000D01*
X148166823Y-70821313D01*
X148166823Y-70821313D01*
G37*
G36*
X140748228Y-70181703D02*
G01*
X140903100Y-70245853D01*
X141042481Y-70338985D01*
X141161015Y-70457519D01*
X141254147Y-70596900D01*
X141318297Y-70751772D01*
X141351000Y-70916184D01*
X141351000Y-71083816D01*
X141318297Y-71248228D01*
X141254147Y-71403100D01*
X141161015Y-71542481D01*
X141042481Y-71661015D01*
X140903100Y-71754147D01*
X140748228Y-71818297D01*
X140583816Y-71851000D01*
X140416184Y-71851000D01*
X140251772Y-71818297D01*
X140096900Y-71754147D01*
X139957519Y-71661015D01*
X139838985Y-71542481D01*
X139745853Y-71403100D01*
X139681703Y-71248228D01*
X139649000Y-71083816D01*
X139649000Y-70916184D01*
X139681703Y-70751772D01*
X139745853Y-70596900D01*
X139838985Y-70457519D01*
X139957519Y-70338985D01*
X140096900Y-70245853D01*
X140251772Y-70181703D01*
X140416184Y-70149000D01*
X140583816Y-70149000D01*
X140748228Y-70181703D01*
X140748228Y-70181703D01*
G37*
G36*
X173166823Y-69701313D02*
G01*
X173297380Y-69740917D01*
X173313651Y-69745853D01*
X173327242Y-69749976D01*
X173400241Y-69788995D01*
X173475078Y-69828996D01*
X173604659Y-69935341D01*
X173711004Y-70064922D01*
X173711005Y-70064924D01*
X173790024Y-70212758D01*
X173838687Y-70373177D01*
X173855117Y-70540000D01*
X173838687Y-70706823D01*
X173790024Y-70867242D01*
X173732385Y-70975076D01*
X173711004Y-71015078D01*
X173604659Y-71144659D01*
X173475078Y-71251004D01*
X173475076Y-71251005D01*
X173327242Y-71330024D01*
X173327239Y-71330025D01*
X173298687Y-71338686D01*
X173166823Y-71378687D01*
X173041804Y-71391000D01*
X172958196Y-71391000D01*
X172833177Y-71378687D01*
X172701313Y-71338686D01*
X172672761Y-71330025D01*
X172672758Y-71330024D01*
X172524924Y-71251005D01*
X172524922Y-71251004D01*
X172395341Y-71144659D01*
X172288996Y-71015078D01*
X172267615Y-70975076D01*
X172209976Y-70867242D01*
X172161313Y-70706823D01*
X172144883Y-70540000D01*
X172161313Y-70373177D01*
X172209976Y-70212758D01*
X172288995Y-70064924D01*
X172288996Y-70064922D01*
X172395341Y-69935341D01*
X172524922Y-69828996D01*
X172599759Y-69788995D01*
X172672758Y-69749976D01*
X172686350Y-69745853D01*
X172702620Y-69740917D01*
X172833177Y-69701313D01*
X172958196Y-69689000D01*
X173041804Y-69689000D01*
X173166823Y-69701313D01*
X173166823Y-69701313D01*
G37*
G36*
X180786823Y-69701313D02*
G01*
X180917380Y-69740917D01*
X180933651Y-69745853D01*
X180947242Y-69749976D01*
X181020241Y-69788995D01*
X181095078Y-69828996D01*
X181224659Y-69935341D01*
X181331004Y-70064922D01*
X181331005Y-70064924D01*
X181410024Y-70212758D01*
X181458687Y-70373177D01*
X181475117Y-70540000D01*
X181458687Y-70706823D01*
X181410024Y-70867242D01*
X181352385Y-70975076D01*
X181331004Y-71015078D01*
X181224659Y-71144659D01*
X181095078Y-71251004D01*
X181095076Y-71251005D01*
X180947242Y-71330024D01*
X180947239Y-71330025D01*
X180918687Y-71338686D01*
X180786823Y-71378687D01*
X180661804Y-71391000D01*
X180578196Y-71391000D01*
X180453177Y-71378687D01*
X180321313Y-71338686D01*
X180292761Y-71330025D01*
X180292758Y-71330024D01*
X180144924Y-71251005D01*
X180144922Y-71251004D01*
X180015341Y-71144659D01*
X179908996Y-71015078D01*
X179887615Y-70975076D01*
X179829976Y-70867242D01*
X179781313Y-70706823D01*
X179764883Y-70540000D01*
X179781313Y-70373177D01*
X179829976Y-70212758D01*
X179908995Y-70064924D01*
X179908996Y-70064922D01*
X180015341Y-69935341D01*
X180144922Y-69828996D01*
X180219759Y-69788995D01*
X180292758Y-69749976D01*
X180306350Y-69745853D01*
X180322620Y-69740917D01*
X180453177Y-69701313D01*
X180578196Y-69689000D01*
X180661804Y-69689000D01*
X180786823Y-69701313D01*
X180786823Y-69701313D01*
G37*
G36*
X117286823Y-69661313D02*
G01*
X117447242Y-69709976D01*
X117579906Y-69780886D01*
X117595078Y-69788996D01*
X117724659Y-69895341D01*
X117831004Y-70024922D01*
X117831005Y-70024924D01*
X117910024Y-70172758D01*
X117910025Y-70172761D01*
X117912738Y-70181705D01*
X117958687Y-70333177D01*
X117975117Y-70500000D01*
X117958687Y-70666823D01*
X117910024Y-70827242D01*
X117869477Y-70903100D01*
X117831004Y-70975078D01*
X117724659Y-71104659D01*
X117595078Y-71211004D01*
X117595076Y-71211005D01*
X117447242Y-71290024D01*
X117286823Y-71338687D01*
X117161804Y-71351000D01*
X117078196Y-71351000D01*
X116953177Y-71338687D01*
X116792758Y-71290024D01*
X116644924Y-71211005D01*
X116644922Y-71211004D01*
X116515341Y-71104659D01*
X116408996Y-70975078D01*
X116370523Y-70903100D01*
X116329976Y-70827242D01*
X116281313Y-70666823D01*
X116264883Y-70500000D01*
X116281313Y-70333177D01*
X116327262Y-70181705D01*
X116329975Y-70172761D01*
X116329976Y-70172758D01*
X116408995Y-70024924D01*
X116408996Y-70024922D01*
X116515341Y-69895341D01*
X116644922Y-69788996D01*
X116660094Y-69780886D01*
X116792758Y-69709976D01*
X116953177Y-69661313D01*
X117078196Y-69649000D01*
X117161804Y-69649000D01*
X117286823Y-69661313D01*
X117286823Y-69661313D01*
G37*
G36*
X110351000Y-71351000D02*
G01*
X108649000Y-71351000D01*
X108649000Y-69649000D01*
X110351000Y-69649000D01*
X110351000Y-71351000D01*
X110351000Y-71351000D01*
G37*
G36*
X185248228Y-69681703D02*
G01*
X185403100Y-69745853D01*
X185542481Y-69838985D01*
X185661015Y-69957519D01*
X185754147Y-70096900D01*
X185818297Y-70251772D01*
X185851000Y-70416184D01*
X185851000Y-70583816D01*
X185818297Y-70748228D01*
X185754147Y-70903100D01*
X185661015Y-71042481D01*
X185542481Y-71161015D01*
X185403100Y-71254147D01*
X185248228Y-71318297D01*
X185083816Y-71351000D01*
X184916184Y-71351000D01*
X184751772Y-71318297D01*
X184596900Y-71254147D01*
X184457519Y-71161015D01*
X184338985Y-71042481D01*
X184245853Y-70903100D01*
X184181703Y-70748228D01*
X184149000Y-70583816D01*
X184149000Y-70416184D01*
X184181703Y-70251772D01*
X184245853Y-70096900D01*
X184338985Y-69957519D01*
X184457519Y-69838985D01*
X184596900Y-69745853D01*
X184751772Y-69681703D01*
X184916184Y-69649000D01*
X185083816Y-69649000D01*
X185248228Y-69681703D01*
X185248228Y-69681703D01*
G37*
G36*
X159786823Y-69321313D02*
G01*
X159947242Y-69369976D01*
X160079906Y-69440886D01*
X160095078Y-69448996D01*
X160224659Y-69555341D01*
X160331004Y-69684922D01*
X160331005Y-69684924D01*
X160410024Y-69832758D01*
X160458687Y-69993177D01*
X160475117Y-70160000D01*
X160458687Y-70326823D01*
X160410024Y-70487242D01*
X160351409Y-70596903D01*
X160331004Y-70635078D01*
X160224659Y-70764659D01*
X160095078Y-70871004D01*
X160095076Y-70871005D01*
X159947242Y-70950024D01*
X159786823Y-70998687D01*
X159661804Y-71011000D01*
X159578196Y-71011000D01*
X159453177Y-70998687D01*
X159292758Y-70950024D01*
X159144924Y-70871005D01*
X159144922Y-70871004D01*
X159015341Y-70764659D01*
X158908996Y-70635078D01*
X158888591Y-70596903D01*
X158829976Y-70487242D01*
X158781313Y-70326823D01*
X158764883Y-70160000D01*
X158781313Y-69993177D01*
X158829976Y-69832758D01*
X158908995Y-69684924D01*
X158908996Y-69684922D01*
X159015341Y-69555341D01*
X159144922Y-69448996D01*
X159160094Y-69440886D01*
X159292758Y-69369976D01*
X159453177Y-69321313D01*
X159578196Y-69309000D01*
X159661804Y-69309000D01*
X159786823Y-69321313D01*
X159786823Y-69321313D01*
G37*
G36*
X152166823Y-69321313D02*
G01*
X152327242Y-69369976D01*
X152459906Y-69440886D01*
X152475078Y-69448996D01*
X152604659Y-69555341D01*
X152711004Y-69684922D01*
X152711005Y-69684924D01*
X152790024Y-69832758D01*
X152838687Y-69993177D01*
X152855117Y-70160000D01*
X152838687Y-70326823D01*
X152790024Y-70487242D01*
X152731409Y-70596903D01*
X152711004Y-70635078D01*
X152604659Y-70764659D01*
X152475078Y-70871004D01*
X152475076Y-70871005D01*
X152327242Y-70950024D01*
X152166823Y-70998687D01*
X152041804Y-71011000D01*
X151958196Y-71011000D01*
X151833177Y-70998687D01*
X151672758Y-70950024D01*
X151524924Y-70871005D01*
X151524922Y-70871004D01*
X151395341Y-70764659D01*
X151288996Y-70635078D01*
X151268591Y-70596903D01*
X151209976Y-70487242D01*
X151161313Y-70326823D01*
X151144883Y-70160000D01*
X151161313Y-69993177D01*
X151209976Y-69832758D01*
X151288995Y-69684924D01*
X151288996Y-69684922D01*
X151395341Y-69555341D01*
X151524922Y-69448996D01*
X151540094Y-69440886D01*
X151672758Y-69369976D01*
X151833177Y-69321313D01*
X151958196Y-69309000D01*
X152041804Y-69309000D01*
X152166823Y-69321313D01*
X152166823Y-69321313D01*
G37*
G36*
X195248228Y-68181703D02*
G01*
X195403100Y-68245853D01*
X195542481Y-68338985D01*
X195661015Y-68457519D01*
X195754147Y-68596900D01*
X195818297Y-68751772D01*
X195851000Y-68916184D01*
X195851000Y-69083816D01*
X195818297Y-69248228D01*
X195754147Y-69403100D01*
X195661015Y-69542481D01*
X195542481Y-69661015D01*
X195403100Y-69754147D01*
X195248228Y-69818297D01*
X195083816Y-69851000D01*
X194916184Y-69851000D01*
X194751772Y-69818297D01*
X194596900Y-69754147D01*
X194457519Y-69661015D01*
X194338985Y-69542481D01*
X194245853Y-69403100D01*
X194181703Y-69248228D01*
X194149000Y-69083816D01*
X194149000Y-68916184D01*
X194181703Y-68751772D01*
X194245853Y-68596900D01*
X194338985Y-68457519D01*
X194457519Y-68338985D01*
X194596900Y-68245853D01*
X194751772Y-68181703D01*
X194916184Y-68149000D01*
X195083816Y-68149000D01*
X195248228Y-68181703D01*
X195248228Y-68181703D01*
G37*
G36*
X137248228Y-67681703D02*
G01*
X137403100Y-67745853D01*
X137542481Y-67838985D01*
X137661015Y-67957519D01*
X137754147Y-68096900D01*
X137818297Y-68251772D01*
X137851000Y-68416184D01*
X137851000Y-68583816D01*
X137818297Y-68748228D01*
X137754147Y-68903100D01*
X137661015Y-69042481D01*
X137542481Y-69161015D01*
X137403100Y-69254147D01*
X137248228Y-69318297D01*
X137083816Y-69351000D01*
X136916184Y-69351000D01*
X136751772Y-69318297D01*
X136596900Y-69254147D01*
X136457519Y-69161015D01*
X136338985Y-69042481D01*
X136245853Y-68903100D01*
X136181703Y-68748228D01*
X136149000Y-68583816D01*
X136149000Y-68416184D01*
X136181703Y-68251772D01*
X136245853Y-68096900D01*
X136338985Y-67957519D01*
X136457519Y-67838985D01*
X136596900Y-67745853D01*
X136751772Y-67681703D01*
X136916184Y-67649000D01*
X137083816Y-67649000D01*
X137248228Y-67681703D01*
X137248228Y-67681703D01*
G37*
G36*
X127006823Y-67661313D02*
G01*
X127167242Y-67709976D01*
X127299906Y-67780886D01*
X127315078Y-67788996D01*
X127444659Y-67895341D01*
X127551004Y-68024922D01*
X127551005Y-68024924D01*
X127630024Y-68172758D01*
X127630025Y-68172761D01*
X127632738Y-68181705D01*
X127678687Y-68333177D01*
X127695117Y-68500000D01*
X127678687Y-68666823D01*
X127630024Y-68827242D01*
X127589477Y-68903100D01*
X127551004Y-68975078D01*
X127444659Y-69104659D01*
X127315078Y-69211004D01*
X127315076Y-69211005D01*
X127167242Y-69290024D01*
X127006823Y-69338687D01*
X126881804Y-69351000D01*
X126798196Y-69351000D01*
X126673177Y-69338687D01*
X126512758Y-69290024D01*
X126364924Y-69211005D01*
X126364922Y-69211004D01*
X126235341Y-69104659D01*
X126128996Y-68975078D01*
X126090523Y-68903100D01*
X126049976Y-68827242D01*
X126001313Y-68666823D01*
X125984883Y-68500000D01*
X126001313Y-68333177D01*
X126047262Y-68181705D01*
X126049975Y-68172761D01*
X126049976Y-68172758D01*
X126128995Y-68024924D01*
X126128996Y-68024922D01*
X126235341Y-67895341D01*
X126364922Y-67788996D01*
X126380094Y-67780886D01*
X126512758Y-67709976D01*
X126673177Y-67661313D01*
X126798196Y-67649000D01*
X126881804Y-67649000D01*
X127006823Y-67661313D01*
X127006823Y-67661313D01*
G37*
G36*
X189248228Y-67681703D02*
G01*
X189403100Y-67745853D01*
X189542481Y-67838985D01*
X189661015Y-67957519D01*
X189754147Y-68096900D01*
X189818297Y-68251772D01*
X189851000Y-68416184D01*
X189851000Y-68583816D01*
X189818297Y-68748228D01*
X189754147Y-68903100D01*
X189661015Y-69042481D01*
X189542481Y-69161015D01*
X189403100Y-69254147D01*
X189248228Y-69318297D01*
X189083816Y-69351000D01*
X188916184Y-69351000D01*
X188751772Y-69318297D01*
X188596900Y-69254147D01*
X188457519Y-69161015D01*
X188338985Y-69042481D01*
X188245853Y-68903100D01*
X188181703Y-68748228D01*
X188149000Y-68583816D01*
X188149000Y-68416184D01*
X188181703Y-68251772D01*
X188245853Y-68096900D01*
X188338985Y-67957519D01*
X188457519Y-67838985D01*
X188596900Y-67745853D01*
X188751772Y-67681703D01*
X188916184Y-67649000D01*
X189083816Y-67649000D01*
X189248228Y-67681703D01*
X189248228Y-67681703D01*
G37*
G36*
X180786823Y-67161313D02*
G01*
X180947242Y-67209976D01*
X181079906Y-67280886D01*
X181095078Y-67288996D01*
X181224659Y-67395341D01*
X181331004Y-67524922D01*
X181331005Y-67524924D01*
X181410024Y-67672758D01*
X181410025Y-67672761D01*
X181412738Y-67681705D01*
X181458687Y-67833177D01*
X181475117Y-68000000D01*
X181458687Y-68166823D01*
X181410024Y-68327242D01*
X181362483Y-68416184D01*
X181331004Y-68475078D01*
X181224659Y-68604659D01*
X181095078Y-68711004D01*
X181095076Y-68711005D01*
X180947242Y-68790024D01*
X180786823Y-68838687D01*
X180661804Y-68851000D01*
X180578196Y-68851000D01*
X180453177Y-68838687D01*
X180292758Y-68790024D01*
X180144924Y-68711005D01*
X180144922Y-68711004D01*
X180015341Y-68604659D01*
X179908996Y-68475078D01*
X179877517Y-68416184D01*
X179829976Y-68327242D01*
X179781313Y-68166823D01*
X179764883Y-68000000D01*
X179781313Y-67833177D01*
X179827262Y-67681705D01*
X179829975Y-67672761D01*
X179829976Y-67672758D01*
X179908995Y-67524924D01*
X179908996Y-67524922D01*
X180015341Y-67395341D01*
X180144922Y-67288996D01*
X180160094Y-67280886D01*
X180292758Y-67209976D01*
X180453177Y-67161313D01*
X180578196Y-67149000D01*
X180661804Y-67149000D01*
X180786823Y-67161313D01*
X180786823Y-67161313D01*
G37*
G36*
X173851000Y-68851000D02*
G01*
X172149000Y-68851000D01*
X172149000Y-67149000D01*
X173851000Y-67149000D01*
X173851000Y-68851000D01*
X173851000Y-68851000D01*
G37*
G36*
X159786823Y-66781313D02*
G01*
X159947242Y-66829976D01*
X160079906Y-66900886D01*
X160095078Y-66908996D01*
X160224659Y-67015341D01*
X160331004Y-67144922D01*
X160331005Y-67144924D01*
X160410024Y-67292758D01*
X160458687Y-67453177D01*
X160475117Y-67620000D01*
X160458687Y-67786823D01*
X160410024Y-67947242D01*
X160404530Y-67957520D01*
X160331004Y-68095078D01*
X160224659Y-68224659D01*
X160095078Y-68331004D01*
X160080146Y-68338985D01*
X159947242Y-68410024D01*
X159786823Y-68458687D01*
X159661804Y-68471000D01*
X159578196Y-68471000D01*
X159453177Y-68458687D01*
X159292758Y-68410024D01*
X159159854Y-68338985D01*
X159144922Y-68331004D01*
X159015341Y-68224659D01*
X158908996Y-68095078D01*
X158835470Y-67957520D01*
X158829976Y-67947242D01*
X158781313Y-67786823D01*
X158764883Y-67620000D01*
X158781313Y-67453177D01*
X158829976Y-67292758D01*
X158908995Y-67144924D01*
X158908996Y-67144922D01*
X159015341Y-67015341D01*
X159144922Y-66908996D01*
X159160094Y-66900886D01*
X159292758Y-66829976D01*
X159453177Y-66781313D01*
X159578196Y-66769000D01*
X159661804Y-66769000D01*
X159786823Y-66781313D01*
X159786823Y-66781313D01*
G37*
G36*
X152166823Y-66781313D02*
G01*
X152327242Y-66829976D01*
X152459906Y-66900886D01*
X152475078Y-66908996D01*
X152604659Y-67015341D01*
X152711004Y-67144922D01*
X152711005Y-67144924D01*
X152790024Y-67292758D01*
X152838687Y-67453177D01*
X152855117Y-67620000D01*
X152838687Y-67786823D01*
X152790024Y-67947242D01*
X152784530Y-67957520D01*
X152711004Y-68095078D01*
X152604659Y-68224659D01*
X152475078Y-68331004D01*
X152460146Y-68338985D01*
X152327242Y-68410024D01*
X152166823Y-68458687D01*
X152041804Y-68471000D01*
X151958196Y-68471000D01*
X151833177Y-68458687D01*
X151672758Y-68410024D01*
X151539854Y-68338985D01*
X151524922Y-68331004D01*
X151395341Y-68224659D01*
X151288996Y-68095078D01*
X151215470Y-67957520D01*
X151209976Y-67947242D01*
X151161313Y-67786823D01*
X151144883Y-67620000D01*
X151161313Y-67453177D01*
X151209976Y-67292758D01*
X151288995Y-67144924D01*
X151288996Y-67144922D01*
X151395341Y-67015341D01*
X151524922Y-66908996D01*
X151540094Y-66900886D01*
X151672758Y-66829976D01*
X151833177Y-66781313D01*
X151958196Y-66769000D01*
X152041804Y-66769000D01*
X152166823Y-66781313D01*
X152166823Y-66781313D01*
G37*
G36*
X102627618Y-66658420D02*
G01*
X102718404Y-66685960D01*
X102750336Y-66695646D01*
X102863425Y-66756094D01*
X102962554Y-66837446D01*
X103043906Y-66936575D01*
X103104354Y-67049664D01*
X103104355Y-67049668D01*
X103141580Y-67172382D01*
X103151000Y-67268028D01*
X103151000Y-67731973D01*
X103141580Y-67827618D01*
X103134487Y-67851000D01*
X103104354Y-67950336D01*
X103043906Y-68063425D01*
X102962554Y-68162553D01*
X102863424Y-68243906D01*
X102750335Y-68304354D01*
X102718403Y-68314040D01*
X102627617Y-68341580D01*
X102500000Y-68354149D01*
X102372382Y-68341580D01*
X102281596Y-68314040D01*
X102249664Y-68304354D01*
X102136575Y-68243906D01*
X102037447Y-68162554D01*
X101956094Y-68063424D01*
X101895646Y-67950335D01*
X101878964Y-67895341D01*
X101858420Y-67827617D01*
X101849000Y-67731972D01*
X101849000Y-67268027D01*
X101858420Y-67172382D01*
X101895645Y-67049668D01*
X101895646Y-67049664D01*
X101956094Y-66936575D01*
X102037447Y-66837447D01*
X102136576Y-66756094D01*
X102249665Y-66695646D01*
X102281597Y-66685960D01*
X102372383Y-66658420D01*
X102500000Y-66645851D01*
X102627618Y-66658420D01*
X102627618Y-66658420D01*
G37*
G36*
X169666823Y-66501313D02*
G01*
X169827242Y-66549976D01*
X169915036Y-66596903D01*
X169975078Y-66628996D01*
X170104659Y-66735341D01*
X170211004Y-66864922D01*
X170211005Y-66864924D01*
X170290024Y-67012758D01*
X170338687Y-67173177D01*
X170355117Y-67340000D01*
X170338687Y-67506823D01*
X170290024Y-67667242D01*
X170226105Y-67786825D01*
X170211004Y-67815078D01*
X170104659Y-67944659D01*
X169975078Y-68051004D01*
X169975076Y-68051005D01*
X169827242Y-68130024D01*
X169666823Y-68178687D01*
X169541804Y-68191000D01*
X169458196Y-68191000D01*
X169333177Y-68178687D01*
X169172758Y-68130024D01*
X169024924Y-68051005D01*
X169024922Y-68051004D01*
X168895341Y-67944659D01*
X168788996Y-67815078D01*
X168773895Y-67786825D01*
X168709976Y-67667242D01*
X168661313Y-67506823D01*
X168644883Y-67340000D01*
X168661313Y-67173177D01*
X168709976Y-67012758D01*
X168788995Y-66864924D01*
X168788996Y-66864922D01*
X168895341Y-66735341D01*
X169024922Y-66628996D01*
X169084964Y-66596903D01*
X169172758Y-66549976D01*
X169333177Y-66501313D01*
X169458196Y-66489000D01*
X169541804Y-66489000D01*
X169666823Y-66501313D01*
X169666823Y-66501313D01*
G37*
G36*
X123748228Y-66181703D02*
G01*
X123903100Y-66245853D01*
X124042481Y-66338985D01*
X124161015Y-66457519D01*
X124254147Y-66596900D01*
X124318297Y-66751772D01*
X124351000Y-66916184D01*
X124351000Y-67083816D01*
X124318297Y-67248228D01*
X124254147Y-67403100D01*
X124161015Y-67542481D01*
X124042481Y-67661015D01*
X123903100Y-67754147D01*
X123748228Y-67818297D01*
X123583816Y-67851000D01*
X123416184Y-67851000D01*
X123251772Y-67818297D01*
X123096900Y-67754147D01*
X122957519Y-67661015D01*
X122838985Y-67542481D01*
X122745853Y-67403100D01*
X122681703Y-67248228D01*
X122649000Y-67083816D01*
X122649000Y-66916184D01*
X122681703Y-66751772D01*
X122745853Y-66596900D01*
X122838985Y-66457519D01*
X122957519Y-66338985D01*
X123096900Y-66245853D01*
X123251772Y-66181703D01*
X123416184Y-66149000D01*
X123583816Y-66149000D01*
X123748228Y-66181703D01*
X123748228Y-66181703D01*
G37*
G36*
X185248228Y-64681703D02*
G01*
X185403100Y-64745853D01*
X185542481Y-64838985D01*
X185661015Y-64957519D01*
X185754147Y-65096900D01*
X185818297Y-65251772D01*
X185851000Y-65416184D01*
X185851000Y-65583816D01*
X185818297Y-65748228D01*
X185754147Y-65903100D01*
X185661015Y-66042481D01*
X185542481Y-66161015D01*
X185403100Y-66254147D01*
X185248228Y-66318297D01*
X185083816Y-66351000D01*
X184916184Y-66351000D01*
X184751772Y-66318297D01*
X184596900Y-66254147D01*
X184457519Y-66161015D01*
X184338985Y-66042481D01*
X184245853Y-65903100D01*
X184181703Y-65748228D01*
X184149000Y-65583816D01*
X184149000Y-65416184D01*
X184181703Y-65251772D01*
X184245853Y-65096900D01*
X184338985Y-64957519D01*
X184457519Y-64838985D01*
X184596900Y-64745853D01*
X184751772Y-64681703D01*
X184916184Y-64649000D01*
X185083816Y-64649000D01*
X185248228Y-64681703D01*
X185248228Y-64681703D01*
G37*
G36*
X159786823Y-64241313D02*
G01*
X159917380Y-64280917D01*
X159944012Y-64288996D01*
X159947242Y-64289976D01*
X160038931Y-64338985D01*
X160095078Y-64368996D01*
X160224659Y-64475341D01*
X160331004Y-64604922D01*
X160331005Y-64604924D01*
X160410024Y-64752758D01*
X160458687Y-64913177D01*
X160475117Y-65080000D01*
X160458687Y-65246823D01*
X160434293Y-65327239D01*
X160411281Y-65403100D01*
X160410024Y-65407242D01*
X160373766Y-65475076D01*
X160331004Y-65555078D01*
X160224659Y-65684659D01*
X160095078Y-65791004D01*
X160095076Y-65791005D01*
X159947242Y-65870024D01*
X159786823Y-65918687D01*
X159661804Y-65931000D01*
X159578196Y-65931000D01*
X159453177Y-65918687D01*
X159292758Y-65870024D01*
X159144924Y-65791005D01*
X159144922Y-65791004D01*
X159015341Y-65684659D01*
X158908996Y-65555078D01*
X158866234Y-65475076D01*
X158829976Y-65407242D01*
X158828720Y-65403100D01*
X158805707Y-65327239D01*
X158781313Y-65246823D01*
X158764883Y-65080000D01*
X158781313Y-64913177D01*
X158829976Y-64752758D01*
X158908995Y-64604924D01*
X158908996Y-64604922D01*
X159015341Y-64475341D01*
X159144922Y-64368996D01*
X159201069Y-64338985D01*
X159292758Y-64289976D01*
X159295989Y-64288996D01*
X159322620Y-64280917D01*
X159453177Y-64241313D01*
X159578196Y-64229000D01*
X159661804Y-64229000D01*
X159786823Y-64241313D01*
X159786823Y-64241313D01*
G37*
G36*
X152166823Y-64241313D02*
G01*
X152297380Y-64280917D01*
X152324012Y-64288996D01*
X152327242Y-64289976D01*
X152418931Y-64338985D01*
X152475078Y-64368996D01*
X152604659Y-64475341D01*
X152711004Y-64604922D01*
X152711005Y-64604924D01*
X152790024Y-64752758D01*
X152838687Y-64913177D01*
X152855117Y-65080000D01*
X152838687Y-65246823D01*
X152814293Y-65327239D01*
X152791281Y-65403100D01*
X152790024Y-65407242D01*
X152753766Y-65475076D01*
X152711004Y-65555078D01*
X152604659Y-65684659D01*
X152475078Y-65791004D01*
X152475076Y-65791005D01*
X152327242Y-65870024D01*
X152166823Y-65918687D01*
X152041804Y-65931000D01*
X151958196Y-65931000D01*
X151833177Y-65918687D01*
X151672758Y-65870024D01*
X151524924Y-65791005D01*
X151524922Y-65791004D01*
X151395341Y-65684659D01*
X151288996Y-65555078D01*
X151246234Y-65475076D01*
X151209976Y-65407242D01*
X151208720Y-65403100D01*
X151185707Y-65327239D01*
X151161313Y-65246823D01*
X151144883Y-65080000D01*
X151161313Y-64913177D01*
X151209976Y-64752758D01*
X151288995Y-64604924D01*
X151288996Y-64604922D01*
X151395341Y-64475341D01*
X151524922Y-64368996D01*
X151581069Y-64338985D01*
X151672758Y-64289976D01*
X151675989Y-64288996D01*
X151702620Y-64280917D01*
X151833177Y-64241313D01*
X151958196Y-64229000D01*
X152041804Y-64229000D01*
X152166823Y-64241313D01*
X152166823Y-64241313D01*
G37*
G36*
X109006823Y-64161313D02*
G01*
X109167242Y-64209976D01*
X109202833Y-64229000D01*
X109315078Y-64288996D01*
X109444659Y-64395341D01*
X109551004Y-64524922D01*
X109551005Y-64524924D01*
X109630024Y-64672758D01*
X109630025Y-64672761D01*
X109632738Y-64681705D01*
X109678687Y-64833177D01*
X109695117Y-65000000D01*
X109678687Y-65166823D01*
X109630024Y-65327242D01*
X109587263Y-65407242D01*
X109551004Y-65475078D01*
X109444659Y-65604659D01*
X109315078Y-65711004D01*
X109315076Y-65711005D01*
X109167242Y-65790024D01*
X109167239Y-65790025D01*
X109164008Y-65791005D01*
X109006823Y-65838687D01*
X108881804Y-65851000D01*
X108798196Y-65851000D01*
X108673177Y-65838687D01*
X108515992Y-65791005D01*
X108512761Y-65790025D01*
X108512758Y-65790024D01*
X108364924Y-65711005D01*
X108364922Y-65711004D01*
X108235341Y-65604659D01*
X108128996Y-65475078D01*
X108092737Y-65407242D01*
X108049976Y-65327242D01*
X108001313Y-65166823D01*
X107984883Y-65000000D01*
X108001313Y-64833177D01*
X108047262Y-64681705D01*
X108049975Y-64672761D01*
X108049976Y-64672758D01*
X108128995Y-64524924D01*
X108128996Y-64524922D01*
X108235341Y-64395341D01*
X108364922Y-64288996D01*
X108477167Y-64229000D01*
X108512758Y-64209976D01*
X108673177Y-64161313D01*
X108798196Y-64149000D01*
X108881804Y-64149000D01*
X109006823Y-64161313D01*
X109006823Y-64161313D01*
G37*
G36*
X119248228Y-64181703D02*
G01*
X119403100Y-64245853D01*
X119542481Y-64338985D01*
X119661015Y-64457519D01*
X119754147Y-64596900D01*
X119818297Y-64751772D01*
X119851000Y-64916184D01*
X119851000Y-65083816D01*
X119818297Y-65248228D01*
X119754147Y-65403100D01*
X119661015Y-65542481D01*
X119542481Y-65661015D01*
X119403100Y-65754147D01*
X119248228Y-65818297D01*
X119083816Y-65851000D01*
X118916184Y-65851000D01*
X118751772Y-65818297D01*
X118596900Y-65754147D01*
X118457519Y-65661015D01*
X118338985Y-65542481D01*
X118245853Y-65403100D01*
X118181703Y-65248228D01*
X118149000Y-65083816D01*
X118149000Y-64916184D01*
X118181703Y-64751772D01*
X118245853Y-64596900D01*
X118338985Y-64457519D01*
X118457519Y-64338985D01*
X118596900Y-64245853D01*
X118751772Y-64181703D01*
X118916184Y-64149000D01*
X119083816Y-64149000D01*
X119248228Y-64181703D01*
X119248228Y-64181703D01*
G37*
G36*
X175748228Y-62181703D02*
G01*
X175903100Y-62245853D01*
X176042481Y-62338985D01*
X176161015Y-62457519D01*
X176254147Y-62596900D01*
X176318297Y-62751772D01*
X176351000Y-62916184D01*
X176351000Y-63083816D01*
X176318297Y-63248228D01*
X176254147Y-63403100D01*
X176161015Y-63542481D01*
X176042481Y-63661015D01*
X175903100Y-63754147D01*
X175748228Y-63818297D01*
X175583816Y-63851000D01*
X175416184Y-63851000D01*
X175251772Y-63818297D01*
X175096900Y-63754147D01*
X174957519Y-63661015D01*
X174838985Y-63542481D01*
X174745853Y-63403100D01*
X174681703Y-63248228D01*
X174649000Y-63083816D01*
X174649000Y-62916184D01*
X174681703Y-62751772D01*
X174745853Y-62596900D01*
X174838985Y-62457519D01*
X174957519Y-62338985D01*
X175096900Y-62245853D01*
X175251772Y-62181703D01*
X175416184Y-62149000D01*
X175583816Y-62149000D01*
X175748228Y-62181703D01*
X175748228Y-62181703D01*
G37*
G36*
X170748228Y-62181703D02*
G01*
X170903100Y-62245853D01*
X171042481Y-62338985D01*
X171161015Y-62457519D01*
X171254147Y-62596900D01*
X171318297Y-62751772D01*
X171351000Y-62916184D01*
X171351000Y-63083816D01*
X171318297Y-63248228D01*
X171254147Y-63403100D01*
X171161015Y-63542481D01*
X171042481Y-63661015D01*
X170903100Y-63754147D01*
X170748228Y-63818297D01*
X170583816Y-63851000D01*
X170416184Y-63851000D01*
X170251772Y-63818297D01*
X170096900Y-63754147D01*
X169957519Y-63661015D01*
X169838985Y-63542481D01*
X169745853Y-63403100D01*
X169681703Y-63248228D01*
X169649000Y-63083816D01*
X169649000Y-62916184D01*
X169681703Y-62751772D01*
X169745853Y-62596900D01*
X169838985Y-62457519D01*
X169957519Y-62338985D01*
X170096900Y-62245853D01*
X170251772Y-62181703D01*
X170416184Y-62149000D01*
X170583816Y-62149000D01*
X170748228Y-62181703D01*
X170748228Y-62181703D01*
G37*
G36*
X159786823Y-61701313D02*
G01*
X159947242Y-61749976D01*
X160079906Y-61820886D01*
X160095078Y-61828996D01*
X160224659Y-61935341D01*
X160331004Y-62064922D01*
X160331005Y-62064924D01*
X160410024Y-62212758D01*
X160458687Y-62373177D01*
X160475117Y-62540000D01*
X160458687Y-62706823D01*
X160410024Y-62867242D01*
X160383864Y-62916184D01*
X160331004Y-63015078D01*
X160224659Y-63144659D01*
X160095078Y-63251004D01*
X160095076Y-63251005D01*
X159947242Y-63330024D01*
X159786823Y-63378687D01*
X159661804Y-63391000D01*
X159578196Y-63391000D01*
X159453177Y-63378687D01*
X159292758Y-63330024D01*
X159144924Y-63251005D01*
X159144922Y-63251004D01*
X159015341Y-63144659D01*
X158908996Y-63015078D01*
X158856136Y-62916184D01*
X158829976Y-62867242D01*
X158781313Y-62706823D01*
X158764883Y-62540000D01*
X158781313Y-62373177D01*
X158829976Y-62212758D01*
X158908995Y-62064924D01*
X158908996Y-62064922D01*
X159015341Y-61935341D01*
X159144922Y-61828996D01*
X159160094Y-61820886D01*
X159292758Y-61749976D01*
X159453177Y-61701313D01*
X159578196Y-61689000D01*
X159661804Y-61689000D01*
X159786823Y-61701313D01*
X159786823Y-61701313D01*
G37*
G36*
X152166823Y-61701313D02*
G01*
X152327242Y-61749976D01*
X152459906Y-61820886D01*
X152475078Y-61828996D01*
X152604659Y-61935341D01*
X152711004Y-62064922D01*
X152711005Y-62064924D01*
X152790024Y-62212758D01*
X152838687Y-62373177D01*
X152855117Y-62540000D01*
X152838687Y-62706823D01*
X152790024Y-62867242D01*
X152763864Y-62916184D01*
X152711004Y-63015078D01*
X152604659Y-63144659D01*
X152475078Y-63251004D01*
X152475076Y-63251005D01*
X152327242Y-63330024D01*
X152166823Y-63378687D01*
X152041804Y-63391000D01*
X151958196Y-63391000D01*
X151833177Y-63378687D01*
X151672758Y-63330024D01*
X151524924Y-63251005D01*
X151524922Y-63251004D01*
X151395341Y-63144659D01*
X151288996Y-63015078D01*
X151236136Y-62916184D01*
X151209976Y-62867242D01*
X151161313Y-62706823D01*
X151144883Y-62540000D01*
X151161313Y-62373177D01*
X151209976Y-62212758D01*
X151288995Y-62064924D01*
X151288996Y-62064922D01*
X151395341Y-61935341D01*
X151524922Y-61828996D01*
X151540094Y-61820886D01*
X151672758Y-61749976D01*
X151833177Y-61701313D01*
X151958196Y-61689000D01*
X152041804Y-61689000D01*
X152166823Y-61701313D01*
X152166823Y-61701313D01*
G37*
G36*
X148248228Y-60681703D02*
G01*
X148403100Y-60745853D01*
X148542481Y-60838985D01*
X148661015Y-60957519D01*
X148754147Y-61096900D01*
X148818297Y-61251772D01*
X148851000Y-61416184D01*
X148851000Y-61583816D01*
X148818297Y-61748228D01*
X148754147Y-61903100D01*
X148661015Y-62042481D01*
X148542481Y-62161015D01*
X148403100Y-62254147D01*
X148248228Y-62318297D01*
X148083816Y-62351000D01*
X147916184Y-62351000D01*
X147751772Y-62318297D01*
X147596900Y-62254147D01*
X147457519Y-62161015D01*
X147338985Y-62042481D01*
X147245853Y-61903100D01*
X147181703Y-61748228D01*
X147149000Y-61583816D01*
X147149000Y-61416184D01*
X147181703Y-61251772D01*
X147245853Y-61096900D01*
X147338985Y-60957519D01*
X147457519Y-60838985D01*
X147596900Y-60745853D01*
X147751772Y-60681703D01*
X147916184Y-60649000D01*
X148083816Y-60649000D01*
X148248228Y-60681703D01*
X148248228Y-60681703D01*
G37*
G36*
X111748228Y-59181703D02*
G01*
X111903100Y-59245853D01*
X112042481Y-59338985D01*
X112161015Y-59457519D01*
X112254147Y-59596900D01*
X112318297Y-59751772D01*
X112351000Y-59916184D01*
X112351000Y-60083816D01*
X112318297Y-60248228D01*
X112254147Y-60403100D01*
X112161015Y-60542481D01*
X112042481Y-60661015D01*
X111903100Y-60754147D01*
X111748228Y-60818297D01*
X111583816Y-60851000D01*
X111416184Y-60851000D01*
X111251772Y-60818297D01*
X111096900Y-60754147D01*
X110957519Y-60661015D01*
X110838985Y-60542481D01*
X110745853Y-60403100D01*
X110681703Y-60248228D01*
X110649000Y-60083816D01*
X110649000Y-59916184D01*
X110681703Y-59751772D01*
X110745853Y-59596900D01*
X110838985Y-59457519D01*
X110957519Y-59338985D01*
X111096900Y-59245853D01*
X111251772Y-59181703D01*
X111416184Y-59149000D01*
X111583816Y-59149000D01*
X111748228Y-59181703D01*
X111748228Y-59181703D01*
G37*
G36*
X116748228Y-59181703D02*
G01*
X116903100Y-59245853D01*
X117042481Y-59338985D01*
X117161015Y-59457519D01*
X117254147Y-59596900D01*
X117318297Y-59751772D01*
X117351000Y-59916184D01*
X117351000Y-60083816D01*
X117318297Y-60248228D01*
X117254147Y-60403100D01*
X117161015Y-60542481D01*
X117042481Y-60661015D01*
X116903100Y-60754147D01*
X116748228Y-60818297D01*
X116583816Y-60851000D01*
X116416184Y-60851000D01*
X116251772Y-60818297D01*
X116096900Y-60754147D01*
X115957519Y-60661015D01*
X115838985Y-60542481D01*
X115745853Y-60403100D01*
X115681703Y-60248228D01*
X115649000Y-60083816D01*
X115649000Y-59916184D01*
X115681703Y-59751772D01*
X115745853Y-59596900D01*
X115838985Y-59457519D01*
X115957519Y-59338985D01*
X116096900Y-59245853D01*
X116251772Y-59181703D01*
X116416184Y-59149000D01*
X116583816Y-59149000D01*
X116748228Y-59181703D01*
X116748228Y-59181703D01*
G37*
G36*
X159786823Y-59161313D02*
G01*
X159947242Y-59209976D01*
X160014361Y-59245852D01*
X160095078Y-59288996D01*
X160224659Y-59395341D01*
X160331004Y-59524922D01*
X160331005Y-59524924D01*
X160410024Y-59672758D01*
X160458687Y-59833177D01*
X160475117Y-60000000D01*
X160458687Y-60166823D01*
X160410024Y-60327242D01*
X160369477Y-60403100D01*
X160331004Y-60475078D01*
X160224659Y-60604659D01*
X160095078Y-60711004D01*
X160095076Y-60711005D01*
X159947242Y-60790024D01*
X159786823Y-60838687D01*
X159661804Y-60851000D01*
X159578196Y-60851000D01*
X159453177Y-60838687D01*
X159292758Y-60790024D01*
X159144924Y-60711005D01*
X159144922Y-60711004D01*
X159015341Y-60604659D01*
X158908996Y-60475078D01*
X158870523Y-60403100D01*
X158829976Y-60327242D01*
X158781313Y-60166823D01*
X158764883Y-60000000D01*
X158781313Y-59833177D01*
X158829976Y-59672758D01*
X158908995Y-59524924D01*
X158908996Y-59524922D01*
X159015341Y-59395341D01*
X159144922Y-59288996D01*
X159225639Y-59245852D01*
X159292758Y-59209976D01*
X159453177Y-59161313D01*
X159578196Y-59149000D01*
X159661804Y-59149000D01*
X159786823Y-59161313D01*
X159786823Y-59161313D01*
G37*
G36*
X152851000Y-60851000D02*
G01*
X151149000Y-60851000D01*
X151149000Y-59149000D01*
X152851000Y-59149000D01*
X152851000Y-60851000D01*
X152851000Y-60851000D01*
G37*
G36*
X133181000Y-60791000D02*
G01*
X130979000Y-60791000D01*
X130979000Y-58589000D01*
X133181000Y-58589000D01*
X133181000Y-60791000D01*
X133181000Y-60791000D01*
G37*
G36*
X134834794Y-58610155D02*
G01*
X134941150Y-58631311D01*
X135041334Y-58672809D01*
X135141520Y-58714307D01*
X135321844Y-58834795D01*
X135475205Y-58988156D01*
X135595693Y-59168480D01*
X135678689Y-59368851D01*
X135715064Y-59551716D01*
X135721000Y-59581561D01*
X135721000Y-59798439D01*
X135678689Y-60011150D01*
X135637191Y-60111334D01*
X135595693Y-60211520D01*
X135475205Y-60391844D01*
X135321844Y-60545205D01*
X135141520Y-60665693D01*
X135102868Y-60681703D01*
X134941150Y-60748689D01*
X134834794Y-60769845D01*
X134728440Y-60791000D01*
X134511560Y-60791000D01*
X134405206Y-60769845D01*
X134298850Y-60748689D01*
X134137132Y-60681703D01*
X134098480Y-60665693D01*
X133918156Y-60545205D01*
X133764795Y-60391844D01*
X133644307Y-60211520D01*
X133561311Y-60011150D01*
X133519000Y-59798439D01*
X133519000Y-59581561D01*
X133524937Y-59551716D01*
X133561311Y-59368851D01*
X133644307Y-59168480D01*
X133764795Y-58988156D01*
X133918156Y-58834795D01*
X134098480Y-58714307D01*
X134298850Y-58631311D01*
X134405206Y-58610155D01*
X134511560Y-58589000D01*
X134728440Y-58589000D01*
X134834794Y-58610155D01*
X134834794Y-58610155D01*
G37*
G36*
X180397985Y-56293860D02*
G01*
X180510748Y-56316290D01*
X180642741Y-56370963D01*
X180829408Y-56448283D01*
X181116196Y-56639909D01*
X181360091Y-56883804D01*
X181551717Y-57170592D01*
X181683710Y-57489253D01*
X181751000Y-57827540D01*
X181751000Y-58172460D01*
X181683710Y-58510747D01*
X181551717Y-58829408D01*
X181360091Y-59116196D01*
X181116196Y-59360091D01*
X180829408Y-59551717D01*
X180642741Y-59629037D01*
X180510748Y-59683710D01*
X180397985Y-59706140D01*
X180172460Y-59751000D01*
X179827540Y-59751000D01*
X179602015Y-59706140D01*
X179489252Y-59683710D01*
X179357259Y-59629037D01*
X179170592Y-59551717D01*
X178883804Y-59360091D01*
X178639909Y-59116196D01*
X178448283Y-58829408D01*
X178316290Y-58510747D01*
X178249000Y-58172460D01*
X178249000Y-57827540D01*
X178316290Y-57489253D01*
X178448283Y-57170592D01*
X178639909Y-56883804D01*
X178883804Y-56639909D01*
X179170592Y-56448283D01*
X179357259Y-56370963D01*
X179489252Y-56316290D01*
X179602015Y-56293860D01*
X179827540Y-56249000D01*
X180172460Y-56249000D01*
X180397985Y-56293860D01*
X180397985Y-56293860D01*
G37*
M02*
