M48
; DRILL file {KiCad 5.1.4-e60b266~84~ubuntu18.04.1} date Thu Oct 24 11:22:20 2019
; FORMAT={-:-/ absolute / inch / decimal}
; #@! TF.CreationDate,2019-10-24T11:22:20-04:00
; #@! TF.GenerationSoftware,Kicad,Pcbnew,5.1.4-e60b266~84~ubuntu18.04.1
FMAT,2
INCH
T1C0.0157
T2C0.0276
T3C0.0315
T4C0.0433
T5C0.0728
%
G90
G05
T1
X3.937Y-3.2087
X4.0354Y-2.4606
X4.225Y-2.975
X4.8622Y-2.5
X4.95Y-3.1102
X5.1Y-3.85
X5.2362Y-3.5039
X5.45Y-2.35
X5.525Y-2.65
X5.775Y-3.425
X6.378Y-2.6575
X6.378Y-2.9528
X6.4173Y-3.3071
X6.5551Y-3.5039
X6.8898Y-3.6614
X7.0276Y-3.2874
X7.0472Y-2.4803
X7.2244Y-2.2835
X7.4016Y-2.5394
X7.5984Y-3.8189
X7.6772Y-2.5787
T2
X4.0354Y-2.6575
X4.0354Y-2.8575
T3
X3.937Y-3.0906
X4.1339Y-3.0906
X6.8701Y-3.5236
X7.2701Y-3.5236
X4.3898Y-2.3622
X4.5866Y-2.3622
X7.4803Y-3.622
X7.4803Y-3.8189
X7.6772Y-2.7165
X7.6772Y-2.9134
X4.85Y-2.9921
X4.85Y-3.3921
X7.2835Y-2.9528
X7.2835Y-3.3528
X4.8622Y-2.6378
X4.8622Y-2.8346
X6.8307Y-3.1693
X7.0276Y-3.1693
X7.0472Y-3.6614
X7.2441Y-3.6614
X5.0394Y-3.3858
X5.2362Y-3.3858
X5.8268Y-2.4213
X5.8268Y-2.8213
X5.7874Y-3.0709
X5.7874Y-3.2677
X4.311Y-3.2677
X4.5079Y-3.2677
X6.0433Y-3.5039
X6.4433Y-3.5039
X5.9843Y-2.3622
X5.9843Y-2.4622
X5.9843Y-2.5622
X5.9843Y-2.6622
X5.9843Y-2.7622
X5.9843Y-2.8622
X5.9843Y-2.9622
X5.9843Y-3.0622
X5.9843Y-3.1622
X5.9843Y-3.2622
X6.2843Y-2.3622
X6.2843Y-2.4622
X6.2843Y-2.5622
X6.2843Y-2.6622
X6.2843Y-2.7622
X6.2843Y-2.8622
X6.2843Y-2.9622
X6.2843Y-3.0622
X6.2843Y-3.1622
X6.2843Y-3.2622
X5.5315Y-2.7953
X5.5315Y-2.9921
X4.9937Y-2.6969
X5.3937Y-2.6969
X4.285Y-2.5591
X4.685Y-2.5591
X4.275Y-4.05
X4.675Y-4.05
X6.811Y-2.6772
X6.811Y-2.7772
X6.811Y-2.8772
X6.811Y-2.9772
X7.111Y-2.6772
X7.111Y-2.7772
X7.111Y-2.8772
X7.111Y-2.9772
X7.4409Y-2.6969
X7.4409Y-2.8937
X6.5157Y-3.1102
X6.5157Y-3.3071
X4.311Y-2.7756
X4.311Y-2.8756
X4.311Y-2.9756
X4.311Y-3.0756
X4.611Y-2.7756
X4.611Y-2.8756
X4.611Y-2.9756
X4.611Y-3.0756
X6.6732Y-2.6512
X6.6732Y-3.0512
X3.9Y-3.6
X4.3Y-3.6
X7.4409Y-3.1102
X7.4409Y-3.2102
X7.4409Y-3.3102
X7.4409Y-3.4102
X7.7409Y-3.1102
X7.7409Y-3.2102
X7.7409Y-3.3102
X7.7409Y-3.4102
X7.2835Y-2.5787
X7.2835Y-2.7756
X5.0394Y-2.9134
X5.0394Y-3.0134
X5.0394Y-3.1134
X5.0394Y-3.2134
X5.3394Y-2.9134
X5.3394Y-3.0134
X5.3394Y-3.1134
X5.3394Y-3.2134
X6.037Y-3.6811
X6.437Y-3.6811
X6.7126Y-2.4803
X6.9094Y-2.4803
T4
X4.5Y-3.8
X4.6Y-3.8
X4.1Y-3.85
X4.1Y-3.95
X4.1Y-4.05
X4.85Y-3.85
X4.95Y-3.85
X5.35Y-3.675
X5.45Y-3.675
X5.2Y-2.35
X5.3Y-2.35
T5
X6.6732Y-3.7402
X4.7Y-3.25
X7.6772Y-3.622
X7.0866Y-2.2835
X5.5118Y-3.3071
T0
M30
