M48
INCH,TZ
T1C0.0315
T2C0.0433
T3C0.0472
T4C0.0591
%
G90
G05
T1
X81551Y-29409
X85551Y-29409
X69173Y-21102
X73173Y-21102
T2
X75197Y-21024
X76197Y-21024
X77197Y-21024
T3
X79409Y-26772
X88228Y-26772
X79409Y-23780
X88228Y-23780
T4
X79646Y-19882
X81220Y-19882
X69173Y-25157
X70748Y-25157
X75000Y-16811
X76575Y-16811
X71181Y-16772
X72756Y-16772
X77598Y-29764
X79173Y-29764
X83701Y-19882
X85276Y-19882
T0
M30
