G04 #@! TF.GenerationSoftware,KiCad,Pcbnew,(5.1.2)-1*
G04 #@! TF.CreationDate,2019-12-31T23:39:51-05:00*
G04 #@! TF.ProjectId,modulator,6d6f6475-6c61-4746-9f72-2e6b69636164,rev?*
G04 #@! TF.SameCoordinates,Original*
G04 #@! TF.FileFunction,Legend,Top*
G04 #@! TF.FilePolarity,Positive*
%FSLAX46Y46*%
G04 Gerber Fmt 4.6, Leading zero omitted, Abs format (unit mm)*
G04 Created by KiCad (PCBNEW (5.1.2)-1) date 2019-12-31 23:39:51*
%MOMM*%
%LPD*%
G04 APERTURE LIST*
%ADD10C,0.150000*%
%ADD11C,0.010000*%
%ADD12C,0.120000*%
G04 APERTURE END LIST*
D10*
X210509523Y-67052380D02*
X210033333Y-67052380D01*
X209985714Y-67528571D01*
X210033333Y-67480952D01*
X210128571Y-67433333D01*
X210366666Y-67433333D01*
X210461904Y-67480952D01*
X210509523Y-67528571D01*
X210557142Y-67623809D01*
X210557142Y-67861904D01*
X210509523Y-67957142D01*
X210461904Y-68004761D01*
X210366666Y-68052380D01*
X210128571Y-68052380D01*
X210033333Y-68004761D01*
X209985714Y-67957142D01*
X211176190Y-67052380D02*
X211271428Y-67052380D01*
X211366666Y-67100000D01*
X211414285Y-67147619D01*
X211461904Y-67242857D01*
X211509523Y-67433333D01*
X211509523Y-67671428D01*
X211461904Y-67861904D01*
X211414285Y-67957142D01*
X211366666Y-68004761D01*
X211271428Y-68052380D01*
X211176190Y-68052380D01*
X211080952Y-68004761D01*
X211033333Y-67957142D01*
X210985714Y-67861904D01*
X210938095Y-67671428D01*
X210938095Y-67433333D01*
X210985714Y-67242857D01*
X211033333Y-67147619D01*
X211080952Y-67100000D01*
X211176190Y-67052380D01*
X212842857Y-68052380D02*
X212747619Y-68004761D01*
X212700000Y-67957142D01*
X212652380Y-67861904D01*
X212652380Y-67576190D01*
X212700000Y-67480952D01*
X212747619Y-67433333D01*
X212842857Y-67385714D01*
X212985714Y-67385714D01*
X213080952Y-67433333D01*
X213128571Y-67480952D01*
X213176190Y-67576190D01*
X213176190Y-67861904D01*
X213128571Y-67957142D01*
X213080952Y-68004761D01*
X212985714Y-68052380D01*
X212842857Y-68052380D01*
X213604761Y-68052380D02*
X213604761Y-67052380D01*
X214033333Y-68052380D02*
X214033333Y-67528571D01*
X213985714Y-67433333D01*
X213890476Y-67385714D01*
X213747619Y-67385714D01*
X213652380Y-67433333D01*
X213604761Y-67480952D01*
X214509523Y-68052380D02*
X214509523Y-67385714D01*
X214509523Y-67480952D02*
X214557142Y-67433333D01*
X214652380Y-67385714D01*
X214795238Y-67385714D01*
X214890476Y-67433333D01*
X214938095Y-67528571D01*
X214938095Y-68052380D01*
X214938095Y-67528571D02*
X214985714Y-67433333D01*
X215080952Y-67385714D01*
X215223809Y-67385714D01*
X215319047Y-67433333D01*
X215366666Y-67528571D01*
X215366666Y-68052380D01*
X210509523Y-59452380D02*
X210033333Y-59452380D01*
X209985714Y-59928571D01*
X210033333Y-59880952D01*
X210128571Y-59833333D01*
X210366666Y-59833333D01*
X210461904Y-59880952D01*
X210509523Y-59928571D01*
X210557142Y-60023809D01*
X210557142Y-60261904D01*
X210509523Y-60357142D01*
X210461904Y-60404761D01*
X210366666Y-60452380D01*
X210128571Y-60452380D01*
X210033333Y-60404761D01*
X209985714Y-60357142D01*
X211176190Y-59452380D02*
X211271428Y-59452380D01*
X211366666Y-59500000D01*
X211414285Y-59547619D01*
X211461904Y-59642857D01*
X211509523Y-59833333D01*
X211509523Y-60071428D01*
X211461904Y-60261904D01*
X211414285Y-60357142D01*
X211366666Y-60404761D01*
X211271428Y-60452380D01*
X211176190Y-60452380D01*
X211080952Y-60404761D01*
X211033333Y-60357142D01*
X210985714Y-60261904D01*
X210938095Y-60071428D01*
X210938095Y-59833333D01*
X210985714Y-59642857D01*
X211033333Y-59547619D01*
X211080952Y-59500000D01*
X211176190Y-59452380D01*
X212842857Y-60452380D02*
X212747619Y-60404761D01*
X212700000Y-60357142D01*
X212652380Y-60261904D01*
X212652380Y-59976190D01*
X212700000Y-59880952D01*
X212747619Y-59833333D01*
X212842857Y-59785714D01*
X212985714Y-59785714D01*
X213080952Y-59833333D01*
X213128571Y-59880952D01*
X213176190Y-59976190D01*
X213176190Y-60261904D01*
X213128571Y-60357142D01*
X213080952Y-60404761D01*
X212985714Y-60452380D01*
X212842857Y-60452380D01*
X213604761Y-60452380D02*
X213604761Y-59452380D01*
X214033333Y-60452380D02*
X214033333Y-59928571D01*
X213985714Y-59833333D01*
X213890476Y-59785714D01*
X213747619Y-59785714D01*
X213652380Y-59833333D01*
X213604761Y-59880952D01*
X214509523Y-60452380D02*
X214509523Y-59785714D01*
X214509523Y-59880952D02*
X214557142Y-59833333D01*
X214652380Y-59785714D01*
X214795238Y-59785714D01*
X214890476Y-59833333D01*
X214938095Y-59928571D01*
X214938095Y-60452380D01*
X214938095Y-59928571D02*
X214985714Y-59833333D01*
X215080952Y-59785714D01*
X215223809Y-59785714D01*
X215319047Y-59833333D01*
X215366666Y-59928571D01*
X215366666Y-60452380D01*
X174295238Y-75652380D02*
X174295238Y-74652380D01*
X174628571Y-75366666D01*
X174961904Y-74652380D01*
X174961904Y-75652380D01*
X175580952Y-75652380D02*
X175485714Y-75604761D01*
X175438095Y-75557142D01*
X175390476Y-75461904D01*
X175390476Y-75176190D01*
X175438095Y-75080952D01*
X175485714Y-75033333D01*
X175580952Y-74985714D01*
X175723809Y-74985714D01*
X175819047Y-75033333D01*
X175866666Y-75080952D01*
X175914285Y-75176190D01*
X175914285Y-75461904D01*
X175866666Y-75557142D01*
X175819047Y-75604761D01*
X175723809Y-75652380D01*
X175580952Y-75652380D01*
X176771428Y-75652380D02*
X176771428Y-74652380D01*
X176771428Y-75604761D02*
X176676190Y-75652380D01*
X176485714Y-75652380D01*
X176390476Y-75604761D01*
X176342857Y-75557142D01*
X176295238Y-75461904D01*
X176295238Y-75176190D01*
X176342857Y-75080952D01*
X176390476Y-75033333D01*
X176485714Y-74985714D01*
X176676190Y-74985714D01*
X176771428Y-75033333D01*
X177676190Y-74985714D02*
X177676190Y-75652380D01*
X177247619Y-74985714D02*
X177247619Y-75509523D01*
X177295238Y-75604761D01*
X177390476Y-75652380D01*
X177533333Y-75652380D01*
X177628571Y-75604761D01*
X177676190Y-75557142D01*
X178295238Y-75652380D02*
X178200000Y-75604761D01*
X178152380Y-75509523D01*
X178152380Y-74652380D01*
X179104761Y-75652380D02*
X179104761Y-75128571D01*
X179057142Y-75033333D01*
X178961904Y-74985714D01*
X178771428Y-74985714D01*
X178676190Y-75033333D01*
X179104761Y-75604761D02*
X179009523Y-75652380D01*
X178771428Y-75652380D01*
X178676190Y-75604761D01*
X178628571Y-75509523D01*
X178628571Y-75414285D01*
X178676190Y-75319047D01*
X178771428Y-75271428D01*
X179009523Y-75271428D01*
X179104761Y-75223809D01*
X179438095Y-74985714D02*
X179819047Y-74985714D01*
X179580952Y-74652380D02*
X179580952Y-75509523D01*
X179628571Y-75604761D01*
X179723809Y-75652380D01*
X179819047Y-75652380D01*
X180295238Y-75652380D02*
X180200000Y-75604761D01*
X180152380Y-75557142D01*
X180104761Y-75461904D01*
X180104761Y-75176190D01*
X180152380Y-75080952D01*
X180200000Y-75033333D01*
X180295238Y-74985714D01*
X180438095Y-74985714D01*
X180533333Y-75033333D01*
X180580952Y-75080952D01*
X180628571Y-75176190D01*
X180628571Y-75461904D01*
X180580952Y-75557142D01*
X180533333Y-75604761D01*
X180438095Y-75652380D01*
X180295238Y-75652380D01*
X181057142Y-75652380D02*
X181057142Y-74985714D01*
X181057142Y-75176190D02*
X181104761Y-75080952D01*
X181152380Y-75033333D01*
X181247619Y-74985714D01*
X181342857Y-74985714D01*
X182342857Y-74985714D02*
X182580952Y-75652380D01*
X182819047Y-74985714D01*
X183723809Y-75652380D02*
X183152380Y-75652380D01*
X183438095Y-75652380D02*
X183438095Y-74652380D01*
X183342857Y-74795238D01*
X183247619Y-74890476D01*
X183152380Y-74938095D01*
X184152380Y-75557142D02*
X184200000Y-75604761D01*
X184152380Y-75652380D01*
X184104761Y-75604761D01*
X184152380Y-75557142D01*
X184152380Y-75652380D01*
X185152380Y-75652380D02*
X184580952Y-75652380D01*
X184866666Y-75652380D02*
X184866666Y-74652380D01*
X184771428Y-74795238D01*
X184676190Y-74890476D01*
X184580952Y-74938095D01*
X181457142Y-37766666D02*
X181933333Y-37766666D01*
X181361904Y-38052380D02*
X181695238Y-37052380D01*
X182028571Y-38052380D01*
X182885714Y-37100000D02*
X182790476Y-37052380D01*
X182647619Y-37052380D01*
X182504761Y-37100000D01*
X182409523Y-37195238D01*
X182361904Y-37290476D01*
X182314285Y-37480952D01*
X182314285Y-37623809D01*
X182361904Y-37814285D01*
X182409523Y-37909523D01*
X182504761Y-38004761D01*
X182647619Y-38052380D01*
X182742857Y-38052380D01*
X182885714Y-38004761D01*
X182933333Y-37957142D01*
X182933333Y-37623809D01*
X182742857Y-37623809D01*
X183361904Y-37385714D02*
X183361904Y-38052380D01*
X183361904Y-37480952D02*
X183409523Y-37433333D01*
X183504761Y-37385714D01*
X183647619Y-37385714D01*
X183742857Y-37433333D01*
X183790476Y-37528571D01*
X183790476Y-38052380D01*
X184695238Y-38052380D02*
X184695238Y-37052380D01*
X184695238Y-38004761D02*
X184600000Y-38052380D01*
X184409523Y-38052380D01*
X184314285Y-38004761D01*
X184266666Y-37957142D01*
X184219047Y-37861904D01*
X184219047Y-37576190D01*
X184266666Y-37480952D01*
X184314285Y-37433333D01*
X184409523Y-37385714D01*
X184600000Y-37385714D01*
X184695238Y-37433333D01*
X191833333Y-38152380D02*
X191833333Y-37152380D01*
X192071428Y-37152380D01*
X192214285Y-37200000D01*
X192309523Y-37295238D01*
X192357142Y-37390476D01*
X192404761Y-37580952D01*
X192404761Y-37723809D01*
X192357142Y-37914285D01*
X192309523Y-38009523D01*
X192214285Y-38104761D01*
X192071428Y-38152380D01*
X191833333Y-38152380D01*
X193357142Y-37200000D02*
X193261904Y-37152380D01*
X193119047Y-37152380D01*
X192976190Y-37200000D01*
X192880952Y-37295238D01*
X192833333Y-37390476D01*
X192785714Y-37580952D01*
X192785714Y-37723809D01*
X192833333Y-37914285D01*
X192880952Y-38009523D01*
X192976190Y-38104761D01*
X193119047Y-38152380D01*
X193214285Y-38152380D01*
X193357142Y-38104761D01*
X193404761Y-38057142D01*
X193404761Y-37723809D01*
X193214285Y-37723809D01*
X193833333Y-37485714D02*
X193833333Y-38152380D01*
X193833333Y-37580952D02*
X193880952Y-37533333D01*
X193976190Y-37485714D01*
X194119047Y-37485714D01*
X194214285Y-37533333D01*
X194261904Y-37628571D01*
X194261904Y-38152380D01*
X195166666Y-38152380D02*
X195166666Y-37152380D01*
X195166666Y-38104761D02*
X195071428Y-38152380D01*
X194880952Y-38152380D01*
X194785714Y-38104761D01*
X194738095Y-38057142D01*
X194690476Y-37961904D01*
X194690476Y-37676190D01*
X194738095Y-37580952D01*
X194785714Y-37533333D01*
X194880952Y-37485714D01*
X195071428Y-37485714D01*
X195166666Y-37533333D01*
X197114285Y-49404761D02*
X197257142Y-49452380D01*
X197495238Y-49452380D01*
X197590476Y-49404761D01*
X197638095Y-49357142D01*
X197685714Y-49261904D01*
X197685714Y-49166666D01*
X197638095Y-49071428D01*
X197590476Y-49023809D01*
X197495238Y-48976190D01*
X197304761Y-48928571D01*
X197209523Y-48880952D01*
X197161904Y-48833333D01*
X197114285Y-48738095D01*
X197114285Y-48642857D01*
X197161904Y-48547619D01*
X197209523Y-48500000D01*
X197304761Y-48452380D01*
X197542857Y-48452380D01*
X197685714Y-48500000D01*
X193338095Y-49352380D02*
X193338095Y-48352380D01*
X193576190Y-48352380D01*
X193719047Y-48400000D01*
X193814285Y-48495238D01*
X193861904Y-48590476D01*
X193909523Y-48780952D01*
X193909523Y-48923809D01*
X193861904Y-49114285D01*
X193814285Y-49209523D01*
X193719047Y-49304761D01*
X193576190Y-49352380D01*
X193338095Y-49352380D01*
X190561904Y-48400000D02*
X190466666Y-48352380D01*
X190323809Y-48352380D01*
X190180952Y-48400000D01*
X190085714Y-48495238D01*
X190038095Y-48590476D01*
X189990476Y-48780952D01*
X189990476Y-48923809D01*
X190038095Y-49114285D01*
X190085714Y-49209523D01*
X190180952Y-49304761D01*
X190323809Y-49352380D01*
X190419047Y-49352380D01*
X190561904Y-49304761D01*
X190609523Y-49257142D01*
X190609523Y-48923809D01*
X190419047Y-48923809D01*
X190814285Y-58852380D02*
X190814285Y-58185714D01*
X190814285Y-58280952D02*
X190861904Y-58233333D01*
X190957142Y-58185714D01*
X191100000Y-58185714D01*
X191195238Y-58233333D01*
X191242857Y-58328571D01*
X191242857Y-58852380D01*
X191242857Y-58328571D02*
X191290476Y-58233333D01*
X191385714Y-58185714D01*
X191528571Y-58185714D01*
X191623809Y-58233333D01*
X191671428Y-58328571D01*
X191671428Y-58852380D01*
X192290476Y-58852380D02*
X192195238Y-58804761D01*
X192147619Y-58757142D01*
X192100000Y-58661904D01*
X192100000Y-58376190D01*
X192147619Y-58280952D01*
X192195238Y-58233333D01*
X192290476Y-58185714D01*
X192433333Y-58185714D01*
X192528571Y-58233333D01*
X192576190Y-58280952D01*
X192623809Y-58376190D01*
X192623809Y-58661904D01*
X192576190Y-58757142D01*
X192528571Y-58804761D01*
X192433333Y-58852380D01*
X192290476Y-58852380D01*
X193004761Y-58804761D02*
X193100000Y-58852380D01*
X193290476Y-58852380D01*
X193385714Y-58804761D01*
X193433333Y-58709523D01*
X193433333Y-58661904D01*
X193385714Y-58566666D01*
X193290476Y-58519047D01*
X193147619Y-58519047D01*
X193052380Y-58471428D01*
X193004761Y-58376190D01*
X193004761Y-58328571D01*
X193052380Y-58233333D01*
X193147619Y-58185714D01*
X193290476Y-58185714D01*
X193385714Y-58233333D01*
X193719047Y-58185714D02*
X194100000Y-58185714D01*
X193861904Y-58852380D02*
X193861904Y-57995238D01*
X193909523Y-57900000D01*
X194004761Y-57852380D01*
X194100000Y-57852380D01*
X194814285Y-58804761D02*
X194719047Y-58852380D01*
X194528571Y-58852380D01*
X194433333Y-58804761D01*
X194385714Y-58709523D01*
X194385714Y-58328571D01*
X194433333Y-58233333D01*
X194528571Y-58185714D01*
X194719047Y-58185714D01*
X194814285Y-58233333D01*
X194861904Y-58328571D01*
X194861904Y-58423809D01*
X194385714Y-58519047D01*
X195147619Y-58185714D02*
X195528571Y-58185714D01*
X195290476Y-57852380D02*
X195290476Y-58709523D01*
X195338095Y-58804761D01*
X195433333Y-58852380D01*
X195528571Y-58852380D01*
X190838095Y-76471428D02*
X191600000Y-76471428D01*
X191219047Y-76852380D02*
X191219047Y-76090476D01*
X192600000Y-76852380D02*
X192028571Y-76852380D01*
X192314285Y-76852380D02*
X192314285Y-75852380D01*
X192219047Y-75995238D01*
X192123809Y-76090476D01*
X192028571Y-76138095D01*
X192980952Y-75947619D02*
X193028571Y-75900000D01*
X193123809Y-75852380D01*
X193361904Y-75852380D01*
X193457142Y-75900000D01*
X193504761Y-75947619D01*
X193552380Y-76042857D01*
X193552380Y-76138095D01*
X193504761Y-76280952D01*
X192933333Y-76852380D01*
X193552380Y-76852380D01*
X193838095Y-75852380D02*
X194171428Y-76852380D01*
X194504761Y-75852380D01*
X179195238Y-59852380D02*
X179195238Y-58852380D01*
X179576190Y-58852380D01*
X179671428Y-58900000D01*
X179719047Y-58947619D01*
X179766666Y-59042857D01*
X179766666Y-59185714D01*
X179719047Y-59280952D01*
X179671428Y-59328571D01*
X179576190Y-59376190D01*
X179195238Y-59376190D01*
X180100000Y-58852380D02*
X180338095Y-59852380D01*
X180528571Y-59138095D01*
X180719047Y-59852380D01*
X180957142Y-58852380D01*
X181338095Y-59852380D02*
X181338095Y-58852380D01*
X181671428Y-59566666D01*
X182004761Y-58852380D01*
X182004761Y-59852380D01*
X204576190Y-46152380D02*
X204100000Y-46152380D01*
X204100000Y-45152380D01*
X204909523Y-45628571D02*
X205242857Y-45628571D01*
X205385714Y-46152380D02*
X204909523Y-46152380D01*
X204909523Y-45152380D01*
X205385714Y-45152380D01*
X205814285Y-46152380D02*
X205814285Y-45152380D01*
X206052380Y-45152380D01*
X206195238Y-45200000D01*
X206290476Y-45295238D01*
X206338095Y-45390476D01*
X206385714Y-45580952D01*
X206385714Y-45723809D01*
X206338095Y-45914285D01*
X206290476Y-46009523D01*
X206195238Y-46104761D01*
X206052380Y-46152380D01*
X205814285Y-46152380D01*
X207576190Y-46152380D02*
X207576190Y-45152380D01*
X208147619Y-46152380D02*
X207719047Y-45580952D01*
X208147619Y-45152380D02*
X207576190Y-45723809D01*
X213547619Y-46352380D02*
X213071428Y-46352380D01*
X213071428Y-45352380D01*
X213880952Y-45828571D02*
X214214285Y-45828571D01*
X214357142Y-46352380D02*
X213880952Y-46352380D01*
X213880952Y-45352380D01*
X214357142Y-45352380D01*
X214785714Y-46352380D02*
X214785714Y-45352380D01*
X215023809Y-45352380D01*
X215166666Y-45400000D01*
X215261904Y-45495238D01*
X215309523Y-45590476D01*
X215357142Y-45780952D01*
X215357142Y-45923809D01*
X215309523Y-46114285D01*
X215261904Y-46209523D01*
X215166666Y-46304761D01*
X215023809Y-46352380D01*
X214785714Y-46352380D01*
X216500000Y-46066666D02*
X216976190Y-46066666D01*
X216404761Y-46352380D02*
X216738095Y-45352380D01*
X217071428Y-46352380D01*
D11*
G36*
X212260242Y-37575826D02*
G01*
X212591957Y-37894780D01*
X212875259Y-38177331D01*
X213090718Y-38403269D01*
X213218903Y-38552380D01*
X213246143Y-38601400D01*
X213239783Y-38724892D01*
X213234397Y-39013990D01*
X213230413Y-39431100D01*
X213228259Y-39938629D01*
X213228000Y-40194896D01*
X213228000Y-41712193D01*
X212339000Y-42561344D01*
X212020658Y-42864958D01*
X211742595Y-43129296D01*
X211527969Y-43332408D01*
X211399939Y-43452343D01*
X211377148Y-43472988D01*
X211267443Y-43474271D01*
X211105647Y-43389766D01*
X211105005Y-43389296D01*
X210905715Y-43243110D01*
X210905715Y-42045472D01*
X211631429Y-42045472D01*
X212011250Y-41674800D01*
X213082857Y-41674800D01*
X213119143Y-41725600D01*
X213155429Y-41674800D01*
X213119143Y-41624000D01*
X213082857Y-41674800D01*
X212011250Y-41674800D01*
X212085000Y-41602827D01*
X212538572Y-41160182D01*
X212559246Y-40184084D01*
X212579920Y-39207985D01*
X212309497Y-38931600D01*
X212792572Y-38931600D01*
X212828857Y-38982400D01*
X212865143Y-38931600D01*
X212828857Y-38880800D01*
X212792572Y-38931600D01*
X212309497Y-38931600D01*
X212146482Y-38764992D01*
X211898699Y-38490974D01*
X211754805Y-38271855D01*
X211690238Y-38067931D01*
X211683850Y-38017200D01*
X211674865Y-38022469D01*
X211665943Y-38206768D01*
X211657615Y-38545926D01*
X211650409Y-39015774D01*
X211644856Y-39592143D01*
X211643043Y-39878936D01*
X211631429Y-42045472D01*
X210905715Y-42045472D01*
X210905715Y-37087420D01*
X211080956Y-36856937D01*
X211256198Y-36626454D01*
X212260242Y-37575826D01*
X212260242Y-37575826D01*
G37*
X212260242Y-37575826D02*
X212591957Y-37894780D01*
X212875259Y-38177331D01*
X213090718Y-38403269D01*
X213218903Y-38552380D01*
X213246143Y-38601400D01*
X213239783Y-38724892D01*
X213234397Y-39013990D01*
X213230413Y-39431100D01*
X213228259Y-39938629D01*
X213228000Y-40194896D01*
X213228000Y-41712193D01*
X212339000Y-42561344D01*
X212020658Y-42864958D01*
X211742595Y-43129296D01*
X211527969Y-43332408D01*
X211399939Y-43452343D01*
X211377148Y-43472988D01*
X211267443Y-43474271D01*
X211105647Y-43389766D01*
X211105005Y-43389296D01*
X210905715Y-43243110D01*
X210905715Y-42045472D01*
X211631429Y-42045472D01*
X212011250Y-41674800D01*
X213082857Y-41674800D01*
X213119143Y-41725600D01*
X213155429Y-41674800D01*
X213119143Y-41624000D01*
X213082857Y-41674800D01*
X212011250Y-41674800D01*
X212085000Y-41602827D01*
X212538572Y-41160182D01*
X212559246Y-40184084D01*
X212579920Y-39207985D01*
X212309497Y-38931600D01*
X212792572Y-38931600D01*
X212828857Y-38982400D01*
X212865143Y-38931600D01*
X212828857Y-38880800D01*
X212792572Y-38931600D01*
X212309497Y-38931600D01*
X212146482Y-38764992D01*
X211898699Y-38490974D01*
X211754805Y-38271855D01*
X211690238Y-38067931D01*
X211683850Y-38017200D01*
X211674865Y-38022469D01*
X211665943Y-38206768D01*
X211657615Y-38545926D01*
X211650409Y-39015774D01*
X211644856Y-39592143D01*
X211643043Y-39878936D01*
X211631429Y-42045472D01*
X210905715Y-42045472D01*
X210905715Y-37087420D01*
X211080956Y-36856937D01*
X211256198Y-36626454D01*
X212260242Y-37575826D01*
G36*
X219453234Y-40125400D02*
G01*
X219443215Y-40646602D01*
X219430418Y-40997892D01*
X219410418Y-41212545D01*
X219378790Y-41323835D01*
X219331109Y-41365037D01*
X219287714Y-41370000D01*
X219214279Y-41349894D01*
X219166889Y-41262607D01*
X219136516Y-41067681D01*
X219114127Y-40724659D01*
X219106286Y-40557200D01*
X219070000Y-39744400D01*
X218852286Y-40174030D01*
X218713990Y-40418745D01*
X218598067Y-40575368D01*
X218553501Y-40605830D01*
X218469617Y-40529390D01*
X218344035Y-40331569D01*
X218263215Y-40176200D01*
X218054000Y-39744400D01*
X218017714Y-40556219D01*
X217991747Y-40985699D01*
X217956752Y-41246430D01*
X217906652Y-41372819D01*
X217869033Y-41397931D01*
X217739979Y-41385019D01*
X217705747Y-41356578D01*
X217685853Y-41232502D01*
X217669602Y-40947963D01*
X217658703Y-40545685D01*
X217654857Y-40083066D01*
X217654857Y-38880800D01*
X217854429Y-38883419D01*
X217991820Y-38924424D01*
X218122892Y-39068552D01*
X218280331Y-39353437D01*
X218303081Y-39399970D01*
X218552162Y-39913900D01*
X218685721Y-39676750D01*
X218826276Y-39406698D01*
X218942144Y-39160200D01*
X219096275Y-38936422D01*
X219269309Y-38880800D01*
X219473610Y-38880799D01*
X219453234Y-40125400D01*
X219453234Y-40125400D01*
G37*
X219453234Y-40125400D02*
X219443215Y-40646602D01*
X219430418Y-40997892D01*
X219410418Y-41212545D01*
X219378790Y-41323835D01*
X219331109Y-41365037D01*
X219287714Y-41370000D01*
X219214279Y-41349894D01*
X219166889Y-41262607D01*
X219136516Y-41067681D01*
X219114127Y-40724659D01*
X219106286Y-40557200D01*
X219070000Y-39744400D01*
X218852286Y-40174030D01*
X218713990Y-40418745D01*
X218598067Y-40575368D01*
X218553501Y-40605830D01*
X218469617Y-40529390D01*
X218344035Y-40331569D01*
X218263215Y-40176200D01*
X218054000Y-39744400D01*
X218017714Y-40556219D01*
X217991747Y-40985699D01*
X217956752Y-41246430D01*
X217906652Y-41372819D01*
X217869033Y-41397931D01*
X217739979Y-41385019D01*
X217705747Y-41356578D01*
X217685853Y-41232502D01*
X217669602Y-40947963D01*
X217658703Y-40545685D01*
X217654857Y-40083066D01*
X217654857Y-38880800D01*
X217854429Y-38883419D01*
X217991820Y-38924424D01*
X218122892Y-39068552D01*
X218280331Y-39353437D01*
X218303081Y-39399970D01*
X218552162Y-39913900D01*
X218685721Y-39676750D01*
X218826276Y-39406698D01*
X218942144Y-39160200D01*
X219096275Y-38936422D01*
X219269309Y-38880800D01*
X219473610Y-38880799D01*
X219453234Y-40125400D01*
G36*
X223133823Y-39685798D02*
G01*
X223156814Y-39936102D01*
X223169143Y-40296278D01*
X223170286Y-40455600D01*
X223162260Y-40876169D01*
X223140185Y-41173998D01*
X223107068Y-41313321D01*
X223097714Y-41319200D01*
X223027543Y-41241531D01*
X223025143Y-41214990D01*
X222970254Y-41183348D01*
X222830931Y-41251781D01*
X222811033Y-41265790D01*
X222596619Y-41391406D01*
X222424019Y-41392618D01*
X222220465Y-41269752D01*
X222218733Y-41268436D01*
X222050636Y-41066369D01*
X221942407Y-40830924D01*
X221897798Y-40482822D01*
X222092081Y-40482822D01*
X222095052Y-40570297D01*
X222140967Y-40871603D01*
X222252016Y-41048460D01*
X222299429Y-41086040D01*
X222550302Y-41161678D01*
X222786582Y-41056469D01*
X222857082Y-40978095D01*
X222972982Y-40701224D01*
X222979617Y-40385613D01*
X222893620Y-40090174D01*
X222731623Y-39873822D01*
X222523123Y-39795200D01*
X222290373Y-39879690D01*
X222142226Y-40116986D01*
X222092081Y-40482822D01*
X221897798Y-40482822D01*
X221892277Y-40439740D01*
X221960372Y-40087702D01*
X222119896Y-39808823D01*
X222344056Y-39637116D01*
X222606056Y-39606596D01*
X222826874Y-39708169D01*
X222955215Y-39773526D01*
X223009579Y-39708169D01*
X223081390Y-39597941D01*
X223103762Y-39592000D01*
X223133823Y-39685798D01*
X223133823Y-39685798D01*
G37*
X223133823Y-39685798D02*
X223156814Y-39936102D01*
X223169143Y-40296278D01*
X223170286Y-40455600D01*
X223162260Y-40876169D01*
X223140185Y-41173998D01*
X223107068Y-41313321D01*
X223097714Y-41319200D01*
X223027543Y-41241531D01*
X223025143Y-41214990D01*
X222970254Y-41183348D01*
X222830931Y-41251781D01*
X222811033Y-41265790D01*
X222596619Y-41391406D01*
X222424019Y-41392618D01*
X222220465Y-41269752D01*
X222218733Y-41268436D01*
X222050636Y-41066369D01*
X221942407Y-40830924D01*
X221897798Y-40482822D01*
X222092081Y-40482822D01*
X222095052Y-40570297D01*
X222140967Y-40871603D01*
X222252016Y-41048460D01*
X222299429Y-41086040D01*
X222550302Y-41161678D01*
X222786582Y-41056469D01*
X222857082Y-40978095D01*
X222972982Y-40701224D01*
X222979617Y-40385613D01*
X222893620Y-40090174D01*
X222731623Y-39873822D01*
X222523123Y-39795200D01*
X222290373Y-39879690D01*
X222142226Y-40116986D01*
X222092081Y-40482822D01*
X221897798Y-40482822D01*
X221892277Y-40439740D01*
X221960372Y-40087702D01*
X222119896Y-39808823D01*
X222344056Y-39637116D01*
X222606056Y-39606596D01*
X222826874Y-39708169D01*
X222955215Y-39773526D01*
X223009579Y-39708169D01*
X223081390Y-39597941D01*
X223103762Y-39592000D01*
X223133823Y-39685798D01*
G36*
X223576282Y-38971651D02*
G01*
X223602276Y-39201702D01*
X223605714Y-39341574D01*
X223611254Y-39618842D01*
X223638558Y-39733671D01*
X223703653Y-39726661D01*
X223746086Y-39697174D01*
X224027359Y-39583957D01*
X224294490Y-39642458D01*
X224515119Y-39846021D01*
X224656889Y-40167991D01*
X224691978Y-40476381D01*
X224647025Y-40879919D01*
X224503788Y-41163165D01*
X224354343Y-41302604D01*
X224161834Y-41406001D01*
X223982189Y-41382964D01*
X223805286Y-41273799D01*
X223668556Y-41200057D01*
X223606106Y-41217913D01*
X223605714Y-41223625D01*
X223550361Y-41316464D01*
X223533143Y-41319200D01*
X223501287Y-41221587D01*
X223477718Y-40944240D01*
X223465303Y-40556714D01*
X223628621Y-40556714D01*
X223705361Y-40849636D01*
X223875324Y-41069459D01*
X223888123Y-41078733D01*
X224106633Y-41142078D01*
X224321157Y-41066977D01*
X224479087Y-40880727D01*
X224521162Y-40750247D01*
X224534075Y-40359732D01*
X224437751Y-40050198D01*
X224255013Y-39857257D01*
X224008684Y-39816521D01*
X223935169Y-39835908D01*
X223745784Y-39990195D01*
X223642849Y-40250349D01*
X223628621Y-40556714D01*
X223465303Y-40556714D01*
X223463819Y-40510393D01*
X223460572Y-40100000D01*
X223466382Y-39564819D01*
X223482891Y-39168857D01*
X223508715Y-38935348D01*
X223533143Y-38880800D01*
X223576282Y-38971651D01*
X223576282Y-38971651D01*
G37*
X223576282Y-38971651D02*
X223602276Y-39201702D01*
X223605714Y-39341574D01*
X223611254Y-39618842D01*
X223638558Y-39733671D01*
X223703653Y-39726661D01*
X223746086Y-39697174D01*
X224027359Y-39583957D01*
X224294490Y-39642458D01*
X224515119Y-39846021D01*
X224656889Y-40167991D01*
X224691978Y-40476381D01*
X224647025Y-40879919D01*
X224503788Y-41163165D01*
X224354343Y-41302604D01*
X224161834Y-41406001D01*
X223982189Y-41382964D01*
X223805286Y-41273799D01*
X223668556Y-41200057D01*
X223606106Y-41217913D01*
X223605714Y-41223625D01*
X223550361Y-41316464D01*
X223533143Y-41319200D01*
X223501287Y-41221587D01*
X223477718Y-40944240D01*
X223465303Y-40556714D01*
X223628621Y-40556714D01*
X223705361Y-40849636D01*
X223875324Y-41069459D01*
X223888123Y-41078733D01*
X224106633Y-41142078D01*
X224321157Y-41066977D01*
X224479087Y-40880727D01*
X224521162Y-40750247D01*
X224534075Y-40359732D01*
X224437751Y-40050198D01*
X224255013Y-39857257D01*
X224008684Y-39816521D01*
X223935169Y-39835908D01*
X223745784Y-39990195D01*
X223642849Y-40250349D01*
X223628621Y-40556714D01*
X223465303Y-40556714D01*
X223463819Y-40510393D01*
X223460572Y-40100000D01*
X223466382Y-39564819D01*
X223482891Y-39168857D01*
X223508715Y-38935348D01*
X223533143Y-38880800D01*
X223576282Y-38971651D01*
G36*
X215053861Y-38918504D02*
G01*
X215328398Y-39030178D01*
X215568613Y-39307990D01*
X215714637Y-39691943D01*
X215762354Y-40128840D01*
X215707644Y-40565482D01*
X215546391Y-40948673D01*
X215483704Y-41036504D01*
X215351749Y-41183781D01*
X215219615Y-41268823D01*
X215041699Y-41308340D01*
X214772398Y-41319043D01*
X214712266Y-41319200D01*
X214166823Y-41319200D01*
X214187269Y-40125400D01*
X214199884Y-39388800D01*
X214534286Y-39388800D01*
X214534286Y-40083066D01*
X214541744Y-40443251D01*
X214561295Y-40720207D01*
X214588707Y-40853989D01*
X214588714Y-40853999D01*
X214706326Y-40899026D01*
X214895797Y-40869803D01*
X215099486Y-40783833D01*
X215259750Y-40658624D01*
X215269001Y-40647396D01*
X215376939Y-40388011D01*
X215398455Y-40046918D01*
X215331677Y-39707572D01*
X215292171Y-39614606D01*
X215176473Y-39461668D01*
X215000710Y-39396768D01*
X214856742Y-39388800D01*
X214534286Y-39388800D01*
X214199884Y-39388800D01*
X214207714Y-38931600D01*
X214658341Y-38901458D01*
X215053861Y-38918504D01*
X215053861Y-38918504D01*
G37*
X215053861Y-38918504D02*
X215328398Y-39030178D01*
X215568613Y-39307990D01*
X215714637Y-39691943D01*
X215762354Y-40128840D01*
X215707644Y-40565482D01*
X215546391Y-40948673D01*
X215483704Y-41036504D01*
X215351749Y-41183781D01*
X215219615Y-41268823D01*
X215041699Y-41308340D01*
X214772398Y-41319043D01*
X214712266Y-41319200D01*
X214166823Y-41319200D01*
X214187269Y-40125400D01*
X214199884Y-39388800D01*
X214534286Y-39388800D01*
X214534286Y-40083066D01*
X214541744Y-40443251D01*
X214561295Y-40720207D01*
X214588707Y-40853989D01*
X214588714Y-40853999D01*
X214706326Y-40899026D01*
X214895797Y-40869803D01*
X215099486Y-40783833D01*
X215259750Y-40658624D01*
X215269001Y-40647396D01*
X215376939Y-40388011D01*
X215398455Y-40046918D01*
X215331677Y-39707572D01*
X215292171Y-39614606D01*
X215176473Y-39461668D01*
X215000710Y-39396768D01*
X214856742Y-39388800D01*
X214534286Y-39388800D01*
X214199884Y-39388800D01*
X214207714Y-38931600D01*
X214658341Y-38901458D01*
X215053861Y-38918504D01*
G36*
X216674172Y-38899133D02*
G01*
X216765544Y-38938908D01*
X216850927Y-39045039D01*
X216946249Y-39250160D01*
X217067439Y-39586906D01*
X217184984Y-39945779D01*
X217354738Y-40476060D01*
X217469743Y-40848584D01*
X217534337Y-41091192D01*
X217552857Y-41231728D01*
X217529643Y-41298035D01*
X217469030Y-41317954D01*
X217398954Y-41319200D01*
X217228687Y-41254932D01*
X217167885Y-41116000D01*
X217128108Y-41003523D01*
X217038610Y-40941850D01*
X216864188Y-40916565D01*
X216671569Y-40912800D01*
X216415101Y-40921511D01*
X216267692Y-40957259D01*
X216193539Y-41034468D01*
X216167143Y-41116000D01*
X216069895Y-41279487D01*
X215911956Y-41319200D01*
X215702835Y-41319200D01*
X215812423Y-40952005D01*
X215893091Y-40691643D01*
X215984703Y-40404800D01*
X216345622Y-40404800D01*
X216637382Y-40404800D01*
X216818911Y-40388005D01*
X216919054Y-40346019D01*
X216926101Y-40328600D01*
X216892750Y-40197071D01*
X216813866Y-39966450D01*
X216789785Y-39902024D01*
X216656511Y-39551648D01*
X216501067Y-39978224D01*
X216345622Y-40404800D01*
X215984703Y-40404800D01*
X216013689Y-40314045D01*
X216152770Y-39886116D01*
X216205506Y-39725738D01*
X216342723Y-39321274D01*
X216442038Y-39070353D01*
X216522399Y-38939553D01*
X216602756Y-38895456D01*
X216674172Y-38899133D01*
X216674172Y-38899133D01*
G37*
X216674172Y-38899133D02*
X216765544Y-38938908D01*
X216850927Y-39045039D01*
X216946249Y-39250160D01*
X217067439Y-39586906D01*
X217184984Y-39945779D01*
X217354738Y-40476060D01*
X217469743Y-40848584D01*
X217534337Y-41091192D01*
X217552857Y-41231728D01*
X217529643Y-41298035D01*
X217469030Y-41317954D01*
X217398954Y-41319200D01*
X217228687Y-41254932D01*
X217167885Y-41116000D01*
X217128108Y-41003523D01*
X217038610Y-40941850D01*
X216864188Y-40916565D01*
X216671569Y-40912800D01*
X216415101Y-40921511D01*
X216267692Y-40957259D01*
X216193539Y-41034468D01*
X216167143Y-41116000D01*
X216069895Y-41279487D01*
X215911956Y-41319200D01*
X215702835Y-41319200D01*
X215812423Y-40952005D01*
X215893091Y-40691643D01*
X215984703Y-40404800D01*
X216345622Y-40404800D01*
X216637382Y-40404800D01*
X216818911Y-40388005D01*
X216919054Y-40346019D01*
X216926101Y-40328600D01*
X216892750Y-40197071D01*
X216813866Y-39966450D01*
X216789785Y-39902024D01*
X216656511Y-39551648D01*
X216501067Y-39978224D01*
X216345622Y-40404800D01*
X215984703Y-40404800D01*
X216013689Y-40314045D01*
X216152770Y-39886116D01*
X216205506Y-39725738D01*
X216342723Y-39321274D01*
X216442038Y-39070353D01*
X216522399Y-38939553D01*
X216602756Y-38895456D01*
X216674172Y-38899133D01*
G36*
X220525765Y-38888394D02*
G01*
X220714285Y-38920833D01*
X220842153Y-38992601D01*
X220951520Y-39118184D01*
X220960156Y-39130181D01*
X221108931Y-39459762D01*
X221138286Y-39744400D01*
X221079602Y-40149478D01*
X220907824Y-40431572D01*
X220629358Y-40583023D01*
X220415870Y-40608000D01*
X220049715Y-40608000D01*
X220049715Y-40963600D01*
X220036159Y-41204077D01*
X219975161Y-41302524D01*
X219868286Y-41319200D01*
X219686857Y-41319200D01*
X219686857Y-39789633D01*
X220049715Y-39789633D01*
X220056557Y-40052099D01*
X220103616Y-40169626D01*
X220230685Y-40200474D01*
X220331114Y-40201600D01*
X220539021Y-40165298D01*
X220685052Y-40074924D01*
X220699542Y-40054792D01*
X220759894Y-39841103D01*
X220762857Y-39673792D01*
X220727907Y-39527878D01*
X220634954Y-39450653D01*
X220444182Y-39413463D01*
X220394429Y-39408633D01*
X220049715Y-39377666D01*
X220049715Y-39789633D01*
X219686857Y-39789633D01*
X219686857Y-38880800D01*
X220234442Y-38880800D01*
X220525765Y-38888394D01*
X220525765Y-38888394D01*
G37*
X220525765Y-38888394D02*
X220714285Y-38920833D01*
X220842153Y-38992601D01*
X220951520Y-39118184D01*
X220960156Y-39130181D01*
X221108931Y-39459762D01*
X221138286Y-39744400D01*
X221079602Y-40149478D01*
X220907824Y-40431572D01*
X220629358Y-40583023D01*
X220415870Y-40608000D01*
X220049715Y-40608000D01*
X220049715Y-40963600D01*
X220036159Y-41204077D01*
X219975161Y-41302524D01*
X219868286Y-41319200D01*
X219686857Y-41319200D01*
X219686857Y-39789633D01*
X220049715Y-39789633D01*
X220056557Y-40052099D01*
X220103616Y-40169626D01*
X220230685Y-40200474D01*
X220331114Y-40201600D01*
X220539021Y-40165298D01*
X220685052Y-40074924D01*
X220699542Y-40054792D01*
X220759894Y-39841103D01*
X220762857Y-39673792D01*
X220727907Y-39527878D01*
X220634954Y-39450653D01*
X220444182Y-39413463D01*
X220394429Y-39408633D01*
X220049715Y-39377666D01*
X220049715Y-39789633D01*
X219686857Y-39789633D01*
X219686857Y-38880800D01*
X220234442Y-38880800D01*
X220525765Y-38888394D01*
G36*
X221605570Y-38978412D02*
G01*
X221629140Y-39255759D01*
X221643039Y-39689606D01*
X221646286Y-40100000D01*
X221640476Y-40635180D01*
X221623967Y-41031142D01*
X221598143Y-41264651D01*
X221573715Y-41319200D01*
X221541859Y-41221587D01*
X221518289Y-40944240D01*
X221504390Y-40510393D01*
X221501143Y-40100000D01*
X221506953Y-39564819D01*
X221523462Y-39168857D01*
X221549286Y-38935348D01*
X221573715Y-38880800D01*
X221605570Y-38978412D01*
X221605570Y-38978412D01*
G37*
X221605570Y-38978412D02*
X221629140Y-39255759D01*
X221643039Y-39689606D01*
X221646286Y-40100000D01*
X221640476Y-40635180D01*
X221623967Y-41031142D01*
X221598143Y-41264651D01*
X221573715Y-41319200D01*
X221541859Y-41221587D01*
X221518289Y-40944240D01*
X221504390Y-40510393D01*
X221501143Y-40100000D01*
X221506953Y-39564819D01*
X221523462Y-39168857D01*
X221549286Y-38935348D01*
X221573715Y-38880800D01*
X221605570Y-38978412D01*
D12*
X188420000Y-50130000D02*
X198660000Y-50130000D01*
X188420000Y-54771000D02*
X198660000Y-54771000D01*
X188420000Y-50130000D02*
X188420000Y-54771000D01*
X198660000Y-50130000D02*
X198660000Y-54771000D01*
X188420000Y-51640000D02*
X198660000Y-51640000D01*
X191690000Y-50130000D02*
X191690000Y-51640000D01*
X195391000Y-50130000D02*
X195391000Y-51640000D01*
X184820000Y-53600000D02*
X184050000Y-53600000D01*
X176740000Y-53600000D02*
X177510000Y-53600000D01*
X184050000Y-52230000D02*
X177510000Y-52230000D01*
X184050000Y-54970000D02*
X184050000Y-52230000D01*
X177510000Y-54970000D02*
X184050000Y-54970000D01*
X177510000Y-52230000D02*
X177510000Y-54970000D01*
X208180000Y-74700000D02*
X208950000Y-74700000D01*
X216260000Y-74700000D02*
X215490000Y-74700000D01*
X208950000Y-76070000D02*
X215490000Y-76070000D01*
X208950000Y-73330000D02*
X208950000Y-76070000D01*
X215490000Y-73330000D02*
X208950000Y-73330000D01*
X215490000Y-76070000D02*
X215490000Y-73330000D01*
X223020000Y-69440000D02*
X223020000Y-71320000D01*
X223020000Y-71320000D02*
X202780000Y-71320000D01*
X202780000Y-71320000D02*
X202780000Y-69440000D01*
X223020000Y-66560000D02*
X223020000Y-64680000D01*
X223020000Y-64680000D02*
X202780000Y-64680000D01*
X202780000Y-64680000D02*
X202780000Y-66560000D01*
X202780000Y-57080000D02*
X202780000Y-58960000D01*
X223020000Y-57080000D02*
X202780000Y-57080000D01*
X223020000Y-58960000D02*
X223020000Y-57080000D01*
X202780000Y-63720000D02*
X202780000Y-61840000D01*
X223020000Y-63720000D02*
X202780000Y-63720000D01*
X223020000Y-61840000D02*
X223020000Y-63720000D01*
X178939739Y-65545189D02*
G75*
G02X177700000Y-65960000I-1239739J1645189D01*
G01*
X176459553Y-62254336D02*
G75*
G02X178940000Y-62254000I1240447J-1645664D01*
G01*
X177734842Y-65960313D02*
G75*
G02X176459000Y-65545000I-34842J2060313D01*
G01*
X177941000Y-63911000D02*
X177408000Y-64443000D01*
X177380000Y-64471000D02*
X177380000Y-64471000D01*
X178020000Y-63328000D02*
X178020000Y-63328000D01*
X177991000Y-63357000D02*
X177459000Y-63889000D01*
X175140000Y-61340000D02*
X180260000Y-61340000D01*
X175140000Y-66460000D02*
X180260000Y-66460000D01*
X175140000Y-61340000D02*
X175140000Y-62145000D01*
X175140000Y-65655000D02*
X175140000Y-66460000D01*
X180260000Y-61340000D02*
X180260000Y-62145000D01*
X180260000Y-65655000D02*
X180260000Y-66460000D01*
X185360000Y-44355000D02*
X185360000Y-45160000D01*
X185360000Y-40040000D02*
X185360000Y-40845000D01*
X180240000Y-44355000D02*
X180240000Y-45160000D01*
X180240000Y-40040000D02*
X180240000Y-40845000D01*
X180240000Y-45160000D02*
X185360000Y-45160000D01*
X180240000Y-40040000D02*
X185360000Y-40040000D01*
X183091000Y-42057000D02*
X182559000Y-42589000D01*
X183120000Y-42028000D02*
X183120000Y-42028000D01*
X182480000Y-43171000D02*
X182480000Y-43171000D01*
X183041000Y-42611000D02*
X182508000Y-43143000D01*
X182834842Y-44660313D02*
G75*
G02X181559000Y-44245000I-34842J2060313D01*
G01*
X181559553Y-40954336D02*
G75*
G02X184040000Y-40954000I1240447J-1645664D01*
G01*
X184039739Y-44245189D02*
G75*
G02X182800000Y-44660000I-1239739J1645189D01*
G01*
X200339739Y-77245189D02*
G75*
G02X199100000Y-77660000I-1239739J1645189D01*
G01*
X197859553Y-73954336D02*
G75*
G02X200340000Y-73954000I1240447J-1645664D01*
G01*
X199134842Y-77660313D02*
G75*
G02X197859000Y-77245000I-34842J2060313D01*
G01*
X199341000Y-75611000D02*
X198808000Y-76143000D01*
X198780000Y-76171000D02*
X198780000Y-76171000D01*
X199420000Y-75028000D02*
X199420000Y-75028000D01*
X199391000Y-75057000D02*
X198859000Y-75589000D01*
X196540000Y-73040000D02*
X201660000Y-73040000D01*
X196540000Y-78160000D02*
X201660000Y-78160000D01*
X196540000Y-73040000D02*
X196540000Y-73845000D01*
X196540000Y-77355000D02*
X196540000Y-78160000D01*
X201660000Y-73040000D02*
X201660000Y-73845000D01*
X201660000Y-77355000D02*
X201660000Y-78160000D01*
X195060000Y-44455000D02*
X195060000Y-45260000D01*
X195060000Y-40140000D02*
X195060000Y-40945000D01*
X189940000Y-44455000D02*
X189940000Y-45260000D01*
X189940000Y-40140000D02*
X189940000Y-40945000D01*
X189940000Y-45260000D02*
X195060000Y-45260000D01*
X189940000Y-40140000D02*
X195060000Y-40140000D01*
X192791000Y-42157000D02*
X192259000Y-42689000D01*
X192820000Y-42128000D02*
X192820000Y-42128000D01*
X192180000Y-43271000D02*
X192180000Y-43271000D01*
X192741000Y-42711000D02*
X192208000Y-43243000D01*
X192534842Y-44760313D02*
G75*
G02X191259000Y-44345000I-34842J2060313D01*
G01*
X191259553Y-41054336D02*
G75*
G02X193740000Y-41054000I1240447J-1645664D01*
G01*
X193739739Y-44345189D02*
G75*
G02X192500000Y-44760000I-1239739J1645189D01*
G01*
X205539739Y-52145189D02*
G75*
G02X204300000Y-52560000I-1239739J1645189D01*
G01*
X203059553Y-48854336D02*
G75*
G02X205540000Y-48854000I1240447J-1645664D01*
G01*
X204334842Y-52560313D02*
G75*
G02X203059000Y-52145000I-34842J2060313D01*
G01*
X204541000Y-50511000D02*
X204008000Y-51043000D01*
X203980000Y-51071000D02*
X203980000Y-51071000D01*
X204620000Y-49928000D02*
X204620000Y-49928000D01*
X204591000Y-49957000D02*
X204059000Y-50489000D01*
X201740000Y-47940000D02*
X206860000Y-47940000D01*
X201740000Y-53060000D02*
X206860000Y-53060000D01*
X201740000Y-47940000D02*
X201740000Y-48745000D01*
X201740000Y-52255000D02*
X201740000Y-53060000D01*
X206860000Y-47940000D02*
X206860000Y-48745000D01*
X206860000Y-52255000D02*
X206860000Y-53060000D01*
X217160000Y-52255000D02*
X217160000Y-53060000D01*
X217160000Y-47940000D02*
X217160000Y-48745000D01*
X212040000Y-52255000D02*
X212040000Y-53060000D01*
X212040000Y-47940000D02*
X212040000Y-48745000D01*
X212040000Y-53060000D02*
X217160000Y-53060000D01*
X212040000Y-47940000D02*
X217160000Y-47940000D01*
X214891000Y-49957000D02*
X214359000Y-50489000D01*
X214920000Y-49928000D02*
X214920000Y-49928000D01*
X214280000Y-51071000D02*
X214280000Y-51071000D01*
X214841000Y-50511000D02*
X214308000Y-51043000D01*
X214634842Y-52560313D02*
G75*
G02X213359000Y-52145000I-34842J2060313D01*
G01*
X213359553Y-48854336D02*
G75*
G02X215840000Y-48854000I1240447J-1645664D01*
G01*
X215839739Y-52145189D02*
G75*
G02X214600000Y-52560000I-1239739J1645189D01*
G01*
D10*
X188004761Y-57547619D02*
X187909523Y-57500000D01*
X187814285Y-57404761D01*
X187671428Y-57261904D01*
X187576190Y-57214285D01*
X187480952Y-57214285D01*
X187528571Y-57452380D02*
X187433333Y-57404761D01*
X187338095Y-57309523D01*
X187290476Y-57119047D01*
X187290476Y-56785714D01*
X187338095Y-56595238D01*
X187433333Y-56500000D01*
X187528571Y-56452380D01*
X187719047Y-56452380D01*
X187814285Y-56500000D01*
X187909523Y-56595238D01*
X187957142Y-56785714D01*
X187957142Y-57119047D01*
X187909523Y-57309523D01*
X187814285Y-57404761D01*
X187719047Y-57452380D01*
X187528571Y-57452380D01*
X188909523Y-57452380D02*
X188338095Y-57452380D01*
X188623809Y-57452380D02*
X188623809Y-56452380D01*
X188528571Y-56595238D01*
X188433333Y-56690476D01*
X188338095Y-56738095D01*
X180613333Y-51682380D02*
X180280000Y-51206190D01*
X180041904Y-51682380D02*
X180041904Y-50682380D01*
X180422857Y-50682380D01*
X180518095Y-50730000D01*
X180565714Y-50777619D01*
X180613333Y-50872857D01*
X180613333Y-51015714D01*
X180565714Y-51110952D01*
X180518095Y-51158571D01*
X180422857Y-51206190D01*
X180041904Y-51206190D01*
X181565714Y-51682380D02*
X180994285Y-51682380D01*
X181280000Y-51682380D02*
X181280000Y-50682380D01*
X181184761Y-50825238D01*
X181089523Y-50920476D01*
X180994285Y-50968095D01*
X212053333Y-77522380D02*
X211720000Y-77046190D01*
X211481904Y-77522380D02*
X211481904Y-76522380D01*
X211862857Y-76522380D01*
X211958095Y-76570000D01*
X212005714Y-76617619D01*
X212053333Y-76712857D01*
X212053333Y-76855714D01*
X212005714Y-76950952D01*
X211958095Y-76998571D01*
X211862857Y-77046190D01*
X211481904Y-77046190D01*
X212910476Y-76855714D02*
X212910476Y-77522380D01*
X212672380Y-76474761D02*
X212434285Y-77189047D01*
X213053333Y-77189047D01*
X212733333Y-72772380D02*
X212400000Y-72296190D01*
X212161904Y-72772380D02*
X212161904Y-71772380D01*
X212542857Y-71772380D01*
X212638095Y-71820000D01*
X212685714Y-71867619D01*
X212733333Y-71962857D01*
X212733333Y-72105714D01*
X212685714Y-72200952D01*
X212638095Y-72248571D01*
X212542857Y-72296190D01*
X212161904Y-72296190D01*
X213114285Y-71867619D02*
X213161904Y-71820000D01*
X213257142Y-71772380D01*
X213495238Y-71772380D01*
X213590476Y-71820000D01*
X213638095Y-71867619D01*
X213685714Y-71962857D01*
X213685714Y-72058095D01*
X213638095Y-72200952D01*
X213066666Y-72772380D01*
X213685714Y-72772380D01*
X212733333Y-65172380D02*
X212400000Y-64696190D01*
X212161904Y-65172380D02*
X212161904Y-64172380D01*
X212542857Y-64172380D01*
X212638095Y-64220000D01*
X212685714Y-64267619D01*
X212733333Y-64362857D01*
X212733333Y-64505714D01*
X212685714Y-64600952D01*
X212638095Y-64648571D01*
X212542857Y-64696190D01*
X212161904Y-64696190D01*
X213066666Y-64172380D02*
X213685714Y-64172380D01*
X213352380Y-64553333D01*
X213495238Y-64553333D01*
X213590476Y-64600952D01*
X213638095Y-64648571D01*
X213685714Y-64743809D01*
X213685714Y-64981904D01*
X213638095Y-65077142D01*
X213590476Y-65124761D01*
X213495238Y-65172380D01*
X213209523Y-65172380D01*
X213114285Y-65124761D01*
X213066666Y-65077142D01*
X177366666Y-59792380D02*
X177366666Y-60506666D01*
X177319047Y-60649523D01*
X177223809Y-60744761D01*
X177080952Y-60792380D01*
X176985714Y-60792380D01*
X178366666Y-60792380D02*
X177795238Y-60792380D01*
X178080952Y-60792380D02*
X178080952Y-59792380D01*
X177985714Y-59935238D01*
X177890476Y-60030476D01*
X177795238Y-60078095D01*
X182466666Y-38492380D02*
X182466666Y-39206666D01*
X182419047Y-39349523D01*
X182323809Y-39444761D01*
X182180952Y-39492380D01*
X182085714Y-39492380D01*
X182895238Y-38587619D02*
X182942857Y-38540000D01*
X183038095Y-38492380D01*
X183276190Y-38492380D01*
X183371428Y-38540000D01*
X183419047Y-38587619D01*
X183466666Y-38682857D01*
X183466666Y-38778095D01*
X183419047Y-38920952D01*
X182847619Y-39492380D01*
X183466666Y-39492380D01*
X198766666Y-71492380D02*
X198766666Y-72206666D01*
X198719047Y-72349523D01*
X198623809Y-72444761D01*
X198480952Y-72492380D01*
X198385714Y-72492380D01*
X199147619Y-71492380D02*
X199766666Y-71492380D01*
X199433333Y-71873333D01*
X199576190Y-71873333D01*
X199671428Y-71920952D01*
X199719047Y-71968571D01*
X199766666Y-72063809D01*
X199766666Y-72301904D01*
X199719047Y-72397142D01*
X199671428Y-72444761D01*
X199576190Y-72492380D01*
X199290476Y-72492380D01*
X199195238Y-72444761D01*
X199147619Y-72397142D01*
X192166666Y-38592380D02*
X192166666Y-39306666D01*
X192119047Y-39449523D01*
X192023809Y-39544761D01*
X191880952Y-39592380D01*
X191785714Y-39592380D01*
X193071428Y-38925714D02*
X193071428Y-39592380D01*
X192833333Y-38544761D02*
X192595238Y-39259047D01*
X193214285Y-39259047D01*
X208066666Y-47652380D02*
X208066666Y-48366666D01*
X208019047Y-48509523D01*
X207923809Y-48604761D01*
X207780952Y-48652380D01*
X207685714Y-48652380D01*
X209019047Y-47652380D02*
X208542857Y-47652380D01*
X208495238Y-48128571D01*
X208542857Y-48080952D01*
X208638095Y-48033333D01*
X208876190Y-48033333D01*
X208971428Y-48080952D01*
X209019047Y-48128571D01*
X209066666Y-48223809D01*
X209066666Y-48461904D01*
X209019047Y-48557142D01*
X208971428Y-48604761D01*
X208876190Y-48652380D01*
X208638095Y-48652380D01*
X208542857Y-48604761D01*
X208495238Y-48557142D01*
X218966666Y-47752380D02*
X218966666Y-48466666D01*
X218919047Y-48609523D01*
X218823809Y-48704761D01*
X218680952Y-48752380D01*
X218585714Y-48752380D01*
X219871428Y-47752380D02*
X219680952Y-47752380D01*
X219585714Y-47800000D01*
X219538095Y-47847619D01*
X219442857Y-47990476D01*
X219395238Y-48180952D01*
X219395238Y-48561904D01*
X219442857Y-48657142D01*
X219490476Y-48704761D01*
X219585714Y-48752380D01*
X219776190Y-48752380D01*
X219871428Y-48704761D01*
X219919047Y-48657142D01*
X219966666Y-48561904D01*
X219966666Y-48323809D01*
X219919047Y-48228571D01*
X219871428Y-48180952D01*
X219776190Y-48133333D01*
X219585714Y-48133333D01*
X219490476Y-48180952D01*
X219442857Y-48228571D01*
X219395238Y-48323809D01*
M02*
