M48
INCH,TZ
T1C0.0157
T2C0.0315
T3C0.0433
%
G90
G05
T1
X27795Y-47795
X35197Y-46890
X38543Y-44724
X39724Y-45472
X43543Y-41142
X48150Y-37795
X48346Y-42126
X49921Y-44843
X50433Y-45551
T2
X30413Y-42028
X30413Y-43996
X42638Y-42677
X43622Y-42677
X45866Y-37795
X46850Y-37795
X31630Y-40551
X35630Y-40551
X38543Y-42638
X38543Y-43622
X32795Y-46890
X33780Y-46890
X40827Y-45472
X41811Y-45472
X32717Y-38819
X34685Y-38819
X45787Y-39921
X47756Y-39921
X36378Y-42244
X36378Y-44213
X32283Y-44921
X34252Y-44921
X49921Y-41693
X49921Y-43661
X28346Y-41551
X28346Y-45551
T3
X29134Y-47795
X30134Y-47795
X51969Y-45315
X52969Y-45315
X44921Y-47598
X45921Y-47598
X46921Y-47598
X47921Y-47598
X48921Y-47598
X49921Y-47598
X32638Y-35157
X33638Y-35157
X34638Y-35157
X35638Y-35157
T0
M30
