G04 #@! TF.GenerationSoftware,KiCad,Pcbnew,(5.1.2)-1*
G04 #@! TF.CreationDate,2019-12-18T16:16:50-05:00*
G04 #@! TF.ProjectId,adcBoard,61646342-6f61-4726-942e-6b696361645f,rev?*
G04 #@! TF.SameCoordinates,Original*
G04 #@! TF.FileFunction,Copper,L2,Bot*
G04 #@! TF.FilePolarity,Positive*
%FSLAX46Y46*%
G04 Gerber Fmt 4.6, Leading zero omitted, Abs format (unit mm)*
G04 Created by KiCad (PCBNEW (5.1.2)-1) date 2019-12-18 16:16:50*
%MOMM*%
%LPD*%
G04 APERTURE LIST*
%ADD10R,1.600000X1.600000*%
%ADD11C,1.600000*%
%ADD12R,2.100000X2.100000*%
%ADD13C,2.100000*%
%ADD14O,1.600000X1.600000*%
%ADD15C,0.800000*%
%ADD16C,0.800000*%
%ADD17C,0.254000*%
G04 APERTURE END LIST*
D10*
X97900000Y-108300000D03*
D11*
X97900000Y-110800000D03*
X92400000Y-107300000D03*
X92400000Y-112300000D03*
X77250000Y-111750000D03*
X77250000Y-106750000D03*
X85800000Y-119100000D03*
D10*
X83300000Y-119100000D03*
D11*
X87000000Y-114100000D03*
X82000000Y-114100000D03*
X83100000Y-98600000D03*
X88100000Y-98600000D03*
X108300000Y-108400000D03*
D10*
X110800000Y-108400000D03*
X106200000Y-115500000D03*
D11*
X103700000Y-115500000D03*
X126800000Y-105900000D03*
X126800000Y-110900000D03*
X121300000Y-101400000D03*
X116300000Y-101400000D03*
D10*
X116500000Y-96000000D03*
D11*
X119000000Y-96000000D03*
D12*
X74000000Y-121400000D03*
D13*
X76540000Y-121400000D03*
X114100000Y-120900000D03*
X116640000Y-120900000D03*
X119180000Y-120900000D03*
X121720000Y-120900000D03*
X124260000Y-120900000D03*
D12*
X126800000Y-120900000D03*
D14*
X72000000Y-105540000D03*
D11*
X72000000Y-115700000D03*
X80340000Y-103000000D03*
D14*
X90500000Y-103000000D03*
D12*
X132000000Y-115100000D03*
D13*
X134540000Y-115100000D03*
D12*
X82900000Y-89300000D03*
D13*
X85440000Y-89300000D03*
X87980000Y-89300000D03*
X90520000Y-89300000D03*
D15*
X89400000Y-119100000D03*
X110600000Y-104500000D03*
X100900000Y-115500000D03*
X97900000Y-113600000D03*
X70600000Y-121400000D03*
X126800000Y-113900000D03*
X128100000Y-115700000D03*
X122800000Y-107000000D03*
X122300000Y-96000000D03*
D16*
X112400000Y-105900000D02*
X122100000Y-105900000D01*
D17*
G36*
X126120273Y-104628320D02*
G01*
X125885241Y-104785363D01*
X125685363Y-104985241D01*
X125528320Y-105220273D01*
X125420147Y-105481426D01*
X125365000Y-105758665D01*
X125365000Y-106041335D01*
X125420147Y-106318574D01*
X125528320Y-106579727D01*
X125685363Y-106814759D01*
X125885241Y-107014637D01*
X126120273Y-107171680D01*
X126381426Y-107279853D01*
X126658665Y-107335000D01*
X126941335Y-107335000D01*
X127218574Y-107279853D01*
X127479727Y-107171680D01*
X127714759Y-107014637D01*
X127914637Y-106814759D01*
X128071680Y-106579727D01*
X128179853Y-106318574D01*
X128235000Y-106041335D01*
X128235000Y-105758665D01*
X128179853Y-105481426D01*
X128071680Y-105220273D01*
X127914637Y-104985241D01*
X127714759Y-104785363D01*
X127479727Y-104628320D01*
X127476540Y-104627000D01*
X129974276Y-104627000D01*
X130171683Y-124170354D01*
X120627000Y-123975565D01*
X120627000Y-122189950D01*
X120645875Y-122208825D01*
X120921853Y-122393228D01*
X121228504Y-122520246D01*
X121554042Y-122585000D01*
X121885958Y-122585000D01*
X122211496Y-122520246D01*
X122518147Y-122393228D01*
X122794125Y-122208825D01*
X122990000Y-122012950D01*
X123185875Y-122208825D01*
X123461853Y-122393228D01*
X123768504Y-122520246D01*
X124094042Y-122585000D01*
X124425958Y-122585000D01*
X124751496Y-122520246D01*
X125058147Y-122393228D01*
X125211958Y-122290454D01*
X125219463Y-122304494D01*
X125298815Y-122401185D01*
X125395506Y-122480537D01*
X125505820Y-122539502D01*
X125625518Y-122575812D01*
X125750000Y-122588072D01*
X127850000Y-122588072D01*
X127974482Y-122575812D01*
X128094180Y-122539502D01*
X128204494Y-122480537D01*
X128301185Y-122401185D01*
X128380537Y-122304494D01*
X128439502Y-122194180D01*
X128475812Y-122074482D01*
X128488072Y-121950000D01*
X128488072Y-119850000D01*
X128475812Y-119725518D01*
X128439502Y-119605820D01*
X128380537Y-119495506D01*
X128301185Y-119398815D01*
X128204494Y-119319463D01*
X128094180Y-119260498D01*
X127974482Y-119224188D01*
X127850000Y-119211928D01*
X125750000Y-119211928D01*
X125625518Y-119224188D01*
X125505820Y-119260498D01*
X125395506Y-119319463D01*
X125298815Y-119398815D01*
X125219463Y-119495506D01*
X125211958Y-119509546D01*
X125058147Y-119406772D01*
X124751496Y-119279754D01*
X124425958Y-119215000D01*
X124094042Y-119215000D01*
X123768504Y-119279754D01*
X123461853Y-119406772D01*
X123185875Y-119591175D01*
X122990000Y-119787050D01*
X122794125Y-119591175D01*
X122518147Y-119406772D01*
X122211496Y-119279754D01*
X121885958Y-119215000D01*
X121554042Y-119215000D01*
X121228504Y-119279754D01*
X120921853Y-119406772D01*
X120645875Y-119591175D01*
X120627000Y-119610050D01*
X120627000Y-111892702D01*
X125986903Y-111892702D01*
X126058486Y-112136671D01*
X126313996Y-112257571D01*
X126588184Y-112326300D01*
X126870512Y-112340217D01*
X127150130Y-112298787D01*
X127416292Y-112203603D01*
X127541514Y-112136671D01*
X127613097Y-111892702D01*
X126800000Y-111079605D01*
X125986903Y-111892702D01*
X120627000Y-111892702D01*
X120627000Y-110970512D01*
X125359783Y-110970512D01*
X125401213Y-111250130D01*
X125496397Y-111516292D01*
X125563329Y-111641514D01*
X125807298Y-111713097D01*
X126620395Y-110900000D01*
X126979605Y-110900000D01*
X127792702Y-111713097D01*
X128036671Y-111641514D01*
X128157571Y-111386004D01*
X128226300Y-111111816D01*
X128240217Y-110829488D01*
X128198787Y-110549870D01*
X128103603Y-110283708D01*
X128036671Y-110158486D01*
X127792702Y-110086903D01*
X126979605Y-110900000D01*
X126620395Y-110900000D01*
X125807298Y-110086903D01*
X125563329Y-110158486D01*
X125442429Y-110413996D01*
X125373700Y-110688184D01*
X125359783Y-110970512D01*
X120627000Y-110970512D01*
X120627000Y-109907298D01*
X125986903Y-109907298D01*
X126800000Y-110720395D01*
X127613097Y-109907298D01*
X127541514Y-109663329D01*
X127286004Y-109542429D01*
X127011816Y-109473700D01*
X126729488Y-109459783D01*
X126449870Y-109501213D01*
X126183708Y-109596397D01*
X126058486Y-109663329D01*
X125986903Y-109907298D01*
X120627000Y-109907298D01*
X120627000Y-104627000D01*
X126123460Y-104627000D01*
X126120273Y-104628320D01*
X126120273Y-104628320D01*
G37*
X126120273Y-104628320D02*
X125885241Y-104785363D01*
X125685363Y-104985241D01*
X125528320Y-105220273D01*
X125420147Y-105481426D01*
X125365000Y-105758665D01*
X125365000Y-106041335D01*
X125420147Y-106318574D01*
X125528320Y-106579727D01*
X125685363Y-106814759D01*
X125885241Y-107014637D01*
X126120273Y-107171680D01*
X126381426Y-107279853D01*
X126658665Y-107335000D01*
X126941335Y-107335000D01*
X127218574Y-107279853D01*
X127479727Y-107171680D01*
X127714759Y-107014637D01*
X127914637Y-106814759D01*
X128071680Y-106579727D01*
X128179853Y-106318574D01*
X128235000Y-106041335D01*
X128235000Y-105758665D01*
X128179853Y-105481426D01*
X128071680Y-105220273D01*
X127914637Y-104985241D01*
X127714759Y-104785363D01*
X127479727Y-104628320D01*
X127476540Y-104627000D01*
X129974276Y-104627000D01*
X130171683Y-124170354D01*
X120627000Y-123975565D01*
X120627000Y-122189950D01*
X120645875Y-122208825D01*
X120921853Y-122393228D01*
X121228504Y-122520246D01*
X121554042Y-122585000D01*
X121885958Y-122585000D01*
X122211496Y-122520246D01*
X122518147Y-122393228D01*
X122794125Y-122208825D01*
X122990000Y-122012950D01*
X123185875Y-122208825D01*
X123461853Y-122393228D01*
X123768504Y-122520246D01*
X124094042Y-122585000D01*
X124425958Y-122585000D01*
X124751496Y-122520246D01*
X125058147Y-122393228D01*
X125211958Y-122290454D01*
X125219463Y-122304494D01*
X125298815Y-122401185D01*
X125395506Y-122480537D01*
X125505820Y-122539502D01*
X125625518Y-122575812D01*
X125750000Y-122588072D01*
X127850000Y-122588072D01*
X127974482Y-122575812D01*
X128094180Y-122539502D01*
X128204494Y-122480537D01*
X128301185Y-122401185D01*
X128380537Y-122304494D01*
X128439502Y-122194180D01*
X128475812Y-122074482D01*
X128488072Y-121950000D01*
X128488072Y-119850000D01*
X128475812Y-119725518D01*
X128439502Y-119605820D01*
X128380537Y-119495506D01*
X128301185Y-119398815D01*
X128204494Y-119319463D01*
X128094180Y-119260498D01*
X127974482Y-119224188D01*
X127850000Y-119211928D01*
X125750000Y-119211928D01*
X125625518Y-119224188D01*
X125505820Y-119260498D01*
X125395506Y-119319463D01*
X125298815Y-119398815D01*
X125219463Y-119495506D01*
X125211958Y-119509546D01*
X125058147Y-119406772D01*
X124751496Y-119279754D01*
X124425958Y-119215000D01*
X124094042Y-119215000D01*
X123768504Y-119279754D01*
X123461853Y-119406772D01*
X123185875Y-119591175D01*
X122990000Y-119787050D01*
X122794125Y-119591175D01*
X122518147Y-119406772D01*
X122211496Y-119279754D01*
X121885958Y-119215000D01*
X121554042Y-119215000D01*
X121228504Y-119279754D01*
X120921853Y-119406772D01*
X120645875Y-119591175D01*
X120627000Y-119610050D01*
X120627000Y-111892702D01*
X125986903Y-111892702D01*
X126058486Y-112136671D01*
X126313996Y-112257571D01*
X126588184Y-112326300D01*
X126870512Y-112340217D01*
X127150130Y-112298787D01*
X127416292Y-112203603D01*
X127541514Y-112136671D01*
X127613097Y-111892702D01*
X126800000Y-111079605D01*
X125986903Y-111892702D01*
X120627000Y-111892702D01*
X120627000Y-110970512D01*
X125359783Y-110970512D01*
X125401213Y-111250130D01*
X125496397Y-111516292D01*
X125563329Y-111641514D01*
X125807298Y-111713097D01*
X126620395Y-110900000D01*
X126979605Y-110900000D01*
X127792702Y-111713097D01*
X128036671Y-111641514D01*
X128157571Y-111386004D01*
X128226300Y-111111816D01*
X128240217Y-110829488D01*
X128198787Y-110549870D01*
X128103603Y-110283708D01*
X128036671Y-110158486D01*
X127792702Y-110086903D01*
X126979605Y-110900000D01*
X126620395Y-110900000D01*
X125807298Y-110086903D01*
X125563329Y-110158486D01*
X125442429Y-110413996D01*
X125373700Y-110688184D01*
X125359783Y-110970512D01*
X120627000Y-110970512D01*
X120627000Y-109907298D01*
X125986903Y-109907298D01*
X126800000Y-110720395D01*
X127613097Y-109907298D01*
X127541514Y-109663329D01*
X127286004Y-109542429D01*
X127011816Y-109473700D01*
X126729488Y-109459783D01*
X126449870Y-109501213D01*
X126183708Y-109596397D01*
X126058486Y-109663329D01*
X125986903Y-109907298D01*
X120627000Y-109907298D01*
X120627000Y-104627000D01*
X126123460Y-104627000D01*
X126120273Y-104628320D01*
G36*
X123173000Y-98673000D02*
G01*
X113100000Y-98673000D01*
X113075224Y-98675440D01*
X113051399Y-98682667D01*
X113029443Y-98694403D01*
X113010197Y-98710197D01*
X112994403Y-98729443D01*
X112982667Y-98751399D01*
X112975440Y-98775224D01*
X112973001Y-98799521D01*
X112894044Y-119723006D01*
X112791175Y-119825875D01*
X112606772Y-120101853D01*
X112479754Y-120408504D01*
X112415000Y-120734042D01*
X112415000Y-121065958D01*
X112479754Y-121391496D01*
X112606772Y-121698147D01*
X112791175Y-121974125D01*
X112885194Y-122068144D01*
X112873478Y-125173000D01*
X85100000Y-125173000D01*
X85075224Y-125175440D01*
X85051399Y-125182667D01*
X85029553Y-125194330D01*
X81162693Y-127772236D01*
X71150931Y-127573984D01*
X67026743Y-123744381D01*
X67010956Y-120350000D01*
X72311928Y-120350000D01*
X72311928Y-122450000D01*
X72324188Y-122574482D01*
X72360498Y-122694180D01*
X72419463Y-122804494D01*
X72498815Y-122901185D01*
X72595506Y-122980537D01*
X72705820Y-123039502D01*
X72825518Y-123075812D01*
X72950000Y-123088072D01*
X75050000Y-123088072D01*
X75174482Y-123075812D01*
X75294180Y-123039502D01*
X75404494Y-122980537D01*
X75501185Y-122901185D01*
X75580537Y-122804494D01*
X75613451Y-122742918D01*
X75650339Y-122840579D01*
X75948477Y-122986463D01*
X76269346Y-123071380D01*
X76600617Y-123092066D01*
X76929557Y-123047728D01*
X77243527Y-122940069D01*
X77429661Y-122840579D01*
X77531461Y-122571066D01*
X76540000Y-121579605D01*
X76525858Y-121593748D01*
X76346253Y-121414143D01*
X76360395Y-121400000D01*
X76719605Y-121400000D01*
X77711066Y-122391461D01*
X77980579Y-122289661D01*
X78126463Y-121991523D01*
X78211380Y-121670654D01*
X78232066Y-121339383D01*
X78187728Y-121010443D01*
X78080069Y-120696473D01*
X77980579Y-120510339D01*
X77711066Y-120408539D01*
X76719605Y-121400000D01*
X76360395Y-121400000D01*
X76346253Y-121385858D01*
X76525858Y-121206253D01*
X76540000Y-121220395D01*
X77531461Y-120228934D01*
X77429661Y-119959421D01*
X77131523Y-119813537D01*
X76810654Y-119728620D01*
X76479383Y-119707934D01*
X76150443Y-119752272D01*
X75836473Y-119859931D01*
X75650339Y-119959421D01*
X75613451Y-120057082D01*
X75580537Y-119995506D01*
X75501185Y-119898815D01*
X75404494Y-119819463D01*
X75294180Y-119760498D01*
X75174482Y-119724188D01*
X75050000Y-119711928D01*
X72950000Y-119711928D01*
X72825518Y-119724188D01*
X72705820Y-119760498D01*
X72595506Y-119819463D01*
X72498815Y-119898815D01*
X72419463Y-119995506D01*
X72360498Y-120105820D01*
X72324188Y-120225518D01*
X72311928Y-120350000D01*
X67010956Y-120350000D01*
X67001422Y-118300000D01*
X81861928Y-118300000D01*
X81861928Y-119900000D01*
X81874188Y-120024482D01*
X81910498Y-120144180D01*
X81969463Y-120254494D01*
X82048815Y-120351185D01*
X82145506Y-120430537D01*
X82255820Y-120489502D01*
X82375518Y-120525812D01*
X82500000Y-120538072D01*
X84100000Y-120538072D01*
X84224482Y-120525812D01*
X84344180Y-120489502D01*
X84454494Y-120430537D01*
X84551185Y-120351185D01*
X84630537Y-120254494D01*
X84689502Y-120144180D01*
X84705117Y-120092702D01*
X84986903Y-120092702D01*
X85058486Y-120336671D01*
X85313996Y-120457571D01*
X85588184Y-120526300D01*
X85870512Y-120540217D01*
X86150130Y-120498787D01*
X86416292Y-120403603D01*
X86541514Y-120336671D01*
X86613097Y-120092702D01*
X85800000Y-119279605D01*
X84986903Y-120092702D01*
X84705117Y-120092702D01*
X84725812Y-120024482D01*
X84738072Y-119900000D01*
X84738072Y-119892785D01*
X84807298Y-119913097D01*
X85620395Y-119100000D01*
X85979605Y-119100000D01*
X86792702Y-119913097D01*
X87036671Y-119841514D01*
X87157571Y-119586004D01*
X87226300Y-119311816D01*
X87240217Y-119029488D01*
X87198787Y-118749870D01*
X87103603Y-118483708D01*
X87036671Y-118358486D01*
X86792702Y-118286903D01*
X85979605Y-119100000D01*
X85620395Y-119100000D01*
X84807298Y-118286903D01*
X84738072Y-118307215D01*
X84738072Y-118300000D01*
X84725812Y-118175518D01*
X84705118Y-118107298D01*
X84986903Y-118107298D01*
X85800000Y-118920395D01*
X86613097Y-118107298D01*
X86541514Y-117863329D01*
X86286004Y-117742429D01*
X86011816Y-117673700D01*
X85729488Y-117659783D01*
X85449870Y-117701213D01*
X85183708Y-117796397D01*
X85058486Y-117863329D01*
X84986903Y-118107298D01*
X84705118Y-118107298D01*
X84689502Y-118055820D01*
X84630537Y-117945506D01*
X84551185Y-117848815D01*
X84454494Y-117769463D01*
X84344180Y-117710498D01*
X84224482Y-117674188D01*
X84100000Y-117661928D01*
X82500000Y-117661928D01*
X82375518Y-117674188D01*
X82255820Y-117710498D01*
X82145506Y-117769463D01*
X82048815Y-117848815D01*
X81969463Y-117945506D01*
X81910498Y-118055820D01*
X81874188Y-118175518D01*
X81861928Y-118300000D01*
X67001422Y-118300000D01*
X66988671Y-115558665D01*
X70565000Y-115558665D01*
X70565000Y-115841335D01*
X70620147Y-116118574D01*
X70728320Y-116379727D01*
X70885363Y-116614759D01*
X71085241Y-116814637D01*
X71320273Y-116971680D01*
X71581426Y-117079853D01*
X71858665Y-117135000D01*
X72141335Y-117135000D01*
X72418574Y-117079853D01*
X72679727Y-116971680D01*
X72914759Y-116814637D01*
X73114637Y-116614759D01*
X73196192Y-116492702D01*
X102886903Y-116492702D01*
X102958486Y-116736671D01*
X103213996Y-116857571D01*
X103488184Y-116926300D01*
X103770512Y-116940217D01*
X104050130Y-116898787D01*
X104316292Y-116803603D01*
X104441514Y-116736671D01*
X104513097Y-116492702D01*
X103700000Y-115679605D01*
X102886903Y-116492702D01*
X73196192Y-116492702D01*
X73271680Y-116379727D01*
X73379853Y-116118574D01*
X73435000Y-115841335D01*
X73435000Y-115570512D01*
X102259783Y-115570512D01*
X102301213Y-115850130D01*
X102396397Y-116116292D01*
X102463329Y-116241514D01*
X102707298Y-116313097D01*
X103520395Y-115500000D01*
X103879605Y-115500000D01*
X104692702Y-116313097D01*
X104761928Y-116292785D01*
X104761928Y-116300000D01*
X104774188Y-116424482D01*
X104810498Y-116544180D01*
X104869463Y-116654494D01*
X104948815Y-116751185D01*
X105045506Y-116830537D01*
X105155820Y-116889502D01*
X105275518Y-116925812D01*
X105400000Y-116938072D01*
X107000000Y-116938072D01*
X107124482Y-116925812D01*
X107244180Y-116889502D01*
X107354494Y-116830537D01*
X107451185Y-116751185D01*
X107530537Y-116654494D01*
X107589502Y-116544180D01*
X107625812Y-116424482D01*
X107638072Y-116300000D01*
X107638072Y-114700000D01*
X107625812Y-114575518D01*
X107589502Y-114455820D01*
X107530537Y-114345506D01*
X107451185Y-114248815D01*
X107354494Y-114169463D01*
X107244180Y-114110498D01*
X107124482Y-114074188D01*
X107000000Y-114061928D01*
X105400000Y-114061928D01*
X105275518Y-114074188D01*
X105155820Y-114110498D01*
X105045506Y-114169463D01*
X104948815Y-114248815D01*
X104869463Y-114345506D01*
X104810498Y-114455820D01*
X104774188Y-114575518D01*
X104761928Y-114700000D01*
X104761928Y-114707215D01*
X104692702Y-114686903D01*
X103879605Y-115500000D01*
X103520395Y-115500000D01*
X102707298Y-114686903D01*
X102463329Y-114758486D01*
X102342429Y-115013996D01*
X102273700Y-115288184D01*
X102259783Y-115570512D01*
X73435000Y-115570512D01*
X73435000Y-115558665D01*
X73379853Y-115281426D01*
X73271680Y-115020273D01*
X73114637Y-114785241D01*
X72914759Y-114585363D01*
X72679727Y-114428320D01*
X72418574Y-114320147D01*
X72141335Y-114265000D01*
X71858665Y-114265000D01*
X71581426Y-114320147D01*
X71320273Y-114428320D01*
X71085241Y-114585363D01*
X70885363Y-114785241D01*
X70728320Y-115020273D01*
X70620147Y-115281426D01*
X70565000Y-115558665D01*
X66988671Y-115558665D01*
X66981230Y-113958665D01*
X80565000Y-113958665D01*
X80565000Y-114241335D01*
X80620147Y-114518574D01*
X80728320Y-114779727D01*
X80885363Y-115014759D01*
X81085241Y-115214637D01*
X81320273Y-115371680D01*
X81581426Y-115479853D01*
X81858665Y-115535000D01*
X82141335Y-115535000D01*
X82418574Y-115479853D01*
X82679727Y-115371680D01*
X82914759Y-115214637D01*
X83036694Y-115092702D01*
X86186903Y-115092702D01*
X86258486Y-115336671D01*
X86513996Y-115457571D01*
X86788184Y-115526300D01*
X87070512Y-115540217D01*
X87350130Y-115498787D01*
X87616292Y-115403603D01*
X87741514Y-115336671D01*
X87813097Y-115092702D01*
X87000000Y-114279605D01*
X86186903Y-115092702D01*
X83036694Y-115092702D01*
X83114637Y-115014759D01*
X83271680Y-114779727D01*
X83379853Y-114518574D01*
X83435000Y-114241335D01*
X83435000Y-114170512D01*
X85559783Y-114170512D01*
X85601213Y-114450130D01*
X85696397Y-114716292D01*
X85763329Y-114841514D01*
X86007298Y-114913097D01*
X86820395Y-114100000D01*
X87179605Y-114100000D01*
X87992702Y-114913097D01*
X88236671Y-114841514D01*
X88357571Y-114586004D01*
X88377299Y-114507298D01*
X102886903Y-114507298D01*
X103700000Y-115320395D01*
X104513097Y-114507298D01*
X104441514Y-114263329D01*
X104186004Y-114142429D01*
X103911816Y-114073700D01*
X103629488Y-114059783D01*
X103349870Y-114101213D01*
X103083708Y-114196397D01*
X102958486Y-114263329D01*
X102886903Y-114507298D01*
X88377299Y-114507298D01*
X88426300Y-114311816D01*
X88440217Y-114029488D01*
X88398787Y-113749870D01*
X88303603Y-113483708D01*
X88236671Y-113358486D01*
X88012467Y-113292702D01*
X91586903Y-113292702D01*
X91658486Y-113536671D01*
X91913996Y-113657571D01*
X92188184Y-113726300D01*
X92470512Y-113740217D01*
X92750130Y-113698787D01*
X93016292Y-113603603D01*
X93141514Y-113536671D01*
X93213097Y-113292702D01*
X92400000Y-112479605D01*
X91586903Y-113292702D01*
X88012467Y-113292702D01*
X87992702Y-113286903D01*
X87179605Y-114100000D01*
X86820395Y-114100000D01*
X86007298Y-113286903D01*
X85763329Y-113358486D01*
X85642429Y-113613996D01*
X85573700Y-113888184D01*
X85559783Y-114170512D01*
X83435000Y-114170512D01*
X83435000Y-113958665D01*
X83379853Y-113681426D01*
X83271680Y-113420273D01*
X83114637Y-113185241D01*
X83036694Y-113107298D01*
X86186903Y-113107298D01*
X87000000Y-113920395D01*
X87813097Y-113107298D01*
X87741514Y-112863329D01*
X87486004Y-112742429D01*
X87211816Y-112673700D01*
X86929488Y-112659783D01*
X86649870Y-112701213D01*
X86383708Y-112796397D01*
X86258486Y-112863329D01*
X86186903Y-113107298D01*
X83036694Y-113107298D01*
X82914759Y-112985363D01*
X82679727Y-112828320D01*
X82418574Y-112720147D01*
X82141335Y-112665000D01*
X81858665Y-112665000D01*
X81581426Y-112720147D01*
X81320273Y-112828320D01*
X81085241Y-112985363D01*
X80885363Y-113185241D01*
X80728320Y-113420273D01*
X80620147Y-113681426D01*
X80565000Y-113958665D01*
X66981230Y-113958665D01*
X66975575Y-112742702D01*
X76436903Y-112742702D01*
X76508486Y-112986671D01*
X76763996Y-113107571D01*
X77038184Y-113176300D01*
X77320512Y-113190217D01*
X77600130Y-113148787D01*
X77866292Y-113053603D01*
X77991514Y-112986671D01*
X78063097Y-112742702D01*
X77250000Y-111929605D01*
X76436903Y-112742702D01*
X66975575Y-112742702D01*
X66971285Y-111820512D01*
X75809783Y-111820512D01*
X75851213Y-112100130D01*
X75946397Y-112366292D01*
X76013329Y-112491514D01*
X76257298Y-112563097D01*
X77070395Y-111750000D01*
X77429605Y-111750000D01*
X78242702Y-112563097D01*
X78486671Y-112491514D01*
X78543925Y-112370512D01*
X90959783Y-112370512D01*
X91001213Y-112650130D01*
X91096397Y-112916292D01*
X91163329Y-113041514D01*
X91407298Y-113113097D01*
X92220395Y-112300000D01*
X92579605Y-112300000D01*
X93392702Y-113113097D01*
X93636671Y-113041514D01*
X93757571Y-112786004D01*
X93826300Y-112511816D01*
X93840217Y-112229488D01*
X93798787Y-111949870D01*
X93742582Y-111792702D01*
X97086903Y-111792702D01*
X97158486Y-112036671D01*
X97413996Y-112157571D01*
X97688184Y-112226300D01*
X97970512Y-112240217D01*
X98250130Y-112198787D01*
X98516292Y-112103603D01*
X98641514Y-112036671D01*
X98713097Y-111792702D01*
X97900000Y-110979605D01*
X97086903Y-111792702D01*
X93742582Y-111792702D01*
X93703603Y-111683708D01*
X93636671Y-111558486D01*
X93392702Y-111486903D01*
X92579605Y-112300000D01*
X92220395Y-112300000D01*
X91407298Y-111486903D01*
X91163329Y-111558486D01*
X91042429Y-111813996D01*
X90973700Y-112088184D01*
X90959783Y-112370512D01*
X78543925Y-112370512D01*
X78607571Y-112236004D01*
X78676300Y-111961816D01*
X78690217Y-111679488D01*
X78648787Y-111399870D01*
X78615682Y-111307298D01*
X91586903Y-111307298D01*
X92400000Y-112120395D01*
X93213097Y-111307298D01*
X93141514Y-111063329D01*
X92886004Y-110942429D01*
X92611816Y-110873700D01*
X92547143Y-110870512D01*
X96459783Y-110870512D01*
X96501213Y-111150130D01*
X96596397Y-111416292D01*
X96663329Y-111541514D01*
X96907298Y-111613097D01*
X97720395Y-110800000D01*
X98079605Y-110800000D01*
X98892702Y-111613097D01*
X99136671Y-111541514D01*
X99257571Y-111286004D01*
X99326300Y-111011816D01*
X99340217Y-110729488D01*
X99298787Y-110449870D01*
X99203603Y-110183708D01*
X99136671Y-110058486D01*
X98892702Y-109986903D01*
X98079605Y-110800000D01*
X97720395Y-110800000D01*
X96907298Y-109986903D01*
X96663329Y-110058486D01*
X96542429Y-110313996D01*
X96473700Y-110588184D01*
X96459783Y-110870512D01*
X92547143Y-110870512D01*
X92329488Y-110859783D01*
X92049870Y-110901213D01*
X91783708Y-110996397D01*
X91658486Y-111063329D01*
X91586903Y-111307298D01*
X78615682Y-111307298D01*
X78553603Y-111133708D01*
X78486671Y-111008486D01*
X78242702Y-110936903D01*
X77429605Y-111750000D01*
X77070395Y-111750000D01*
X76257298Y-110936903D01*
X76013329Y-111008486D01*
X75892429Y-111263996D01*
X75823700Y-111538184D01*
X75809783Y-111820512D01*
X66971285Y-111820512D01*
X66966340Y-110757298D01*
X76436903Y-110757298D01*
X77250000Y-111570395D01*
X78063097Y-110757298D01*
X77991514Y-110513329D01*
X77736004Y-110392429D01*
X77461816Y-110323700D01*
X77179488Y-110309783D01*
X76899870Y-110351213D01*
X76633708Y-110446397D01*
X76508486Y-110513329D01*
X76436903Y-110757298D01*
X66966340Y-110757298D01*
X66942072Y-105540000D01*
X70558057Y-105540000D01*
X70585764Y-105821309D01*
X70667818Y-106091808D01*
X70801068Y-106341101D01*
X70980392Y-106559608D01*
X71198899Y-106738932D01*
X71448192Y-106872182D01*
X71718691Y-106954236D01*
X71929508Y-106975000D01*
X72070492Y-106975000D01*
X72281309Y-106954236D01*
X72551808Y-106872182D01*
X72801101Y-106738932D01*
X72959831Y-106608665D01*
X75815000Y-106608665D01*
X75815000Y-106891335D01*
X75870147Y-107168574D01*
X75978320Y-107429727D01*
X76135363Y-107664759D01*
X76335241Y-107864637D01*
X76570273Y-108021680D01*
X76831426Y-108129853D01*
X77108665Y-108185000D01*
X77391335Y-108185000D01*
X77668574Y-108129853D01*
X77929727Y-108021680D01*
X78164759Y-107864637D01*
X78364637Y-107664759D01*
X78521680Y-107429727D01*
X78629853Y-107168574D01*
X78631824Y-107158665D01*
X90965000Y-107158665D01*
X90965000Y-107441335D01*
X91020147Y-107718574D01*
X91128320Y-107979727D01*
X91285363Y-108214759D01*
X91485241Y-108414637D01*
X91720273Y-108571680D01*
X91981426Y-108679853D01*
X92258665Y-108735000D01*
X92541335Y-108735000D01*
X92818574Y-108679853D01*
X93079727Y-108571680D01*
X93314759Y-108414637D01*
X93514637Y-108214759D01*
X93671680Y-107979727D01*
X93779853Y-107718574D01*
X93823330Y-107500000D01*
X96461928Y-107500000D01*
X96461928Y-109100000D01*
X96474188Y-109224482D01*
X96510498Y-109344180D01*
X96569463Y-109454494D01*
X96648815Y-109551185D01*
X96745506Y-109630537D01*
X96855820Y-109689502D01*
X96975518Y-109725812D01*
X97100000Y-109738072D01*
X97107215Y-109738072D01*
X97086903Y-109807298D01*
X97900000Y-110620395D01*
X98713097Y-109807298D01*
X98692785Y-109738072D01*
X98700000Y-109738072D01*
X98824482Y-109725812D01*
X98944180Y-109689502D01*
X99054494Y-109630537D01*
X99151185Y-109551185D01*
X99230537Y-109454494D01*
X99263566Y-109392702D01*
X107486903Y-109392702D01*
X107558486Y-109636671D01*
X107813996Y-109757571D01*
X108088184Y-109826300D01*
X108370512Y-109840217D01*
X108650130Y-109798787D01*
X108916292Y-109703603D01*
X109041514Y-109636671D01*
X109113097Y-109392702D01*
X108300000Y-108579605D01*
X107486903Y-109392702D01*
X99263566Y-109392702D01*
X99289502Y-109344180D01*
X99325812Y-109224482D01*
X99338072Y-109100000D01*
X99338072Y-108470512D01*
X106859783Y-108470512D01*
X106901213Y-108750130D01*
X106996397Y-109016292D01*
X107063329Y-109141514D01*
X107307298Y-109213097D01*
X108120395Y-108400000D01*
X108479605Y-108400000D01*
X109292702Y-109213097D01*
X109361928Y-109192785D01*
X109361928Y-109200000D01*
X109374188Y-109324482D01*
X109410498Y-109444180D01*
X109469463Y-109554494D01*
X109548815Y-109651185D01*
X109645506Y-109730537D01*
X109755820Y-109789502D01*
X109875518Y-109825812D01*
X110000000Y-109838072D01*
X111600000Y-109838072D01*
X111724482Y-109825812D01*
X111844180Y-109789502D01*
X111954494Y-109730537D01*
X112051185Y-109651185D01*
X112130537Y-109554494D01*
X112189502Y-109444180D01*
X112225812Y-109324482D01*
X112238072Y-109200000D01*
X112238072Y-107600000D01*
X112225812Y-107475518D01*
X112189502Y-107355820D01*
X112130537Y-107245506D01*
X112051185Y-107148815D01*
X111954494Y-107069463D01*
X111844180Y-107010498D01*
X111724482Y-106974188D01*
X111600000Y-106961928D01*
X110000000Y-106961928D01*
X109875518Y-106974188D01*
X109755820Y-107010498D01*
X109645506Y-107069463D01*
X109548815Y-107148815D01*
X109469463Y-107245506D01*
X109410498Y-107355820D01*
X109374188Y-107475518D01*
X109361928Y-107600000D01*
X109361928Y-107607215D01*
X109292702Y-107586903D01*
X108479605Y-108400000D01*
X108120395Y-108400000D01*
X107307298Y-107586903D01*
X107063329Y-107658486D01*
X106942429Y-107913996D01*
X106873700Y-108188184D01*
X106859783Y-108470512D01*
X99338072Y-108470512D01*
X99338072Y-107500000D01*
X99328942Y-107407298D01*
X107486903Y-107407298D01*
X108300000Y-108220395D01*
X109113097Y-107407298D01*
X109041514Y-107163329D01*
X108786004Y-107042429D01*
X108511816Y-106973700D01*
X108229488Y-106959783D01*
X107949870Y-107001213D01*
X107683708Y-107096397D01*
X107558486Y-107163329D01*
X107486903Y-107407298D01*
X99328942Y-107407298D01*
X99325812Y-107375518D01*
X99289502Y-107255820D01*
X99230537Y-107145506D01*
X99151185Y-107048815D01*
X99054494Y-106969463D01*
X98944180Y-106910498D01*
X98824482Y-106874188D01*
X98700000Y-106861928D01*
X97100000Y-106861928D01*
X96975518Y-106874188D01*
X96855820Y-106910498D01*
X96745506Y-106969463D01*
X96648815Y-107048815D01*
X96569463Y-107145506D01*
X96510498Y-107255820D01*
X96474188Y-107375518D01*
X96461928Y-107500000D01*
X93823330Y-107500000D01*
X93835000Y-107441335D01*
X93835000Y-107158665D01*
X93779853Y-106881426D01*
X93671680Y-106620273D01*
X93514637Y-106385241D01*
X93314759Y-106185363D01*
X93079727Y-106028320D01*
X92818574Y-105920147D01*
X92541335Y-105865000D01*
X92258665Y-105865000D01*
X91981426Y-105920147D01*
X91720273Y-106028320D01*
X91485241Y-106185363D01*
X91285363Y-106385241D01*
X91128320Y-106620273D01*
X91020147Y-106881426D01*
X90965000Y-107158665D01*
X78631824Y-107158665D01*
X78685000Y-106891335D01*
X78685000Y-106608665D01*
X78629853Y-106331426D01*
X78521680Y-106070273D01*
X78364637Y-105835241D01*
X78164759Y-105635363D01*
X77929727Y-105478320D01*
X77668574Y-105370147D01*
X77391335Y-105315000D01*
X77108665Y-105315000D01*
X76831426Y-105370147D01*
X76570273Y-105478320D01*
X76335241Y-105635363D01*
X76135363Y-105835241D01*
X75978320Y-106070273D01*
X75870147Y-106331426D01*
X75815000Y-106608665D01*
X72959831Y-106608665D01*
X73019608Y-106559608D01*
X73198932Y-106341101D01*
X73332182Y-106091808D01*
X73414236Y-105821309D01*
X73441943Y-105540000D01*
X73414236Y-105258691D01*
X73332182Y-104988192D01*
X73198932Y-104738899D01*
X73019608Y-104520392D01*
X72801101Y-104341068D01*
X72551808Y-104207818D01*
X72281309Y-104125764D01*
X72070492Y-104105000D01*
X71929508Y-104105000D01*
X71718691Y-104125764D01*
X71448192Y-104207818D01*
X71198899Y-104341068D01*
X70980392Y-104520392D01*
X70801068Y-104738899D01*
X70667818Y-104988192D01*
X70585764Y-105258691D01*
X70558057Y-105540000D01*
X66942072Y-105540000D01*
X66929601Y-102858665D01*
X78905000Y-102858665D01*
X78905000Y-103141335D01*
X78960147Y-103418574D01*
X79068320Y-103679727D01*
X79225363Y-103914759D01*
X79425241Y-104114637D01*
X79660273Y-104271680D01*
X79921426Y-104379853D01*
X80198665Y-104435000D01*
X80481335Y-104435000D01*
X80758574Y-104379853D01*
X81019727Y-104271680D01*
X81254759Y-104114637D01*
X81454637Y-103914759D01*
X81611680Y-103679727D01*
X81719853Y-103418574D01*
X81775000Y-103141335D01*
X81775000Y-103000000D01*
X89058057Y-103000000D01*
X89085764Y-103281309D01*
X89167818Y-103551808D01*
X89301068Y-103801101D01*
X89480392Y-104019608D01*
X89698899Y-104198932D01*
X89948192Y-104332182D01*
X90218691Y-104414236D01*
X90429508Y-104435000D01*
X90570492Y-104435000D01*
X90781309Y-104414236D01*
X91051808Y-104332182D01*
X91301101Y-104198932D01*
X91519608Y-104019608D01*
X91698932Y-103801101D01*
X91832182Y-103551808D01*
X91914236Y-103281309D01*
X91941943Y-103000000D01*
X91914236Y-102718691D01*
X91832182Y-102448192D01*
X91698932Y-102198899D01*
X91519608Y-101980392D01*
X91301101Y-101801068D01*
X91051808Y-101667818D01*
X90781309Y-101585764D01*
X90570492Y-101565000D01*
X90429508Y-101565000D01*
X90218691Y-101585764D01*
X89948192Y-101667818D01*
X89698899Y-101801068D01*
X89480392Y-101980392D01*
X89301068Y-102198899D01*
X89167818Y-102448192D01*
X89085764Y-102718691D01*
X89058057Y-103000000D01*
X81775000Y-103000000D01*
X81775000Y-102858665D01*
X81719853Y-102581426D01*
X81611680Y-102320273D01*
X81454637Y-102085241D01*
X81254759Y-101885363D01*
X81019727Y-101728320D01*
X80758574Y-101620147D01*
X80481335Y-101565000D01*
X80198665Y-101565000D01*
X79921426Y-101620147D01*
X79660273Y-101728320D01*
X79425241Y-101885363D01*
X79225363Y-102085241D01*
X79068320Y-102320273D01*
X78960147Y-102581426D01*
X78905000Y-102858665D01*
X66929601Y-102858665D01*
X66927331Y-102370798D01*
X73290438Y-98458665D01*
X81665000Y-98458665D01*
X81665000Y-98741335D01*
X81720147Y-99018574D01*
X81828320Y-99279727D01*
X81985363Y-99514759D01*
X82185241Y-99714637D01*
X82420273Y-99871680D01*
X82681426Y-99979853D01*
X82958665Y-100035000D01*
X83241335Y-100035000D01*
X83518574Y-99979853D01*
X83779727Y-99871680D01*
X84014759Y-99714637D01*
X84214637Y-99514759D01*
X84371680Y-99279727D01*
X84479853Y-99018574D01*
X84535000Y-98741335D01*
X84535000Y-98458665D01*
X86665000Y-98458665D01*
X86665000Y-98741335D01*
X86720147Y-99018574D01*
X86828320Y-99279727D01*
X86985363Y-99514759D01*
X87185241Y-99714637D01*
X87420273Y-99871680D01*
X87681426Y-99979853D01*
X87958665Y-100035000D01*
X88241335Y-100035000D01*
X88518574Y-99979853D01*
X88779727Y-99871680D01*
X89014759Y-99714637D01*
X89214637Y-99514759D01*
X89371680Y-99279727D01*
X89479853Y-99018574D01*
X89535000Y-98741335D01*
X89535000Y-98458665D01*
X89479853Y-98181426D01*
X89371680Y-97920273D01*
X89214637Y-97685241D01*
X89014759Y-97485363D01*
X88779727Y-97328320D01*
X88518574Y-97220147D01*
X88241335Y-97165000D01*
X87958665Y-97165000D01*
X87681426Y-97220147D01*
X87420273Y-97328320D01*
X87185241Y-97485363D01*
X86985363Y-97685241D01*
X86828320Y-97920273D01*
X86720147Y-98181426D01*
X86665000Y-98458665D01*
X84535000Y-98458665D01*
X84479853Y-98181426D01*
X84371680Y-97920273D01*
X84214637Y-97685241D01*
X84014759Y-97485363D01*
X83779727Y-97328320D01*
X83518574Y-97220147D01*
X83241335Y-97165000D01*
X82958665Y-97165000D01*
X82681426Y-97220147D01*
X82420273Y-97328320D01*
X82185241Y-97485363D01*
X81985363Y-97685241D01*
X81828320Y-97920273D01*
X81720147Y-98181426D01*
X81665000Y-98458665D01*
X73290438Y-98458665D01*
X78590676Y-95200000D01*
X115061928Y-95200000D01*
X115061928Y-96800000D01*
X115074188Y-96924482D01*
X115110498Y-97044180D01*
X115169463Y-97154494D01*
X115248815Y-97251185D01*
X115345506Y-97330537D01*
X115455820Y-97389502D01*
X115575518Y-97425812D01*
X115700000Y-97438072D01*
X117300000Y-97438072D01*
X117424482Y-97425812D01*
X117544180Y-97389502D01*
X117654494Y-97330537D01*
X117751185Y-97251185D01*
X117830537Y-97154494D01*
X117889502Y-97044180D01*
X117905117Y-96992702D01*
X118186903Y-96992702D01*
X118258486Y-97236671D01*
X118513996Y-97357571D01*
X118788184Y-97426300D01*
X119070512Y-97440217D01*
X119350130Y-97398787D01*
X119616292Y-97303603D01*
X119741514Y-97236671D01*
X119813097Y-96992702D01*
X119000000Y-96179605D01*
X118186903Y-96992702D01*
X117905117Y-96992702D01*
X117925812Y-96924482D01*
X117938072Y-96800000D01*
X117938072Y-96792785D01*
X118007298Y-96813097D01*
X118820395Y-96000000D01*
X119179605Y-96000000D01*
X119992702Y-96813097D01*
X120236671Y-96741514D01*
X120357571Y-96486004D01*
X120426300Y-96211816D01*
X120440217Y-95929488D01*
X120398787Y-95649870D01*
X120303603Y-95383708D01*
X120236671Y-95258486D01*
X119992702Y-95186903D01*
X119179605Y-96000000D01*
X118820395Y-96000000D01*
X118007298Y-95186903D01*
X117938072Y-95207215D01*
X117938072Y-95200000D01*
X117925812Y-95075518D01*
X117905118Y-95007298D01*
X118186903Y-95007298D01*
X119000000Y-95820395D01*
X119813097Y-95007298D01*
X119741514Y-94763329D01*
X119486004Y-94642429D01*
X119211816Y-94573700D01*
X118929488Y-94559783D01*
X118649870Y-94601213D01*
X118383708Y-94696397D01*
X118258486Y-94763329D01*
X118186903Y-95007298D01*
X117905118Y-95007298D01*
X117889502Y-94955820D01*
X117830537Y-94845506D01*
X117751185Y-94748815D01*
X117654494Y-94669463D01*
X117544180Y-94610498D01*
X117424482Y-94574188D01*
X117300000Y-94561928D01*
X115700000Y-94561928D01*
X115575518Y-94574188D01*
X115455820Y-94610498D01*
X115345506Y-94669463D01*
X115248815Y-94748815D01*
X115169463Y-94845506D01*
X115110498Y-94955820D01*
X115074188Y-95075518D01*
X115061928Y-95200000D01*
X78590676Y-95200000D01*
X80335918Y-94127000D01*
X123173000Y-94127000D01*
X123173000Y-98673000D01*
X123173000Y-98673000D01*
G37*
X123173000Y-98673000D02*
X113100000Y-98673000D01*
X113075224Y-98675440D01*
X113051399Y-98682667D01*
X113029443Y-98694403D01*
X113010197Y-98710197D01*
X112994403Y-98729443D01*
X112982667Y-98751399D01*
X112975440Y-98775224D01*
X112973001Y-98799521D01*
X112894044Y-119723006D01*
X112791175Y-119825875D01*
X112606772Y-120101853D01*
X112479754Y-120408504D01*
X112415000Y-120734042D01*
X112415000Y-121065958D01*
X112479754Y-121391496D01*
X112606772Y-121698147D01*
X112791175Y-121974125D01*
X112885194Y-122068144D01*
X112873478Y-125173000D01*
X85100000Y-125173000D01*
X85075224Y-125175440D01*
X85051399Y-125182667D01*
X85029553Y-125194330D01*
X81162693Y-127772236D01*
X71150931Y-127573984D01*
X67026743Y-123744381D01*
X67010956Y-120350000D01*
X72311928Y-120350000D01*
X72311928Y-122450000D01*
X72324188Y-122574482D01*
X72360498Y-122694180D01*
X72419463Y-122804494D01*
X72498815Y-122901185D01*
X72595506Y-122980537D01*
X72705820Y-123039502D01*
X72825518Y-123075812D01*
X72950000Y-123088072D01*
X75050000Y-123088072D01*
X75174482Y-123075812D01*
X75294180Y-123039502D01*
X75404494Y-122980537D01*
X75501185Y-122901185D01*
X75580537Y-122804494D01*
X75613451Y-122742918D01*
X75650339Y-122840579D01*
X75948477Y-122986463D01*
X76269346Y-123071380D01*
X76600617Y-123092066D01*
X76929557Y-123047728D01*
X77243527Y-122940069D01*
X77429661Y-122840579D01*
X77531461Y-122571066D01*
X76540000Y-121579605D01*
X76525858Y-121593748D01*
X76346253Y-121414143D01*
X76360395Y-121400000D01*
X76719605Y-121400000D01*
X77711066Y-122391461D01*
X77980579Y-122289661D01*
X78126463Y-121991523D01*
X78211380Y-121670654D01*
X78232066Y-121339383D01*
X78187728Y-121010443D01*
X78080069Y-120696473D01*
X77980579Y-120510339D01*
X77711066Y-120408539D01*
X76719605Y-121400000D01*
X76360395Y-121400000D01*
X76346253Y-121385858D01*
X76525858Y-121206253D01*
X76540000Y-121220395D01*
X77531461Y-120228934D01*
X77429661Y-119959421D01*
X77131523Y-119813537D01*
X76810654Y-119728620D01*
X76479383Y-119707934D01*
X76150443Y-119752272D01*
X75836473Y-119859931D01*
X75650339Y-119959421D01*
X75613451Y-120057082D01*
X75580537Y-119995506D01*
X75501185Y-119898815D01*
X75404494Y-119819463D01*
X75294180Y-119760498D01*
X75174482Y-119724188D01*
X75050000Y-119711928D01*
X72950000Y-119711928D01*
X72825518Y-119724188D01*
X72705820Y-119760498D01*
X72595506Y-119819463D01*
X72498815Y-119898815D01*
X72419463Y-119995506D01*
X72360498Y-120105820D01*
X72324188Y-120225518D01*
X72311928Y-120350000D01*
X67010956Y-120350000D01*
X67001422Y-118300000D01*
X81861928Y-118300000D01*
X81861928Y-119900000D01*
X81874188Y-120024482D01*
X81910498Y-120144180D01*
X81969463Y-120254494D01*
X82048815Y-120351185D01*
X82145506Y-120430537D01*
X82255820Y-120489502D01*
X82375518Y-120525812D01*
X82500000Y-120538072D01*
X84100000Y-120538072D01*
X84224482Y-120525812D01*
X84344180Y-120489502D01*
X84454494Y-120430537D01*
X84551185Y-120351185D01*
X84630537Y-120254494D01*
X84689502Y-120144180D01*
X84705117Y-120092702D01*
X84986903Y-120092702D01*
X85058486Y-120336671D01*
X85313996Y-120457571D01*
X85588184Y-120526300D01*
X85870512Y-120540217D01*
X86150130Y-120498787D01*
X86416292Y-120403603D01*
X86541514Y-120336671D01*
X86613097Y-120092702D01*
X85800000Y-119279605D01*
X84986903Y-120092702D01*
X84705117Y-120092702D01*
X84725812Y-120024482D01*
X84738072Y-119900000D01*
X84738072Y-119892785D01*
X84807298Y-119913097D01*
X85620395Y-119100000D01*
X85979605Y-119100000D01*
X86792702Y-119913097D01*
X87036671Y-119841514D01*
X87157571Y-119586004D01*
X87226300Y-119311816D01*
X87240217Y-119029488D01*
X87198787Y-118749870D01*
X87103603Y-118483708D01*
X87036671Y-118358486D01*
X86792702Y-118286903D01*
X85979605Y-119100000D01*
X85620395Y-119100000D01*
X84807298Y-118286903D01*
X84738072Y-118307215D01*
X84738072Y-118300000D01*
X84725812Y-118175518D01*
X84705118Y-118107298D01*
X84986903Y-118107298D01*
X85800000Y-118920395D01*
X86613097Y-118107298D01*
X86541514Y-117863329D01*
X86286004Y-117742429D01*
X86011816Y-117673700D01*
X85729488Y-117659783D01*
X85449870Y-117701213D01*
X85183708Y-117796397D01*
X85058486Y-117863329D01*
X84986903Y-118107298D01*
X84705118Y-118107298D01*
X84689502Y-118055820D01*
X84630537Y-117945506D01*
X84551185Y-117848815D01*
X84454494Y-117769463D01*
X84344180Y-117710498D01*
X84224482Y-117674188D01*
X84100000Y-117661928D01*
X82500000Y-117661928D01*
X82375518Y-117674188D01*
X82255820Y-117710498D01*
X82145506Y-117769463D01*
X82048815Y-117848815D01*
X81969463Y-117945506D01*
X81910498Y-118055820D01*
X81874188Y-118175518D01*
X81861928Y-118300000D01*
X67001422Y-118300000D01*
X66988671Y-115558665D01*
X70565000Y-115558665D01*
X70565000Y-115841335D01*
X70620147Y-116118574D01*
X70728320Y-116379727D01*
X70885363Y-116614759D01*
X71085241Y-116814637D01*
X71320273Y-116971680D01*
X71581426Y-117079853D01*
X71858665Y-117135000D01*
X72141335Y-117135000D01*
X72418574Y-117079853D01*
X72679727Y-116971680D01*
X72914759Y-116814637D01*
X73114637Y-116614759D01*
X73196192Y-116492702D01*
X102886903Y-116492702D01*
X102958486Y-116736671D01*
X103213996Y-116857571D01*
X103488184Y-116926300D01*
X103770512Y-116940217D01*
X104050130Y-116898787D01*
X104316292Y-116803603D01*
X104441514Y-116736671D01*
X104513097Y-116492702D01*
X103700000Y-115679605D01*
X102886903Y-116492702D01*
X73196192Y-116492702D01*
X73271680Y-116379727D01*
X73379853Y-116118574D01*
X73435000Y-115841335D01*
X73435000Y-115570512D01*
X102259783Y-115570512D01*
X102301213Y-115850130D01*
X102396397Y-116116292D01*
X102463329Y-116241514D01*
X102707298Y-116313097D01*
X103520395Y-115500000D01*
X103879605Y-115500000D01*
X104692702Y-116313097D01*
X104761928Y-116292785D01*
X104761928Y-116300000D01*
X104774188Y-116424482D01*
X104810498Y-116544180D01*
X104869463Y-116654494D01*
X104948815Y-116751185D01*
X105045506Y-116830537D01*
X105155820Y-116889502D01*
X105275518Y-116925812D01*
X105400000Y-116938072D01*
X107000000Y-116938072D01*
X107124482Y-116925812D01*
X107244180Y-116889502D01*
X107354494Y-116830537D01*
X107451185Y-116751185D01*
X107530537Y-116654494D01*
X107589502Y-116544180D01*
X107625812Y-116424482D01*
X107638072Y-116300000D01*
X107638072Y-114700000D01*
X107625812Y-114575518D01*
X107589502Y-114455820D01*
X107530537Y-114345506D01*
X107451185Y-114248815D01*
X107354494Y-114169463D01*
X107244180Y-114110498D01*
X107124482Y-114074188D01*
X107000000Y-114061928D01*
X105400000Y-114061928D01*
X105275518Y-114074188D01*
X105155820Y-114110498D01*
X105045506Y-114169463D01*
X104948815Y-114248815D01*
X104869463Y-114345506D01*
X104810498Y-114455820D01*
X104774188Y-114575518D01*
X104761928Y-114700000D01*
X104761928Y-114707215D01*
X104692702Y-114686903D01*
X103879605Y-115500000D01*
X103520395Y-115500000D01*
X102707298Y-114686903D01*
X102463329Y-114758486D01*
X102342429Y-115013996D01*
X102273700Y-115288184D01*
X102259783Y-115570512D01*
X73435000Y-115570512D01*
X73435000Y-115558665D01*
X73379853Y-115281426D01*
X73271680Y-115020273D01*
X73114637Y-114785241D01*
X72914759Y-114585363D01*
X72679727Y-114428320D01*
X72418574Y-114320147D01*
X72141335Y-114265000D01*
X71858665Y-114265000D01*
X71581426Y-114320147D01*
X71320273Y-114428320D01*
X71085241Y-114585363D01*
X70885363Y-114785241D01*
X70728320Y-115020273D01*
X70620147Y-115281426D01*
X70565000Y-115558665D01*
X66988671Y-115558665D01*
X66981230Y-113958665D01*
X80565000Y-113958665D01*
X80565000Y-114241335D01*
X80620147Y-114518574D01*
X80728320Y-114779727D01*
X80885363Y-115014759D01*
X81085241Y-115214637D01*
X81320273Y-115371680D01*
X81581426Y-115479853D01*
X81858665Y-115535000D01*
X82141335Y-115535000D01*
X82418574Y-115479853D01*
X82679727Y-115371680D01*
X82914759Y-115214637D01*
X83036694Y-115092702D01*
X86186903Y-115092702D01*
X86258486Y-115336671D01*
X86513996Y-115457571D01*
X86788184Y-115526300D01*
X87070512Y-115540217D01*
X87350130Y-115498787D01*
X87616292Y-115403603D01*
X87741514Y-115336671D01*
X87813097Y-115092702D01*
X87000000Y-114279605D01*
X86186903Y-115092702D01*
X83036694Y-115092702D01*
X83114637Y-115014759D01*
X83271680Y-114779727D01*
X83379853Y-114518574D01*
X83435000Y-114241335D01*
X83435000Y-114170512D01*
X85559783Y-114170512D01*
X85601213Y-114450130D01*
X85696397Y-114716292D01*
X85763329Y-114841514D01*
X86007298Y-114913097D01*
X86820395Y-114100000D01*
X87179605Y-114100000D01*
X87992702Y-114913097D01*
X88236671Y-114841514D01*
X88357571Y-114586004D01*
X88377299Y-114507298D01*
X102886903Y-114507298D01*
X103700000Y-115320395D01*
X104513097Y-114507298D01*
X104441514Y-114263329D01*
X104186004Y-114142429D01*
X103911816Y-114073700D01*
X103629488Y-114059783D01*
X103349870Y-114101213D01*
X103083708Y-114196397D01*
X102958486Y-114263329D01*
X102886903Y-114507298D01*
X88377299Y-114507298D01*
X88426300Y-114311816D01*
X88440217Y-114029488D01*
X88398787Y-113749870D01*
X88303603Y-113483708D01*
X88236671Y-113358486D01*
X88012467Y-113292702D01*
X91586903Y-113292702D01*
X91658486Y-113536671D01*
X91913996Y-113657571D01*
X92188184Y-113726300D01*
X92470512Y-113740217D01*
X92750130Y-113698787D01*
X93016292Y-113603603D01*
X93141514Y-113536671D01*
X93213097Y-113292702D01*
X92400000Y-112479605D01*
X91586903Y-113292702D01*
X88012467Y-113292702D01*
X87992702Y-113286903D01*
X87179605Y-114100000D01*
X86820395Y-114100000D01*
X86007298Y-113286903D01*
X85763329Y-113358486D01*
X85642429Y-113613996D01*
X85573700Y-113888184D01*
X85559783Y-114170512D01*
X83435000Y-114170512D01*
X83435000Y-113958665D01*
X83379853Y-113681426D01*
X83271680Y-113420273D01*
X83114637Y-113185241D01*
X83036694Y-113107298D01*
X86186903Y-113107298D01*
X87000000Y-113920395D01*
X87813097Y-113107298D01*
X87741514Y-112863329D01*
X87486004Y-112742429D01*
X87211816Y-112673700D01*
X86929488Y-112659783D01*
X86649870Y-112701213D01*
X86383708Y-112796397D01*
X86258486Y-112863329D01*
X86186903Y-113107298D01*
X83036694Y-113107298D01*
X82914759Y-112985363D01*
X82679727Y-112828320D01*
X82418574Y-112720147D01*
X82141335Y-112665000D01*
X81858665Y-112665000D01*
X81581426Y-112720147D01*
X81320273Y-112828320D01*
X81085241Y-112985363D01*
X80885363Y-113185241D01*
X80728320Y-113420273D01*
X80620147Y-113681426D01*
X80565000Y-113958665D01*
X66981230Y-113958665D01*
X66975575Y-112742702D01*
X76436903Y-112742702D01*
X76508486Y-112986671D01*
X76763996Y-113107571D01*
X77038184Y-113176300D01*
X77320512Y-113190217D01*
X77600130Y-113148787D01*
X77866292Y-113053603D01*
X77991514Y-112986671D01*
X78063097Y-112742702D01*
X77250000Y-111929605D01*
X76436903Y-112742702D01*
X66975575Y-112742702D01*
X66971285Y-111820512D01*
X75809783Y-111820512D01*
X75851213Y-112100130D01*
X75946397Y-112366292D01*
X76013329Y-112491514D01*
X76257298Y-112563097D01*
X77070395Y-111750000D01*
X77429605Y-111750000D01*
X78242702Y-112563097D01*
X78486671Y-112491514D01*
X78543925Y-112370512D01*
X90959783Y-112370512D01*
X91001213Y-112650130D01*
X91096397Y-112916292D01*
X91163329Y-113041514D01*
X91407298Y-113113097D01*
X92220395Y-112300000D01*
X92579605Y-112300000D01*
X93392702Y-113113097D01*
X93636671Y-113041514D01*
X93757571Y-112786004D01*
X93826300Y-112511816D01*
X93840217Y-112229488D01*
X93798787Y-111949870D01*
X93742582Y-111792702D01*
X97086903Y-111792702D01*
X97158486Y-112036671D01*
X97413996Y-112157571D01*
X97688184Y-112226300D01*
X97970512Y-112240217D01*
X98250130Y-112198787D01*
X98516292Y-112103603D01*
X98641514Y-112036671D01*
X98713097Y-111792702D01*
X97900000Y-110979605D01*
X97086903Y-111792702D01*
X93742582Y-111792702D01*
X93703603Y-111683708D01*
X93636671Y-111558486D01*
X93392702Y-111486903D01*
X92579605Y-112300000D01*
X92220395Y-112300000D01*
X91407298Y-111486903D01*
X91163329Y-111558486D01*
X91042429Y-111813996D01*
X90973700Y-112088184D01*
X90959783Y-112370512D01*
X78543925Y-112370512D01*
X78607571Y-112236004D01*
X78676300Y-111961816D01*
X78690217Y-111679488D01*
X78648787Y-111399870D01*
X78615682Y-111307298D01*
X91586903Y-111307298D01*
X92400000Y-112120395D01*
X93213097Y-111307298D01*
X93141514Y-111063329D01*
X92886004Y-110942429D01*
X92611816Y-110873700D01*
X92547143Y-110870512D01*
X96459783Y-110870512D01*
X96501213Y-111150130D01*
X96596397Y-111416292D01*
X96663329Y-111541514D01*
X96907298Y-111613097D01*
X97720395Y-110800000D01*
X98079605Y-110800000D01*
X98892702Y-111613097D01*
X99136671Y-111541514D01*
X99257571Y-111286004D01*
X99326300Y-111011816D01*
X99340217Y-110729488D01*
X99298787Y-110449870D01*
X99203603Y-110183708D01*
X99136671Y-110058486D01*
X98892702Y-109986903D01*
X98079605Y-110800000D01*
X97720395Y-110800000D01*
X96907298Y-109986903D01*
X96663329Y-110058486D01*
X96542429Y-110313996D01*
X96473700Y-110588184D01*
X96459783Y-110870512D01*
X92547143Y-110870512D01*
X92329488Y-110859783D01*
X92049870Y-110901213D01*
X91783708Y-110996397D01*
X91658486Y-111063329D01*
X91586903Y-111307298D01*
X78615682Y-111307298D01*
X78553603Y-111133708D01*
X78486671Y-111008486D01*
X78242702Y-110936903D01*
X77429605Y-111750000D01*
X77070395Y-111750000D01*
X76257298Y-110936903D01*
X76013329Y-111008486D01*
X75892429Y-111263996D01*
X75823700Y-111538184D01*
X75809783Y-111820512D01*
X66971285Y-111820512D01*
X66966340Y-110757298D01*
X76436903Y-110757298D01*
X77250000Y-111570395D01*
X78063097Y-110757298D01*
X77991514Y-110513329D01*
X77736004Y-110392429D01*
X77461816Y-110323700D01*
X77179488Y-110309783D01*
X76899870Y-110351213D01*
X76633708Y-110446397D01*
X76508486Y-110513329D01*
X76436903Y-110757298D01*
X66966340Y-110757298D01*
X66942072Y-105540000D01*
X70558057Y-105540000D01*
X70585764Y-105821309D01*
X70667818Y-106091808D01*
X70801068Y-106341101D01*
X70980392Y-106559608D01*
X71198899Y-106738932D01*
X71448192Y-106872182D01*
X71718691Y-106954236D01*
X71929508Y-106975000D01*
X72070492Y-106975000D01*
X72281309Y-106954236D01*
X72551808Y-106872182D01*
X72801101Y-106738932D01*
X72959831Y-106608665D01*
X75815000Y-106608665D01*
X75815000Y-106891335D01*
X75870147Y-107168574D01*
X75978320Y-107429727D01*
X76135363Y-107664759D01*
X76335241Y-107864637D01*
X76570273Y-108021680D01*
X76831426Y-108129853D01*
X77108665Y-108185000D01*
X77391335Y-108185000D01*
X77668574Y-108129853D01*
X77929727Y-108021680D01*
X78164759Y-107864637D01*
X78364637Y-107664759D01*
X78521680Y-107429727D01*
X78629853Y-107168574D01*
X78631824Y-107158665D01*
X90965000Y-107158665D01*
X90965000Y-107441335D01*
X91020147Y-107718574D01*
X91128320Y-107979727D01*
X91285363Y-108214759D01*
X91485241Y-108414637D01*
X91720273Y-108571680D01*
X91981426Y-108679853D01*
X92258665Y-108735000D01*
X92541335Y-108735000D01*
X92818574Y-108679853D01*
X93079727Y-108571680D01*
X93314759Y-108414637D01*
X93514637Y-108214759D01*
X93671680Y-107979727D01*
X93779853Y-107718574D01*
X93823330Y-107500000D01*
X96461928Y-107500000D01*
X96461928Y-109100000D01*
X96474188Y-109224482D01*
X96510498Y-109344180D01*
X96569463Y-109454494D01*
X96648815Y-109551185D01*
X96745506Y-109630537D01*
X96855820Y-109689502D01*
X96975518Y-109725812D01*
X97100000Y-109738072D01*
X97107215Y-109738072D01*
X97086903Y-109807298D01*
X97900000Y-110620395D01*
X98713097Y-109807298D01*
X98692785Y-109738072D01*
X98700000Y-109738072D01*
X98824482Y-109725812D01*
X98944180Y-109689502D01*
X99054494Y-109630537D01*
X99151185Y-109551185D01*
X99230537Y-109454494D01*
X99263566Y-109392702D01*
X107486903Y-109392702D01*
X107558486Y-109636671D01*
X107813996Y-109757571D01*
X108088184Y-109826300D01*
X108370512Y-109840217D01*
X108650130Y-109798787D01*
X108916292Y-109703603D01*
X109041514Y-109636671D01*
X109113097Y-109392702D01*
X108300000Y-108579605D01*
X107486903Y-109392702D01*
X99263566Y-109392702D01*
X99289502Y-109344180D01*
X99325812Y-109224482D01*
X99338072Y-109100000D01*
X99338072Y-108470512D01*
X106859783Y-108470512D01*
X106901213Y-108750130D01*
X106996397Y-109016292D01*
X107063329Y-109141514D01*
X107307298Y-109213097D01*
X108120395Y-108400000D01*
X108479605Y-108400000D01*
X109292702Y-109213097D01*
X109361928Y-109192785D01*
X109361928Y-109200000D01*
X109374188Y-109324482D01*
X109410498Y-109444180D01*
X109469463Y-109554494D01*
X109548815Y-109651185D01*
X109645506Y-109730537D01*
X109755820Y-109789502D01*
X109875518Y-109825812D01*
X110000000Y-109838072D01*
X111600000Y-109838072D01*
X111724482Y-109825812D01*
X111844180Y-109789502D01*
X111954494Y-109730537D01*
X112051185Y-109651185D01*
X112130537Y-109554494D01*
X112189502Y-109444180D01*
X112225812Y-109324482D01*
X112238072Y-109200000D01*
X112238072Y-107600000D01*
X112225812Y-107475518D01*
X112189502Y-107355820D01*
X112130537Y-107245506D01*
X112051185Y-107148815D01*
X111954494Y-107069463D01*
X111844180Y-107010498D01*
X111724482Y-106974188D01*
X111600000Y-106961928D01*
X110000000Y-106961928D01*
X109875518Y-106974188D01*
X109755820Y-107010498D01*
X109645506Y-107069463D01*
X109548815Y-107148815D01*
X109469463Y-107245506D01*
X109410498Y-107355820D01*
X109374188Y-107475518D01*
X109361928Y-107600000D01*
X109361928Y-107607215D01*
X109292702Y-107586903D01*
X108479605Y-108400000D01*
X108120395Y-108400000D01*
X107307298Y-107586903D01*
X107063329Y-107658486D01*
X106942429Y-107913996D01*
X106873700Y-108188184D01*
X106859783Y-108470512D01*
X99338072Y-108470512D01*
X99338072Y-107500000D01*
X99328942Y-107407298D01*
X107486903Y-107407298D01*
X108300000Y-108220395D01*
X109113097Y-107407298D01*
X109041514Y-107163329D01*
X108786004Y-107042429D01*
X108511816Y-106973700D01*
X108229488Y-106959783D01*
X107949870Y-107001213D01*
X107683708Y-107096397D01*
X107558486Y-107163329D01*
X107486903Y-107407298D01*
X99328942Y-107407298D01*
X99325812Y-107375518D01*
X99289502Y-107255820D01*
X99230537Y-107145506D01*
X99151185Y-107048815D01*
X99054494Y-106969463D01*
X98944180Y-106910498D01*
X98824482Y-106874188D01*
X98700000Y-106861928D01*
X97100000Y-106861928D01*
X96975518Y-106874188D01*
X96855820Y-106910498D01*
X96745506Y-106969463D01*
X96648815Y-107048815D01*
X96569463Y-107145506D01*
X96510498Y-107255820D01*
X96474188Y-107375518D01*
X96461928Y-107500000D01*
X93823330Y-107500000D01*
X93835000Y-107441335D01*
X93835000Y-107158665D01*
X93779853Y-106881426D01*
X93671680Y-106620273D01*
X93514637Y-106385241D01*
X93314759Y-106185363D01*
X93079727Y-106028320D01*
X92818574Y-105920147D01*
X92541335Y-105865000D01*
X92258665Y-105865000D01*
X91981426Y-105920147D01*
X91720273Y-106028320D01*
X91485241Y-106185363D01*
X91285363Y-106385241D01*
X91128320Y-106620273D01*
X91020147Y-106881426D01*
X90965000Y-107158665D01*
X78631824Y-107158665D01*
X78685000Y-106891335D01*
X78685000Y-106608665D01*
X78629853Y-106331426D01*
X78521680Y-106070273D01*
X78364637Y-105835241D01*
X78164759Y-105635363D01*
X77929727Y-105478320D01*
X77668574Y-105370147D01*
X77391335Y-105315000D01*
X77108665Y-105315000D01*
X76831426Y-105370147D01*
X76570273Y-105478320D01*
X76335241Y-105635363D01*
X76135363Y-105835241D01*
X75978320Y-106070273D01*
X75870147Y-106331426D01*
X75815000Y-106608665D01*
X72959831Y-106608665D01*
X73019608Y-106559608D01*
X73198932Y-106341101D01*
X73332182Y-106091808D01*
X73414236Y-105821309D01*
X73441943Y-105540000D01*
X73414236Y-105258691D01*
X73332182Y-104988192D01*
X73198932Y-104738899D01*
X73019608Y-104520392D01*
X72801101Y-104341068D01*
X72551808Y-104207818D01*
X72281309Y-104125764D01*
X72070492Y-104105000D01*
X71929508Y-104105000D01*
X71718691Y-104125764D01*
X71448192Y-104207818D01*
X71198899Y-104341068D01*
X70980392Y-104520392D01*
X70801068Y-104738899D01*
X70667818Y-104988192D01*
X70585764Y-105258691D01*
X70558057Y-105540000D01*
X66942072Y-105540000D01*
X66929601Y-102858665D01*
X78905000Y-102858665D01*
X78905000Y-103141335D01*
X78960147Y-103418574D01*
X79068320Y-103679727D01*
X79225363Y-103914759D01*
X79425241Y-104114637D01*
X79660273Y-104271680D01*
X79921426Y-104379853D01*
X80198665Y-104435000D01*
X80481335Y-104435000D01*
X80758574Y-104379853D01*
X81019727Y-104271680D01*
X81254759Y-104114637D01*
X81454637Y-103914759D01*
X81611680Y-103679727D01*
X81719853Y-103418574D01*
X81775000Y-103141335D01*
X81775000Y-103000000D01*
X89058057Y-103000000D01*
X89085764Y-103281309D01*
X89167818Y-103551808D01*
X89301068Y-103801101D01*
X89480392Y-104019608D01*
X89698899Y-104198932D01*
X89948192Y-104332182D01*
X90218691Y-104414236D01*
X90429508Y-104435000D01*
X90570492Y-104435000D01*
X90781309Y-104414236D01*
X91051808Y-104332182D01*
X91301101Y-104198932D01*
X91519608Y-104019608D01*
X91698932Y-103801101D01*
X91832182Y-103551808D01*
X91914236Y-103281309D01*
X91941943Y-103000000D01*
X91914236Y-102718691D01*
X91832182Y-102448192D01*
X91698932Y-102198899D01*
X91519608Y-101980392D01*
X91301101Y-101801068D01*
X91051808Y-101667818D01*
X90781309Y-101585764D01*
X90570492Y-101565000D01*
X90429508Y-101565000D01*
X90218691Y-101585764D01*
X89948192Y-101667818D01*
X89698899Y-101801068D01*
X89480392Y-101980392D01*
X89301068Y-102198899D01*
X89167818Y-102448192D01*
X89085764Y-102718691D01*
X89058057Y-103000000D01*
X81775000Y-103000000D01*
X81775000Y-102858665D01*
X81719853Y-102581426D01*
X81611680Y-102320273D01*
X81454637Y-102085241D01*
X81254759Y-101885363D01*
X81019727Y-101728320D01*
X80758574Y-101620147D01*
X80481335Y-101565000D01*
X80198665Y-101565000D01*
X79921426Y-101620147D01*
X79660273Y-101728320D01*
X79425241Y-101885363D01*
X79225363Y-102085241D01*
X79068320Y-102320273D01*
X78960147Y-102581426D01*
X78905000Y-102858665D01*
X66929601Y-102858665D01*
X66927331Y-102370798D01*
X73290438Y-98458665D01*
X81665000Y-98458665D01*
X81665000Y-98741335D01*
X81720147Y-99018574D01*
X81828320Y-99279727D01*
X81985363Y-99514759D01*
X82185241Y-99714637D01*
X82420273Y-99871680D01*
X82681426Y-99979853D01*
X82958665Y-100035000D01*
X83241335Y-100035000D01*
X83518574Y-99979853D01*
X83779727Y-99871680D01*
X84014759Y-99714637D01*
X84214637Y-99514759D01*
X84371680Y-99279727D01*
X84479853Y-99018574D01*
X84535000Y-98741335D01*
X84535000Y-98458665D01*
X86665000Y-98458665D01*
X86665000Y-98741335D01*
X86720147Y-99018574D01*
X86828320Y-99279727D01*
X86985363Y-99514759D01*
X87185241Y-99714637D01*
X87420273Y-99871680D01*
X87681426Y-99979853D01*
X87958665Y-100035000D01*
X88241335Y-100035000D01*
X88518574Y-99979853D01*
X88779727Y-99871680D01*
X89014759Y-99714637D01*
X89214637Y-99514759D01*
X89371680Y-99279727D01*
X89479853Y-99018574D01*
X89535000Y-98741335D01*
X89535000Y-98458665D01*
X89479853Y-98181426D01*
X89371680Y-97920273D01*
X89214637Y-97685241D01*
X89014759Y-97485363D01*
X88779727Y-97328320D01*
X88518574Y-97220147D01*
X88241335Y-97165000D01*
X87958665Y-97165000D01*
X87681426Y-97220147D01*
X87420273Y-97328320D01*
X87185241Y-97485363D01*
X86985363Y-97685241D01*
X86828320Y-97920273D01*
X86720147Y-98181426D01*
X86665000Y-98458665D01*
X84535000Y-98458665D01*
X84479853Y-98181426D01*
X84371680Y-97920273D01*
X84214637Y-97685241D01*
X84014759Y-97485363D01*
X83779727Y-97328320D01*
X83518574Y-97220147D01*
X83241335Y-97165000D01*
X82958665Y-97165000D01*
X82681426Y-97220147D01*
X82420273Y-97328320D01*
X82185241Y-97485363D01*
X81985363Y-97685241D01*
X81828320Y-97920273D01*
X81720147Y-98181426D01*
X81665000Y-98458665D01*
X73290438Y-98458665D01*
X78590676Y-95200000D01*
X115061928Y-95200000D01*
X115061928Y-96800000D01*
X115074188Y-96924482D01*
X115110498Y-97044180D01*
X115169463Y-97154494D01*
X115248815Y-97251185D01*
X115345506Y-97330537D01*
X115455820Y-97389502D01*
X115575518Y-97425812D01*
X115700000Y-97438072D01*
X117300000Y-97438072D01*
X117424482Y-97425812D01*
X117544180Y-97389502D01*
X117654494Y-97330537D01*
X117751185Y-97251185D01*
X117830537Y-97154494D01*
X117889502Y-97044180D01*
X117905117Y-96992702D01*
X118186903Y-96992702D01*
X118258486Y-97236671D01*
X118513996Y-97357571D01*
X118788184Y-97426300D01*
X119070512Y-97440217D01*
X119350130Y-97398787D01*
X119616292Y-97303603D01*
X119741514Y-97236671D01*
X119813097Y-96992702D01*
X119000000Y-96179605D01*
X118186903Y-96992702D01*
X117905117Y-96992702D01*
X117925812Y-96924482D01*
X117938072Y-96800000D01*
X117938072Y-96792785D01*
X118007298Y-96813097D01*
X118820395Y-96000000D01*
X119179605Y-96000000D01*
X119992702Y-96813097D01*
X120236671Y-96741514D01*
X120357571Y-96486004D01*
X120426300Y-96211816D01*
X120440217Y-95929488D01*
X120398787Y-95649870D01*
X120303603Y-95383708D01*
X120236671Y-95258486D01*
X119992702Y-95186903D01*
X119179605Y-96000000D01*
X118820395Y-96000000D01*
X118007298Y-95186903D01*
X117938072Y-95207215D01*
X117938072Y-95200000D01*
X117925812Y-95075518D01*
X117905118Y-95007298D01*
X118186903Y-95007298D01*
X119000000Y-95820395D01*
X119813097Y-95007298D01*
X119741514Y-94763329D01*
X119486004Y-94642429D01*
X119211816Y-94573700D01*
X118929488Y-94559783D01*
X118649870Y-94601213D01*
X118383708Y-94696397D01*
X118258486Y-94763329D01*
X118186903Y-95007298D01*
X117905118Y-95007298D01*
X117889502Y-94955820D01*
X117830537Y-94845506D01*
X117751185Y-94748815D01*
X117654494Y-94669463D01*
X117544180Y-94610498D01*
X117424482Y-94574188D01*
X117300000Y-94561928D01*
X115700000Y-94561928D01*
X115575518Y-94574188D01*
X115455820Y-94610498D01*
X115345506Y-94669463D01*
X115248815Y-94748815D01*
X115169463Y-94845506D01*
X115110498Y-94955820D01*
X115074188Y-95075518D01*
X115061928Y-95200000D01*
X78590676Y-95200000D01*
X80335918Y-94127000D01*
X123173000Y-94127000D01*
X123173000Y-98673000D01*
M02*
