G04 #@! TF.GenerationSoftware,KiCad,Pcbnew,(5.1.2)-1*
G04 #@! TF.CreationDate,2019-12-18T16:16:50-05:00*
G04 #@! TF.ProjectId,adcBoard,61646342-6f61-4726-942e-6b696361645f,rev?*
G04 #@! TF.SameCoordinates,Original*
G04 #@! TF.FileFunction,Soldermask,Bot*
G04 #@! TF.FilePolarity,Negative*
%FSLAX46Y46*%
G04 Gerber Fmt 4.6, Leading zero omitted, Abs format (unit mm)*
G04 Created by KiCad (PCBNEW (5.1.2)-1) date 2019-12-18 16:16:50*
%MOMM*%
%LPD*%
G04 APERTURE LIST*
%ADD10C,0.100000*%
G04 APERTURE END LIST*
D10*
G36*
X76754795Y-120320156D02*
G01*
X76861150Y-120341311D01*
X76950883Y-120378480D01*
X77061520Y-120424307D01*
X77241844Y-120544795D01*
X77395205Y-120698156D01*
X77515693Y-120878480D01*
X77598689Y-121078851D01*
X77641000Y-121291560D01*
X77641000Y-121508440D01*
X77598689Y-121721149D01*
X77515693Y-121921520D01*
X77395205Y-122101844D01*
X77241844Y-122255205D01*
X77061520Y-122375693D01*
X76861150Y-122458689D01*
X76754794Y-122479845D01*
X76648440Y-122501000D01*
X76431560Y-122501000D01*
X76325206Y-122479845D01*
X76218850Y-122458689D01*
X76018480Y-122375693D01*
X75838156Y-122255205D01*
X75684795Y-122101844D01*
X75564307Y-121921520D01*
X75481311Y-121721149D01*
X75439000Y-121508440D01*
X75439000Y-121291560D01*
X75481311Y-121078851D01*
X75564307Y-120878480D01*
X75684795Y-120698156D01*
X75838156Y-120544795D01*
X76018480Y-120424307D01*
X76129117Y-120378480D01*
X76218850Y-120341311D01*
X76325205Y-120320156D01*
X76431560Y-120299000D01*
X76648440Y-120299000D01*
X76754795Y-120320156D01*
X76754795Y-120320156D01*
G37*
G36*
X75101000Y-122501000D02*
G01*
X72899000Y-122501000D01*
X72899000Y-120299000D01*
X75101000Y-120299000D01*
X75101000Y-122501000D01*
X75101000Y-122501000D01*
G37*
G36*
X119394794Y-119820155D02*
G01*
X119501150Y-119841311D01*
X119701520Y-119924307D01*
X119881844Y-120044795D01*
X120035205Y-120198156D01*
X120155693Y-120378480D01*
X120238689Y-120578851D01*
X120281000Y-120791560D01*
X120281000Y-121008440D01*
X120238689Y-121221149D01*
X120155693Y-121421520D01*
X120035205Y-121601844D01*
X119881844Y-121755205D01*
X119701520Y-121875693D01*
X119601334Y-121917191D01*
X119501150Y-121958689D01*
X119394795Y-121979844D01*
X119288440Y-122001000D01*
X119071560Y-122001000D01*
X118965205Y-121979844D01*
X118858850Y-121958689D01*
X118758666Y-121917191D01*
X118658480Y-121875693D01*
X118478156Y-121755205D01*
X118324795Y-121601844D01*
X118204307Y-121421520D01*
X118121311Y-121221149D01*
X118079000Y-121008440D01*
X118079000Y-120791560D01*
X118121311Y-120578851D01*
X118204307Y-120378480D01*
X118324795Y-120198156D01*
X118478156Y-120044795D01*
X118658480Y-119924307D01*
X118858850Y-119841311D01*
X118965206Y-119820155D01*
X119071560Y-119799000D01*
X119288440Y-119799000D01*
X119394794Y-119820155D01*
X119394794Y-119820155D01*
G37*
G36*
X116854794Y-119820155D02*
G01*
X116961150Y-119841311D01*
X117161520Y-119924307D01*
X117341844Y-120044795D01*
X117495205Y-120198156D01*
X117615693Y-120378480D01*
X117698689Y-120578851D01*
X117741000Y-120791560D01*
X117741000Y-121008440D01*
X117698689Y-121221149D01*
X117615693Y-121421520D01*
X117495205Y-121601844D01*
X117341844Y-121755205D01*
X117161520Y-121875693D01*
X117061334Y-121917191D01*
X116961150Y-121958689D01*
X116854795Y-121979844D01*
X116748440Y-122001000D01*
X116531560Y-122001000D01*
X116425205Y-121979844D01*
X116318850Y-121958689D01*
X116218666Y-121917191D01*
X116118480Y-121875693D01*
X115938156Y-121755205D01*
X115784795Y-121601844D01*
X115664307Y-121421520D01*
X115581311Y-121221149D01*
X115539000Y-121008440D01*
X115539000Y-120791560D01*
X115581311Y-120578851D01*
X115664307Y-120378480D01*
X115784795Y-120198156D01*
X115938156Y-120044795D01*
X116118480Y-119924307D01*
X116318850Y-119841311D01*
X116425206Y-119820155D01*
X116531560Y-119799000D01*
X116748440Y-119799000D01*
X116854794Y-119820155D01*
X116854794Y-119820155D01*
G37*
G36*
X114314794Y-119820155D02*
G01*
X114421150Y-119841311D01*
X114621520Y-119924307D01*
X114801844Y-120044795D01*
X114955205Y-120198156D01*
X115075693Y-120378480D01*
X115158689Y-120578851D01*
X115201000Y-120791560D01*
X115201000Y-121008440D01*
X115158689Y-121221149D01*
X115075693Y-121421520D01*
X114955205Y-121601844D01*
X114801844Y-121755205D01*
X114621520Y-121875693D01*
X114521334Y-121917191D01*
X114421150Y-121958689D01*
X114314795Y-121979844D01*
X114208440Y-122001000D01*
X113991560Y-122001000D01*
X113885205Y-121979844D01*
X113778850Y-121958689D01*
X113678666Y-121917191D01*
X113578480Y-121875693D01*
X113398156Y-121755205D01*
X113244795Y-121601844D01*
X113124307Y-121421520D01*
X113041311Y-121221149D01*
X112999000Y-121008440D01*
X112999000Y-120791560D01*
X113041311Y-120578851D01*
X113124307Y-120378480D01*
X113244795Y-120198156D01*
X113398156Y-120044795D01*
X113578480Y-119924307D01*
X113778850Y-119841311D01*
X113885206Y-119820155D01*
X113991560Y-119799000D01*
X114208440Y-119799000D01*
X114314794Y-119820155D01*
X114314794Y-119820155D01*
G37*
G36*
X124474794Y-119820155D02*
G01*
X124581150Y-119841311D01*
X124781520Y-119924307D01*
X124961844Y-120044795D01*
X125115205Y-120198156D01*
X125235693Y-120378480D01*
X125318689Y-120578851D01*
X125361000Y-120791560D01*
X125361000Y-121008440D01*
X125318689Y-121221149D01*
X125235693Y-121421520D01*
X125115205Y-121601844D01*
X124961844Y-121755205D01*
X124781520Y-121875693D01*
X124681334Y-121917191D01*
X124581150Y-121958689D01*
X124474795Y-121979844D01*
X124368440Y-122001000D01*
X124151560Y-122001000D01*
X124045205Y-121979844D01*
X123938850Y-121958689D01*
X123838666Y-121917191D01*
X123738480Y-121875693D01*
X123558156Y-121755205D01*
X123404795Y-121601844D01*
X123284307Y-121421520D01*
X123201311Y-121221149D01*
X123159000Y-121008440D01*
X123159000Y-120791560D01*
X123201311Y-120578851D01*
X123284307Y-120378480D01*
X123404795Y-120198156D01*
X123558156Y-120044795D01*
X123738480Y-119924307D01*
X123938850Y-119841311D01*
X124045206Y-119820155D01*
X124151560Y-119799000D01*
X124368440Y-119799000D01*
X124474794Y-119820155D01*
X124474794Y-119820155D01*
G37*
G36*
X127901000Y-122001000D02*
G01*
X125699000Y-122001000D01*
X125699000Y-119799000D01*
X127901000Y-119799000D01*
X127901000Y-122001000D01*
X127901000Y-122001000D01*
G37*
G36*
X121934794Y-119820155D02*
G01*
X122041150Y-119841311D01*
X122241520Y-119924307D01*
X122421844Y-120044795D01*
X122575205Y-120198156D01*
X122695693Y-120378480D01*
X122778689Y-120578851D01*
X122821000Y-120791560D01*
X122821000Y-121008440D01*
X122778689Y-121221149D01*
X122695693Y-121421520D01*
X122575205Y-121601844D01*
X122421844Y-121755205D01*
X122241520Y-121875693D01*
X122141334Y-121917191D01*
X122041150Y-121958689D01*
X121934795Y-121979844D01*
X121828440Y-122001000D01*
X121611560Y-122001000D01*
X121505205Y-121979844D01*
X121398850Y-121958689D01*
X121298666Y-121917191D01*
X121198480Y-121875693D01*
X121018156Y-121755205D01*
X120864795Y-121601844D01*
X120744307Y-121421520D01*
X120661311Y-121221149D01*
X120619000Y-121008440D01*
X120619000Y-120791560D01*
X120661311Y-120578851D01*
X120744307Y-120378480D01*
X120864795Y-120198156D01*
X121018156Y-120044795D01*
X121198480Y-119924307D01*
X121398850Y-119841311D01*
X121505206Y-119820155D01*
X121611560Y-119799000D01*
X121828440Y-119799000D01*
X121934794Y-119820155D01*
X121934794Y-119820155D01*
G37*
G36*
X84151000Y-119951000D02*
G01*
X82449000Y-119951000D01*
X82449000Y-118249000D01*
X84151000Y-118249000D01*
X84151000Y-119951000D01*
X84151000Y-119951000D01*
G37*
G36*
X86048228Y-118281703D02*
G01*
X86203100Y-118345853D01*
X86342481Y-118438985D01*
X86461015Y-118557519D01*
X86554147Y-118696900D01*
X86618297Y-118851772D01*
X86651000Y-119016184D01*
X86651000Y-119183816D01*
X86618297Y-119348228D01*
X86554147Y-119503100D01*
X86461015Y-119642481D01*
X86342481Y-119761015D01*
X86203100Y-119854147D01*
X86048228Y-119918297D01*
X85883816Y-119951000D01*
X85716184Y-119951000D01*
X85551772Y-119918297D01*
X85396900Y-119854147D01*
X85257519Y-119761015D01*
X85138985Y-119642481D01*
X85045853Y-119503100D01*
X84981703Y-119348228D01*
X84949000Y-119183816D01*
X84949000Y-119016184D01*
X84981703Y-118851772D01*
X85045853Y-118696900D01*
X85138985Y-118557519D01*
X85257519Y-118438985D01*
X85396900Y-118345853D01*
X85551772Y-118281703D01*
X85716184Y-118249000D01*
X85883816Y-118249000D01*
X86048228Y-118281703D01*
X86048228Y-118281703D01*
G37*
G36*
X72248228Y-114881703D02*
G01*
X72403100Y-114945853D01*
X72542481Y-115038985D01*
X72661015Y-115157519D01*
X72754147Y-115296900D01*
X72818297Y-115451772D01*
X72851000Y-115616184D01*
X72851000Y-115783816D01*
X72818297Y-115948228D01*
X72754147Y-116103100D01*
X72661015Y-116242481D01*
X72542481Y-116361015D01*
X72403100Y-116454147D01*
X72248228Y-116518297D01*
X72083816Y-116551000D01*
X71916184Y-116551000D01*
X71751772Y-116518297D01*
X71596900Y-116454147D01*
X71457519Y-116361015D01*
X71338985Y-116242481D01*
X71245853Y-116103100D01*
X71181703Y-115948228D01*
X71149000Y-115783816D01*
X71149000Y-115616184D01*
X71181703Y-115451772D01*
X71245853Y-115296900D01*
X71338985Y-115157519D01*
X71457519Y-115038985D01*
X71596900Y-114945853D01*
X71751772Y-114881703D01*
X71916184Y-114849000D01*
X72083816Y-114849000D01*
X72248228Y-114881703D01*
X72248228Y-114881703D01*
G37*
G36*
X107051000Y-116351000D02*
G01*
X105349000Y-116351000D01*
X105349000Y-114649000D01*
X107051000Y-114649000D01*
X107051000Y-116351000D01*
X107051000Y-116351000D01*
G37*
G36*
X103948228Y-114681703D02*
G01*
X104103100Y-114745853D01*
X104242481Y-114838985D01*
X104361015Y-114957519D01*
X104454147Y-115096900D01*
X104518297Y-115251772D01*
X104551000Y-115416184D01*
X104551000Y-115583816D01*
X104518297Y-115748228D01*
X104454147Y-115903100D01*
X104361015Y-116042481D01*
X104242481Y-116161015D01*
X104103100Y-116254147D01*
X103948228Y-116318297D01*
X103783816Y-116351000D01*
X103616184Y-116351000D01*
X103451772Y-116318297D01*
X103296900Y-116254147D01*
X103157519Y-116161015D01*
X103038985Y-116042481D01*
X102945853Y-115903100D01*
X102881703Y-115748228D01*
X102849000Y-115583816D01*
X102849000Y-115416184D01*
X102881703Y-115251772D01*
X102945853Y-115096900D01*
X103038985Y-114957519D01*
X103157519Y-114838985D01*
X103296900Y-114745853D01*
X103451772Y-114681703D01*
X103616184Y-114649000D01*
X103783816Y-114649000D01*
X103948228Y-114681703D01*
X103948228Y-114681703D01*
G37*
G36*
X134734834Y-114016185D02*
G01*
X134861150Y-114041311D01*
X134961334Y-114082809D01*
X135061520Y-114124307D01*
X135241844Y-114244795D01*
X135395205Y-114398156D01*
X135515693Y-114578480D01*
X135542203Y-114642481D01*
X135585021Y-114745852D01*
X135598689Y-114778851D01*
X135641000Y-114991560D01*
X135641000Y-115208440D01*
X135623404Y-115296900D01*
X135599677Y-115416185D01*
X135598689Y-115421149D01*
X135515693Y-115621520D01*
X135395205Y-115801844D01*
X135241844Y-115955205D01*
X135061520Y-116075693D01*
X134995353Y-116103100D01*
X134861150Y-116158689D01*
X134849456Y-116161015D01*
X134648440Y-116201000D01*
X134431560Y-116201000D01*
X134230544Y-116161015D01*
X134218850Y-116158689D01*
X134084647Y-116103100D01*
X134018480Y-116075693D01*
X133838156Y-115955205D01*
X133684795Y-115801844D01*
X133564307Y-115621520D01*
X133481311Y-115421149D01*
X133480324Y-115416185D01*
X133456596Y-115296900D01*
X133439000Y-115208440D01*
X133439000Y-114991560D01*
X133481311Y-114778851D01*
X133494980Y-114745852D01*
X133537797Y-114642481D01*
X133564307Y-114578480D01*
X133684795Y-114398156D01*
X133838156Y-114244795D01*
X134018480Y-114124307D01*
X134118666Y-114082809D01*
X134218850Y-114041311D01*
X134345166Y-114016185D01*
X134431560Y-113999000D01*
X134648440Y-113999000D01*
X134734834Y-114016185D01*
X134734834Y-114016185D01*
G37*
G36*
X133101000Y-116201000D02*
G01*
X130899000Y-116201000D01*
X130899000Y-113999000D01*
X133101000Y-113999000D01*
X133101000Y-116201000D01*
X133101000Y-116201000D01*
G37*
G36*
X87248228Y-113281703D02*
G01*
X87403100Y-113345853D01*
X87542481Y-113438985D01*
X87661015Y-113557519D01*
X87754147Y-113696900D01*
X87818297Y-113851772D01*
X87851000Y-114016184D01*
X87851000Y-114183816D01*
X87818297Y-114348228D01*
X87754147Y-114503100D01*
X87661015Y-114642481D01*
X87542481Y-114761015D01*
X87403100Y-114854147D01*
X87248228Y-114918297D01*
X87083816Y-114951000D01*
X86916184Y-114951000D01*
X86751772Y-114918297D01*
X86596900Y-114854147D01*
X86457519Y-114761015D01*
X86338985Y-114642481D01*
X86245853Y-114503100D01*
X86181703Y-114348228D01*
X86149000Y-114183816D01*
X86149000Y-114016184D01*
X86181703Y-113851772D01*
X86245853Y-113696900D01*
X86338985Y-113557519D01*
X86457519Y-113438985D01*
X86596900Y-113345853D01*
X86751772Y-113281703D01*
X86916184Y-113249000D01*
X87083816Y-113249000D01*
X87248228Y-113281703D01*
X87248228Y-113281703D01*
G37*
G36*
X82248228Y-113281703D02*
G01*
X82403100Y-113345853D01*
X82542481Y-113438985D01*
X82661015Y-113557519D01*
X82754147Y-113696900D01*
X82818297Y-113851772D01*
X82851000Y-114016184D01*
X82851000Y-114183816D01*
X82818297Y-114348228D01*
X82754147Y-114503100D01*
X82661015Y-114642481D01*
X82542481Y-114761015D01*
X82403100Y-114854147D01*
X82248228Y-114918297D01*
X82083816Y-114951000D01*
X81916184Y-114951000D01*
X81751772Y-114918297D01*
X81596900Y-114854147D01*
X81457519Y-114761015D01*
X81338985Y-114642481D01*
X81245853Y-114503100D01*
X81181703Y-114348228D01*
X81149000Y-114183816D01*
X81149000Y-114016184D01*
X81181703Y-113851772D01*
X81245853Y-113696900D01*
X81338985Y-113557519D01*
X81457519Y-113438985D01*
X81596900Y-113345853D01*
X81751772Y-113281703D01*
X81916184Y-113249000D01*
X82083816Y-113249000D01*
X82248228Y-113281703D01*
X82248228Y-113281703D01*
G37*
G36*
X92648228Y-111481703D02*
G01*
X92803100Y-111545853D01*
X92942481Y-111638985D01*
X93061015Y-111757519D01*
X93154147Y-111896900D01*
X93218297Y-112051772D01*
X93251000Y-112216184D01*
X93251000Y-112383816D01*
X93218297Y-112548228D01*
X93154147Y-112703100D01*
X93061015Y-112842481D01*
X92942481Y-112961015D01*
X92803100Y-113054147D01*
X92648228Y-113118297D01*
X92483816Y-113151000D01*
X92316184Y-113151000D01*
X92151772Y-113118297D01*
X91996900Y-113054147D01*
X91857519Y-112961015D01*
X91738985Y-112842481D01*
X91645853Y-112703100D01*
X91581703Y-112548228D01*
X91549000Y-112383816D01*
X91549000Y-112216184D01*
X91581703Y-112051772D01*
X91645853Y-111896900D01*
X91738985Y-111757519D01*
X91857519Y-111638985D01*
X91996900Y-111545853D01*
X92151772Y-111481703D01*
X92316184Y-111449000D01*
X92483816Y-111449000D01*
X92648228Y-111481703D01*
X92648228Y-111481703D01*
G37*
G36*
X77498228Y-110931703D02*
G01*
X77653100Y-110995853D01*
X77792481Y-111088985D01*
X77911015Y-111207519D01*
X78004147Y-111346900D01*
X78068297Y-111501772D01*
X78101000Y-111666184D01*
X78101000Y-111833816D01*
X78068297Y-111998228D01*
X78004147Y-112153100D01*
X77911015Y-112292481D01*
X77792481Y-112411015D01*
X77653100Y-112504147D01*
X77498228Y-112568297D01*
X77333816Y-112601000D01*
X77166184Y-112601000D01*
X77001772Y-112568297D01*
X76846900Y-112504147D01*
X76707519Y-112411015D01*
X76588985Y-112292481D01*
X76495853Y-112153100D01*
X76431703Y-111998228D01*
X76399000Y-111833816D01*
X76399000Y-111666184D01*
X76431703Y-111501772D01*
X76495853Y-111346900D01*
X76588985Y-111207519D01*
X76707519Y-111088985D01*
X76846900Y-110995853D01*
X77001772Y-110931703D01*
X77166184Y-110899000D01*
X77333816Y-110899000D01*
X77498228Y-110931703D01*
X77498228Y-110931703D01*
G37*
G36*
X127048228Y-110081703D02*
G01*
X127203100Y-110145853D01*
X127342481Y-110238985D01*
X127461015Y-110357519D01*
X127554147Y-110496900D01*
X127618297Y-110651772D01*
X127651000Y-110816184D01*
X127651000Y-110983816D01*
X127618297Y-111148228D01*
X127554147Y-111303100D01*
X127461015Y-111442481D01*
X127342481Y-111561015D01*
X127203100Y-111654147D01*
X127048228Y-111718297D01*
X126883816Y-111751000D01*
X126716184Y-111751000D01*
X126551772Y-111718297D01*
X126396900Y-111654147D01*
X126257519Y-111561015D01*
X126138985Y-111442481D01*
X126045853Y-111303100D01*
X125981703Y-111148228D01*
X125949000Y-110983816D01*
X125949000Y-110816184D01*
X125981703Y-110651772D01*
X126045853Y-110496900D01*
X126138985Y-110357519D01*
X126257519Y-110238985D01*
X126396900Y-110145853D01*
X126551772Y-110081703D01*
X126716184Y-110049000D01*
X126883816Y-110049000D01*
X127048228Y-110081703D01*
X127048228Y-110081703D01*
G37*
G36*
X98148228Y-109981703D02*
G01*
X98303100Y-110045853D01*
X98442481Y-110138985D01*
X98561015Y-110257519D01*
X98654147Y-110396900D01*
X98718297Y-110551772D01*
X98751000Y-110716184D01*
X98751000Y-110883816D01*
X98718297Y-111048228D01*
X98654147Y-111203100D01*
X98561015Y-111342481D01*
X98442481Y-111461015D01*
X98303100Y-111554147D01*
X98148228Y-111618297D01*
X97983816Y-111651000D01*
X97816184Y-111651000D01*
X97651772Y-111618297D01*
X97496900Y-111554147D01*
X97357519Y-111461015D01*
X97238985Y-111342481D01*
X97145853Y-111203100D01*
X97081703Y-111048228D01*
X97049000Y-110883816D01*
X97049000Y-110716184D01*
X97081703Y-110551772D01*
X97145853Y-110396900D01*
X97238985Y-110257519D01*
X97357519Y-110138985D01*
X97496900Y-110045853D01*
X97651772Y-109981703D01*
X97816184Y-109949000D01*
X97983816Y-109949000D01*
X98148228Y-109981703D01*
X98148228Y-109981703D01*
G37*
G36*
X111651000Y-109251000D02*
G01*
X109949000Y-109251000D01*
X109949000Y-107549000D01*
X111651000Y-107549000D01*
X111651000Y-109251000D01*
X111651000Y-109251000D01*
G37*
G36*
X108548228Y-107581703D02*
G01*
X108703100Y-107645853D01*
X108842481Y-107738985D01*
X108961015Y-107857519D01*
X109054147Y-107996900D01*
X109118297Y-108151772D01*
X109151000Y-108316184D01*
X109151000Y-108483816D01*
X109118297Y-108648228D01*
X109054147Y-108803100D01*
X108961015Y-108942481D01*
X108842481Y-109061015D01*
X108703100Y-109154147D01*
X108548228Y-109218297D01*
X108383816Y-109251000D01*
X108216184Y-109251000D01*
X108051772Y-109218297D01*
X107896900Y-109154147D01*
X107757519Y-109061015D01*
X107638985Y-108942481D01*
X107545853Y-108803100D01*
X107481703Y-108648228D01*
X107449000Y-108483816D01*
X107449000Y-108316184D01*
X107481703Y-108151772D01*
X107545853Y-107996900D01*
X107638985Y-107857519D01*
X107757519Y-107738985D01*
X107896900Y-107645853D01*
X108051772Y-107581703D01*
X108216184Y-107549000D01*
X108383816Y-107549000D01*
X108548228Y-107581703D01*
X108548228Y-107581703D01*
G37*
G36*
X98751000Y-109151000D02*
G01*
X97049000Y-109151000D01*
X97049000Y-107449000D01*
X98751000Y-107449000D01*
X98751000Y-109151000D01*
X98751000Y-109151000D01*
G37*
G36*
X92648228Y-106481703D02*
G01*
X92803100Y-106545853D01*
X92942481Y-106638985D01*
X93061015Y-106757519D01*
X93154147Y-106896900D01*
X93218297Y-107051772D01*
X93251000Y-107216184D01*
X93251000Y-107383816D01*
X93218297Y-107548228D01*
X93154147Y-107703100D01*
X93061015Y-107842481D01*
X92942481Y-107961015D01*
X92803100Y-108054147D01*
X92648228Y-108118297D01*
X92483816Y-108151000D01*
X92316184Y-108151000D01*
X92151772Y-108118297D01*
X91996900Y-108054147D01*
X91857519Y-107961015D01*
X91738985Y-107842481D01*
X91645853Y-107703100D01*
X91581703Y-107548228D01*
X91549000Y-107383816D01*
X91549000Y-107216184D01*
X91581703Y-107051772D01*
X91645853Y-106896900D01*
X91738985Y-106757519D01*
X91857519Y-106638985D01*
X91996900Y-106545853D01*
X92151772Y-106481703D01*
X92316184Y-106449000D01*
X92483816Y-106449000D01*
X92648228Y-106481703D01*
X92648228Y-106481703D01*
G37*
G36*
X77498228Y-105931703D02*
G01*
X77653100Y-105995853D01*
X77792481Y-106088985D01*
X77911015Y-106207519D01*
X78004147Y-106346900D01*
X78068297Y-106501772D01*
X78101000Y-106666184D01*
X78101000Y-106833816D01*
X78068297Y-106998228D01*
X78004147Y-107153100D01*
X77911015Y-107292481D01*
X77792481Y-107411015D01*
X77653100Y-107504147D01*
X77498228Y-107568297D01*
X77333816Y-107601000D01*
X77166184Y-107601000D01*
X77001772Y-107568297D01*
X76846900Y-107504147D01*
X76707519Y-107411015D01*
X76588985Y-107292481D01*
X76495853Y-107153100D01*
X76431703Y-106998228D01*
X76399000Y-106833816D01*
X76399000Y-106666184D01*
X76431703Y-106501772D01*
X76495853Y-106346900D01*
X76588985Y-106207519D01*
X76707519Y-106088985D01*
X76846900Y-105995853D01*
X77001772Y-105931703D01*
X77166184Y-105899000D01*
X77333816Y-105899000D01*
X77498228Y-105931703D01*
X77498228Y-105931703D01*
G37*
G36*
X127048228Y-105081703D02*
G01*
X127203100Y-105145853D01*
X127342481Y-105238985D01*
X127461015Y-105357519D01*
X127554147Y-105496900D01*
X127618297Y-105651772D01*
X127651000Y-105816184D01*
X127651000Y-105983816D01*
X127618297Y-106148228D01*
X127554147Y-106303100D01*
X127461015Y-106442481D01*
X127342481Y-106561015D01*
X127203100Y-106654147D01*
X127048228Y-106718297D01*
X126883816Y-106751000D01*
X126716184Y-106751000D01*
X126551772Y-106718297D01*
X126396900Y-106654147D01*
X126257519Y-106561015D01*
X126138985Y-106442481D01*
X126045853Y-106303100D01*
X125981703Y-106148228D01*
X125949000Y-105983816D01*
X125949000Y-105816184D01*
X125981703Y-105651772D01*
X126045853Y-105496900D01*
X126138985Y-105357519D01*
X126257519Y-105238985D01*
X126396900Y-105145853D01*
X126551772Y-105081703D01*
X126716184Y-105049000D01*
X126883816Y-105049000D01*
X127048228Y-105081703D01*
X127048228Y-105081703D01*
G37*
G36*
X72166823Y-104701313D02*
G01*
X72327242Y-104749976D01*
X72459906Y-104820886D01*
X72475078Y-104828996D01*
X72604659Y-104935341D01*
X72711004Y-105064922D01*
X72711005Y-105064924D01*
X72790024Y-105212758D01*
X72838687Y-105373177D01*
X72855117Y-105540000D01*
X72838687Y-105706823D01*
X72790024Y-105867242D01*
X72727714Y-105983815D01*
X72711004Y-106015078D01*
X72604659Y-106144659D01*
X72475078Y-106251004D01*
X72475076Y-106251005D01*
X72327242Y-106330024D01*
X72166823Y-106378687D01*
X72041804Y-106391000D01*
X71958196Y-106391000D01*
X71833177Y-106378687D01*
X71672758Y-106330024D01*
X71524924Y-106251005D01*
X71524922Y-106251004D01*
X71395341Y-106144659D01*
X71288996Y-106015078D01*
X71272286Y-105983815D01*
X71209976Y-105867242D01*
X71161313Y-105706823D01*
X71144883Y-105540000D01*
X71161313Y-105373177D01*
X71209976Y-105212758D01*
X71288995Y-105064924D01*
X71288996Y-105064922D01*
X71395341Y-104935341D01*
X71524922Y-104828996D01*
X71540094Y-104820886D01*
X71672758Y-104749976D01*
X71833177Y-104701313D01*
X71958196Y-104689000D01*
X72041804Y-104689000D01*
X72166823Y-104701313D01*
X72166823Y-104701313D01*
G37*
G36*
X80588228Y-102181703D02*
G01*
X80743100Y-102245853D01*
X80882481Y-102338985D01*
X81001015Y-102457519D01*
X81094147Y-102596900D01*
X81158297Y-102751772D01*
X81191000Y-102916184D01*
X81191000Y-103083816D01*
X81158297Y-103248228D01*
X81094147Y-103403100D01*
X81001015Y-103542481D01*
X80882481Y-103661015D01*
X80743100Y-103754147D01*
X80588228Y-103818297D01*
X80423816Y-103851000D01*
X80256184Y-103851000D01*
X80091772Y-103818297D01*
X79936900Y-103754147D01*
X79797519Y-103661015D01*
X79678985Y-103542481D01*
X79585853Y-103403100D01*
X79521703Y-103248228D01*
X79489000Y-103083816D01*
X79489000Y-102916184D01*
X79521703Y-102751772D01*
X79585853Y-102596900D01*
X79678985Y-102457519D01*
X79797519Y-102338985D01*
X79936900Y-102245853D01*
X80091772Y-102181703D01*
X80256184Y-102149000D01*
X80423816Y-102149000D01*
X80588228Y-102181703D01*
X80588228Y-102181703D01*
G37*
G36*
X90666823Y-102161313D02*
G01*
X90827242Y-102209976D01*
X90894361Y-102245852D01*
X90975078Y-102288996D01*
X91104659Y-102395341D01*
X91211004Y-102524922D01*
X91211005Y-102524924D01*
X91290024Y-102672758D01*
X91338687Y-102833177D01*
X91355117Y-103000000D01*
X91338687Y-103166823D01*
X91290024Y-103327242D01*
X91249477Y-103403100D01*
X91211004Y-103475078D01*
X91104659Y-103604659D01*
X90975078Y-103711004D01*
X90975076Y-103711005D01*
X90827242Y-103790024D01*
X90666823Y-103838687D01*
X90541804Y-103851000D01*
X90458196Y-103851000D01*
X90333177Y-103838687D01*
X90172758Y-103790024D01*
X90024924Y-103711005D01*
X90024922Y-103711004D01*
X89895341Y-103604659D01*
X89788996Y-103475078D01*
X89750523Y-103403100D01*
X89709976Y-103327242D01*
X89661313Y-103166823D01*
X89644883Y-103000000D01*
X89661313Y-102833177D01*
X89709976Y-102672758D01*
X89788995Y-102524924D01*
X89788996Y-102524922D01*
X89895341Y-102395341D01*
X90024922Y-102288996D01*
X90105639Y-102245852D01*
X90172758Y-102209976D01*
X90333177Y-102161313D01*
X90458196Y-102149000D01*
X90541804Y-102149000D01*
X90666823Y-102161313D01*
X90666823Y-102161313D01*
G37*
G36*
X121548228Y-100581703D02*
G01*
X121703100Y-100645853D01*
X121842481Y-100738985D01*
X121961015Y-100857519D01*
X122054147Y-100996900D01*
X122118297Y-101151772D01*
X122151000Y-101316184D01*
X122151000Y-101483816D01*
X122118297Y-101648228D01*
X122054147Y-101803100D01*
X121961015Y-101942481D01*
X121842481Y-102061015D01*
X121703100Y-102154147D01*
X121548228Y-102218297D01*
X121383816Y-102251000D01*
X121216184Y-102251000D01*
X121051772Y-102218297D01*
X120896900Y-102154147D01*
X120757519Y-102061015D01*
X120638985Y-101942481D01*
X120545853Y-101803100D01*
X120481703Y-101648228D01*
X120449000Y-101483816D01*
X120449000Y-101316184D01*
X120481703Y-101151772D01*
X120545853Y-100996900D01*
X120638985Y-100857519D01*
X120757519Y-100738985D01*
X120896900Y-100645853D01*
X121051772Y-100581703D01*
X121216184Y-100549000D01*
X121383816Y-100549000D01*
X121548228Y-100581703D01*
X121548228Y-100581703D01*
G37*
G36*
X116548228Y-100581703D02*
G01*
X116703100Y-100645853D01*
X116842481Y-100738985D01*
X116961015Y-100857519D01*
X117054147Y-100996900D01*
X117118297Y-101151772D01*
X117151000Y-101316184D01*
X117151000Y-101483816D01*
X117118297Y-101648228D01*
X117054147Y-101803100D01*
X116961015Y-101942481D01*
X116842481Y-102061015D01*
X116703100Y-102154147D01*
X116548228Y-102218297D01*
X116383816Y-102251000D01*
X116216184Y-102251000D01*
X116051772Y-102218297D01*
X115896900Y-102154147D01*
X115757519Y-102061015D01*
X115638985Y-101942481D01*
X115545853Y-101803100D01*
X115481703Y-101648228D01*
X115449000Y-101483816D01*
X115449000Y-101316184D01*
X115481703Y-101151772D01*
X115545853Y-100996900D01*
X115638985Y-100857519D01*
X115757519Y-100738985D01*
X115896900Y-100645853D01*
X116051772Y-100581703D01*
X116216184Y-100549000D01*
X116383816Y-100549000D01*
X116548228Y-100581703D01*
X116548228Y-100581703D01*
G37*
G36*
X88348228Y-97781703D02*
G01*
X88503100Y-97845853D01*
X88642481Y-97938985D01*
X88761015Y-98057519D01*
X88854147Y-98196900D01*
X88918297Y-98351772D01*
X88951000Y-98516184D01*
X88951000Y-98683816D01*
X88918297Y-98848228D01*
X88854147Y-99003100D01*
X88761015Y-99142481D01*
X88642481Y-99261015D01*
X88503100Y-99354147D01*
X88348228Y-99418297D01*
X88183816Y-99451000D01*
X88016184Y-99451000D01*
X87851772Y-99418297D01*
X87696900Y-99354147D01*
X87557519Y-99261015D01*
X87438985Y-99142481D01*
X87345853Y-99003100D01*
X87281703Y-98848228D01*
X87249000Y-98683816D01*
X87249000Y-98516184D01*
X87281703Y-98351772D01*
X87345853Y-98196900D01*
X87438985Y-98057519D01*
X87557519Y-97938985D01*
X87696900Y-97845853D01*
X87851772Y-97781703D01*
X88016184Y-97749000D01*
X88183816Y-97749000D01*
X88348228Y-97781703D01*
X88348228Y-97781703D01*
G37*
G36*
X83348228Y-97781703D02*
G01*
X83503100Y-97845853D01*
X83642481Y-97938985D01*
X83761015Y-98057519D01*
X83854147Y-98196900D01*
X83918297Y-98351772D01*
X83951000Y-98516184D01*
X83951000Y-98683816D01*
X83918297Y-98848228D01*
X83854147Y-99003100D01*
X83761015Y-99142481D01*
X83642481Y-99261015D01*
X83503100Y-99354147D01*
X83348228Y-99418297D01*
X83183816Y-99451000D01*
X83016184Y-99451000D01*
X82851772Y-99418297D01*
X82696900Y-99354147D01*
X82557519Y-99261015D01*
X82438985Y-99142481D01*
X82345853Y-99003100D01*
X82281703Y-98848228D01*
X82249000Y-98683816D01*
X82249000Y-98516184D01*
X82281703Y-98351772D01*
X82345853Y-98196900D01*
X82438985Y-98057519D01*
X82557519Y-97938985D01*
X82696900Y-97845853D01*
X82851772Y-97781703D01*
X83016184Y-97749000D01*
X83183816Y-97749000D01*
X83348228Y-97781703D01*
X83348228Y-97781703D01*
G37*
G36*
X119248228Y-95181703D02*
G01*
X119403100Y-95245853D01*
X119542481Y-95338985D01*
X119661015Y-95457519D01*
X119754147Y-95596900D01*
X119818297Y-95751772D01*
X119851000Y-95916184D01*
X119851000Y-96083816D01*
X119818297Y-96248228D01*
X119754147Y-96403100D01*
X119661015Y-96542481D01*
X119542481Y-96661015D01*
X119403100Y-96754147D01*
X119248228Y-96818297D01*
X119083816Y-96851000D01*
X118916184Y-96851000D01*
X118751772Y-96818297D01*
X118596900Y-96754147D01*
X118457519Y-96661015D01*
X118338985Y-96542481D01*
X118245853Y-96403100D01*
X118181703Y-96248228D01*
X118149000Y-96083816D01*
X118149000Y-95916184D01*
X118181703Y-95751772D01*
X118245853Y-95596900D01*
X118338985Y-95457519D01*
X118457519Y-95338985D01*
X118596900Y-95245853D01*
X118751772Y-95181703D01*
X118916184Y-95149000D01*
X119083816Y-95149000D01*
X119248228Y-95181703D01*
X119248228Y-95181703D01*
G37*
G36*
X117351000Y-96851000D02*
G01*
X115649000Y-96851000D01*
X115649000Y-95149000D01*
X117351000Y-95149000D01*
X117351000Y-96851000D01*
X117351000Y-96851000D01*
G37*
G36*
X90734794Y-88220155D02*
G01*
X90841150Y-88241311D01*
X91041520Y-88324307D01*
X91221844Y-88444795D01*
X91375205Y-88598156D01*
X91495693Y-88778480D01*
X91578689Y-88978851D01*
X91621000Y-89191560D01*
X91621000Y-89408440D01*
X91578689Y-89621149D01*
X91495693Y-89821520D01*
X91375205Y-90001844D01*
X91221844Y-90155205D01*
X91041520Y-90275693D01*
X90941334Y-90317191D01*
X90841150Y-90358689D01*
X90734795Y-90379844D01*
X90628440Y-90401000D01*
X90411560Y-90401000D01*
X90305205Y-90379844D01*
X90198850Y-90358689D01*
X90098666Y-90317191D01*
X89998480Y-90275693D01*
X89818156Y-90155205D01*
X89664795Y-90001844D01*
X89544307Y-89821520D01*
X89461311Y-89621149D01*
X89419000Y-89408440D01*
X89419000Y-89191560D01*
X89461311Y-88978851D01*
X89544307Y-88778480D01*
X89664795Y-88598156D01*
X89818156Y-88444795D01*
X89998480Y-88324307D01*
X90198850Y-88241311D01*
X90305206Y-88220155D01*
X90411560Y-88199000D01*
X90628440Y-88199000D01*
X90734794Y-88220155D01*
X90734794Y-88220155D01*
G37*
G36*
X88194794Y-88220155D02*
G01*
X88301150Y-88241311D01*
X88501520Y-88324307D01*
X88681844Y-88444795D01*
X88835205Y-88598156D01*
X88955693Y-88778480D01*
X89038689Y-88978851D01*
X89081000Y-89191560D01*
X89081000Y-89408440D01*
X89038689Y-89621149D01*
X88955693Y-89821520D01*
X88835205Y-90001844D01*
X88681844Y-90155205D01*
X88501520Y-90275693D01*
X88401334Y-90317191D01*
X88301150Y-90358689D01*
X88194795Y-90379844D01*
X88088440Y-90401000D01*
X87871560Y-90401000D01*
X87765205Y-90379844D01*
X87658850Y-90358689D01*
X87558666Y-90317191D01*
X87458480Y-90275693D01*
X87278156Y-90155205D01*
X87124795Y-90001844D01*
X87004307Y-89821520D01*
X86921311Y-89621149D01*
X86879000Y-89408440D01*
X86879000Y-89191560D01*
X86921311Y-88978851D01*
X87004307Y-88778480D01*
X87124795Y-88598156D01*
X87278156Y-88444795D01*
X87458480Y-88324307D01*
X87658850Y-88241311D01*
X87765206Y-88220155D01*
X87871560Y-88199000D01*
X88088440Y-88199000D01*
X88194794Y-88220155D01*
X88194794Y-88220155D01*
G37*
G36*
X85654794Y-88220155D02*
G01*
X85761150Y-88241311D01*
X85961520Y-88324307D01*
X86141844Y-88444795D01*
X86295205Y-88598156D01*
X86415693Y-88778480D01*
X86498689Y-88978851D01*
X86541000Y-89191560D01*
X86541000Y-89408440D01*
X86498689Y-89621149D01*
X86415693Y-89821520D01*
X86295205Y-90001844D01*
X86141844Y-90155205D01*
X85961520Y-90275693D01*
X85861334Y-90317191D01*
X85761150Y-90358689D01*
X85654795Y-90379844D01*
X85548440Y-90401000D01*
X85331560Y-90401000D01*
X85225205Y-90379844D01*
X85118850Y-90358689D01*
X85018666Y-90317191D01*
X84918480Y-90275693D01*
X84738156Y-90155205D01*
X84584795Y-90001844D01*
X84464307Y-89821520D01*
X84381311Y-89621149D01*
X84339000Y-89408440D01*
X84339000Y-89191560D01*
X84381311Y-88978851D01*
X84464307Y-88778480D01*
X84584795Y-88598156D01*
X84738156Y-88444795D01*
X84918480Y-88324307D01*
X85118850Y-88241311D01*
X85225206Y-88220155D01*
X85331560Y-88199000D01*
X85548440Y-88199000D01*
X85654794Y-88220155D01*
X85654794Y-88220155D01*
G37*
G36*
X84001000Y-90401000D02*
G01*
X81799000Y-90401000D01*
X81799000Y-88199000D01*
X84001000Y-88199000D01*
X84001000Y-90401000D01*
X84001000Y-90401000D01*
G37*
M02*
