G04 #@! TF.GenerationSoftware,KiCad,Pcbnew,(5.1.2)-1*
G04 #@! TF.CreationDate,2019-12-18T16:16:50-05:00*
G04 #@! TF.ProjectId,adcBoard,61646342-6f61-4726-942e-6b696361645f,rev?*
G04 #@! TF.SameCoordinates,Original*
G04 #@! TF.FileFunction,Copper,L1,Top*
G04 #@! TF.FilePolarity,Positive*
%FSLAX46Y46*%
G04 Gerber Fmt 4.6, Leading zero omitted, Abs format (unit mm)*
G04 Created by KiCad (PCBNEW (5.1.2)-1) date 2019-12-18 16:16:50*
%MOMM*%
%LPD*%
G04 APERTURE LIST*
%ADD10R,1.100000X0.400000*%
%ADD11R,1.600000X1.600000*%
%ADD12C,1.600000*%
%ADD13R,2.100000X2.100000*%
%ADD14C,2.100000*%
%ADD15O,1.600000X1.600000*%
%ADD16C,0.100000*%
%ADD17C,0.600000*%
%ADD18C,0.800000*%
%ADD19C,0.800000*%
%ADD20C,0.450000*%
%ADD21C,0.700000*%
%ADD22C,0.400000*%
%ADD23C,0.500000*%
%ADD24C,0.600000*%
%ADD25C,0.250000*%
%ADD26C,0.380000*%
G04 APERTURE END LIST*
D10*
X114150000Y-105675000D03*
X114150000Y-106325000D03*
X114150000Y-106975000D03*
X114150000Y-107625000D03*
X114150000Y-108275000D03*
X114150000Y-108925000D03*
X114150000Y-109575000D03*
X114150000Y-110225000D03*
X114150000Y-110875000D03*
X114150000Y-111525000D03*
X114150000Y-112175000D03*
X114150000Y-112825000D03*
X114150000Y-113475000D03*
X114150000Y-114125000D03*
X119850000Y-114125000D03*
X119850000Y-113475000D03*
X119850000Y-112825000D03*
X119850000Y-112175000D03*
X119850000Y-111525000D03*
X119850000Y-110875000D03*
X119850000Y-110225000D03*
X119850000Y-109575000D03*
X119850000Y-108925000D03*
X119850000Y-108275000D03*
X119850000Y-107625000D03*
X119850000Y-106975000D03*
X119850000Y-106325000D03*
X119850000Y-105675000D03*
D11*
X97900000Y-108300000D03*
D12*
X97900000Y-110800000D03*
X92400000Y-107300000D03*
X92400000Y-112300000D03*
X77250000Y-111750000D03*
X77250000Y-106750000D03*
X85800000Y-119100000D03*
D11*
X83300000Y-119100000D03*
D12*
X87000000Y-114100000D03*
X82000000Y-114100000D03*
X83100000Y-98600000D03*
X88100000Y-98600000D03*
X108300000Y-108400000D03*
D11*
X110800000Y-108400000D03*
X106200000Y-115500000D03*
D12*
X103700000Y-115500000D03*
X126800000Y-105900000D03*
X126800000Y-110900000D03*
X121300000Y-101400000D03*
X116300000Y-101400000D03*
D11*
X116500000Y-96000000D03*
D12*
X119000000Y-96000000D03*
D13*
X74000000Y-121400000D03*
D14*
X76540000Y-121400000D03*
X114100000Y-120900000D03*
X116640000Y-120900000D03*
X119180000Y-120900000D03*
X121720000Y-120900000D03*
X124260000Y-120900000D03*
D13*
X126800000Y-120900000D03*
D15*
X72000000Y-105540000D03*
D12*
X72000000Y-115700000D03*
X80340000Y-103000000D03*
D15*
X90500000Y-103000000D03*
D16*
G36*
X82364703Y-106545722D02*
G01*
X82379264Y-106547882D01*
X82393543Y-106551459D01*
X82407403Y-106556418D01*
X82420710Y-106562712D01*
X82433336Y-106570280D01*
X82445159Y-106579048D01*
X82456066Y-106588934D01*
X82465952Y-106599841D01*
X82474720Y-106611664D01*
X82482288Y-106624290D01*
X82488582Y-106637597D01*
X82493541Y-106651457D01*
X82497118Y-106665736D01*
X82499278Y-106680297D01*
X82500000Y-106695000D01*
X82500000Y-106995000D01*
X82499278Y-107009703D01*
X82497118Y-107024264D01*
X82493541Y-107038543D01*
X82488582Y-107052403D01*
X82482288Y-107065710D01*
X82474720Y-107078336D01*
X82465952Y-107090159D01*
X82456066Y-107101066D01*
X82445159Y-107110952D01*
X82433336Y-107119720D01*
X82420710Y-107127288D01*
X82407403Y-107133582D01*
X82393543Y-107138541D01*
X82379264Y-107142118D01*
X82364703Y-107144278D01*
X82350000Y-107145000D01*
X80700000Y-107145000D01*
X80685297Y-107144278D01*
X80670736Y-107142118D01*
X80656457Y-107138541D01*
X80642597Y-107133582D01*
X80629290Y-107127288D01*
X80616664Y-107119720D01*
X80604841Y-107110952D01*
X80593934Y-107101066D01*
X80584048Y-107090159D01*
X80575280Y-107078336D01*
X80567712Y-107065710D01*
X80561418Y-107052403D01*
X80556459Y-107038543D01*
X80552882Y-107024264D01*
X80550722Y-107009703D01*
X80550000Y-106995000D01*
X80550000Y-106695000D01*
X80550722Y-106680297D01*
X80552882Y-106665736D01*
X80556459Y-106651457D01*
X80561418Y-106637597D01*
X80567712Y-106624290D01*
X80575280Y-106611664D01*
X80584048Y-106599841D01*
X80593934Y-106588934D01*
X80604841Y-106579048D01*
X80616664Y-106570280D01*
X80629290Y-106562712D01*
X80642597Y-106556418D01*
X80656457Y-106551459D01*
X80670736Y-106547882D01*
X80685297Y-106545722D01*
X80700000Y-106545000D01*
X82350000Y-106545000D01*
X82364703Y-106545722D01*
X82364703Y-106545722D01*
G37*
D17*
X81525000Y-106845000D03*
D16*
G36*
X82364703Y-107815722D02*
G01*
X82379264Y-107817882D01*
X82393543Y-107821459D01*
X82407403Y-107826418D01*
X82420710Y-107832712D01*
X82433336Y-107840280D01*
X82445159Y-107849048D01*
X82456066Y-107858934D01*
X82465952Y-107869841D01*
X82474720Y-107881664D01*
X82482288Y-107894290D01*
X82488582Y-107907597D01*
X82493541Y-107921457D01*
X82497118Y-107935736D01*
X82499278Y-107950297D01*
X82500000Y-107965000D01*
X82500000Y-108265000D01*
X82499278Y-108279703D01*
X82497118Y-108294264D01*
X82493541Y-108308543D01*
X82488582Y-108322403D01*
X82482288Y-108335710D01*
X82474720Y-108348336D01*
X82465952Y-108360159D01*
X82456066Y-108371066D01*
X82445159Y-108380952D01*
X82433336Y-108389720D01*
X82420710Y-108397288D01*
X82407403Y-108403582D01*
X82393543Y-108408541D01*
X82379264Y-108412118D01*
X82364703Y-108414278D01*
X82350000Y-108415000D01*
X80700000Y-108415000D01*
X80685297Y-108414278D01*
X80670736Y-108412118D01*
X80656457Y-108408541D01*
X80642597Y-108403582D01*
X80629290Y-108397288D01*
X80616664Y-108389720D01*
X80604841Y-108380952D01*
X80593934Y-108371066D01*
X80584048Y-108360159D01*
X80575280Y-108348336D01*
X80567712Y-108335710D01*
X80561418Y-108322403D01*
X80556459Y-108308543D01*
X80552882Y-108294264D01*
X80550722Y-108279703D01*
X80550000Y-108265000D01*
X80550000Y-107965000D01*
X80550722Y-107950297D01*
X80552882Y-107935736D01*
X80556459Y-107921457D01*
X80561418Y-107907597D01*
X80567712Y-107894290D01*
X80575280Y-107881664D01*
X80584048Y-107869841D01*
X80593934Y-107858934D01*
X80604841Y-107849048D01*
X80616664Y-107840280D01*
X80629290Y-107832712D01*
X80642597Y-107826418D01*
X80656457Y-107821459D01*
X80670736Y-107817882D01*
X80685297Y-107815722D01*
X80700000Y-107815000D01*
X82350000Y-107815000D01*
X82364703Y-107815722D01*
X82364703Y-107815722D01*
G37*
D17*
X81525000Y-108115000D03*
D16*
G36*
X82364703Y-109085722D02*
G01*
X82379264Y-109087882D01*
X82393543Y-109091459D01*
X82407403Y-109096418D01*
X82420710Y-109102712D01*
X82433336Y-109110280D01*
X82445159Y-109119048D01*
X82456066Y-109128934D01*
X82465952Y-109139841D01*
X82474720Y-109151664D01*
X82482288Y-109164290D01*
X82488582Y-109177597D01*
X82493541Y-109191457D01*
X82497118Y-109205736D01*
X82499278Y-109220297D01*
X82500000Y-109235000D01*
X82500000Y-109535000D01*
X82499278Y-109549703D01*
X82497118Y-109564264D01*
X82493541Y-109578543D01*
X82488582Y-109592403D01*
X82482288Y-109605710D01*
X82474720Y-109618336D01*
X82465952Y-109630159D01*
X82456066Y-109641066D01*
X82445159Y-109650952D01*
X82433336Y-109659720D01*
X82420710Y-109667288D01*
X82407403Y-109673582D01*
X82393543Y-109678541D01*
X82379264Y-109682118D01*
X82364703Y-109684278D01*
X82350000Y-109685000D01*
X80700000Y-109685000D01*
X80685297Y-109684278D01*
X80670736Y-109682118D01*
X80656457Y-109678541D01*
X80642597Y-109673582D01*
X80629290Y-109667288D01*
X80616664Y-109659720D01*
X80604841Y-109650952D01*
X80593934Y-109641066D01*
X80584048Y-109630159D01*
X80575280Y-109618336D01*
X80567712Y-109605710D01*
X80561418Y-109592403D01*
X80556459Y-109578543D01*
X80552882Y-109564264D01*
X80550722Y-109549703D01*
X80550000Y-109535000D01*
X80550000Y-109235000D01*
X80550722Y-109220297D01*
X80552882Y-109205736D01*
X80556459Y-109191457D01*
X80561418Y-109177597D01*
X80567712Y-109164290D01*
X80575280Y-109151664D01*
X80584048Y-109139841D01*
X80593934Y-109128934D01*
X80604841Y-109119048D01*
X80616664Y-109110280D01*
X80629290Y-109102712D01*
X80642597Y-109096418D01*
X80656457Y-109091459D01*
X80670736Y-109087882D01*
X80685297Y-109085722D01*
X80700000Y-109085000D01*
X82350000Y-109085000D01*
X82364703Y-109085722D01*
X82364703Y-109085722D01*
G37*
D17*
X81525000Y-109385000D03*
D16*
G36*
X82364703Y-110355722D02*
G01*
X82379264Y-110357882D01*
X82393543Y-110361459D01*
X82407403Y-110366418D01*
X82420710Y-110372712D01*
X82433336Y-110380280D01*
X82445159Y-110389048D01*
X82456066Y-110398934D01*
X82465952Y-110409841D01*
X82474720Y-110421664D01*
X82482288Y-110434290D01*
X82488582Y-110447597D01*
X82493541Y-110461457D01*
X82497118Y-110475736D01*
X82499278Y-110490297D01*
X82500000Y-110505000D01*
X82500000Y-110805000D01*
X82499278Y-110819703D01*
X82497118Y-110834264D01*
X82493541Y-110848543D01*
X82488582Y-110862403D01*
X82482288Y-110875710D01*
X82474720Y-110888336D01*
X82465952Y-110900159D01*
X82456066Y-110911066D01*
X82445159Y-110920952D01*
X82433336Y-110929720D01*
X82420710Y-110937288D01*
X82407403Y-110943582D01*
X82393543Y-110948541D01*
X82379264Y-110952118D01*
X82364703Y-110954278D01*
X82350000Y-110955000D01*
X80700000Y-110955000D01*
X80685297Y-110954278D01*
X80670736Y-110952118D01*
X80656457Y-110948541D01*
X80642597Y-110943582D01*
X80629290Y-110937288D01*
X80616664Y-110929720D01*
X80604841Y-110920952D01*
X80593934Y-110911066D01*
X80584048Y-110900159D01*
X80575280Y-110888336D01*
X80567712Y-110875710D01*
X80561418Y-110862403D01*
X80556459Y-110848543D01*
X80552882Y-110834264D01*
X80550722Y-110819703D01*
X80550000Y-110805000D01*
X80550000Y-110505000D01*
X80550722Y-110490297D01*
X80552882Y-110475736D01*
X80556459Y-110461457D01*
X80561418Y-110447597D01*
X80567712Y-110434290D01*
X80575280Y-110421664D01*
X80584048Y-110409841D01*
X80593934Y-110398934D01*
X80604841Y-110389048D01*
X80616664Y-110380280D01*
X80629290Y-110372712D01*
X80642597Y-110366418D01*
X80656457Y-110361459D01*
X80670736Y-110357882D01*
X80685297Y-110355722D01*
X80700000Y-110355000D01*
X82350000Y-110355000D01*
X82364703Y-110355722D01*
X82364703Y-110355722D01*
G37*
D17*
X81525000Y-110655000D03*
D16*
G36*
X87314703Y-110355722D02*
G01*
X87329264Y-110357882D01*
X87343543Y-110361459D01*
X87357403Y-110366418D01*
X87370710Y-110372712D01*
X87383336Y-110380280D01*
X87395159Y-110389048D01*
X87406066Y-110398934D01*
X87415952Y-110409841D01*
X87424720Y-110421664D01*
X87432288Y-110434290D01*
X87438582Y-110447597D01*
X87443541Y-110461457D01*
X87447118Y-110475736D01*
X87449278Y-110490297D01*
X87450000Y-110505000D01*
X87450000Y-110805000D01*
X87449278Y-110819703D01*
X87447118Y-110834264D01*
X87443541Y-110848543D01*
X87438582Y-110862403D01*
X87432288Y-110875710D01*
X87424720Y-110888336D01*
X87415952Y-110900159D01*
X87406066Y-110911066D01*
X87395159Y-110920952D01*
X87383336Y-110929720D01*
X87370710Y-110937288D01*
X87357403Y-110943582D01*
X87343543Y-110948541D01*
X87329264Y-110952118D01*
X87314703Y-110954278D01*
X87300000Y-110955000D01*
X85650000Y-110955000D01*
X85635297Y-110954278D01*
X85620736Y-110952118D01*
X85606457Y-110948541D01*
X85592597Y-110943582D01*
X85579290Y-110937288D01*
X85566664Y-110929720D01*
X85554841Y-110920952D01*
X85543934Y-110911066D01*
X85534048Y-110900159D01*
X85525280Y-110888336D01*
X85517712Y-110875710D01*
X85511418Y-110862403D01*
X85506459Y-110848543D01*
X85502882Y-110834264D01*
X85500722Y-110819703D01*
X85500000Y-110805000D01*
X85500000Y-110505000D01*
X85500722Y-110490297D01*
X85502882Y-110475736D01*
X85506459Y-110461457D01*
X85511418Y-110447597D01*
X85517712Y-110434290D01*
X85525280Y-110421664D01*
X85534048Y-110409841D01*
X85543934Y-110398934D01*
X85554841Y-110389048D01*
X85566664Y-110380280D01*
X85579290Y-110372712D01*
X85592597Y-110366418D01*
X85606457Y-110361459D01*
X85620736Y-110357882D01*
X85635297Y-110355722D01*
X85650000Y-110355000D01*
X87300000Y-110355000D01*
X87314703Y-110355722D01*
X87314703Y-110355722D01*
G37*
D17*
X86475000Y-110655000D03*
D16*
G36*
X87314703Y-109085722D02*
G01*
X87329264Y-109087882D01*
X87343543Y-109091459D01*
X87357403Y-109096418D01*
X87370710Y-109102712D01*
X87383336Y-109110280D01*
X87395159Y-109119048D01*
X87406066Y-109128934D01*
X87415952Y-109139841D01*
X87424720Y-109151664D01*
X87432288Y-109164290D01*
X87438582Y-109177597D01*
X87443541Y-109191457D01*
X87447118Y-109205736D01*
X87449278Y-109220297D01*
X87450000Y-109235000D01*
X87450000Y-109535000D01*
X87449278Y-109549703D01*
X87447118Y-109564264D01*
X87443541Y-109578543D01*
X87438582Y-109592403D01*
X87432288Y-109605710D01*
X87424720Y-109618336D01*
X87415952Y-109630159D01*
X87406066Y-109641066D01*
X87395159Y-109650952D01*
X87383336Y-109659720D01*
X87370710Y-109667288D01*
X87357403Y-109673582D01*
X87343543Y-109678541D01*
X87329264Y-109682118D01*
X87314703Y-109684278D01*
X87300000Y-109685000D01*
X85650000Y-109685000D01*
X85635297Y-109684278D01*
X85620736Y-109682118D01*
X85606457Y-109678541D01*
X85592597Y-109673582D01*
X85579290Y-109667288D01*
X85566664Y-109659720D01*
X85554841Y-109650952D01*
X85543934Y-109641066D01*
X85534048Y-109630159D01*
X85525280Y-109618336D01*
X85517712Y-109605710D01*
X85511418Y-109592403D01*
X85506459Y-109578543D01*
X85502882Y-109564264D01*
X85500722Y-109549703D01*
X85500000Y-109535000D01*
X85500000Y-109235000D01*
X85500722Y-109220297D01*
X85502882Y-109205736D01*
X85506459Y-109191457D01*
X85511418Y-109177597D01*
X85517712Y-109164290D01*
X85525280Y-109151664D01*
X85534048Y-109139841D01*
X85543934Y-109128934D01*
X85554841Y-109119048D01*
X85566664Y-109110280D01*
X85579290Y-109102712D01*
X85592597Y-109096418D01*
X85606457Y-109091459D01*
X85620736Y-109087882D01*
X85635297Y-109085722D01*
X85650000Y-109085000D01*
X87300000Y-109085000D01*
X87314703Y-109085722D01*
X87314703Y-109085722D01*
G37*
D17*
X86475000Y-109385000D03*
D16*
G36*
X87314703Y-107815722D02*
G01*
X87329264Y-107817882D01*
X87343543Y-107821459D01*
X87357403Y-107826418D01*
X87370710Y-107832712D01*
X87383336Y-107840280D01*
X87395159Y-107849048D01*
X87406066Y-107858934D01*
X87415952Y-107869841D01*
X87424720Y-107881664D01*
X87432288Y-107894290D01*
X87438582Y-107907597D01*
X87443541Y-107921457D01*
X87447118Y-107935736D01*
X87449278Y-107950297D01*
X87450000Y-107965000D01*
X87450000Y-108265000D01*
X87449278Y-108279703D01*
X87447118Y-108294264D01*
X87443541Y-108308543D01*
X87438582Y-108322403D01*
X87432288Y-108335710D01*
X87424720Y-108348336D01*
X87415952Y-108360159D01*
X87406066Y-108371066D01*
X87395159Y-108380952D01*
X87383336Y-108389720D01*
X87370710Y-108397288D01*
X87357403Y-108403582D01*
X87343543Y-108408541D01*
X87329264Y-108412118D01*
X87314703Y-108414278D01*
X87300000Y-108415000D01*
X85650000Y-108415000D01*
X85635297Y-108414278D01*
X85620736Y-108412118D01*
X85606457Y-108408541D01*
X85592597Y-108403582D01*
X85579290Y-108397288D01*
X85566664Y-108389720D01*
X85554841Y-108380952D01*
X85543934Y-108371066D01*
X85534048Y-108360159D01*
X85525280Y-108348336D01*
X85517712Y-108335710D01*
X85511418Y-108322403D01*
X85506459Y-108308543D01*
X85502882Y-108294264D01*
X85500722Y-108279703D01*
X85500000Y-108265000D01*
X85500000Y-107965000D01*
X85500722Y-107950297D01*
X85502882Y-107935736D01*
X85506459Y-107921457D01*
X85511418Y-107907597D01*
X85517712Y-107894290D01*
X85525280Y-107881664D01*
X85534048Y-107869841D01*
X85543934Y-107858934D01*
X85554841Y-107849048D01*
X85566664Y-107840280D01*
X85579290Y-107832712D01*
X85592597Y-107826418D01*
X85606457Y-107821459D01*
X85620736Y-107817882D01*
X85635297Y-107815722D01*
X85650000Y-107815000D01*
X87300000Y-107815000D01*
X87314703Y-107815722D01*
X87314703Y-107815722D01*
G37*
D17*
X86475000Y-108115000D03*
D16*
G36*
X87314703Y-106545722D02*
G01*
X87329264Y-106547882D01*
X87343543Y-106551459D01*
X87357403Y-106556418D01*
X87370710Y-106562712D01*
X87383336Y-106570280D01*
X87395159Y-106579048D01*
X87406066Y-106588934D01*
X87415952Y-106599841D01*
X87424720Y-106611664D01*
X87432288Y-106624290D01*
X87438582Y-106637597D01*
X87443541Y-106651457D01*
X87447118Y-106665736D01*
X87449278Y-106680297D01*
X87450000Y-106695000D01*
X87450000Y-106995000D01*
X87449278Y-107009703D01*
X87447118Y-107024264D01*
X87443541Y-107038543D01*
X87438582Y-107052403D01*
X87432288Y-107065710D01*
X87424720Y-107078336D01*
X87415952Y-107090159D01*
X87406066Y-107101066D01*
X87395159Y-107110952D01*
X87383336Y-107119720D01*
X87370710Y-107127288D01*
X87357403Y-107133582D01*
X87343543Y-107138541D01*
X87329264Y-107142118D01*
X87314703Y-107144278D01*
X87300000Y-107145000D01*
X85650000Y-107145000D01*
X85635297Y-107144278D01*
X85620736Y-107142118D01*
X85606457Y-107138541D01*
X85592597Y-107133582D01*
X85579290Y-107127288D01*
X85566664Y-107119720D01*
X85554841Y-107110952D01*
X85543934Y-107101066D01*
X85534048Y-107090159D01*
X85525280Y-107078336D01*
X85517712Y-107065710D01*
X85511418Y-107052403D01*
X85506459Y-107038543D01*
X85502882Y-107024264D01*
X85500722Y-107009703D01*
X85500000Y-106995000D01*
X85500000Y-106695000D01*
X85500722Y-106680297D01*
X85502882Y-106665736D01*
X85506459Y-106651457D01*
X85511418Y-106637597D01*
X85517712Y-106624290D01*
X85525280Y-106611664D01*
X85534048Y-106599841D01*
X85543934Y-106588934D01*
X85554841Y-106579048D01*
X85566664Y-106570280D01*
X85579290Y-106562712D01*
X85592597Y-106556418D01*
X85606457Y-106551459D01*
X85620736Y-106547882D01*
X85635297Y-106545722D01*
X85650000Y-106545000D01*
X87300000Y-106545000D01*
X87314703Y-106545722D01*
X87314703Y-106545722D01*
G37*
D17*
X86475000Y-106845000D03*
D13*
X132000000Y-115100000D03*
D14*
X134540000Y-115100000D03*
D13*
X82900000Y-89300000D03*
D14*
X85440000Y-89300000D03*
X87980000Y-89300000D03*
X90520000Y-89300000D03*
D18*
X89400000Y-119100000D03*
X110600000Y-104500000D03*
X100900000Y-115500000D03*
X97900000Y-113600000D03*
X70600000Y-121400000D03*
X126800000Y-113900000D03*
X128100000Y-115700000D03*
X122800000Y-107000000D03*
X122300000Y-96000000D03*
D19*
X91585000Y-108115000D02*
X92700000Y-107000000D01*
X89585000Y-108115000D02*
X91585000Y-108115000D01*
D20*
X92700000Y-107000000D02*
X92800000Y-107000000D01*
D19*
X92400000Y-107300000D02*
X96800000Y-107300000D01*
X96800000Y-107300000D02*
X97700000Y-108200000D01*
D21*
X86475000Y-108115000D02*
X89115000Y-108115000D01*
D20*
X89115000Y-108115000D02*
X89585000Y-108115000D01*
D19*
X89115000Y-108115000D02*
X89115000Y-107885000D01*
X82800000Y-92100000D02*
X82800000Y-89200000D01*
X84100000Y-93400000D02*
X82800000Y-92100000D01*
X88600000Y-93400000D02*
X84100000Y-93400000D01*
X93200000Y-98000000D02*
X88600000Y-93400000D01*
X93200000Y-103800000D02*
X93200000Y-98000000D01*
X89115000Y-107885000D02*
X93200000Y-103800000D01*
D20*
X77250000Y-106750000D02*
X77250000Y-107350000D01*
X78000000Y-108100000D02*
X81000000Y-108100000D01*
X77250000Y-107350000D02*
X78000000Y-108100000D01*
X72000000Y-105540000D02*
X76040000Y-105540000D01*
X76040000Y-105540000D02*
X77100000Y-106600000D01*
X79500001Y-104799999D02*
X79500000Y-104800000D01*
X79500000Y-104800000D02*
X79500000Y-107000000D01*
X79500000Y-107000000D02*
X79500000Y-107500000D01*
X79500000Y-107500000D02*
X79900000Y-107900000D01*
X79500000Y-104800000D02*
X79500000Y-103900000D01*
X79500000Y-103900000D02*
X80300000Y-103100000D01*
X79540001Y-102200001D02*
X79540001Y-99759999D01*
X80340000Y-103000000D02*
X79540001Y-102200001D01*
X79540001Y-99759999D02*
X80700000Y-98600000D01*
X80700000Y-98600000D02*
X82900000Y-98600000D01*
X82000000Y-114100000D02*
X80600000Y-114100000D01*
X80600000Y-114100000D02*
X80100000Y-113600000D01*
X82000000Y-114100000D02*
X82000000Y-117500000D01*
X82000000Y-117500000D02*
X83400000Y-118900000D01*
D19*
X80100000Y-112700000D02*
X80100000Y-120319002D01*
X85700000Y-87300000D02*
X85700000Y-89300000D01*
X84800000Y-86400000D02*
X85700000Y-87300000D01*
X81500000Y-86400000D02*
X84800000Y-86400000D01*
X77800000Y-90100000D02*
X81500000Y-86400000D01*
X77800000Y-97400000D02*
X77800000Y-90100000D01*
X80100000Y-113000000D02*
X80100000Y-112700000D01*
X80100000Y-120319002D02*
X80100000Y-125000000D01*
X80100000Y-125000000D02*
X78600000Y-126500000D01*
X78600000Y-126500000D02*
X71100000Y-126500000D01*
X71100000Y-126500000D02*
X68500000Y-123900000D01*
X68500000Y-123900000D02*
X68500000Y-103400000D01*
X68500000Y-103400000D02*
X69900000Y-102000000D01*
X69900000Y-102000000D02*
X76800000Y-102000000D01*
X76800000Y-102000000D02*
X77800000Y-101000000D01*
X77800000Y-101000000D02*
X77800000Y-97400000D01*
D21*
X80100000Y-113000000D02*
X80100000Y-111400000D01*
D20*
X80100000Y-113600000D02*
X80100000Y-113000000D01*
D21*
X80100000Y-111400000D02*
X80700000Y-110800000D01*
D20*
X90500000Y-103000000D02*
X89368630Y-103000000D01*
X89368630Y-103000000D02*
X85500000Y-103000000D01*
X85500000Y-103000000D02*
X84100000Y-104400000D01*
X84100000Y-104400000D02*
X84100000Y-108000000D01*
X84100000Y-108000000D02*
X85600000Y-109500000D01*
X88100000Y-98600000D02*
X89400000Y-98600000D01*
X89400000Y-98600000D02*
X90000000Y-98600000D01*
X90000000Y-98600000D02*
X90800000Y-99400000D01*
X90800000Y-99400000D02*
X90800000Y-102700000D01*
D22*
X113200000Y-105700000D02*
X114000000Y-105700000D01*
X112900000Y-105400000D02*
X113200000Y-105700000D01*
X111600000Y-101500000D02*
X112900000Y-102800000D01*
X107200000Y-101500000D02*
X111600000Y-101500000D01*
X105100000Y-103600000D02*
X107200000Y-101500000D01*
X105100000Y-105000000D02*
X105100000Y-103600000D01*
X102800000Y-107300000D02*
X105100000Y-105000000D01*
X112900000Y-102800000D02*
X112900000Y-105400000D01*
X102800000Y-111100000D02*
X102800000Y-107300000D01*
X88185000Y-109385000D02*
X90100000Y-111300000D01*
X86475000Y-109385000D02*
X88185000Y-109385000D01*
X90100000Y-111300000D02*
X90100000Y-114900000D01*
X90100000Y-114900000D02*
X91200000Y-116000000D01*
X91200000Y-116000000D02*
X97900000Y-116000000D01*
X97900000Y-116000000D02*
X102800000Y-111100000D01*
D23*
X114150000Y-108275000D02*
X113350000Y-108275000D01*
D24*
X111200000Y-110425000D02*
X111200000Y-112100000D01*
X111200000Y-112100000D02*
X107800000Y-115500000D01*
X107800000Y-115500000D02*
X106100000Y-115500000D01*
X111200000Y-110425000D02*
X111925001Y-109699999D01*
D23*
X113025000Y-108600000D02*
X113350000Y-108275000D01*
D24*
X111925001Y-109699999D02*
X111925001Y-109674999D01*
X111925001Y-109674999D02*
X112800000Y-108800000D01*
D22*
X111500000Y-106300000D02*
X110600000Y-105400000D01*
X110600000Y-105400000D02*
X110600000Y-104500000D01*
X112600000Y-106300000D02*
X111500000Y-106300000D01*
X112625000Y-106325000D02*
X112600000Y-106300000D01*
X114150000Y-106325000D02*
X112625000Y-106325000D01*
D20*
X81525000Y-109385000D02*
X79515000Y-109385000D01*
X77500000Y-111400000D02*
X77500000Y-111500000D01*
X79515000Y-109385000D02*
X77500000Y-111400000D01*
X77589999Y-120350001D02*
X77589999Y-112389999D01*
X76540000Y-121400000D02*
X77589999Y-120350001D01*
X77589999Y-112389999D02*
X77200000Y-112000000D01*
D19*
X92400000Y-112300000D02*
X94000000Y-110700000D01*
X94000000Y-110700000D02*
X97800000Y-110700000D01*
D20*
X85800000Y-119100000D02*
X85800000Y-115100000D01*
X85800000Y-115100000D02*
X86900000Y-114000000D01*
D24*
X121300000Y-100268630D02*
X118900000Y-97868630D01*
X118900000Y-97868630D02*
X118900000Y-96300000D01*
X121300000Y-101400000D02*
X121300000Y-100268630D01*
D21*
X85800000Y-119100000D02*
X89400000Y-119100000D01*
D25*
X97900000Y-113900000D02*
X97800000Y-114000000D01*
D21*
X97900000Y-110800000D02*
X97900000Y-113900000D01*
D24*
X71500000Y-124000000D02*
X70600000Y-123100000D01*
X70600000Y-123100000D02*
X70600000Y-121400000D01*
X75424924Y-124000000D02*
X71500000Y-124000000D01*
X76540000Y-121400000D02*
X76540000Y-122884924D01*
X76540000Y-122884924D02*
X75424924Y-124000000D01*
D21*
X102568630Y-115500000D02*
X100900000Y-115500000D01*
D25*
X103700000Y-115500000D02*
X102568630Y-115500000D01*
X119000000Y-96000000D02*
X118800000Y-96000000D01*
D21*
X87980000Y-87815076D02*
X88995076Y-86800000D01*
X116700000Y-93600000D02*
X119200000Y-96100000D01*
X103500000Y-93600000D02*
X116700000Y-93600000D01*
X96700000Y-86800000D02*
X103500000Y-93600000D01*
X88995076Y-86800000D02*
X96700000Y-86800000D01*
X87980000Y-89300000D02*
X87980000Y-87815076D01*
D22*
X114150000Y-106325000D02*
X115125000Y-106325000D01*
D20*
X115500000Y-108900000D02*
X114500000Y-108900000D01*
D23*
X115900000Y-108400000D02*
X115400000Y-108900000D01*
X115900000Y-107100000D02*
X115900000Y-108400000D01*
X115125000Y-106325000D02*
X115900000Y-107100000D01*
D21*
X103700000Y-115500000D02*
X103700000Y-113000000D01*
X103700000Y-113000000D02*
X108300000Y-108400000D01*
X119000000Y-96000000D02*
X122300000Y-96000000D01*
D22*
X119850000Y-106975000D02*
X121275000Y-106975000D01*
X121400000Y-107600000D02*
X120200000Y-107600000D01*
X121500000Y-107500000D02*
X121400000Y-107600000D01*
X121500000Y-107200000D02*
X121500000Y-107500000D01*
X121275000Y-106975000D02*
X121500000Y-107200000D01*
X119050000Y-107625000D02*
X118400000Y-108275000D01*
X119850000Y-107625000D02*
X119050000Y-107625000D01*
X118400000Y-108275000D02*
X118400000Y-108600000D01*
X118400000Y-108600000D02*
X118700000Y-108900000D01*
X118700000Y-108900000D02*
X119500000Y-108900000D01*
X118700000Y-108900000D02*
X118500000Y-108900000D01*
X118300000Y-109100000D02*
X118300000Y-109800000D01*
X118500000Y-108900000D02*
X118300000Y-109100000D01*
X118700000Y-110200000D02*
X119500000Y-110200000D01*
X118300000Y-109800000D02*
X118700000Y-110200000D01*
X119500000Y-110900000D02*
X118375000Y-110900000D01*
X118200000Y-110900000D02*
X118000000Y-110700000D01*
X118375000Y-110900000D02*
X118200000Y-110900000D01*
X118000000Y-110700000D02*
X118000000Y-110100000D01*
X118000000Y-110100000D02*
X118300000Y-109800000D01*
D25*
X119850000Y-110875000D02*
X119500000Y-110875000D01*
X119500000Y-110875000D02*
X119425000Y-110800000D01*
X126800000Y-113900000D02*
X126700000Y-114000000D01*
D21*
X126800000Y-110900000D02*
X126800000Y-113900000D01*
X133900000Y-118400000D02*
X134700000Y-117600000D01*
X130800000Y-118400000D02*
X133900000Y-118400000D01*
X128100000Y-115700000D02*
X130800000Y-118400000D01*
X134700000Y-117600000D02*
X134700000Y-115200000D01*
D24*
X121500000Y-107200000D02*
X121700000Y-107000000D01*
X121700000Y-107000000D02*
X122800000Y-107000000D01*
D22*
X114150000Y-114125000D02*
X115375000Y-114125000D01*
X117200000Y-112300000D02*
X117200000Y-110900000D01*
X117200000Y-110900000D02*
X118000000Y-110100000D01*
D23*
X115600000Y-113900000D02*
X115600000Y-110400000D01*
D22*
X115600000Y-113900000D02*
X117200000Y-112300000D01*
X115375000Y-114125000D02*
X115600000Y-113900000D01*
D23*
X115900000Y-110100000D02*
X115900000Y-108400000D01*
X115600000Y-110400000D02*
X115900000Y-110100000D01*
D25*
X122300000Y-96000000D02*
X122400000Y-96100000D01*
D20*
X73131370Y-115700000D02*
X74300000Y-116868630D01*
X72000000Y-115700000D02*
X73131370Y-115700000D01*
X74300000Y-116868630D02*
X74300000Y-121200000D01*
X74300000Y-121200000D02*
X74200000Y-121300000D01*
D22*
X114100000Y-119415076D02*
X113000000Y-118315076D01*
X113489998Y-110200000D02*
X113700000Y-110200000D01*
X113000000Y-118315076D02*
X113000000Y-110689998D01*
X113000000Y-110689998D02*
X113489998Y-110200000D01*
X114100000Y-120900000D02*
X114100000Y-119415076D01*
D26*
X114150000Y-109575000D02*
X113125000Y-109575000D01*
X116600000Y-122600000D02*
X116600000Y-120800000D01*
X116200000Y-123000000D02*
X116600000Y-122600000D01*
X113000000Y-123000000D02*
X116200000Y-123000000D01*
X111100000Y-121100000D02*
X113000000Y-123000000D01*
X111100000Y-114700000D02*
X111100000Y-121100000D01*
X112100000Y-113700000D02*
X111100000Y-114700000D01*
X112100000Y-110600000D02*
X112100000Y-113700000D01*
X113125000Y-109575000D02*
X112100000Y-110600000D01*
D22*
X119180000Y-119415076D02*
X118300000Y-118535076D01*
X118700000Y-112200000D02*
X119500000Y-112200000D01*
X118300000Y-112600000D02*
X118700000Y-112200000D01*
X118300000Y-118535076D02*
X118300000Y-112600000D01*
X119180000Y-120900000D02*
X119180000Y-119415076D01*
X120650000Y-111525000D02*
X121200000Y-112075000D01*
X121200000Y-112075000D02*
X121200000Y-120700000D01*
X119850000Y-111525000D02*
X120650000Y-111525000D01*
X121348002Y-109575000D02*
X122400000Y-110626998D01*
X124400000Y-118700000D02*
X124400000Y-120800000D01*
X122400000Y-116700000D02*
X124400000Y-118700000D01*
X122400000Y-110626998D02*
X122400000Y-116700000D01*
X119850000Y-109575000D02*
X121348002Y-109575000D01*
X119850000Y-108275000D02*
X121975000Y-108275000D01*
X126200000Y-118900000D02*
X126200000Y-120100000D01*
X123700000Y-116400000D02*
X126200000Y-118900000D01*
X123700000Y-110000000D02*
X123700000Y-116400000D01*
X121975000Y-108275000D02*
X123700000Y-110000000D01*
D23*
X119850000Y-105675000D02*
X126475000Y-105675000D01*
D25*
X126475000Y-105675000D02*
X126700000Y-105900000D01*
D24*
X130700000Y-115100000D02*
X129900000Y-114300000D01*
X128600000Y-105800000D02*
X126900000Y-105800000D01*
X129900000Y-107100000D02*
X128600000Y-105800000D01*
X129900000Y-114300000D02*
X129900000Y-107100000D01*
X132000000Y-115100000D02*
X130700000Y-115100000D01*
D22*
X119850000Y-106325000D02*
X118525000Y-106325000D01*
D24*
X115100000Y-97200000D02*
X116400000Y-95900000D01*
X115500000Y-101400000D02*
X115100000Y-101000000D01*
X116300000Y-101400000D02*
X115500000Y-101400000D01*
D21*
X117900000Y-102900000D02*
X116400000Y-101400000D01*
X117900000Y-104100000D02*
X117900000Y-102900000D01*
X118525000Y-106325000D02*
X118125000Y-106325000D01*
X117900000Y-106100000D02*
X117900000Y-104100000D01*
X118125000Y-106325000D02*
X117900000Y-106100000D01*
X90520000Y-89300000D02*
X94600000Y-89300000D01*
X102800000Y-97500000D02*
X114400000Y-97500000D01*
X114400000Y-97500000D02*
X115100000Y-98200000D01*
X94600000Y-89300000D02*
X102800000Y-97500000D01*
D24*
X115100000Y-101000000D02*
X115100000Y-98200000D01*
X115100000Y-98200000D02*
X115100000Y-97200000D01*
D22*
X114150000Y-106975000D02*
X113225000Y-106975000D01*
X113225000Y-106975000D02*
X112900000Y-107300000D01*
D25*
X112900000Y-107300000D02*
X112900000Y-107500000D01*
D22*
X113200000Y-107600000D02*
X113900000Y-107600000D01*
D21*
X112900000Y-107500000D02*
X111500000Y-107500000D01*
X111500000Y-107500000D02*
X110800000Y-108200000D01*
M02*
