G04 #@! TF.GenerationSoftware,KiCad,Pcbnew,(5.1.2)-1*
G04 #@! TF.CreationDate,2019-12-18T16:16:50-05:00*
G04 #@! TF.ProjectId,adcBoard,61646342-6f61-4726-942e-6b696361645f,rev?*
G04 #@! TF.SameCoordinates,Original*
G04 #@! TF.FileFunction,Paste,Top*
G04 #@! TF.FilePolarity,Positive*
%FSLAX46Y46*%
G04 Gerber Fmt 4.6, Leading zero omitted, Abs format (unit mm)*
G04 Created by KiCad (PCBNEW (5.1.2)-1) date 2019-12-18 16:16:50*
%MOMM*%
%LPD*%
G04 APERTURE LIST*
%ADD10R,1.100000X0.400000*%
%ADD11C,0.100000*%
%ADD12C,0.600000*%
G04 APERTURE END LIST*
D10*
X114150000Y-105675000D03*
X114150000Y-106325000D03*
X114150000Y-106975000D03*
X114150000Y-107625000D03*
X114150000Y-108275000D03*
X114150000Y-108925000D03*
X114150000Y-109575000D03*
X114150000Y-110225000D03*
X114150000Y-110875000D03*
X114150000Y-111525000D03*
X114150000Y-112175000D03*
X114150000Y-112825000D03*
X114150000Y-113475000D03*
X114150000Y-114125000D03*
X119850000Y-114125000D03*
X119850000Y-113475000D03*
X119850000Y-112825000D03*
X119850000Y-112175000D03*
X119850000Y-111525000D03*
X119850000Y-110875000D03*
X119850000Y-110225000D03*
X119850000Y-109575000D03*
X119850000Y-108925000D03*
X119850000Y-108275000D03*
X119850000Y-107625000D03*
X119850000Y-106975000D03*
X119850000Y-106325000D03*
X119850000Y-105675000D03*
D11*
G36*
X82364703Y-106545722D02*
G01*
X82379264Y-106547882D01*
X82393543Y-106551459D01*
X82407403Y-106556418D01*
X82420710Y-106562712D01*
X82433336Y-106570280D01*
X82445159Y-106579048D01*
X82456066Y-106588934D01*
X82465952Y-106599841D01*
X82474720Y-106611664D01*
X82482288Y-106624290D01*
X82488582Y-106637597D01*
X82493541Y-106651457D01*
X82497118Y-106665736D01*
X82499278Y-106680297D01*
X82500000Y-106695000D01*
X82500000Y-106995000D01*
X82499278Y-107009703D01*
X82497118Y-107024264D01*
X82493541Y-107038543D01*
X82488582Y-107052403D01*
X82482288Y-107065710D01*
X82474720Y-107078336D01*
X82465952Y-107090159D01*
X82456066Y-107101066D01*
X82445159Y-107110952D01*
X82433336Y-107119720D01*
X82420710Y-107127288D01*
X82407403Y-107133582D01*
X82393543Y-107138541D01*
X82379264Y-107142118D01*
X82364703Y-107144278D01*
X82350000Y-107145000D01*
X80700000Y-107145000D01*
X80685297Y-107144278D01*
X80670736Y-107142118D01*
X80656457Y-107138541D01*
X80642597Y-107133582D01*
X80629290Y-107127288D01*
X80616664Y-107119720D01*
X80604841Y-107110952D01*
X80593934Y-107101066D01*
X80584048Y-107090159D01*
X80575280Y-107078336D01*
X80567712Y-107065710D01*
X80561418Y-107052403D01*
X80556459Y-107038543D01*
X80552882Y-107024264D01*
X80550722Y-107009703D01*
X80550000Y-106995000D01*
X80550000Y-106695000D01*
X80550722Y-106680297D01*
X80552882Y-106665736D01*
X80556459Y-106651457D01*
X80561418Y-106637597D01*
X80567712Y-106624290D01*
X80575280Y-106611664D01*
X80584048Y-106599841D01*
X80593934Y-106588934D01*
X80604841Y-106579048D01*
X80616664Y-106570280D01*
X80629290Y-106562712D01*
X80642597Y-106556418D01*
X80656457Y-106551459D01*
X80670736Y-106547882D01*
X80685297Y-106545722D01*
X80700000Y-106545000D01*
X82350000Y-106545000D01*
X82364703Y-106545722D01*
X82364703Y-106545722D01*
G37*
D12*
X81525000Y-106845000D03*
D11*
G36*
X82364703Y-107815722D02*
G01*
X82379264Y-107817882D01*
X82393543Y-107821459D01*
X82407403Y-107826418D01*
X82420710Y-107832712D01*
X82433336Y-107840280D01*
X82445159Y-107849048D01*
X82456066Y-107858934D01*
X82465952Y-107869841D01*
X82474720Y-107881664D01*
X82482288Y-107894290D01*
X82488582Y-107907597D01*
X82493541Y-107921457D01*
X82497118Y-107935736D01*
X82499278Y-107950297D01*
X82500000Y-107965000D01*
X82500000Y-108265000D01*
X82499278Y-108279703D01*
X82497118Y-108294264D01*
X82493541Y-108308543D01*
X82488582Y-108322403D01*
X82482288Y-108335710D01*
X82474720Y-108348336D01*
X82465952Y-108360159D01*
X82456066Y-108371066D01*
X82445159Y-108380952D01*
X82433336Y-108389720D01*
X82420710Y-108397288D01*
X82407403Y-108403582D01*
X82393543Y-108408541D01*
X82379264Y-108412118D01*
X82364703Y-108414278D01*
X82350000Y-108415000D01*
X80700000Y-108415000D01*
X80685297Y-108414278D01*
X80670736Y-108412118D01*
X80656457Y-108408541D01*
X80642597Y-108403582D01*
X80629290Y-108397288D01*
X80616664Y-108389720D01*
X80604841Y-108380952D01*
X80593934Y-108371066D01*
X80584048Y-108360159D01*
X80575280Y-108348336D01*
X80567712Y-108335710D01*
X80561418Y-108322403D01*
X80556459Y-108308543D01*
X80552882Y-108294264D01*
X80550722Y-108279703D01*
X80550000Y-108265000D01*
X80550000Y-107965000D01*
X80550722Y-107950297D01*
X80552882Y-107935736D01*
X80556459Y-107921457D01*
X80561418Y-107907597D01*
X80567712Y-107894290D01*
X80575280Y-107881664D01*
X80584048Y-107869841D01*
X80593934Y-107858934D01*
X80604841Y-107849048D01*
X80616664Y-107840280D01*
X80629290Y-107832712D01*
X80642597Y-107826418D01*
X80656457Y-107821459D01*
X80670736Y-107817882D01*
X80685297Y-107815722D01*
X80700000Y-107815000D01*
X82350000Y-107815000D01*
X82364703Y-107815722D01*
X82364703Y-107815722D01*
G37*
D12*
X81525000Y-108115000D03*
D11*
G36*
X82364703Y-109085722D02*
G01*
X82379264Y-109087882D01*
X82393543Y-109091459D01*
X82407403Y-109096418D01*
X82420710Y-109102712D01*
X82433336Y-109110280D01*
X82445159Y-109119048D01*
X82456066Y-109128934D01*
X82465952Y-109139841D01*
X82474720Y-109151664D01*
X82482288Y-109164290D01*
X82488582Y-109177597D01*
X82493541Y-109191457D01*
X82497118Y-109205736D01*
X82499278Y-109220297D01*
X82500000Y-109235000D01*
X82500000Y-109535000D01*
X82499278Y-109549703D01*
X82497118Y-109564264D01*
X82493541Y-109578543D01*
X82488582Y-109592403D01*
X82482288Y-109605710D01*
X82474720Y-109618336D01*
X82465952Y-109630159D01*
X82456066Y-109641066D01*
X82445159Y-109650952D01*
X82433336Y-109659720D01*
X82420710Y-109667288D01*
X82407403Y-109673582D01*
X82393543Y-109678541D01*
X82379264Y-109682118D01*
X82364703Y-109684278D01*
X82350000Y-109685000D01*
X80700000Y-109685000D01*
X80685297Y-109684278D01*
X80670736Y-109682118D01*
X80656457Y-109678541D01*
X80642597Y-109673582D01*
X80629290Y-109667288D01*
X80616664Y-109659720D01*
X80604841Y-109650952D01*
X80593934Y-109641066D01*
X80584048Y-109630159D01*
X80575280Y-109618336D01*
X80567712Y-109605710D01*
X80561418Y-109592403D01*
X80556459Y-109578543D01*
X80552882Y-109564264D01*
X80550722Y-109549703D01*
X80550000Y-109535000D01*
X80550000Y-109235000D01*
X80550722Y-109220297D01*
X80552882Y-109205736D01*
X80556459Y-109191457D01*
X80561418Y-109177597D01*
X80567712Y-109164290D01*
X80575280Y-109151664D01*
X80584048Y-109139841D01*
X80593934Y-109128934D01*
X80604841Y-109119048D01*
X80616664Y-109110280D01*
X80629290Y-109102712D01*
X80642597Y-109096418D01*
X80656457Y-109091459D01*
X80670736Y-109087882D01*
X80685297Y-109085722D01*
X80700000Y-109085000D01*
X82350000Y-109085000D01*
X82364703Y-109085722D01*
X82364703Y-109085722D01*
G37*
D12*
X81525000Y-109385000D03*
D11*
G36*
X82364703Y-110355722D02*
G01*
X82379264Y-110357882D01*
X82393543Y-110361459D01*
X82407403Y-110366418D01*
X82420710Y-110372712D01*
X82433336Y-110380280D01*
X82445159Y-110389048D01*
X82456066Y-110398934D01*
X82465952Y-110409841D01*
X82474720Y-110421664D01*
X82482288Y-110434290D01*
X82488582Y-110447597D01*
X82493541Y-110461457D01*
X82497118Y-110475736D01*
X82499278Y-110490297D01*
X82500000Y-110505000D01*
X82500000Y-110805000D01*
X82499278Y-110819703D01*
X82497118Y-110834264D01*
X82493541Y-110848543D01*
X82488582Y-110862403D01*
X82482288Y-110875710D01*
X82474720Y-110888336D01*
X82465952Y-110900159D01*
X82456066Y-110911066D01*
X82445159Y-110920952D01*
X82433336Y-110929720D01*
X82420710Y-110937288D01*
X82407403Y-110943582D01*
X82393543Y-110948541D01*
X82379264Y-110952118D01*
X82364703Y-110954278D01*
X82350000Y-110955000D01*
X80700000Y-110955000D01*
X80685297Y-110954278D01*
X80670736Y-110952118D01*
X80656457Y-110948541D01*
X80642597Y-110943582D01*
X80629290Y-110937288D01*
X80616664Y-110929720D01*
X80604841Y-110920952D01*
X80593934Y-110911066D01*
X80584048Y-110900159D01*
X80575280Y-110888336D01*
X80567712Y-110875710D01*
X80561418Y-110862403D01*
X80556459Y-110848543D01*
X80552882Y-110834264D01*
X80550722Y-110819703D01*
X80550000Y-110805000D01*
X80550000Y-110505000D01*
X80550722Y-110490297D01*
X80552882Y-110475736D01*
X80556459Y-110461457D01*
X80561418Y-110447597D01*
X80567712Y-110434290D01*
X80575280Y-110421664D01*
X80584048Y-110409841D01*
X80593934Y-110398934D01*
X80604841Y-110389048D01*
X80616664Y-110380280D01*
X80629290Y-110372712D01*
X80642597Y-110366418D01*
X80656457Y-110361459D01*
X80670736Y-110357882D01*
X80685297Y-110355722D01*
X80700000Y-110355000D01*
X82350000Y-110355000D01*
X82364703Y-110355722D01*
X82364703Y-110355722D01*
G37*
D12*
X81525000Y-110655000D03*
D11*
G36*
X87314703Y-110355722D02*
G01*
X87329264Y-110357882D01*
X87343543Y-110361459D01*
X87357403Y-110366418D01*
X87370710Y-110372712D01*
X87383336Y-110380280D01*
X87395159Y-110389048D01*
X87406066Y-110398934D01*
X87415952Y-110409841D01*
X87424720Y-110421664D01*
X87432288Y-110434290D01*
X87438582Y-110447597D01*
X87443541Y-110461457D01*
X87447118Y-110475736D01*
X87449278Y-110490297D01*
X87450000Y-110505000D01*
X87450000Y-110805000D01*
X87449278Y-110819703D01*
X87447118Y-110834264D01*
X87443541Y-110848543D01*
X87438582Y-110862403D01*
X87432288Y-110875710D01*
X87424720Y-110888336D01*
X87415952Y-110900159D01*
X87406066Y-110911066D01*
X87395159Y-110920952D01*
X87383336Y-110929720D01*
X87370710Y-110937288D01*
X87357403Y-110943582D01*
X87343543Y-110948541D01*
X87329264Y-110952118D01*
X87314703Y-110954278D01*
X87300000Y-110955000D01*
X85650000Y-110955000D01*
X85635297Y-110954278D01*
X85620736Y-110952118D01*
X85606457Y-110948541D01*
X85592597Y-110943582D01*
X85579290Y-110937288D01*
X85566664Y-110929720D01*
X85554841Y-110920952D01*
X85543934Y-110911066D01*
X85534048Y-110900159D01*
X85525280Y-110888336D01*
X85517712Y-110875710D01*
X85511418Y-110862403D01*
X85506459Y-110848543D01*
X85502882Y-110834264D01*
X85500722Y-110819703D01*
X85500000Y-110805000D01*
X85500000Y-110505000D01*
X85500722Y-110490297D01*
X85502882Y-110475736D01*
X85506459Y-110461457D01*
X85511418Y-110447597D01*
X85517712Y-110434290D01*
X85525280Y-110421664D01*
X85534048Y-110409841D01*
X85543934Y-110398934D01*
X85554841Y-110389048D01*
X85566664Y-110380280D01*
X85579290Y-110372712D01*
X85592597Y-110366418D01*
X85606457Y-110361459D01*
X85620736Y-110357882D01*
X85635297Y-110355722D01*
X85650000Y-110355000D01*
X87300000Y-110355000D01*
X87314703Y-110355722D01*
X87314703Y-110355722D01*
G37*
D12*
X86475000Y-110655000D03*
D11*
G36*
X87314703Y-109085722D02*
G01*
X87329264Y-109087882D01*
X87343543Y-109091459D01*
X87357403Y-109096418D01*
X87370710Y-109102712D01*
X87383336Y-109110280D01*
X87395159Y-109119048D01*
X87406066Y-109128934D01*
X87415952Y-109139841D01*
X87424720Y-109151664D01*
X87432288Y-109164290D01*
X87438582Y-109177597D01*
X87443541Y-109191457D01*
X87447118Y-109205736D01*
X87449278Y-109220297D01*
X87450000Y-109235000D01*
X87450000Y-109535000D01*
X87449278Y-109549703D01*
X87447118Y-109564264D01*
X87443541Y-109578543D01*
X87438582Y-109592403D01*
X87432288Y-109605710D01*
X87424720Y-109618336D01*
X87415952Y-109630159D01*
X87406066Y-109641066D01*
X87395159Y-109650952D01*
X87383336Y-109659720D01*
X87370710Y-109667288D01*
X87357403Y-109673582D01*
X87343543Y-109678541D01*
X87329264Y-109682118D01*
X87314703Y-109684278D01*
X87300000Y-109685000D01*
X85650000Y-109685000D01*
X85635297Y-109684278D01*
X85620736Y-109682118D01*
X85606457Y-109678541D01*
X85592597Y-109673582D01*
X85579290Y-109667288D01*
X85566664Y-109659720D01*
X85554841Y-109650952D01*
X85543934Y-109641066D01*
X85534048Y-109630159D01*
X85525280Y-109618336D01*
X85517712Y-109605710D01*
X85511418Y-109592403D01*
X85506459Y-109578543D01*
X85502882Y-109564264D01*
X85500722Y-109549703D01*
X85500000Y-109535000D01*
X85500000Y-109235000D01*
X85500722Y-109220297D01*
X85502882Y-109205736D01*
X85506459Y-109191457D01*
X85511418Y-109177597D01*
X85517712Y-109164290D01*
X85525280Y-109151664D01*
X85534048Y-109139841D01*
X85543934Y-109128934D01*
X85554841Y-109119048D01*
X85566664Y-109110280D01*
X85579290Y-109102712D01*
X85592597Y-109096418D01*
X85606457Y-109091459D01*
X85620736Y-109087882D01*
X85635297Y-109085722D01*
X85650000Y-109085000D01*
X87300000Y-109085000D01*
X87314703Y-109085722D01*
X87314703Y-109085722D01*
G37*
D12*
X86475000Y-109385000D03*
D11*
G36*
X87314703Y-107815722D02*
G01*
X87329264Y-107817882D01*
X87343543Y-107821459D01*
X87357403Y-107826418D01*
X87370710Y-107832712D01*
X87383336Y-107840280D01*
X87395159Y-107849048D01*
X87406066Y-107858934D01*
X87415952Y-107869841D01*
X87424720Y-107881664D01*
X87432288Y-107894290D01*
X87438582Y-107907597D01*
X87443541Y-107921457D01*
X87447118Y-107935736D01*
X87449278Y-107950297D01*
X87450000Y-107965000D01*
X87450000Y-108265000D01*
X87449278Y-108279703D01*
X87447118Y-108294264D01*
X87443541Y-108308543D01*
X87438582Y-108322403D01*
X87432288Y-108335710D01*
X87424720Y-108348336D01*
X87415952Y-108360159D01*
X87406066Y-108371066D01*
X87395159Y-108380952D01*
X87383336Y-108389720D01*
X87370710Y-108397288D01*
X87357403Y-108403582D01*
X87343543Y-108408541D01*
X87329264Y-108412118D01*
X87314703Y-108414278D01*
X87300000Y-108415000D01*
X85650000Y-108415000D01*
X85635297Y-108414278D01*
X85620736Y-108412118D01*
X85606457Y-108408541D01*
X85592597Y-108403582D01*
X85579290Y-108397288D01*
X85566664Y-108389720D01*
X85554841Y-108380952D01*
X85543934Y-108371066D01*
X85534048Y-108360159D01*
X85525280Y-108348336D01*
X85517712Y-108335710D01*
X85511418Y-108322403D01*
X85506459Y-108308543D01*
X85502882Y-108294264D01*
X85500722Y-108279703D01*
X85500000Y-108265000D01*
X85500000Y-107965000D01*
X85500722Y-107950297D01*
X85502882Y-107935736D01*
X85506459Y-107921457D01*
X85511418Y-107907597D01*
X85517712Y-107894290D01*
X85525280Y-107881664D01*
X85534048Y-107869841D01*
X85543934Y-107858934D01*
X85554841Y-107849048D01*
X85566664Y-107840280D01*
X85579290Y-107832712D01*
X85592597Y-107826418D01*
X85606457Y-107821459D01*
X85620736Y-107817882D01*
X85635297Y-107815722D01*
X85650000Y-107815000D01*
X87300000Y-107815000D01*
X87314703Y-107815722D01*
X87314703Y-107815722D01*
G37*
D12*
X86475000Y-108115000D03*
D11*
G36*
X87314703Y-106545722D02*
G01*
X87329264Y-106547882D01*
X87343543Y-106551459D01*
X87357403Y-106556418D01*
X87370710Y-106562712D01*
X87383336Y-106570280D01*
X87395159Y-106579048D01*
X87406066Y-106588934D01*
X87415952Y-106599841D01*
X87424720Y-106611664D01*
X87432288Y-106624290D01*
X87438582Y-106637597D01*
X87443541Y-106651457D01*
X87447118Y-106665736D01*
X87449278Y-106680297D01*
X87450000Y-106695000D01*
X87450000Y-106995000D01*
X87449278Y-107009703D01*
X87447118Y-107024264D01*
X87443541Y-107038543D01*
X87438582Y-107052403D01*
X87432288Y-107065710D01*
X87424720Y-107078336D01*
X87415952Y-107090159D01*
X87406066Y-107101066D01*
X87395159Y-107110952D01*
X87383336Y-107119720D01*
X87370710Y-107127288D01*
X87357403Y-107133582D01*
X87343543Y-107138541D01*
X87329264Y-107142118D01*
X87314703Y-107144278D01*
X87300000Y-107145000D01*
X85650000Y-107145000D01*
X85635297Y-107144278D01*
X85620736Y-107142118D01*
X85606457Y-107138541D01*
X85592597Y-107133582D01*
X85579290Y-107127288D01*
X85566664Y-107119720D01*
X85554841Y-107110952D01*
X85543934Y-107101066D01*
X85534048Y-107090159D01*
X85525280Y-107078336D01*
X85517712Y-107065710D01*
X85511418Y-107052403D01*
X85506459Y-107038543D01*
X85502882Y-107024264D01*
X85500722Y-107009703D01*
X85500000Y-106995000D01*
X85500000Y-106695000D01*
X85500722Y-106680297D01*
X85502882Y-106665736D01*
X85506459Y-106651457D01*
X85511418Y-106637597D01*
X85517712Y-106624290D01*
X85525280Y-106611664D01*
X85534048Y-106599841D01*
X85543934Y-106588934D01*
X85554841Y-106579048D01*
X85566664Y-106570280D01*
X85579290Y-106562712D01*
X85592597Y-106556418D01*
X85606457Y-106551459D01*
X85620736Y-106547882D01*
X85635297Y-106545722D01*
X85650000Y-106545000D01*
X87300000Y-106545000D01*
X87314703Y-106545722D01*
X87314703Y-106545722D01*
G37*
D12*
X86475000Y-106845000D03*
M02*
