M48
INCH,TZ
T1C0.0157
T2C0.0276
T3C0.0315
T4C0.0433
T5C0.0728
%
G90
G05
T1
X39370Y-32087
X40354Y-24606
X42250Y-29750
X48622Y-25000
X49500Y-31102
X51000Y-38500
X52362Y-35039
X54500Y-23500
X55250Y-26500
X57750Y-34250
X63780Y-26575
X63780Y-29528
X64173Y-33071
X65551Y-35039
X68898Y-36614
X70276Y-32874
X70472Y-24803
X72244Y-22835
X74016Y-25394
X75984Y-38189
X76772Y-25787
T2
X40354Y-26575
X40354Y-28575
T3
X39370Y-30906
X41339Y-30906
X68701Y-35236
X72701Y-35236
X43898Y-23622
X45866Y-23622
X74803Y-36220
X74803Y-38189
X76772Y-27165
X76772Y-29134
X48500Y-29921
X48500Y-33921
X72835Y-29528
X72835Y-33528
X48622Y-26378
X48622Y-28346
X68307Y-31693
X70276Y-31693
X70472Y-36614
X72441Y-36614
X50394Y-33858
X52362Y-33858
X58268Y-24213
X58268Y-28213
X57874Y-30709
X57874Y-32677
X43110Y-32677
X45079Y-32677
X60433Y-35039
X64433Y-35039
X59843Y-23622
X59843Y-24622
X59843Y-25622
X59843Y-26622
X59843Y-27622
X59843Y-28622
X59843Y-29622
X59843Y-30622
X59843Y-31622
X59843Y-32622
X62843Y-23622
X62843Y-24622
X62843Y-25622
X62843Y-26622
X62843Y-27622
X62843Y-28622
X62843Y-29622
X62843Y-30622
X62843Y-31622
X62843Y-32622
X55315Y-27953
X55315Y-29921
X49937Y-26969
X53937Y-26969
X42850Y-25591
X46850Y-25591
X42750Y-40500
X46750Y-40500
X68110Y-26772
X68110Y-27772
X68110Y-28772
X68110Y-29772
X71110Y-26772
X71110Y-27772
X71110Y-28772
X71110Y-29772
X74409Y-26969
X74409Y-28937
X65157Y-31102
X65157Y-33071
X43110Y-27756
X43110Y-28756
X43110Y-29756
X43110Y-30756
X46110Y-27756
X46110Y-28756
X46110Y-29756
X46110Y-30756
X66732Y-26512
X66732Y-30512
X39000Y-36000
X43000Y-36000
X74409Y-31102
X74409Y-32102
X74409Y-33102
X74409Y-34102
X77409Y-31102
X77409Y-32102
X77409Y-33102
X77409Y-34102
X72835Y-25787
X72835Y-27756
X50394Y-29134
X50394Y-30134
X50394Y-31134
X50394Y-32134
X53394Y-29134
X53394Y-30134
X53394Y-31134
X53394Y-32134
X60370Y-36811
X64370Y-36811
X67126Y-24803
X69094Y-24803
T4
X45000Y-38000
X46000Y-38000
X41000Y-38500
X41000Y-39500
X41000Y-40500
X48500Y-38500
X49500Y-38500
X53500Y-36750
X54500Y-36750
X52000Y-23500
X53000Y-23500
T5
X66732Y-37402
X47000Y-32500
X76772Y-36220
X70866Y-22835
X55118Y-33071
T0
M30
